<?xml version="1.0" encoding="utf-8" standalone="no"?>
<!DOCTYPE svg PUBLIC "-//W3C//DTD SVG 1.1//EN"
  "http://www.w3.org/Graphics/SVG/1.1/DTD/svg11.dtd">
<svg xmlns:xlink="http://www.w3.org/1999/xlink" width="357.12pt" height="266.112pt" viewBox="0 0 357.12 266.112" xmlns="http://www.w3.org/2000/svg" version="1.1">
 <metadata>
  <rdf:RDF xmlns:dc="http://purl.org/dc/elements/1.1/" xmlns:cc="http://creativecommons.org/ns#" xmlns:rdf="http://www.w3.org/1999/02/22-rdf-syntax-ns#">
   <cc:Work>
    <dc:type rdf:resource="http://purl.org/dc/dcmitype/StillImage"/>
    <dc:date>2023-12-25T15:42:48.778419</dc:date>
    <dc:format>image/svg+xml</dc:format>
    <dc:creator>
     <cc:Agent>
      <dc:title>Matplotlib v3.7.2, https://matplotlib.org/</dc:title>
     </cc:Agent>
    </dc:creator>
   </cc:Work>
  </rdf:RDF>
 </metadata>
 <defs>
  <style type="text/css">*{stroke-linejoin: round; stroke-linecap: butt}</style>
 </defs>
 <g id="figure_1">
  <g id="patch_1">
   <path d="M 0 266.112 
L 357.12 266.112 
L 357.12 0 
L 0 0 
L 0 266.112 
z
" style="fill: none"/>
  </g>
  <g id="axes_1">
   <g id="patch_2">
    <path d="M 178.56 133.056 
L 302.263199 165.304172 
L 309.408155 127.574113 
L 296.632666 90.678621 
L 265.881684 60.234702 
L 221.836767 40.877165 
L 171.203355 35.55302 
L 121.689925 45.07282 
L 178.56 133.056 
L 296.632666 90.678621 
L 265.881684 60.234702 
L 221.836767 40.877165 
L 171.203355 35.55302 
L 121.689925 45.07282 
L 80.834448 67.987261 
L 54.856801 100.807828 
L 178.56 133.056 
L 221.836767 40.877165 
L 171.203355 35.55302 
L 121.689925 45.07282 
L 80.834448 67.987261 
L 54.856801 100.807828 
L 47.711845 138.537887 
L 60.487334 175.433379 
L 178.56 133.056 
L 121.689925 45.07282 
L 80.834448 67.987261 
L 54.856801 100.807828 
L 47.711845 138.537887 
L 60.487334 175.433379 
L 91.238316 205.877298 
L 135.283233 225.234835 
L 178.56 133.056 
L 54.856801 100.807828 
L 47.711845 138.537887 
L 60.487334 175.433379 
L 91.238316 205.877298 
L 135.283233 225.234835 
L 185.916645 230.55898 
L 235.430075 221.03918 
L 178.56 133.056 
L 60.487334 175.433379 
L 91.238316 205.877298 
L 135.283233 225.234835 
L 185.916645 230.55898 
L 235.430075 221.03918 
L 276.285552 198.124739 
L 302.263199 165.304172 
L 178.56 133.056 
L 135.283233 225.234835 
L 185.916645 230.55898 
L 235.430075 221.03918 
L 276.285552 198.124739 
L 302.263199 165.304172 
L 309.408155 127.574113 
L 296.632666 90.678621 
L 178.56 133.056 
L 235.430075 221.03918 
L 276.285552 198.124739 
L 302.263199 165.304172 
L 309.408155 127.574113 
L 296.632666 90.678621 
L 265.881684 60.234702 
z
" clip-path="url(#pc8ea2821dd)" style="fill: #cae11f; fill-opacity: 0.5; stroke: #000000; stroke-linejoin: miter"/>
   </g>
   <g id="patch_3">
    <path d="M 178.56 133.056 
L 84.489268 173.601289 
L 112.472328 197.340255 
L 150.516636 211.292526 
L 192.830292 213.333996 
L 232.971426 203.153868 
L 264.828914 182.301975 
L 283.552741 153.952829 
L 178.56 133.056 
L 150.516636 211.292526 
L 192.830292 213.333996 
L 232.971426 203.153868 
L 264.828914 182.301975 
L 283.552741 153.952829 
L 286.292375 122.422331 
L 272.630732 92.510711 
L 178.56 133.056 
L 232.971426 203.153868 
L 264.828914 182.301975 
L 283.552741 153.952829 
L 286.292375 122.422331 
L 272.630732 92.510711 
L 244.647672 68.771745 
L 206.603364 54.819474 
L 178.56 133.056 
L 283.552741 153.952829 
L 286.292375 122.422331 
L 272.630732 92.510711 
L 244.647672 68.771745 
L 206.603364 54.819474 
L 164.289708 52.778004 
L 124.148574 62.958132 
L 178.56 133.056 
L 272.630732 92.510711 
L 244.647672 68.771745 
L 206.603364 54.819474 
L 164.289708 52.778004 
L 124.148574 62.958132 
L 92.291086 83.810025 
L 73.567259 112.159171 
L 178.56 133.056 
L 206.603364 54.819474 
L 164.289708 52.778004 
L 124.148574 62.958132 
L 92.291086 83.810025 
L 73.567259 112.159171 
L 70.827625 143.689669 
L 84.489268 173.601289 
L 178.56 133.056 
L 124.148574 62.958132 
L 92.291086 83.810025 
L 73.567259 112.159171 
L 70.827625 143.689669 
L 84.489268 173.601289 
L 112.472328 197.340255 
L 150.516636 211.292526 
L 178.56 133.056 
L 73.567259 112.159171 
L 70.827625 143.689669 
L 84.489268 173.601289 
L 112.472328 197.340255 
L 150.516636 211.292526 
L 192.830292 213.333996 
z
" clip-path="url(#pc8ea2821dd)" style="fill: #cae11f; fill-opacity: 0.5; stroke: #000000; stroke-linejoin: miter"/>
   </g>
   <g id="patch_4">
    <path d="M 178.56 133.056 
L 49.518583 153.323547 
L 69.749834 188.578336 
L 106.546446 215.380352 
L 154.306469 229.649233 
L 205.758872 229.212669 
L 253.070494 214.137124 
L 289.038568 186.717713 
L 178.56 133.056 
L 106.546446 215.380352 
L 154.306469 229.649233 
L 205.758872 229.212669 
L 253.070494 214.137124 
L 289.038568 186.717713 
L 308.187282 151.128793 
L 307.601417 112.788453 
L 178.56 133.056 
L 205.758872 229.212669 
L 253.070494 214.137124 
L 289.038568 186.717713 
L 308.187282 151.128793 
L 307.601417 112.788453 
L 287.370166 77.533664 
L 250.573554 50.731648 
L 178.56 133.056 
L 289.038568 186.717713 
L 308.187282 151.128793 
L 307.601417 112.788453 
L 287.370166 77.533664 
L 250.573554 50.731648 
L 202.813531 36.462767 
L 151.361128 36.899331 
L 178.56 133.056 
L 307.601417 112.788453 
L 287.370166 77.533664 
L 250.573554 50.731648 
L 202.813531 36.462767 
L 151.361128 36.899331 
L 104.049506 51.974876 
L 68.081432 79.394287 
L 178.56 133.056 
L 250.573554 50.731648 
L 202.813531 36.462767 
L 151.361128 36.899331 
L 104.049506 51.974876 
L 68.081432 79.394287 
L 48.932718 114.983207 
L 49.518583 153.323547 
L 178.56 133.056 
L 151.361128 36.899331 
L 104.049506 51.974876 
L 68.081432 79.394287 
L 48.932718 114.983207 
L 49.518583 153.323547 
L 69.749834 188.578336 
L 106.546446 215.380352 
L 178.56 133.056 
L 68.081432 79.394287 
L 48.932718 114.983207 
L 49.518583 153.323547 
L 69.749834 188.578336 
L 106.546446 215.380352 
L 154.306469 229.649233 
z
" clip-path="url(#pc8ea2821dd)" style="fill: #cae11f; fill-opacity: 0.5; stroke: #000000; stroke-linejoin: miter"/>
   </g>
   <g id="patch_5">
    <path d="M 178.56 133.056 
L 252.965262 140.049342 
L 250.892984 118.299535 
L 237.808665 98.796267 
L 215.704274 84.508732 
L 187.945004 77.612079 
L 158.756952 79.15626 
L 132.583735 88.906188 
L 178.56 133.056 
L 237.808665 98.796267 
L 215.704274 84.508732 
L 187.945004 77.612079 
L 158.756952 79.15626 
L 132.583735 88.906188 
L 113.409987 105.377525 
L 104.154738 126.062658 
L 178.56 133.056 
L 187.945004 77.612079 
L 158.756952 79.15626 
L 132.583735 88.906188 
L 113.409987 105.377525 
L 104.154738 126.062658 
L 106.227016 147.812465 
L 119.311335 167.315733 
L 178.56 133.056 
L 132.583735 88.906188 
L 113.409987 105.377525 
L 104.154738 126.062658 
L 106.227016 147.812465 
L 119.311335 167.315733 
L 141.415726 181.603268 
L 169.174996 188.499921 
L 178.56 133.056 
L 104.154738 126.062658 
L 106.227016 147.812465 
L 119.311335 167.315733 
L 141.415726 181.603268 
L 169.174996 188.499921 
L 198.363048 186.95574 
L 224.536265 177.205812 
L 178.56 133.056 
L 119.311335 167.315733 
L 141.415726 181.603268 
L 169.174996 188.499921 
L 198.363048 186.95574 
L 224.536265 177.205812 
L 243.710013 160.734475 
L 252.965262 140.049342 
L 178.56 133.056 
L 169.174996 188.499921 
L 198.363048 186.95574 
L 224.536265 177.205812 
L 243.710013 160.734475 
L 252.965262 140.049342 
L 250.892984 118.299535 
L 237.808665 98.796267 
L 178.56 133.056 
L 224.536265 177.205812 
L 243.710013 160.734475 
L 252.965262 140.049342 
L 250.892984 118.299535 
L 237.808665 98.796267 
L 215.704274 84.508732 
z
" clip-path="url(#pc8ea2821dd)" style="fill: #cae11f; fill-opacity: 0.5; stroke: #000000; stroke-linejoin: miter"/>
   </g>
   <g id="patch_6">
    <path d="M 178.56 133.056 
L 178.042154 135.841814 
L 179.512249 135.777426 
L 180.837374 135.298726 
L 181.815788 134.478591 
L 182.298539 133.441879 
L 182.212131 132.346421 
L 181.569719 131.358989 
L 178.56 133.056 
L 180.837374 135.298726 
L 181.815788 134.478591 
L 182.298539 133.441879 
L 182.212131 132.346421 
L 181.569719 131.358989 
L 180.469104 130.629913 
L 179.077846 130.270186 
L 178.56 133.056 
L 182.298539 133.441879 
L 182.212131 132.346421 
L 181.569719 131.358989 
L 180.469104 130.629913 
L 179.077846 130.270186 
L 177.607751 130.334574 
L 176.282626 130.813274 
L 178.56 133.056 
L 181.569719 131.358989 
L 180.469104 130.629913 
L 179.077846 130.270186 
L 177.607751 130.334574 
L 176.282626 130.813274 
L 175.304212 131.633409 
L 174.821461 132.670121 
L 178.56 133.056 
L 179.077846 130.270186 
L 177.607751 130.334574 
L 176.282626 130.813274 
L 175.304212 131.633409 
L 174.821461 132.670121 
L 174.907869 133.765579 
L 175.550281 134.753011 
L 178.56 133.056 
L 176.282626 130.813274 
L 175.304212 131.633409 
L 174.821461 132.670121 
L 174.907869 133.765579 
L 175.550281 134.753011 
L 176.650896 135.482087 
L 178.042154 135.841814 
L 178.56 133.056 
L 174.821461 132.670121 
L 174.907869 133.765579 
L 175.550281 134.753011 
L 176.650896 135.482087 
L 178.042154 135.841814 
L 179.512249 135.777426 
L 180.837374 135.298726 
L 178.56 133.056 
L 175.550281 134.753011 
L 176.650896 135.482087 
L 178.042154 135.841814 
L 179.512249 135.777426 
L 180.837374 135.298726 
L 181.815788 134.478591 
z
" clip-path="url(#pc8ea2821dd)" style="fill: #cae11f; fill-opacity: 0.5; stroke: #000000; stroke-linejoin: miter"/>
   </g>
   <g id="patch_7">
    <path d="M 178.56 133.056 
L 214.743125 101.748592 
L 195.910684 93.813715 
L 174.436758 91.853119 
L 153.590558 96.165289 
L 136.545729 106.093736 
L 125.897193 120.126942 
L 123.266091 136.128481 
L 178.56 133.056 
L 174.436758 91.853119 
L 153.590558 96.165289 
L 136.545729 106.093736 
L 125.897193 120.126942 
L 123.266091 136.128481 
L 129.052986 151.662262 
L 142.376875 164.363408 
L 178.56 133.056 
L 136.545729 106.093736 
L 125.897193 120.126942 
L 123.266091 136.128481 
L 129.052986 151.662262 
L 142.376875 164.363408 
L 161.209316 172.298285 
L 182.683242 174.258881 
L 178.56 133.056 
L 123.266091 136.128481 
L 129.052986 151.662262 
L 142.376875 164.363408 
L 161.209316 172.298285 
L 182.683242 174.258881 
L 203.529442 169.946711 
L 220.574271 160.018264 
L 178.56 133.056 
L 142.376875 164.363408 
L 161.209316 172.298285 
L 182.683242 174.258881 
L 203.529442 169.946711 
L 220.574271 160.018264 
L 231.222807 145.985058 
L 233.853909 129.983519 
L 178.56 133.056 
L 182.683242 174.258881 
L 203.529442 169.946711 
L 220.574271 160.018264 
L 231.222807 145.985058 
L 233.853909 129.983519 
L 228.067014 114.449738 
L 214.743125 101.748592 
L 178.56 133.056 
L 220.574271 160.018264 
L 231.222807 145.985058 
L 233.853909 129.983519 
L 228.067014 114.449738 
L 214.743125 101.748592 
L 195.910684 93.813715 
L 174.436758 91.853119 
L 178.56 133.056 
L 233.853909 129.983519 
L 228.067014 114.449738 
L 214.743125 101.748592 
L 195.910684 93.813715 
L 174.436758 91.853119 
L 153.590558 96.165289 
z
" clip-path="url(#pc8ea2821dd)" style="fill: #cae11f; fill-opacity: 0.5; stroke: #000000; stroke-linejoin: miter"/>
   </g>
   <g id="patch_8">
    <path d="M 178.56 133.056 
L 207.802045 180.328503 
L 229.853292 168.391411 
L 244.0956 151.074823 
L 248.360707 131.015032 
L 241.99929 111.26596 
L 225.979816 94.834225 
L 202.741104 84.221408 
L 178.56 133.056 
L 244.0956 151.074823 
L 248.360707 131.015032 
L 241.99929 111.26596 
L 225.979816 94.834225 
L 202.741104 84.221408 
L 175.821039 81.043215 
L 149.317955 85.783497 
L 178.56 133.056 
L 241.99929 111.26596 
L 225.979816 94.834225 
L 202.741104 84.221408 
L 175.821039 81.043215 
L 149.317955 85.783497 
L 127.266708 97.720589 
L 113.0244 115.037177 
L 178.56 133.056 
L 202.741104 84.221408 
L 175.821039 81.043215 
L 149.317955 85.783497 
L 127.266708 97.720589 
L 113.0244 115.037177 
L 108.759293 135.096968 
L 115.12071 154.84604 
L 178.56 133.056 
L 149.317955 85.783497 
L 127.266708 97.720589 
L 113.0244 115.037177 
L 108.759293 135.096968 
L 115.12071 154.84604 
L 131.140184 171.277775 
L 154.378896 181.890592 
L 178.56 133.056 
L 113.0244 115.037177 
L 108.759293 135.096968 
L 115.12071 154.84604 
L 131.140184 171.277775 
L 154.378896 181.890592 
L 181.298961 185.068785 
L 207.802045 180.328503 
L 178.56 133.056 
L 115.12071 154.84604 
L 131.140184 171.277775 
L 154.378896 181.890592 
L 181.298961 185.068785 
L 207.802045 180.328503 
L 229.853292 168.391411 
L 244.0956 151.074823 
L 178.56 133.056 
L 154.378896 181.890592 
L 181.298961 185.068785 
L 207.802045 180.328503 
L 229.853292 168.391411 
L 244.0956 151.074823 
L 248.360707 131.015032 
z
" clip-path="url(#pc8ea2821dd)" style="fill: #cae11f; fill-opacity: 0.5; stroke: #000000; stroke-linejoin: miter"/>
   </g>
   <g id="patch_9">
    <path d="M 178.56 133.056 
L 329.976371 90.214175 
L 296.448731 50.29729 
L 244.9736 22.979667 
L 183.3876 12.420168 
L 121.066642 20.226382 
L 67.498527 45.209881 
L 30.838514 83.567156 
L 178.56 133.056 
L 244.9736 22.979667 
L 183.3876 12.420168 
L 121.066642 20.226382 
L 67.498527 45.209881 
L 30.838514 83.567156 
L 16.667759 129.458659 
L 27.143629 175.897825 
L 178.56 133.056 
L 121.066642 20.226382 
L 67.498527 45.209881 
L 30.838514 83.567156 
L 16.667759 129.458659 
L 27.143629 175.897825 
L 60.671269 215.81471 
L 112.1464 243.132333 
L 178.56 133.056 
L 30.838514 83.567156 
L 16.667759 129.458659 
L 27.143629 175.897825 
L 60.671269 215.81471 
L 112.1464 243.132333 
L 173.7324 253.691832 
L 236.053358 245.885618 
L 178.56 133.056 
L 27.143629 175.897825 
L 60.671269 215.81471 
L 112.1464 243.132333 
L 173.7324 253.691832 
L 236.053358 245.885618 
L 289.621473 220.902119 
L 326.281486 182.544844 
L 178.56 133.056 
L 112.1464 243.132333 
L 173.7324 253.691832 
L 236.053358 245.885618 
L 289.621473 220.902119 
L 326.281486 182.544844 
L 340.452241 136.653341 
L 329.976371 90.214175 
L 178.56 133.056 
L 236.053358 245.885618 
L 289.621473 220.902119 
L 326.281486 182.544844 
L 340.452241 136.653341 
L 329.976371 90.214175 
L 296.448731 50.29729 
L 244.9736 22.979667 
L 178.56 133.056 
L 326.281486 182.544844 
L 340.452241 136.653341 
L 329.976371 90.214175 
L 296.448731 50.29729 
L 244.9736 22.979667 
L 183.3876 12.420168 
z
" clip-path="url(#pc8ea2821dd)" style="fill: #cae11f; fill-opacity: 0.5; stroke: #000000; stroke-linejoin: miter"/>
   </g>
  </g>
 </g>
 <defs>
  <clipPath id="pc8ea2821dd">
   <rect x="0" y="-0" width="357.12" height="266.112"/>
  </clipPath>
 </defs>
</svg>
