<?xml version="1.0" encoding="utf-8" standalone="no"?>
<!DOCTYPE svg PUBLIC "-//W3C//DTD SVG 1.1//EN"
  "http://www.w3.org/Graphics/SVG/1.1/DTD/svg11.dtd">
<svg xmlns:xlink="http://www.w3.org/1999/xlink" width="357.12pt" height="266.112pt" viewBox="0 0 357.12 266.112" xmlns="http://www.w3.org/2000/svg" version="1.1">
 <metadata>
  <rdf:RDF xmlns:dc="http://purl.org/dc/elements/1.1/" xmlns:cc="http://creativecommons.org/ns#" xmlns:rdf="http://www.w3.org/1999/02/22-rdf-syntax-ns#">
   <cc:Work>
    <dc:type rdf:resource="http://purl.org/dc/dcmitype/StillImage"/>
    <dc:date>2023-12-25T15:42:48.892936</dc:date>
    <dc:format>image/svg+xml</dc:format>
    <dc:creator>
     <cc:Agent>
      <dc:title>Matplotlib v3.7.2, https://matplotlib.org/</dc:title>
     </cc:Agent>
    </dc:creator>
   </cc:Work>
  </rdf:RDF>
 </metadata>
 <defs>
  <style type="text/css">*{stroke-linejoin: round; stroke-linecap: butt}</style>
 </defs>
 <g id="figure_1">
  <g id="patch_1">
   <path d="M 0 266.112 
L 357.12 266.112 
L 357.12 0 
L 0 0 
L 0 266.112 
z
" style="fill: none"/>
  </g>
  <g id="axes_1">
   <g id="patch_2">
    <path d="M 178.56 133.056 
L 185.623804 127.704844 
L 182.337975 126.097856 
L 178.476985 125.550182 
L 174.628632 126.145201 
L 171.378795 127.792327 
L 169.222231 130.240799 
L 168.487258 133.11786 
L 178.56 133.056 
L 178.476985 125.550182 
L 174.628632 126.145201 
L 171.378795 127.792327 
L 169.222231 130.240799 
L 168.487258 133.11786 
L 169.285768 135.985503 
L 171.496196 138.407156 
L 178.56 133.056 
L 171.378795 127.792327 
L 169.222231 130.240799 
L 168.487258 133.11786 
L 169.285768 135.985503 
L 171.496196 138.407156 
L 174.782025 140.014144 
L 178.643015 140.561818 
L 178.56 133.056 
L 168.487258 133.11786 
L 169.285768 135.985503 
L 171.496196 138.407156 
L 174.782025 140.014144 
L 178.643015 140.561818 
L 182.491368 139.966799 
L 185.741205 138.319673 
L 178.56 133.056 
L 171.496196 138.407156 
L 174.782025 140.014144 
L 178.643015 140.561818 
L 182.491368 139.966799 
L 185.741205 138.319673 
L 187.897769 135.871201 
L 188.632742 132.99414 
L 178.56 133.056 
L 178.643015 140.561818 
L 182.491368 139.966799 
L 185.741205 138.319673 
L 187.897769 135.871201 
L 188.632742 132.99414 
L 187.834232 130.126497 
L 185.623804 127.704844 
L 178.56 133.056 
L 185.741205 138.319673 
L 187.897769 135.871201 
L 188.632742 132.99414 
L 187.834232 130.126497 
L 185.623804 127.704844 
L 182.337975 126.097856 
L 178.476985 125.550182 
L 178.56 133.056 
L 188.632742 132.99414 
L 187.834232 130.126497 
L 185.623804 127.704844 
L 182.337975 126.097856 
L 178.476985 125.550182 
L 174.628632 126.145201 
z
" clip-path="url(#p851fe2df37)" style="fill: #3e4989; fill-opacity: 0.5; stroke: #000000; stroke-linejoin: miter"/>
   </g>
   <g id="patch_3">
    <path d="M 178.56 133.056 
L 140.075439 49.885674 
L 100.292128 67.19093 
L 72.424391 94.523545 
L 60.714838 127.722377 
L 66.946143 161.733205 
L 90.169646 191.378189 
L 126.849779 212.144147 
L 178.56 133.056 
L 72.424391 94.523545 
L 60.714838 127.722377 
L 66.946143 161.733205 
L 90.169646 191.378189 
L 126.849779 212.144147 
L 171.402325 220.869653 
L 217.044561 216.226326 
L 178.56 133.056 
L 66.946143 161.733205 
L 90.169646 191.378189 
L 126.849779 212.144147 
L 171.402325 220.869653 
L 217.044561 216.226326 
L 256.827872 198.92107 
L 284.695609 171.588455 
L 178.56 133.056 
L 126.849779 212.144147 
L 171.402325 220.869653 
L 217.044561 216.226326 
L 256.827872 198.92107 
L 284.695609 171.588455 
L 296.405162 138.389623 
L 290.173857 104.378795 
L 178.56 133.056 
L 217.044561 216.226326 
L 256.827872 198.92107 
L 284.695609 171.588455 
L 296.405162 138.389623 
L 290.173857 104.378795 
L 266.950354 74.733811 
L 230.270221 53.967853 
L 178.56 133.056 
L 284.695609 171.588455 
L 296.405162 138.389623 
L 290.173857 104.378795 
L 266.950354 74.733811 
L 230.270221 53.967853 
L 185.717675 45.242347 
L 140.075439 49.885674 
L 178.56 133.056 
L 290.173857 104.378795 
L 266.950354 74.733811 
L 230.270221 53.967853 
L 185.717675 45.242347 
L 140.075439 49.885674 
L 100.292128 67.19093 
L 72.424391 94.523545 
L 178.56 133.056 
L 230.270221 53.967853 
L 185.717675 45.242347 
L 140.075439 49.885674 
L 100.292128 67.19093 
L 72.424391 94.523545 
L 60.714838 127.722377 
z
" clip-path="url(#p851fe2df37)" style="fill: #3e4989; fill-opacity: 0.5; stroke: #000000; stroke-linejoin: miter"/>
   </g>
   <g id="patch_4">
    <path d="M 178.56 133.056 
L 143.548478 156.550766 
L 158.279493 164.74625 
L 176.098031 168.117181 
L 194.291382 166.150364 
L 210.089773 159.145231 
L 221.088041 148.168249 
L 225.611801 134.890564 
L 178.56 133.056 
L 176.098031 168.117181 
L 194.291382 166.150364 
L 210.089773 159.145231 
L 221.088041 148.168249 
L 225.611801 134.890564 
L 222.97235 121.333583 
L 213.571522 109.561234 
L 178.56 133.056 
L 210.089773 159.145231 
L 221.088041 148.168249 
L 225.611801 134.890564 
L 222.97235 121.333583 
L 213.571522 109.561234 
L 198.840507 101.36575 
L 181.021969 97.994819 
L 178.56 133.056 
L 225.611801 134.890564 
L 222.97235 121.333583 
L 213.571522 109.561234 
L 198.840507 101.36575 
L 181.021969 97.994819 
L 162.828618 99.961636 
L 147.030227 106.966769 
L 178.56 133.056 
L 213.571522 109.561234 
L 198.840507 101.36575 
L 181.021969 97.994819 
L 162.828618 99.961636 
L 147.030227 106.966769 
L 136.031959 117.943751 
L 131.508199 131.221436 
L 178.56 133.056 
L 181.021969 97.994819 
L 162.828618 99.961636 
L 147.030227 106.966769 
L 136.031959 117.943751 
L 131.508199 131.221436 
L 134.14765 144.778417 
L 143.548478 156.550766 
L 178.56 133.056 
L 147.030227 106.966769 
L 136.031959 117.943751 
L 131.508199 131.221436 
L 134.14765 144.778417 
L 143.548478 156.550766 
L 158.279493 164.74625 
L 176.098031 168.117181 
L 178.56 133.056 
L 131.508199 131.221436 
L 134.14765 144.778417 
L 143.548478 156.550766 
L 158.279493 164.74625 
L 176.098031 168.117181 
L 194.291382 166.150364 
z
" clip-path="url(#p851fe2df37)" style="fill: #3e4989; fill-opacity: 0.5; stroke: #000000; stroke-linejoin: miter"/>
   </g>
   <g id="patch_5">
    <path d="M 178.56 133.056 
L 138.940448 214.782533 
L 183.927609 219.859417 
L 228.097601 211.721268 
L 264.725942 191.607045 
L 288.236299 162.578957 
L 295.049434 129.056265 
L 284.128109 96.142497 
L 178.56 133.056 
L 228.097601 211.721268 
L 264.725942 191.607045 
L 288.236299 162.578957 
L 295.049434 129.056265 
L 284.128109 96.142497 
L 257.134996 68.848476 
L 218.179552 51.329467 
L 178.56 133.056 
L 288.236299 162.578957 
L 295.049434 129.056265 
L 284.128109 96.142497 
L 257.134996 68.848476 
L 218.179552 51.329467 
L 173.192391 46.252583 
L 129.022399 54.390732 
L 178.56 133.056 
L 284.128109 96.142497 
L 257.134996 68.848476 
L 218.179552 51.329467 
L 173.192391 46.252583 
L 129.022399 54.390732 
L 92.394058 74.504955 
L 68.883701 103.533043 
L 178.56 133.056 
L 218.179552 51.329467 
L 173.192391 46.252583 
L 129.022399 54.390732 
L 92.394058 74.504955 
L 68.883701 103.533043 
L 62.070566 137.055735 
L 72.991891 169.969503 
L 178.56 133.056 
L 129.022399 54.390732 
L 92.394058 74.504955 
L 68.883701 103.533043 
L 62.070566 137.055735 
L 72.991891 169.969503 
L 99.985004 197.263524 
L 138.940448 214.782533 
L 178.56 133.056 
L 68.883701 103.533043 
L 62.070566 137.055735 
L 72.991891 169.969503 
L 99.985004 197.263524 
L 138.940448 214.782533 
L 183.927609 219.859417 
L 228.097601 211.721268 
L 178.56 133.056 
L 72.991891 169.969503 
L 99.985004 197.263524 
L 138.940448 214.782533 
L 183.927609 219.859417 
L 228.097601 211.721268 
L 264.725942 191.607045 
z
" clip-path="url(#p851fe2df37)" style="fill: #3e4989; fill-opacity: 0.5; stroke: #000000; stroke-linejoin: miter"/>
   </g>
   <g id="patch_6">
    <path d="M 178.56 133.056 
L 295.119848 113.326298 
L 276.114914 81.589824 
L 242.25813 57.688608 
L 198.703882 45.261394 
L 152.082911 46.200114 
L 109.492837 60.361854 
L 77.417612 85.59062 
L 178.56 133.056 
L 242.25813 57.688608 
L 198.703882 45.261394 
L 152.082911 46.200114 
L 109.492837 60.361854 
L 77.417612 85.59062 
L 60.740399 118.045559 
L 62.000152 152.785702 
L 178.56 133.056 
L 152.082911 46.200114 
L 109.492837 60.361854 
L 77.417612 85.59062 
L 60.740399 118.045559 
L 62.000152 152.785702 
L 81.005086 184.522176 
L 114.86187 208.423392 
L 178.56 133.056 
L 77.417612 85.59062 
L 60.740399 118.045559 
L 62.000152 152.785702 
L 81.005086 184.522176 
L 114.86187 208.423392 
L 158.416118 220.850606 
L 205.037089 219.911886 
L 178.56 133.056 
L 62.000152 152.785702 
L 81.005086 184.522176 
L 114.86187 208.423392 
L 158.416118 220.850606 
L 205.037089 219.911886 
L 247.627163 205.750146 
L 279.702388 180.52138 
L 178.56 133.056 
L 114.86187 208.423392 
L 158.416118 220.850606 
L 205.037089 219.911886 
L 247.627163 205.750146 
L 279.702388 180.52138 
L 296.379601 148.066441 
L 295.119848 113.326298 
L 178.56 133.056 
L 205.037089 219.911886 
L 247.627163 205.750146 
L 279.702388 180.52138 
L 296.379601 148.066441 
L 295.119848 113.326298 
L 276.114914 81.589824 
L 242.25813 57.688608 
L 178.56 133.056 
L 279.702388 180.52138 
L 296.379601 148.066441 
L 295.119848 113.326298 
L 276.114914 81.589824 
L 242.25813 57.688608 
L 198.703882 45.261394 
z
" clip-path="url(#p851fe2df37)" style="fill: #3e4989; fill-opacity: 0.5; stroke: #000000; stroke-linejoin: miter"/>
   </g>
   <g id="patch_7">
    <path d="M 178.56 133.056 
L 150.110424 171.226364 
L 171.878709 176.433524 
L 194.66416 175.036849 
L 214.997899 167.248971 
L 229.784298 154.255523 
L 236.772261 138.034639 
L 234.897936 121.055803 
L 178.56 133.056 
L 194.66416 175.036849 
L 214.997899 167.248971 
L 229.784298 154.255523 
L 236.772261 138.034639 
L 234.897936 121.055803 
L 224.446671 105.903888 
L 207.009576 94.885636 
L 178.56 133.056 
L 229.784298 154.255523 
L 236.772261 138.034639 
L 234.897936 121.055803 
L 224.446671 105.903888 
L 207.009576 94.885636 
L 185.241291 89.678476 
L 162.45584 91.075151 
L 178.56 133.056 
L 234.897936 121.055803 
L 224.446671 105.903888 
L 207.009576 94.885636 
L 185.241291 89.678476 
L 162.45584 91.075151 
L 142.122101 98.863029 
L 127.335702 111.856477 
L 178.56 133.056 
L 207.009576 94.885636 
L 185.241291 89.678476 
L 162.45584 91.075151 
L 142.122101 98.863029 
L 127.335702 111.856477 
L 120.347739 128.077361 
L 122.222064 145.056197 
L 178.56 133.056 
L 162.45584 91.075151 
L 142.122101 98.863029 
L 127.335702 111.856477 
L 120.347739 128.077361 
L 122.222064 145.056197 
L 132.673329 160.208112 
L 150.110424 171.226364 
L 178.56 133.056 
L 127.335702 111.856477 
L 120.347739 128.077361 
L 122.222064 145.056197 
L 132.673329 160.208112 
L 150.110424 171.226364 
L 171.878709 176.433524 
L 194.66416 175.036849 
L 178.56 133.056 
L 122.222064 145.056197 
L 132.673329 160.208112 
L 150.110424 171.226364 
L 171.878709 176.433524 
L 194.66416 175.036849 
L 214.997899 167.248971 
z
" clip-path="url(#p851fe2df37)" style="fill: #3e4989; fill-opacity: 0.5; stroke: #000000; stroke-linejoin: miter"/>
   </g>
   <g id="patch_8">
    <path d="M 178.56 133.056 
L 122.303623 169.493921 
L 145.298865 182.762367 
L 173.357814 188.46347 
L 202.208748 185.729287 
L 227.459374 174.976074 
L 245.265515 157.84091 
L 252.916345 136.932468 
L 178.56 133.056 
L 173.357814 188.46347 
L 202.208748 185.729287 
L 227.459374 174.976074 
L 245.265515 157.84091 
L 252.916345 136.932468 
L 249.247096 115.433869 
L 234.816377 96.618079 
L 178.56 133.056 
L 227.459374 174.976074 
L 245.265515 157.84091 
L 252.916345 136.932468 
L 249.247096 115.433869 
L 234.816377 96.618079 
L 211.821135 83.349633 
L 183.762186 77.64853 
L 178.56 133.056 
L 252.916345 136.932468 
L 249.247096 115.433869 
L 234.816377 96.618079 
L 211.821135 83.349633 
L 183.762186 77.64853 
L 154.911252 80.382713 
L 129.660626 91.135926 
L 178.56 133.056 
L 234.816377 96.618079 
L 211.821135 83.349633 
L 183.762186 77.64853 
L 154.911252 80.382713 
L 129.660626 91.135926 
L 111.854485 108.27109 
L 104.203655 129.179532 
L 178.56 133.056 
L 183.762186 77.64853 
L 154.911252 80.382713 
L 129.660626 91.135926 
L 111.854485 108.27109 
L 104.203655 129.179532 
L 107.872904 150.678131 
L 122.303623 169.493921 
L 178.56 133.056 
L 129.660626 91.135926 
L 111.854485 108.27109 
L 104.203655 129.179532 
L 107.872904 150.678131 
L 122.303623 169.493921 
L 145.298865 182.762367 
L 173.357814 188.46347 
L 178.56 133.056 
L 104.203655 129.179532 
L 107.872904 150.678131 
L 122.303623 169.493921 
L 145.298865 182.762367 
L 173.357814 188.46347 
L 202.208748 185.729287 
z
" clip-path="url(#p851fe2df37)" style="fill: #3e4989; fill-opacity: 0.5; stroke: #000000; stroke-linejoin: miter"/>
   </g>
   <g id="patch_9">
    <path d="M 178.56 133.056 
L 267.168103 145.342701 
L 266.733144 119.139867 
L 252.874624 95.055638 
L 227.702375 76.756619 
L 195.048646 67.028672 
L 159.884669 67.352786 
L 127.563843 77.679619 
L 178.56 133.056 
L 252.874624 95.055638 
L 227.702375 76.756619 
L 195.048646 67.028672 
L 159.884669 67.352786 
L 127.563843 77.679619 
L 103.006719 96.437004 
L 89.951897 120.769299 
L 178.56 133.056 
L 195.048646 67.028672 
L 159.884669 67.352786 
L 127.563843 77.679619 
L 103.006719 96.437004 
L 89.951897 120.769299 
L 90.386856 146.972133 
L 104.245376 171.056362 
L 178.56 133.056 
L 127.563843 77.679619 
L 103.006719 96.437004 
L 89.951897 120.769299 
L 90.386856 146.972133 
L 104.245376 171.056362 
L 129.417625 189.355381 
L 162.071354 199.083328 
L 178.56 133.056 
L 89.951897 120.769299 
L 90.386856 146.972133 
L 104.245376 171.056362 
L 129.417625 189.355381 
L 162.071354 199.083328 
L 197.235331 198.759214 
L 229.556157 188.432381 
L 178.56 133.056 
L 104.245376 171.056362 
L 129.417625 189.355381 
L 162.071354 199.083328 
L 197.235331 198.759214 
L 229.556157 188.432381 
L 254.113281 169.674996 
L 267.168103 145.342701 
L 178.56 133.056 
L 162.071354 199.083328 
L 197.235331 198.759214 
L 229.556157 188.432381 
L 254.113281 169.674996 
L 267.168103 145.342701 
L 266.733144 119.139867 
L 252.874624 95.055638 
L 178.56 133.056 
L 229.556157 188.432381 
L 254.113281 169.674996 
L 267.168103 145.342701 
L 266.733144 119.139867 
L 252.874624 95.055638 
L 227.702375 76.756619 
z
" clip-path="url(#p851fe2df37)" style="fill: #3e4989; fill-opacity: 0.5; stroke: #000000; stroke-linejoin: miter"/>
   </g>
  </g>
 </g>
 <defs>
  <clipPath id="p851fe2df37">
   <rect x="0" y="-0" width="357.12" height="266.112"/>
  </clipPath>
 </defs>
</svg>
