<?xml version="1.0" encoding="utf-8" standalone="no"?>
<!DOCTYPE svg PUBLIC "-//W3C//DTD SVG 1.1//EN"
  "http://www.w3.org/Graphics/SVG/1.1/DTD/svg11.dtd">
<svg xmlns:xlink="http://www.w3.org/1999/xlink" width="357.12pt" height="266.112pt" viewBox="0 0 357.12 266.112" xmlns="http://www.w3.org/2000/svg" version="1.1">
 <metadata>
  <rdf:RDF xmlns:dc="http://purl.org/dc/elements/1.1/" xmlns:cc="http://creativecommons.org/ns#" xmlns:rdf="http://www.w3.org/1999/02/22-rdf-syntax-ns#">
   <cc:Work>
    <dc:type rdf:resource="http://purl.org/dc/dcmitype/StillImage"/>
    <dc:date>2023-12-25T15:34:28.706235</dc:date>
    <dc:format>image/svg+xml</dc:format>
    <dc:creator>
     <cc:Agent>
      <dc:title>Matplotlib v3.7.2, https://matplotlib.org/</dc:title>
     </cc:Agent>
    </dc:creator>
   </cc:Work>
  </rdf:RDF>
 </metadata>
 <defs>
  <style type="text/css">*{stroke-linejoin: round; stroke-linecap: butt}</style>
 </defs>
 <g id="figure_1">
  <g id="patch_1">
   <path d="M 0 266.112 
L 357.12 266.112 
L 357.12 0 
L 0 0 
L 0 266.112 
z
" style="fill: none"/>
  </g>
  <g id="axes_1">
   <g id="patch_2">
    <path d="M 178.56 133.056 
L 190.414285 164.661467 
L 205.743167 158.875266 
L 216.933658 149.158315 
L 222.282108 136.989933 
L 220.974263 124.222646 
L 213.209231 112.800156 
L 200.169168 104.461435 
L 178.56 133.056 
L 216.933658 149.158315 
L 222.282108 136.989933 
L 220.974263 124.222646 
L 213.209231 112.800156 
L 200.169168 104.461435 
L 183.839305 100.475978 
L 166.705715 101.450533 
L 178.56 133.056 
L 220.974263 124.222646 
L 213.209231 112.800156 
L 200.169168 104.461435 
L 183.839305 100.475978 
L 166.705715 101.450533 
L 151.376833 107.236734 
L 140.186342 116.953685 
L 178.56 133.056 
L 200.169168 104.461435 
L 183.839305 100.475978 
L 166.705715 101.450533 
L 151.376833 107.236734 
L 140.186342 116.953685 
L 134.837892 129.122067 
L 136.145737 141.889354 
L 178.56 133.056 
L 166.705715 101.450533 
L 151.376833 107.236734 
L 140.186342 116.953685 
L 134.837892 129.122067 
L 136.145737 141.889354 
L 143.910769 153.311844 
L 156.950832 161.650565 
L 178.56 133.056 
L 140.186342 116.953685 
L 134.837892 129.122067 
L 136.145737 141.889354 
L 143.910769 153.311844 
L 156.950832 161.650565 
L 173.280695 165.636022 
L 190.414285 164.661467 
L 178.56 133.056 
L 136.145737 141.889354 
L 143.910769 153.311844 
L 156.950832 161.650565 
L 173.280695 165.636022 
L 190.414285 164.661467 
L 205.743167 158.875266 
L 216.933658 149.158315 
L 178.56 133.056 
L 156.950832 161.650565 
L 173.280695 165.636022 
L 190.414285 164.661467 
L 205.743167 158.875266 
L 216.933658 149.158315 
L 222.282108 136.989933 
z
" clip-path="url(#pb562b4d530)" style="fill: #25858e; fill-opacity: 0.5; stroke: #000000; stroke-linejoin: miter"/>
   </g>
   <g id="patch_3">
    <path d="M 178.56 133.056 
L 187.295719 97.122919 
L 168.177036 97.367076 
L 150.639065 103.044549 
L 137.351803 113.290993 
L 130.338116 126.54648 
L 130.665773 140.792983 
L 138.284892 153.8616 
L 178.56 133.056 
L 150.639065 103.044549 
L 137.351803 113.290993 
L 130.338116 126.54648 
L 130.665773 140.792983 
L 138.284892 153.8616 
L 152.035532 163.762753 
L 169.824281 168.989081 
L 178.56 133.056 
L 130.338116 126.54648 
L 130.665773 140.792983 
L 138.284892 153.8616 
L 152.035532 163.762753 
L 169.824281 168.989081 
L 188.942964 168.744924 
L 206.480935 163.067451 
L 178.56 133.056 
L 138.284892 153.8616 
L 152.035532 163.762753 
L 169.824281 168.989081 
L 188.942964 168.744924 
L 206.480935 163.067451 
L 219.768197 152.821007 
L 226.781884 139.56552 
L 178.56 133.056 
L 169.824281 168.989081 
L 188.942964 168.744924 
L 206.480935 163.067451 
L 219.768197 152.821007 
L 226.781884 139.56552 
L 226.454227 125.319017 
L 218.835108 112.2504 
L 178.56 133.056 
L 206.480935 163.067451 
L 219.768197 152.821007 
L 226.781884 139.56552 
L 226.454227 125.319017 
L 218.835108 112.2504 
L 205.084468 102.349247 
L 187.295719 97.122919 
L 178.56 133.056 
L 226.781884 139.56552 
L 226.454227 125.319017 
L 218.835108 112.2504 
L 205.084468 102.349247 
L 187.295719 97.122919 
L 168.177036 97.367076 
L 150.639065 103.044549 
L 178.56 133.056 
L 218.835108 112.2504 
L 205.084468 102.349247 
L 187.295719 97.122919 
L 168.177036 97.367076 
L 150.639065 103.044549 
L 137.351803 113.290993 
z
" clip-path="url(#pb562b4d530)" style="fill: #25858e; fill-opacity: 0.5; stroke: #000000; stroke-linejoin: miter"/>
   </g>
   <g id="patch_4">
    <path d="M 178.56 133.056 
L 179.461544 106.353091 
L 165.679429 108.128644 
L 153.858264 113.699161 
L 145.797715 122.216581 
L 142.724927 132.384204 
L 145.107703 142.654103 
L 152.583289 151.462777 
L 178.56 133.056 
L 153.858264 113.699161 
L 145.797715 122.216581 
L 142.724927 132.384204 
L 145.107703 142.654103 
L 152.583289 151.462777 
L 164.013593 157.469186 
L 177.658456 159.758909 
L 178.56 133.056 
L 142.724927 132.384204 
L 145.107703 142.654103 
L 152.583289 151.462777 
L 164.013593 157.469186 
L 177.658456 159.758909 
L 191.440571 157.983356 
L 203.261736 152.412839 
L 178.56 133.056 
L 152.583289 151.462777 
L 164.013593 157.469186 
L 177.658456 159.758909 
L 191.440571 157.983356 
L 203.261736 152.412839 
L 211.322285 143.895419 
L 214.395073 133.727796 
L 178.56 133.056 
L 177.658456 159.758909 
L 191.440571 157.983356 
L 203.261736 152.412839 
L 211.322285 143.895419 
L 214.395073 133.727796 
L 212.012297 123.457897 
L 204.536711 114.649223 
L 178.56 133.056 
L 203.261736 152.412839 
L 211.322285 143.895419 
L 214.395073 133.727796 
L 212.012297 123.457897 
L 204.536711 114.649223 
L 193.106407 108.642814 
L 179.461544 106.353091 
L 178.56 133.056 
L 214.395073 133.727796 
L 212.012297 123.457897 
L 204.536711 114.649223 
L 193.106407 108.642814 
L 179.461544 106.353091 
L 165.679429 108.128644 
L 153.858264 113.699161 
L 178.56 133.056 
L 204.536711 114.649223 
L 193.106407 108.642814 
L 179.461544 106.353091 
L 165.679429 108.128644 
L 153.858264 113.699161 
L 145.797715 122.216581 
z
" clip-path="url(#pb562b4d530)" style="fill: #25858e; fill-opacity: 0.5; stroke: #000000; stroke-linejoin: miter"/>
   </g>
   <g id="patch_5">
    <path d="M 178.56 133.056 
L 194.02833 112.603191 
L 182.347173 109.749105 
L 170.089453 110.443283 
L 159.121297 114.580043 
L 151.112507 121.529599 
L 147.282349 130.233945 
L 148.21393 139.367924 
L 178.56 133.056 
L 170.089453 110.443283 
L 159.121297 114.580043 
L 151.112507 121.529599 
L 147.282349 130.233945 
L 148.21393 139.367924 
L 153.765425 147.540969 
L 163.09167 153.508809 
L 178.56 133.056 
L 151.112507 121.529599 
L 147.282349 130.233945 
L 148.21393 139.367924 
L 153.765425 147.540969 
L 163.09167 153.508809 
L 174.772827 156.362895 
L 187.030547 155.668717 
L 178.56 133.056 
L 148.21393 139.367924 
L 153.765425 147.540969 
L 163.09167 153.508809 
L 174.772827 156.362895 
L 187.030547 155.668717 
L 197.998703 151.531957 
L 206.007493 144.582401 
L 178.56 133.056 
L 163.09167 153.508809 
L 174.772827 156.362895 
L 187.030547 155.668717 
L 197.998703 151.531957 
L 206.007493 144.582401 
L 209.837651 135.878055 
L 208.90607 126.744076 
L 178.56 133.056 
L 187.030547 155.668717 
L 197.998703 151.531957 
L 206.007493 144.582401 
L 209.837651 135.878055 
L 208.90607 126.744076 
L 203.354575 118.571031 
L 194.02833 112.603191 
L 178.56 133.056 
L 206.007493 144.582401 
L 209.837651 135.878055 
L 208.90607 126.744076 
L 203.354575 118.571031 
L 194.02833 112.603191 
L 182.347173 109.749105 
L 170.089453 110.443283 
L 178.56 133.056 
L 208.90607 126.744076 
L 203.354575 118.571031 
L 194.02833 112.603191 
L 182.347173 109.749105 
L 170.089453 110.443283 
L 159.121297 114.580043 
z
" clip-path="url(#pb562b4d530)" style="fill: #25858e; fill-opacity: 0.5; stroke: #000000; stroke-linejoin: miter"/>
   </g>
   <g id="patch_6">
    <path d="M 178.56 133.056 
L 135.257321 135.125548 
L 139.616374 147.316243 
L 149.904241 157.335946 
L 164.554688 163.659246 
L 181.337316 165.32348 
L 197.697123 162.075282 
L 211.143477 154.409162 
L 178.56 133.056 
L 149.904241 157.335946 
L 164.554688 163.659246 
L 181.337316 165.32348 
L 197.697123 162.075282 
L 211.143477 154.409162 
L 219.629291 143.492216 
L 221.862679 130.986452 
L 178.56 133.056 
L 181.337316 165.32348 
L 197.697123 162.075282 
L 211.143477 154.409162 
L 219.629291 143.492216 
L 221.862679 130.986452 
L 217.503626 118.795757 
L 207.215759 108.776054 
L 178.56 133.056 
L 211.143477 154.409162 
L 219.629291 143.492216 
L 221.862679 130.986452 
L 217.503626 118.795757 
L 207.215759 108.776054 
L 192.565312 102.452754 
L 175.782684 100.78852 
L 178.56 133.056 
L 221.862679 130.986452 
L 217.503626 118.795757 
L 207.215759 108.776054 
L 192.565312 102.452754 
L 175.782684 100.78852 
L 159.422877 104.036718 
L 145.976523 111.702838 
L 178.56 133.056 
L 207.215759 108.776054 
L 192.565312 102.452754 
L 175.782684 100.78852 
L 159.422877 104.036718 
L 145.976523 111.702838 
L 137.490709 122.619784 
L 135.257321 135.125548 
L 178.56 133.056 
L 175.782684 100.78852 
L 159.422877 104.036718 
L 145.976523 111.702838 
L 137.490709 122.619784 
L 135.257321 135.125548 
L 139.616374 147.316243 
L 149.904241 157.335946 
L 178.56 133.056 
L 145.976523 111.702838 
L 137.490709 122.619784 
L 135.257321 135.125548 
L 139.616374 147.316243 
L 149.904241 157.335946 
L 164.554688 163.659246 
z
" clip-path="url(#pb562b4d530)" style="fill: #25858e; fill-opacity: 0.5; stroke: #000000; stroke-linejoin: miter"/>
   </g>
   <g id="patch_7">
    <path d="M 178.56 133.056 
L 143.827578 101.714207 
L 130.375603 114.004287 
L 124.259265 129.194817 
L 126.409721 144.973178 
L 136.499585 158.937256 
L 152.992766 168.961148 
L 173.378326 173.518806 
L 178.56 133.056 
L 124.259265 129.194817 
L 126.409721 144.973178 
L 136.499585 158.937256 
L 152.992766 168.961148 
L 173.378326 173.518806 
L 194.552749 171.916369 
L 213.292422 164.397793 
L 178.56 133.056 
L 136.499585 158.937256 
L 152.992766 168.961148 
L 173.378326 173.518806 
L 194.552749 171.916369 
L 213.292422 164.397793 
L 226.744397 152.107713 
L 232.860735 136.917183 
L 178.56 133.056 
L 173.378326 173.518806 
L 194.552749 171.916369 
L 213.292422 164.397793 
L 226.744397 152.107713 
L 232.860735 136.917183 
L 230.710279 121.138822 
L 220.620415 107.174744 
L 178.56 133.056 
L 213.292422 164.397793 
L 226.744397 152.107713 
L 232.860735 136.917183 
L 230.710279 121.138822 
L 220.620415 107.174744 
L 204.127234 97.150852 
L 183.741674 92.593194 
L 178.56 133.056 
L 232.860735 136.917183 
L 230.710279 121.138822 
L 220.620415 107.174744 
L 204.127234 97.150852 
L 183.741674 92.593194 
L 162.567251 94.195631 
L 143.827578 101.714207 
L 178.56 133.056 
L 220.620415 107.174744 
L 204.127234 97.150852 
L 183.741674 92.593194 
L 162.567251 94.195631 
L 143.827578 101.714207 
L 130.375603 114.004287 
L 124.259265 129.194817 
L 178.56 133.056 
L 183.741674 92.593194 
L 162.567251 94.195631 
L 143.827578 101.714207 
L 130.375603 114.004287 
L 124.259265 129.194817 
L 126.409721 144.973178 
z
" clip-path="url(#pb562b4d530)" style="fill: #25858e; fill-opacity: 0.5; stroke: #000000; stroke-linejoin: miter"/>
   </g>
   <g id="patch_8">
    <path d="M 178.56 133.056 
L 221.998804 143.435474 
L 224.022682 130.258336 
L 219.125279 117.507117 
L 208.05218 107.123075 
L 192.489164 100.687085 
L 174.805559 99.178969 
L 157.693534 102.828324 
L 178.56 133.056 
L 219.125279 117.507117 
L 208.05218 107.123075 
L 192.489164 100.687085 
L 174.805559 99.178969 
L 157.693534 102.828324 
L 143.758239 111.079569 
L 135.121196 122.676526 
L 178.56 133.056 
L 192.489164 100.687085 
L 174.805559 99.178969 
L 157.693534 102.828324 
L 143.758239 111.079569 
L 135.121196 122.676526 
L 133.097318 135.853664 
L 137.994721 148.604883 
L 178.56 133.056 
L 157.693534 102.828324 
L 143.758239 111.079569 
L 135.121196 122.676526 
L 133.097318 135.853664 
L 137.994721 148.604883 
L 149.06782 158.988925 
L 164.630836 165.424915 
L 178.56 133.056 
L 135.121196 122.676526 
L 133.097318 135.853664 
L 137.994721 148.604883 
L 149.06782 158.988925 
L 164.630836 165.424915 
L 182.314441 166.933031 
L 199.426466 163.283676 
L 178.56 133.056 
L 137.994721 148.604883 
L 149.06782 158.988925 
L 164.630836 165.424915 
L 182.314441 166.933031 
L 199.426466 163.283676 
L 213.361761 155.032431 
L 221.998804 143.435474 
L 178.56 133.056 
L 164.630836 165.424915 
L 182.314441 166.933031 
L 199.426466 163.283676 
L 213.361761 155.032431 
L 221.998804 143.435474 
L 224.022682 130.258336 
L 219.125279 117.507117 
L 178.56 133.056 
L 199.426466 163.283676 
L 213.361761 155.032431 
L 221.998804 143.435474 
L 224.022682 130.258336 
L 219.125279 117.507117 
L 208.05218 107.123075 
z
" clip-path="url(#pb562b4d530)" style="fill: #25858e; fill-opacity: 0.5; stroke: #000000; stroke-linejoin: miter"/>
   </g>
   <g id="patch_9">
    <path d="M 178.56 133.056 
L 188.132368 105.292774 
L 173.145693 104.676459 
L 158.983296 108.380672 
L 147.801275 115.841479 
L 141.301991 125.923042 
L 140.474902 137.090532 
L 145.445923 147.643802 
L 178.56 133.056 
L 158.983296 108.380672 
L 147.801275 115.841479 
L 141.301991 125.923042 
L 140.474902 137.090532 
L 145.445923 147.643802 
L 155.458262 155.976211 
L 168.987632 160.819226 
L 178.56 133.056 
L 141.301991 125.923042 
L 140.474902 137.090532 
L 145.445923 147.643802 
L 155.458262 155.976211 
L 168.987632 160.819226 
L 183.974307 161.435541 
L 198.136704 157.731328 
L 178.56 133.056 
L 145.445923 147.643802 
L 155.458262 155.976211 
L 168.987632 160.819226 
L 183.974307 161.435541 
L 198.136704 157.731328 
L 209.318725 150.270521 
L 215.818009 140.188958 
L 178.56 133.056 
L 168.987632 160.819226 
L 183.974307 161.435541 
L 198.136704 157.731328 
L 209.318725 150.270521 
L 215.818009 140.188958 
L 216.645098 129.021468 
L 211.674077 118.468198 
L 178.56 133.056 
L 198.136704 157.731328 
L 209.318725 150.270521 
L 215.818009 140.188958 
L 216.645098 129.021468 
L 211.674077 118.468198 
L 201.661738 110.135789 
L 188.132368 105.292774 
L 178.56 133.056 
L 215.818009 140.188958 
L 216.645098 129.021468 
L 211.674077 118.468198 
L 201.661738 110.135789 
L 188.132368 105.292774 
L 173.145693 104.676459 
L 158.983296 108.380672 
L 178.56 133.056 
L 211.674077 118.468198 
L 201.661738 110.135789 
L 188.132368 105.292774 
L 173.145693 104.676459 
L 158.983296 108.380672 
L 147.801275 115.841479 
z
" clip-path="url(#pb562b4d530)" style="fill: #25858e; fill-opacity: 0.5; stroke: #000000; stroke-linejoin: miter"/>
   </g>
  </g>
 </g>
 <defs>
  <clipPath id="pb562b4d530">
   <rect x="0" y="-0" width="357.12" height="266.112"/>
  </clipPath>
 </defs>
</svg>
