<?xml version="1.0" encoding="utf-8" standalone="no"?>
<!DOCTYPE svg PUBLIC "-//W3C//DTD SVG 1.1//EN"
  "http://www.w3.org/Graphics/SVG/1.1/DTD/svg11.dtd">
<svg xmlns:xlink="http://www.w3.org/1999/xlink" width="432pt" height="432pt" viewBox="0 0 432 432" xmlns="http://www.w3.org/2000/svg" version="1.1">
 <metadata>
  <rdf:RDF xmlns:dc="http://purl.org/dc/elements/1.1/" xmlns:cc="http://creativecommons.org/ns#" xmlns:rdf="http://www.w3.org/1999/02/22-rdf-syntax-ns#">
   <cc:Work>
    <dc:type rdf:resource="http://purl.org/dc/dcmitype/StillImage"/>
    <dc:date>2023-12-26T01:32:03.971722</dc:date>
    <dc:format>image/svg+xml</dc:format>
    <dc:creator>
     <cc:Agent>
      <dc:title>Matplotlib v3.7.2, https://matplotlib.org/</dc:title>
     </cc:Agent>
    </dc:creator>
   </cc:Work>
  </rdf:RDF>
 </metadata>
 <defs>
  <style type="text/css">*{stroke-linejoin: round; stroke-linecap: butt}</style>
 </defs>
 <g id="figure_1">
  <g id="patch_1">
   <path d="M 0 432 
L 432 432 
L 432 0 
L 0 0 
z
" style="fill: #ffffff"/>
  </g>
  <g id="axes_1">
   <g id="patch_2">
    <path d="M 373.581818 218.16 
L 353.193321 142.56 
L 297.490909 87.216959 
L 221.4 66.96 
L 145.309091 87.216959 
L 89.606679 142.56 
L 69.218182 218.16 
L 89.606679 293.76 
L 145.309091 349.103041 
L 221.4 369.36 
L 297.490909 349.103041 
L 353.193321 293.76 
L 354.003916 218.16 
L 282.655022 192.951034 
L 315.165128 124.999808 
L 246.772661 157.300172 
L 221.4 86.411593 
L 196.027339 157.300172 
L 127.634872 124.999808 
L 160.144978 192.951034 
L 88.796084 218.16 
L 160.144978 243.368966 
L 127.634872 311.320192 
L 196.027339 279.019828 
L 221.4 349.908407 
L 246.772661 279.019828 
L 315.165128 311.320192 
L 282.655022 243.368966 
L 354.003916 218.16 
L 373.581818 218.16 
" clip-path="url(#p750babc8ee)" style="fill: #1f77b4; stroke: #000000; stroke-linejoin: miter"/>
   </g>
  </g>
 </g>
 <defs>
  <clipPath id="p750babc8ee">
   <rect x="54" y="51.84" width="334.8" height="332.64"/>
  </clipPath>
 </defs>
</svg>
