<?xml version="1.0" encoding="utf-8" standalone="no"?>
<!DOCTYPE svg PUBLIC "-//W3C//DTD SVG 1.1//EN"
  "http://www.w3.org/Graphics/SVG/1.1/DTD/svg11.dtd">
<svg xmlns:xlink="http://www.w3.org/1999/xlink" width="432pt" height="432pt" viewBox="0 0 432 432" xmlns="http://www.w3.org/2000/svg" version="1.1">
 <metadata>
  <rdf:RDF xmlns:dc="http://purl.org/dc/elements/1.1/" xmlns:cc="http://creativecommons.org/ns#" xmlns:rdf="http://www.w3.org/1999/02/22-rdf-syntax-ns#">
   <cc:Work>
    <dc:type rdf:resource="http://purl.org/dc/dcmitype/StillImage"/>
    <dc:date>2023-12-26T01:32:03.499130</dc:date>
    <dc:format>image/svg+xml</dc:format>
    <dc:creator>
     <cc:Agent>
      <dc:title>Matplotlib v3.7.2, https://matplotlib.org/</dc:title>
     </cc:Agent>
    </dc:creator>
   </cc:Work>
  </rdf:RDF>
 </metadata>
 <defs>
  <style type="text/css">*{stroke-linejoin: round; stroke-linecap: butt}</style>
 </defs>
 <g id="figure_1">
  <g id="patch_1">
   <path d="M 0 432 
L 432 432 
L 432 0 
L 0 0 
z
" style="fill: #ffffff"/>
  </g>
  <g id="axes_1">
   <g id="patch_2">
    <path d="M 373.581818 218.16 
L 344.517677 124.713261 
L 268.426768 66.96 
L 174.373232 66.96 
L 98.282323 124.713261 
L 69.218182 218.16 
L 98.282323 311.606739 
L 174.373232 369.36 
L 268.426768 369.36 
L 344.517677 311.606739 
L 353.352161 218.16 
L 285.128 200.321208 
L 335.673923 149.236201 
L 268.052134 169.423514 
L 287.37608 98.780478 
L 238.475866 151.584722 
L 221.4 80.312402 
L 204.324134 151.584722 
L 155.42392 98.780478 
L 174.747866 169.423514 
L 107.126077 149.236201 
L 157.672 200.321208 
L 89.447839 218.16 
L 157.672 235.998792 
L 107.126077 287.083799 
L 174.747866 266.896486 
L 155.42392 337.539522 
L 204.324134 284.735278 
L 221.4 356.007598 
L 238.475866 284.735278 
L 287.37608 337.539522 
L 268.052134 266.896486 
L 335.673923 287.083799 
L 285.128 235.998792 
L 353.352161 218.16 
L 373.581818 218.16 
" clip-path="url(#pc506d9bec1)" style="fill: #1f77b4; stroke: #000000; stroke-linejoin: miter"/>
   </g>
  </g>
 </g>
 <defs>
  <clipPath id="pc506d9bec1">
   <rect x="54" y="51.84" width="334.8" height="332.64"/>
  </clipPath>
 </defs>
</svg>
