<?xml version="1.0" encoding="utf-8" standalone="no"?>
<!DOCTYPE svg PUBLIC "-//W3C//DTD SVG 1.1//EN"
  "http://www.w3.org/Graphics/SVG/1.1/DTD/svg11.dtd">
<svg xmlns:xlink="http://www.w3.org/1999/xlink" width="432pt" height="432pt" viewBox="0 0 432 432" xmlns="http://www.w3.org/2000/svg" version="1.1">
 <metadata>
  <rdf:RDF xmlns:dc="http://purl.org/dc/elements/1.1/" xmlns:cc="http://creativecommons.org/ns#" xmlns:rdf="http://www.w3.org/1999/02/22-rdf-syntax-ns#">
   <cc:Work>
    <dc:type rdf:resource="http://purl.org/dc/dcmitype/StillImage"/>
    <dc:date>2023-12-26T01:32:03.384973</dc:date>
    <dc:format>image/svg+xml</dc:format>
    <dc:creator>
     <cc:Agent>
      <dc:title>Matplotlib v3.7.2, https://matplotlib.org/</dc:title>
     </cc:Agent>
    </dc:creator>
   </cc:Work>
  </rdf:RDF>
 </metadata>
 <defs>
  <style type="text/css">*{stroke-linejoin: round; stroke-linecap: butt}</style>
 </defs>
 <g id="figure_1">
  <g id="patch_1">
   <path d="M 0 432 
L 432 432 
L 432 0 
L 0 0 
z
" style="fill: #ffffff"/>
  </g>
  <g id="axes_1">
   <g id="patch_2">
    <path d="M 368.951646 218.16 
L 295.175823 91.200936 
L 147.624177 91.200936 
L 73.848354 218.16 
L 147.624177 345.119064 
L 295.175823 345.119064 
L 373.581818 218.16 
L 291.698834 189.229133 
L 329.008796 111.245455 
L 250.51873 148.314707 
L 221.4 66.96 
L 192.28127 148.314707 
L 113.791204 111.245455 
L 151.101166 189.229133 
L 69.218182 218.16 
L 151.101166 247.090867 
L 113.791204 325.074545 
L 192.28127 288.005293 
L 221.4 369.36 
L 250.51873 288.005293 
L 329.008796 325.074545 
L 291.698834 247.090867 
L 373.581818 218.16 
L 368.951646 218.16 
" clip-path="url(#pb215246157)" style="fill: #1f77b4; stroke: #000000; stroke-linejoin: miter"/>
   </g>
  </g>
 </g>
 <defs>
  <clipPath id="pb215246157">
   <rect x="54" y="51.84" width="334.8" height="332.64"/>
  </clipPath>
 </defs>
</svg>
