<?xml version="1.0" encoding="utf-8" standalone="no"?>
<!DOCTYPE svg PUBLIC "-//W3C//DTD SVG 1.1//EN"
  "http://www.w3.org/Graphics/SVG/1.1/DTD/svg11.dtd">
<svg xmlns:xlink="http://www.w3.org/1999/xlink" width="432pt" height="432pt" viewBox="0 0 432 432" xmlns="http://www.w3.org/2000/svg" version="1.1">
 <metadata>
  <rdf:RDF xmlns:dc="http://purl.org/dc/elements/1.1/" xmlns:cc="http://creativecommons.org/ns#" xmlns:rdf="http://www.w3.org/1999/02/22-rdf-syntax-ns#">
   <cc:Work>
    <dc:type rdf:resource="http://purl.org/dc/dcmitype/StillImage"/>
    <dc:date>2023-12-26T01:32:04.246363</dc:date>
    <dc:format>image/svg+xml</dc:format>
    <dc:creator>
     <cc:Agent>
      <dc:title>Matplotlib v3.7.2, https://matplotlib.org/</dc:title>
     </cc:Agent>
    </dc:creator>
   </cc:Work>
  </rdf:RDF>
 </metadata>
 <defs>
  <style type="text/css">*{stroke-linejoin: round; stroke-linecap: butt}</style>
 </defs>
 <g id="figure_1">
  <g id="patch_1">
   <path d="M 0 432 
L 432 432 
L 432 0 
L 0 0 
z
" style="fill: #ffffff"/>
  </g>
  <g id="axes_1">
   <g id="patch_2">
    <path d="M 373.581818 218.16 
L 344.517677 124.713261 
L 268.426768 66.96 
L 174.373232 66.96 
L 98.282323 124.713261 
L 69.218182 218.16 
L 98.282323 311.606739 
L 174.373232 369.36 
L 268.426768 369.36 
L 344.517677 311.606739 
L 344.418871 218.16 
L 278.227308 193.569685 
L 308.387478 127.286044 
L 244.938642 158.793727 
L 221.4 89.644819 
L 197.861358 158.793727 
L 134.412522 127.286044 
L 164.572692 193.569685 
L 98.381129 218.16 
L 164.572692 242.750315 
L 134.412522 309.033956 
L 197.861358 277.526273 
L 221.4 346.675181 
L 244.938642 277.526273 
L 308.387478 309.033956 
L 278.227308 242.750315 
L 344.418871 218.16 
L 373.581818 218.16 
" clip-path="url(#pdda505aa88)" style="fill: #1f77b4; stroke: #000000; stroke-linejoin: miter"/>
   </g>
  </g>
 </g>
 <defs>
  <clipPath id="pdda505aa88">
   <rect x="54" y="51.84" width="334.8" height="332.64"/>
  </clipPath>
 </defs>
</svg>
