<?xml version="1.0" encoding="utf-8" standalone="no"?>
<!DOCTYPE svg PUBLIC "-//W3C//DTD SVG 1.1//EN"
  "http://www.w3.org/Graphics/SVG/1.1/DTD/svg11.dtd">
<svg xmlns:xlink="http://www.w3.org/1999/xlink" width="432pt" height="432pt" viewBox="0 0 432 432" xmlns="http://www.w3.org/2000/svg" version="1.1">
 <metadata>
  <rdf:RDF xmlns:dc="http://purl.org/dc/elements/1.1/" xmlns:cc="http://creativecommons.org/ns#" xmlns:rdf="http://www.w3.org/1999/02/22-rdf-syntax-ns#">
   <cc:Work>
    <dc:type rdf:resource="http://purl.org/dc/dcmitype/StillImage"/>
    <dc:date>2023-12-26T01:32:03.786706</dc:date>
    <dc:format>image/svg+xml</dc:format>
    <dc:creator>
     <cc:Agent>
      <dc:title>Matplotlib v3.7.2, https://matplotlib.org/</dc:title>
     </cc:Agent>
    </dc:creator>
   </cc:Work>
  </rdf:RDF>
 </metadata>
 <defs>
  <style type="text/css">*{stroke-linejoin: round; stroke-linecap: butt}</style>
 </defs>
 <g id="figure_1">
  <g id="patch_1">
   <path d="M 0 432 
L 432 432 
L 432 0 
L 0 0 
z
" style="fill: #ffffff"/>
  </g>
  <g id="axes_1">
   <g id="patch_2">
    <path d="M 373.033106 218.16 
L 352.718122 142.832586 
L 297.216553 87.689091 
L 221.4 67.505172 
L 145.583447 87.689091 
L 90.081878 142.832586 
L 69.766894 218.16 
L 90.081878 293.487414 
L 145.583447 348.630909 
L 221.4 368.814828 
L 297.216553 348.630909 
L 352.718122 293.487414 
L 373.581818 218.16 
L 294.898174 198.59328 
L 353.193321 142.56 
L 275.204398 164.702727 
L 297.490909 87.216959 
L 241.093776 145.136008 
L 221.4 66.96 
L 201.706224 145.136008 
L 145.309091 87.216959 
L 167.595602 164.702727 
L 89.606679 142.56 
L 147.901826 198.59328 
L 69.218182 218.16 
L 147.901826 237.72672 
L 89.606679 293.76 
L 167.595602 271.617273 
L 145.309091 349.103041 
L 201.706224 291.183992 
L 221.4 369.36 
L 241.093776 291.183992 
L 297.490909 349.103041 
L 275.204398 271.617273 
L 353.193321 293.76 
L 294.898174 237.72672 
L 373.581818 218.16 
L 373.033106 218.16 
" clip-path="url(#p411af40c8b)" style="fill: #1f77b4; stroke: #000000; stroke-linejoin: miter"/>
   </g>
  </g>
 </g>
 <defs>
  <clipPath id="p411af40c8b">
   <rect x="54" y="51.84" width="334.8" height="332.64"/>
  </clipPath>
 </defs>
</svg>
