<?xml version="1.0" encoding="utf-8" standalone="no"?>
<!DOCTYPE svg PUBLIC "-//W3C//DTD SVG 1.1//EN"
  "http://www.w3.org/Graphics/SVG/1.1/DTD/svg11.dtd">
<svg xmlns:xlink="http://www.w3.org/1999/xlink" width="349.2pt" height="347.04pt" viewBox="0 0 349.2 347.04" xmlns="http://www.w3.org/2000/svg" version="1.1">
 <metadata>
  <rdf:RDF xmlns:dc="http://purl.org/dc/elements/1.1/" xmlns:cc="http://creativecommons.org/ns#" xmlns:rdf="http://www.w3.org/1999/02/22-rdf-syntax-ns#">
   <cc:Work>
    <dc:type rdf:resource="http://purl.org/dc/dcmitype/StillImage"/>
    <dc:date>2023-12-26T02:11:01.563016</dc:date>
    <dc:format>image/svg+xml</dc:format>
    <dc:creator>
     <cc:Agent>
      <dc:title>Matplotlib v3.7.2, https://matplotlib.org/</dc:title>
     </cc:Agent>
    </dc:creator>
   </cc:Work>
  </rdf:RDF>
 </metadata>
 <defs>
  <style type="text/css">*{stroke-linejoin: round; stroke-linecap: butt}</style>
 </defs>
 <g id="figure_1">
  <g id="patch_1">
   <path d="M 0 347.04 
L 349.2 347.04 
L 349.2 -0 
L 0 -0 
L 0 347.04 
z
" style="fill: none"/>
  </g>
  <g id="axes_1">
   <g id="patch_2">
    <path d="M 191.452672 173.52 
L 182.922594 172.210335 
L 190.627843 168.345836 
L 182.10792 169.719204 
L 188.234098 163.678156 
L 180.558319 167.600122 
L 184.505752 159.973864 
L 178.425476 166.060518 
L 179.807762 157.595562 
L 175.918169 165.2511 
L 174.6 156.776055 
L 173.281831 165.2511 
L 169.392238 157.595562 
L 170.774524 166.060518 
L 164.694248 159.973864 
L 168.641681 167.600122 
L 160.965902 163.678156 
L 167.09208 169.719204 
L 158.572157 168.345836 
L 166.277406 172.210335 
L 157.747328 173.52 
L 166.277406 174.829665 
L 158.572157 178.694164 
L 167.09208 177.320796 
L 160.965902 183.361844 
L 168.641681 179.439878 
L 164.694248 187.066136 
L 170.774524 180.979482 
L 169.392238 189.444438 
L 173.281831 181.7889 
L 174.6 190.263945 
L 175.918169 181.7889 
L 179.807762 189.444438 
L 178.425476 180.979482 
L 184.505752 187.066136 
L 180.558319 179.439878 
L 188.234098 183.361844 
L 182.10792 177.320796 
L 190.627843 178.694164 
L 182.922594 174.829665 
L 191.452672 173.52 
L 191.452672 173.52 
" clip-path="url(#p51a41bb28a)" style="fill: none; stroke: #00ffff; stroke-width: 0.9; stroke-linejoin: miter"/>
   </g>
  </g>
 </g>
 <defs>
  <clipPath id="p51a41bb28a">
   <rect x="7.2" y="7.2" width="334.8" height="332.64"/>
  </clipPath>
 </defs>
</svg>
