<?xml version="1.0" encoding="utf-8" standalone="no"?>
<!DOCTYPE svg PUBLIC "-//W3C//DTD SVG 1.1//EN"
  "http://www.w3.org/Graphics/SVG/1.1/DTD/svg11.dtd">
<svg xmlns:xlink="http://www.w3.org/1999/xlink" width="349.2pt" height="347.04pt" viewBox="0 0 349.2 347.04" xmlns="http://www.w3.org/2000/svg" version="1.1">
 <metadata>
  <rdf:RDF xmlns:dc="http://purl.org/dc/elements/1.1/" xmlns:cc="http://creativecommons.org/ns#" xmlns:rdf="http://www.w3.org/1999/02/22-rdf-syntax-ns#">
   <cc:Work>
    <dc:type rdf:resource="http://purl.org/dc/dcmitype/StillImage"/>
    <dc:date>2023-12-26T02:11:02.071432</dc:date>
    <dc:format>image/svg+xml</dc:format>
    <dc:creator>
     <cc:Agent>
      <dc:title>Matplotlib v3.7.2, https://matplotlib.org/</dc:title>
     </cc:Agent>
    </dc:creator>
   </cc:Work>
  </rdf:RDF>
 </metadata>
 <defs>
  <style type="text/css">*{stroke-linejoin: round; stroke-linecap: butt}</style>
 </defs>
 <g id="figure_1">
  <g id="patch_1">
   <path d="M 0 347.04 
L 349.2 347.04 
L 349.2 -0 
L 0 -0 
L 0 347.04 
z
" style="fill: none"/>
  </g>
  <g id="axes_1">
   <g id="patch_2">
    <path d="M 238.013063 173.52 
L 206.035278 169.408167 
L 235.852315 157.213379 
L 203.893015 161.464717 
L 229.517323 142.018027 
L 199.754483 154.342814 
L 219.439807 128.969482 
L 193.901713 148.527804 
L 206.306531 118.956982 
L 186.733564 144.415972 
L 191.012508 112.662861 
L 178.738533 142.287531 
L 174.6 110.516054 
L 170.461467 142.287531 
L 158.187492 112.662861 
L 162.466436 144.415972 
L 142.893469 118.956982 
L 155.298287 148.527804 
L 129.760193 128.969482 
L 149.445517 154.342814 
L 119.682677 142.018027 
L 145.306985 161.464717 
L 113.347685 157.213379 
L 143.164722 169.408167 
L 111.186937 173.52 
L 143.164722 177.631833 
L 113.347685 189.826621 
L 145.306985 185.575283 
L 119.682677 205.021973 
L 149.445517 192.697186 
L 129.760193 218.070518 
L 155.298287 198.512196 
L 142.893469 228.083018 
L 162.466436 202.624028 
L 158.187492 234.377139 
L 170.461467 204.752469 
L 174.6 236.523946 
L 178.738533 204.752469 
L 191.012508 234.377139 
L 186.733564 202.624028 
L 206.306531 228.083018 
L 193.901713 198.512196 
L 219.439807 218.070518 
L 199.754483 192.697186 
L 229.517323 205.021973 
L 203.893015 185.575283 
L 235.852315 189.826621 
L 206.035278 177.631833 
L 238.013063 173.52 
L 238.013063 173.52 
" clip-path="url(#p9f7d4b4abf)" style="fill: none; stroke: #00ffff; stroke-width: 0.3; stroke-linejoin: miter"/>
   </g>
  </g>
 </g>
 <defs>
  <clipPath id="p9f7d4b4abf">
   <rect x="7.2" y="7.2" width="334.8" height="332.64"/>
  </clipPath>
 </defs>
</svg>
