<?xml version="1.0" encoding="utf-8" standalone="no"?>
<!DOCTYPE svg PUBLIC "-//W3C//DTD SVG 1.1//EN"
  "http://www.w3.org/Graphics/SVG/1.1/DTD/svg11.dtd">
<svg xmlns:xlink="http://www.w3.org/1999/xlink" width="349.2pt" height="347.04pt" viewBox="0 0 349.2 347.04" xmlns="http://www.w3.org/2000/svg" version="1.1">
 <metadata>
  <rdf:RDF xmlns:dc="http://purl.org/dc/elements/1.1/" xmlns:cc="http://creativecommons.org/ns#" xmlns:rdf="http://www.w3.org/1999/02/22-rdf-syntax-ns#">
   <cc:Work>
    <dc:type rdf:resource="http://purl.org/dc/dcmitype/StillImage"/>
    <dc:date>2023-12-26T02:11:02.367062</dc:date>
    <dc:format>image/svg+xml</dc:format>
    <dc:creator>
     <cc:Agent>
      <dc:title>Matplotlib v3.7.2, https://matplotlib.org/</dc:title>
     </cc:Agent>
    </dc:creator>
   </cc:Work>
  </rdf:RDF>
 </metadata>
 <defs>
  <style type="text/css">*{stroke-linejoin: round; stroke-linecap: butt}</style>
 </defs>
 <g id="figure_1">
  <g id="patch_1">
   <path d="M 0 347.04 
L 349.2 347.04 
L 349.2 -0 
L 0 -0 
L 0 347.04 
z
" style="fill: none"/>
  </g>
  <g id="axes_1">
   <g id="patch_2">
    <path d="M 283.152269 173.52 
L 227.02672 159.562933 
L 268.609023 119.594034 
L 212.979023 135.388584 
L 228.876135 80.117487 
L 188.647697 121.431517 
L 174.6 65.668068 
L 160.552303 121.431517 
L 120.323865 80.117487 
L 136.220977 135.388584 
L 80.590977 119.594034 
L 122.17328 159.562933 
L 66.047731 173.52 
L 122.17328 187.477067 
L 80.590977 227.445966 
L 136.220977 211.651416 
L 120.323865 266.922513 
L 160.552303 225.608483 
L 174.6 281.371932 
L 188.647697 225.608483 
L 228.876135 266.922513 
L 212.979023 211.651416 
L 268.609023 227.445966 
L 227.02672 187.477067 
L 283.152269 173.52 
L 283.152269 173.52 
" clip-path="url(#p8b2ea26d15)" style="fill: none; stroke: #00ffff; stroke-width: 0.3; stroke-linejoin: miter"/>
   </g>
  </g>
 </g>
 <defs>
  <clipPath id="p8b2ea26d15">
   <rect x="7.2" y="7.2" width="334.8" height="332.64"/>
  </clipPath>
 </defs>
</svg>
