<?xml version="1.0" encoding="utf-8" standalone="no"?>
<!DOCTYPE svg PUBLIC "-//W3C//DTD SVG 1.1//EN"
  "http://www.w3.org/Graphics/SVG/1.1/DTD/svg11.dtd">
<svg xmlns:xlink="http://www.w3.org/1999/xlink" width="349.2pt" height="347.04pt" viewBox="0 0 349.2 347.04" xmlns="http://www.w3.org/2000/svg" version="1.1">
 <metadata>
  <rdf:RDF xmlns:dc="http://purl.org/dc/elements/1.1/" xmlns:cc="http://creativecommons.org/ns#" xmlns:rdf="http://www.w3.org/1999/02/22-rdf-syntax-ns#">
   <cc:Work>
    <dc:type rdf:resource="http://purl.org/dc/dcmitype/StillImage"/>
    <dc:date>2023-12-26T02:11:02.674656</dc:date>
    <dc:format>image/svg+xml</dc:format>
    <dc:creator>
     <cc:Agent>
      <dc:title>Matplotlib v3.7.2, https://matplotlib.org/</dc:title>
     </cc:Agent>
    </dc:creator>
   </cc:Work>
  </rdf:RDF>
 </metadata>
 <defs>
  <style type="text/css">*{stroke-linejoin: round; stroke-linecap: butt}</style>
 </defs>
 <g id="figure_1">
  <g id="patch_1">
   <path d="M 0 347.04 
L 349.2 347.04 
L 349.2 -0 
L 0 -0 
L 0 347.04 
z
" style="fill: none"/>
  </g>
  <g id="axes_1">
   <g id="patch_2">
    <path d="M 306.042948 173.52 
L 239.058654 160.781097 
L 296.037449 123.543484 
L 229.245408 137.242672 
L 267.5442 81.17544 
L 211.112895 119.227143 
L 224.901038 52.866018 
L 187.421624 109.477208 
L 174.6 42.925071 
L 161.778376 109.477208 
L 124.298962 52.866018 
L 138.087105 119.227143 
L 81.6558 81.17544 
L 119.954592 137.242672 
L 53.162551 123.543484 
L 110.141346 160.781097 
L 43.157052 173.52 
L 110.141346 186.258903 
L 53.162551 223.496516 
L 119.954592 209.797328 
L 81.6558 265.86456 
L 138.087105 227.812857 
L 124.298962 294.173982 
L 161.778376 237.562792 
L 174.6 304.114929 
L 187.421624 237.562792 
L 224.901038 294.173982 
L 211.112895 227.812857 
L 267.5442 265.86456 
L 229.245408 209.797328 
L 296.037449 223.496516 
L 239.058654 186.258903 
L 306.042948 173.52 
L 306.042948 173.52 
" clip-path="url(#p522a4448ad)" style="fill: none; stroke: #00ffff; stroke-width: 0.3; stroke-linejoin: miter"/>
   </g>
  </g>
 </g>
 <defs>
  <clipPath id="p522a4448ad">
   <rect x="7.2" y="7.2" width="334.8" height="332.64"/>
  </clipPath>
 </defs>
</svg>
