<?xml version="1.0" encoding="utf-8" standalone="no"?>
<!DOCTYPE svg PUBLIC "-//W3C//DTD SVG 1.1//EN"
  "http://www.w3.org/Graphics/SVG/1.1/DTD/svg11.dtd">
<svg xmlns:xlink="http://www.w3.org/1999/xlink" width="349.2pt" height="347.04pt" viewBox="0 0 349.2 347.04" xmlns="http://www.w3.org/2000/svg" version="1.1">
 <metadata>
  <rdf:RDF xmlns:dc="http://purl.org/dc/elements/1.1/" xmlns:cc="http://creativecommons.org/ns#" xmlns:rdf="http://www.w3.org/1999/02/22-rdf-syntax-ns#">
   <cc:Work>
    <dc:type rdf:resource="http://purl.org/dc/dcmitype/StillImage"/>
    <dc:date>2023-12-26T02:11:02.219793</dc:date>
    <dc:format>image/svg+xml</dc:format>
    <dc:creator>
     <cc:Agent>
      <dc:title>Matplotlib v3.7.2, https://matplotlib.org/</dc:title>
     </cc:Agent>
    </dc:creator>
   </cc:Work>
  </rdf:RDF>
 </metadata>
 <defs>
  <style type="text/css">*{stroke-linejoin: round; stroke-linecap: butt}</style>
 </defs>
 <g id="figure_1">
  <g id="patch_1">
   <path d="M 0 347.04 
L 349.2 347.04 
L 349.2 -0 
L 0 -0 
L 0 347.04 
z
" style="fill: none"/>
  </g>
  <g id="axes_1">
   <g id="patch_2">
    <path d="M 248.532434 173.52 
L 210.855921 166.354776 
L 242.904662 145.409816 
L 205.336286 153.115169 
L 226.878125 121.579153 
L 195.13733 142.982013 
L 202.892717 105.656013 
L 181.811751 137.497988 
L 174.6 100.06455 
L 167.388249 137.497988 
L 146.307283 105.656013 
L 154.06267 142.982013 
L 122.321875 121.579153 
L 143.863714 153.115169 
L 106.295338 145.409816 
L 138.344079 166.354776 
L 100.667566 173.52 
L 138.344079 180.685224 
L 106.295338 201.630184 
L 143.863714 193.924831 
L 122.321875 225.460847 
L 154.06267 204.057987 
L 146.307283 241.383987 
L 167.388249 209.542012 
L 174.6 246.97545 
L 181.811751 209.542012 
L 202.892717 241.383987 
L 195.13733 204.057987 
L 226.878125 225.460847 
L 205.336286 193.924831 
L 242.904662 201.630184 
L 210.855921 180.685224 
L 248.532434 173.52 
L 248.532434 173.52 
" clip-path="url(#pdfa13e77ca)" style="fill: none; stroke: #00ffff; stroke-width: 0.3; stroke-linejoin: miter"/>
   </g>
  </g>
 </g>
 <defs>
  <clipPath id="pdfa13e77ca">
   <rect x="7.2" y="7.2" width="334.8" height="332.64"/>
  </clipPath>
 </defs>
</svg>
