<?xml version="1.0" encoding="utf-8" standalone="no"?>
<!DOCTYPE svg PUBLIC "-//W3C//DTD SVG 1.1//EN"
  "http://www.w3.org/Graphics/SVG/1.1/DTD/svg11.dtd">
<svg xmlns:xlink="http://www.w3.org/1999/xlink" width="349.2pt" height="347.04pt" viewBox="0 0 349.2 347.04" xmlns="http://www.w3.org/2000/svg" version="1.1">
 <metadata>
  <rdf:RDF xmlns:dc="http://purl.org/dc/elements/1.1/" xmlns:cc="http://creativecommons.org/ns#" xmlns:rdf="http://www.w3.org/1999/02/22-rdf-syntax-ns#">
   <cc:Work>
    <dc:type rdf:resource="http://purl.org/dc/dcmitype/StillImage"/>
    <dc:date>2023-12-26T02:11:02.971120</dc:date>
    <dc:format>image/svg+xml</dc:format>
    <dc:creator>
     <cc:Agent>
      <dc:title>Matplotlib v3.7.2, https://matplotlib.org/</dc:title>
     </cc:Agent>
    </dc:creator>
   </cc:Work>
  </rdf:RDF>
 </metadata>
 <defs>
  <style type="text/css">*{stroke-linejoin: round; stroke-linecap: butt}</style>
 </defs>
 <g id="figure_1">
  <g id="patch_1">
   <path d="M 0 347.04 
L 349.2 347.04 
L 349.2 -0 
L 0 -0 
L 0 347.04 
z
" style="fill: none"/>
  </g>
  <g id="axes_1">
   <g id="patch_2">
    <path d="M 350.2 172.988065 
L 263.030003 159.604424 
L 344.900544 118.542993 
L 254.373858 133.135427 
L 319.466295 68.947518 
L 237.908892 110.619552 
L 279.851524 29.588326 
L 215.246811 94.260812 
L 229.934001 4.31817 
L 188.605937 85.660513 
L 175.127161 -1 
M 174.072839 -1 
L 160.594063 85.660513 
L 119.265999 4.31817 
L 133.953189 94.260812 
L 69.348476 29.588326 
L 111.291108 110.619552 
L 29.733705 68.947518 
L 94.826142 133.135427 
L 4.299456 118.542993 
L 86.169997 159.604424 
L -1 172.988065 
M -1 174.051935 
L 86.169997 187.435576 
L 4.299456 228.497007 
L 94.826142 213.904573 
L 29.733705 278.092482 
L 111.291108 236.420448 
L 69.348476 317.451674 
L 133.953189 252.779188 
L 119.265999 342.72183 
L 160.594063 261.379487 
L 174.072839 348.04 
M 175.127161 348.04 
L 188.605937 261.379487 
L 229.934001 342.72183 
L 215.246811 252.779188 
L 279.851524 317.451674 
L 237.908892 236.420448 
L 319.466295 278.092482 
L 254.373858 213.904573 
L 344.900544 228.497007 
L 263.030003 187.435576 
L 350.2 174.051935 
" clip-path="url(#p88d069a946)" style="fill: none; stroke: #00ffff; stroke-width: 0.3; stroke-linejoin: miter"/>
   </g>
  </g>
 </g>
 <defs>
  <clipPath id="p88d069a946">
   <rect x="7.2" y="7.2" width="334.8" height="332.64"/>
  </clipPath>
 </defs>
</svg>
