<?xml version="1.0" encoding="utf-8" standalone="no"?>
<!DOCTYPE svg PUBLIC "-//W3C//DTD SVG 1.1//EN"
  "http://www.w3.org/Graphics/SVG/1.1/DTD/svg11.dtd">
<svg xmlns:xlink="http://www.w3.org/1999/xlink" width="349.2pt" height="347.04pt" viewBox="0 0 349.2 347.04" xmlns="http://www.w3.org/2000/svg" version="1.1">
 <metadata>
  <rdf:RDF xmlns:dc="http://purl.org/dc/elements/1.1/" xmlns:cc="http://creativecommons.org/ns#" xmlns:rdf="http://www.w3.org/1999/02/22-rdf-syntax-ns#">
   <cc:Work>
    <dc:type rdf:resource="http://purl.org/dc/dcmitype/StillImage"/>
    <dc:date>2023-12-26T02:20:13.463411</dc:date>
    <dc:format>image/svg+xml</dc:format>
    <dc:creator>
     <cc:Agent>
      <dc:title>Matplotlib v3.7.2, https://matplotlib.org/</dc:title>
     </cc:Agent>
    </dc:creator>
   </cc:Work>
  </rdf:RDF>
 </metadata>
 <defs>
  <style type="text/css">*{stroke-linejoin: round; stroke-linecap: butt}</style>
 </defs>
 <g id="figure_1">
  <g id="patch_1">
   <path d="M 0 347.04 
L 349.2 347.04 
L 349.2 -0 
L 0 -0 
L 0 347.04 
z
" style="fill: none"/>
  </g>
  <g id="axes_1">
   <g id="patch_2">
    <path d="M 193.2 173.52 
L 187.752186 160.452667 
L 174.6 155.04 
L 161.447814 160.452667 
L 156 173.52 
L 161.447814 186.587333 
L 174.6 192 
L 187.752186 186.587333 
L 193.2 173.52 
" clip-path="url(#p05ba0c9726)" style="fill: none; stroke: #ff009d; stroke-width: 0.8; stroke-linejoin: miter"/>
   </g>
   <g id="patch_3">
    <path d="M 208.697778 173.52 
L 191.067962 169.135891 
L 204.129542 156.581104 
L 186.655385 161.542392 
L 191.648889 144.180971 
L 179.012577 157.158283 
L 174.6 139.642208 
L 170.187423 157.158283 
L 157.551111 144.180971 
L 162.544615 161.542392 
L 145.070458 156.581104 
L 158.132038 169.135891 
L 140.502222 173.52 
L 158.132038 177.904109 
L 145.070458 190.458896 
L 162.544615 185.497608 
L 157.551111 202.859029 
L 170.187423 189.881717 
L 174.6 207.397792 
L 179.012577 189.881717 
L 191.648889 202.859029 
L 186.655385 185.497608 
L 204.129542 190.458896 
L 191.067962 177.904109 
L 208.697778 173.52 
L 208.697778 173.52 
" clip-path="url(#p05ba0c9726)" style="fill: none; stroke: #ff009d; stroke-width: 0.3; stroke-linejoin: miter"/>
   </g>
   <g id="patch_4">
    <path d="M 239.7 173.52 
L 207.15 117.505477 
L 142.05 117.505477 
L 109.5 173.52 
L 142.05 229.534523 
L 207.15 229.534523 
L 239.7 173.52 
" clip-path="url(#p05ba0c9726)" style="fill: none; stroke: #ff009d; stroke-width: 0.3; stroke-linejoin: miter"/>
   </g>
   <g id="patch_5">
    <path d="M 274.482742 173.52 
L 224.114116 167.043399 
L 271.07932 147.835228 
L 220.73981 154.531566 
L 261.100992 123.900831 
L 214.221153 143.313764 
L 245.227764 103.347899 
L 205.00238 134.154467 
L 224.541371 87.577079 
L 193.711735 127.677866 
L 200.451556 77.663127 
L 181.118657 124.32533 
L 174.6 74.281663 
L 168.081343 124.32533 
L 148.748444 77.663127 
L 155.488265 127.677866 
L 124.658629 87.577079 
L 144.19762 134.154467 
L 103.972236 103.347899 
L 134.978847 143.313764 
L 88.099008 123.900831 
L 128.46019 154.531566 
L 78.12068 147.835228 
L 125.085884 167.043399 
L 74.717258 173.52 
L 125.085884 179.996601 
L 78.12068 199.204772 
L 128.46019 192.508434 
L 88.099008 223.139169 
L 134.978847 203.726236 
L 103.972236 243.692101 
L 144.19762 212.885533 
L 124.658629 259.462921 
L 155.488265 219.362134 
L 148.748444 269.376873 
L 168.081343 222.71467 
L 174.6 272.758337 
L 181.118657 222.71467 
L 200.451556 269.376873 
L 193.711735 219.362134 
L 224.541371 259.462921 
L 205.00238 212.885533 
L 245.227764 243.692101 
L 214.221153 203.726236 
L 261.100992 223.139169 
L 220.73981 192.508434 
L 271.07932 199.204772 
L 224.114116 179.996601 
L 274.482742 173.52 
L 274.482742 173.52 
" clip-path="url(#p05ba0c9726)" style="fill: none; stroke: #ff009d; stroke-width: 0.3; stroke-linejoin: miter"/>
   </g>
   <g id="patch_6">
    <path d="M 286.2 173.52 
L 271.248435 118.08 
L 230.4 77.495103 
L 174.6 62.64 
L 118.8 77.495103 
L 77.951565 118.08 
L 63 173.52 
L 77.951565 228.96 
L 118.8 269.544897 
L 174.6 284.4 
L 230.4 269.544897 
L 271.248435 228.96 
L 286.2 173.52 
" clip-path="url(#p05ba0c9726)" style="fill: none; stroke: #ff009d; stroke-width: 0.3; stroke-linejoin: miter"/>
   </g>
   <g id="patch_7">
    <path d="M 305.042724 173.52 
L 238.568152 160.878034 
L 295.113362 123.923784 
L 228.82958 137.518727 
L 266.836934 81.878143 
L 210.835047 119.640288 
L 224.518269 53.784143 
L 187.324056 109.964546 
L 174.6 43.918842 
L 161.875944 109.964546 
L 124.681731 53.784143 
L 138.364953 119.640288 
L 82.363066 81.878143 
L 120.37042 137.518727 
L 54.086638 123.923784 
L 110.631848 160.878034 
L 44.157276 173.52 
L 110.631848 186.161966 
L 54.086638 223.116216 
L 120.37042 209.521273 
L 82.363066 265.161857 
L 138.364953 227.399712 
L 124.681731 293.255857 
L 161.875944 237.075454 
L 174.6 303.121158 
L 187.324056 237.075454 
L 224.518269 293.255857 
L 210.835047 227.399712 
L 266.836934 265.161857 
L 228.82958 209.521273 
L 295.113362 223.116216 
L 238.568152 186.161966 
L 305.042724 173.52 
L 305.042724 173.52 
" clip-path="url(#p05ba0c9726)" style="fill: none; stroke: #ff009d; stroke-width: 0.3; stroke-linejoin: miter"/>
   </g>
   <g id="patch_8">
    <path d="M 332.7 173.52 
L 253.65 37.48473 
L 95.55 37.48473 
L 16.5 173.52 
L 95.55 309.55527 
L 253.65 309.55527 
L 332.7 173.52 
" clip-path="url(#p05ba0c9726)" style="fill: none; stroke: #ff009d; stroke-width: 0.3; stroke-linejoin: miter"/>
   </g>
  </g>
 </g>
 <defs>
  <clipPath id="p05ba0c9726">
   <rect x="7.2" y="7.2" width="334.8" height="332.64"/>
  </clipPath>
 </defs>
</svg>
