<?xml version="1.0" encoding="utf-8" standalone="no"?>
<!DOCTYPE svg PUBLIC "-//W3C//DTD SVG 1.1//EN"
  "http://www.w3.org/Graphics/SVG/1.1/DTD/svg11.dtd">
<svg xmlns:xlink="http://www.w3.org/1999/xlink" width="349.2pt" height="347.04pt" viewBox="0 0 349.2 347.04" xmlns="http://www.w3.org/2000/svg" version="1.1">
 <metadata>
  <rdf:RDF xmlns:dc="http://purl.org/dc/elements/1.1/" xmlns:cc="http://creativecommons.org/ns#" xmlns:rdf="http://www.w3.org/1999/02/22-rdf-syntax-ns#">
   <cc:Work>
    <dc:type rdf:resource="http://purl.org/dc/dcmitype/StillImage"/>
    <dc:date>2023-12-26T02:20:13.544837</dc:date>
    <dc:format>image/svg+xml</dc:format>
    <dc:creator>
     <cc:Agent>
      <dc:title>Matplotlib v3.7.2, https://matplotlib.org/</dc:title>
     </cc:Agent>
    </dc:creator>
   </cc:Work>
  </rdf:RDF>
 </metadata>
 <defs>
  <style type="text/css">*{stroke-linejoin: round; stroke-linecap: butt}</style>
 </defs>
 <g id="figure_1">
  <g id="patch_1">
   <path d="M 0 347.04 
L 349.2 347.04 
L 349.2 -0 
L 0 -0 
L 0 347.04 
z
" style="fill: none"/>
  </g>
  <g id="axes_1">
   <g id="patch_2">
    <path d="M 202.5 173.52 
L 188.55 149.513776 
L 160.65 149.513776 
L 146.7 173.52 
L 160.65 197.526224 
L 188.55 197.526224 
L 202.5 173.52 
" clip-path="url(#p3ba5bae819)" style="fill: none; stroke: #3600ff; stroke-width: 0.6; stroke-linejoin: miter"/>
   </g>
   <g id="patch_3">
    <path d="M 228.243954 173.52 
L 200.50804 166.622749 
L 221.057027 146.871068 
L 193.566002 154.676359 
L 201.421977 127.362696 
L 181.542039 147.779108 
L 174.6 120.222136 
L 167.657961 147.779108 
L 147.778023 127.362696 
L 155.633998 154.676359 
L 128.142973 146.871068 
L 148.69196 166.622749 
L 120.956046 173.52 
L 148.69196 180.417251 
L 128.142973 200.168932 
L 155.633998 192.363641 
L 147.778023 219.677304 
L 167.657961 199.260892 
L 174.6 226.817864 
L 181.542039 199.260892 
L 201.421977 219.677304 
L 193.566002 192.363641 
L 221.057027 200.168932 
L 200.50804 180.417251 
L 228.243954 173.52 
L 228.243954 173.52 
" clip-path="url(#p3ba5bae819)" style="fill: none; stroke: #3600ff; stroke-width: 0.3; stroke-linejoin: miter"/>
   </g>
   <g id="patch_4">
    <path d="M 249 173.52 
L 211.8 109.503402 
L 137.4 109.503402 
L 100.2 173.52 
L 137.4 237.536598 
L 211.8 237.536598 
L 249 173.52 
" clip-path="url(#p3ba5bae819)" style="fill: none; stroke: #3600ff; stroke-width: 0.3; stroke-linejoin: miter"/>
   </g>
   <g id="patch_5">
    <path d="M 286.061346 173.52 
L 228.431696 159.1889 
L 271.128357 118.14888 
L 214.007537 134.366705 
L 230.330673 77.614406 
L 189.02416 120.035605 
L 174.6 62.777759 
L 160.17584 120.035605 
L 118.869327 77.614406 
L 135.192463 134.366705 
L 78.071643 118.14888 
L 120.768304 159.1889 
L 63.138654 173.52 
L 120.768304 187.8511 
L 78.071643 228.89112 
L 135.192463 212.673295 
L 118.869327 269.425594 
L 160.17584 227.004395 
L 174.6 284.262241 
L 189.02416 227.004395 
L 230.330673 269.425594 
L 214.007537 212.673295 
L 271.128357 228.89112 
L 228.431696 187.8511 
L 286.061346 173.52 
L 286.061346 173.52 
" clip-path="url(#p3ba5bae819)" style="fill: none; stroke: #3600ff; stroke-width: 0.3; stroke-linejoin: miter"/>
   </g>
   <g id="patch_6">
    <path d="M 295.5 173.52 
L 279.302471 113.46 
L 235.05 69.493028 
L 174.6 53.4 
L 114.15 69.493028 
L 69.897529 113.46 
L 53.7 173.52 
L 69.897529 233.58 
L 114.15 277.546972 
L 174.6 293.64 
L 235.05 277.546972 
L 279.302471 233.58 
L 295.5 173.52 
" clip-path="url(#p3ba5bae819)" style="fill: none; stroke: #3600ff; stroke-width: 0.3; stroke-linejoin: miter"/>
   </g>
   <g id="patch_7">
    <path d="M 318.508055 173.52 
L 244.102254 155.017076 
L 299.228032 102.030192 
L 225.479181 122.969072 
L 246.554028 49.69602 
L 193.223073 104.466148 
L 174.6 30.540384 
L 155.976927 104.466148 
L 102.645972 49.69602 
L 123.720819 122.969072 
L 49.971968 102.030192 
L 105.097746 155.017076 
L 30.691945 173.52 
L 105.097746 192.022924 
L 49.971968 245.009808 
L 123.720819 224.070928 
L 102.645972 297.34398 
L 155.976927 242.573852 
L 174.6 316.499616 
L 193.223073 242.573852 
L 246.554028 297.34398 
L 225.479181 224.070928 
L 299.228032 245.009808 
L 244.102254 192.022924 
L 318.508055 173.52 
L 318.508055 173.52 
" clip-path="url(#p3ba5bae819)" style="fill: none; stroke: #3600ff; stroke-width: 0.3; stroke-linejoin: miter"/>
   </g>
   <g id="patch_8">
    <path d="M 342 173.52 
L 292.969675 55.914 
L 174.6 7.2 
L 56.230325 55.914 
L 7.2 173.52 
L 56.230325 291.126 
L 174.6 339.84 
L 292.969675 291.126 
L 342 173.52 
" clip-path="url(#p3ba5bae819)" style="fill: none; stroke: #3600ff; stroke-width: 0.3; stroke-linejoin: miter"/>
   </g>
  </g>
 </g>
 <defs>
  <clipPath id="p3ba5bae819">
   <rect x="7.2" y="7.2" width="334.8" height="332.64"/>
  </clipPath>
 </defs>
</svg>
