<?xml version="1.0" encoding="utf-8" standalone="no"?>
<!DOCTYPE svg PUBLIC "-//W3C//DTD SVG 1.1//EN"
  "http://www.w3.org/Graphics/SVG/1.1/DTD/svg11.dtd">
<svg xmlns:xlink="http://www.w3.org/1999/xlink" width="349.2pt" height="347.04pt" viewBox="0 0 349.2 347.04" xmlns="http://www.w3.org/2000/svg" version="1.1">
 <metadata>
  <rdf:RDF xmlns:dc="http://purl.org/dc/elements/1.1/" xmlns:cc="http://creativecommons.org/ns#" xmlns:rdf="http://www.w3.org/1999/02/22-rdf-syntax-ns#">
   <cc:Work>
    <dc:type rdf:resource="http://purl.org/dc/dcmitype/StillImage"/>
    <dc:date>2023-12-26T02:20:13.657919</dc:date>
    <dc:format>image/svg+xml</dc:format>
    <dc:creator>
     <cc:Agent>
      <dc:title>Matplotlib v3.7.2, https://matplotlib.org/</dc:title>
     </cc:Agent>
    </dc:creator>
   </cc:Work>
  </rdf:RDF>
 </metadata>
 <defs>
  <style type="text/css">*{stroke-linejoin: round; stroke-linecap: butt}</style>
 </defs>
 <g id="figure_1">
  <g id="patch_1">
   <path d="M 0 347.04 
L 349.2 347.04 
L 349.2 -0 
L 0 -0 
L 0 347.04 
z
" style="fill: none"/>
  </g>
  <g id="axes_1">
   <g id="patch_2">
    <path d="M 184.669155 173.52 
L 179.463029 172.225362 
L 183.320144 168.517903 
L 178.159984 169.982984 
L 179.634578 164.856115 
L 175.903045 168.688346 
L 174.6 163.515807 
L 173.296955 168.688346 
L 169.565422 164.856115 
L 171.040016 169.982984 
L 165.879856 168.517903 
L 169.736971 172.225362 
L 164.530845 173.52 
L 169.736971 174.814638 
L 165.879856 178.522097 
L 171.040016 177.057016 
L 169.565422 182.183885 
L 173.296955 178.351654 
L 174.6 183.524193 
L 175.903045 178.351654 
L 179.634578 182.183885 
L 178.159984 177.057016 
L 183.320144 178.522097 
L 179.463029 174.814638 
L 184.669155 173.52 
L 184.669155 173.52 
" clip-path="url(#pd8389b0579)" style="fill: none; stroke: #46ff00; stroke-width: 0.9; stroke-linejoin: miter"/>
   </g>
   <g id="patch_3">
    <path d="M 211.8 173.52 
L 193.2 141.511701 
L 156 141.511701 
L 137.4 173.52 
L 156 205.528299 
L 193.2 205.528299 
L 211.8 173.52 
" clip-path="url(#pd8389b0579)" style="fill: none; stroke: #46ff00; stroke-width: 0.4; stroke-linejoin: miter"/>
   </g>
   <g id="patch_4">
    <path d="M 231.786639 173.52 
L 202.841288 169.075877 
L 228.987725 155.962367 
L 200.076834 160.622654 
L 220.864963 140.123398 
L 194.81853 153.431912 
L 208.213463 127.553521 
L 187.581095 148.207533 
L 192.271643 119.483163 
L 179.072981 145.460914 
L 174.6 116.702307 
L 170.127019 145.460914 
L 156.928357 119.483163 
L 161.618905 148.207533 
L 140.986537 127.553521 
L 154.38147 153.431912 
L 128.335037 140.123398 
L 149.123166 160.622654 
L 120.212275 155.962367 
L 146.358712 169.075877 
L 117.413361 173.52 
L 146.358712 177.964123 
L 120.212275 191.077633 
L 149.123166 186.417346 
L 128.335037 206.916602 
L 154.38147 193.608088 
L 140.986537 219.486479 
L 161.618905 198.832467 
L 156.928357 227.556837 
L 170.127019 201.579086 
L 174.6 230.337693 
L 179.072981 201.579086 
L 192.271643 227.556837 
L 187.581095 198.832467 
L 208.213463 219.486479 
L 194.81853 193.608088 
L 220.864963 206.916602 
L 200.076834 186.417346 
L 228.987725 191.077633 
L 202.841288 177.964123 
L 231.786639 173.52 
L 231.786639 173.52 
" clip-path="url(#pd8389b0579)" style="fill: none; stroke: #46ff00; stroke-width: 0.3; stroke-linejoin: miter"/>
   </g>
   <g id="patch_5">
    <path d="M 258.3 173.52 
L 247.086326 131.94 
L 216.45 101.501327 
L 174.6 90.36 
L 132.75 101.501327 
L 102.113674 131.94 
L 90.9 173.52 
L 102.113674 215.1 
L 132.75 245.538673 
L 174.6 256.68 
L 216.45 245.538673 
L 247.086326 215.1 
L 258.3 173.52 
" clip-path="url(#pd8389b0579)" style="fill: none; stroke: #46ff00; stroke-width: 0.3; stroke-linejoin: miter"/>
   </g>
   <g id="patch_6">
    <path d="M 290.145601 173.52 
L 231.262712 162.321801 
L 281.350216 129.587886 
L 222.636328 141.630228 
L 256.303078 92.344039 
L 206.696848 125.793584 
L 218.817387 67.458495 
L 185.870914 117.222854 
L 174.6 58.719855 
L 163.329086 117.222854 
L 130.382613 67.458495 
L 142.503152 125.793584 
L 92.896922 92.344039 
L 126.563672 141.630228 
L 67.849784 129.587886 
L 117.937288 162.321801 
L 59.054399 173.52 
L 117.937288 184.718199 
L 67.849784 217.452114 
L 126.563672 205.409772 
L 92.896922 254.695961 
L 142.503152 221.246416 
L 130.382613 279.581505 
L 163.329086 229.817146 
L 174.6 288.320145 
L 185.870914 229.817146 
L 218.817387 279.581505 
L 206.696848 221.246416 
L 256.303078 254.695961 
L 222.636328 205.409772 
L 281.350216 217.452114 
L 231.262712 184.718199 
L 290.145601 173.52 
L 290.145601 173.52 
" clip-path="url(#pd8389b0579)" style="fill: none; stroke: #46ff00; stroke-width: 0.3; stroke-linejoin: miter"/>
   </g>
   <g id="patch_7">
    <path d="M 304.8 173.52 
L 239.7 61.490954 
L 109.5 61.490954 
L 44.4 173.52 
L 109.5 285.549046 
L 239.7 285.549046 
L 304.8 173.52 
" clip-path="url(#pd8389b0579)" style="fill: none; stroke: #46ff00; stroke-width: 0.3; stroke-linejoin: miter"/>
   </g>
   <g id="patch_8">
    <path d="M 333.734171 173.52 
L 251.455903 153.059384 
L 312.414235 94.466251 
L 230.862426 117.620558 
L 254.167086 36.594889 
L 195.193477 97.159942 
L 174.6 15.412501 
L 154.006523 97.159942 
L 95.032914 36.594889 
L 118.337574 117.620558 
L 36.785765 94.466251 
L 97.744097 153.059384 
L 15.465829 173.52 
L 97.744097 193.980616 
L 36.785765 252.573749 
L 118.337574 229.419442 
L 95.032914 310.445111 
L 154.006523 249.880058 
L 174.6 331.627499 
L 195.193477 249.880058 
L 254.167086 310.445111 
L 230.862426 229.419442 
L 312.414235 252.573749 
L 251.455903 193.980616 
L 333.734171 173.52 
L 333.734171 173.52 
" clip-path="url(#pd8389b0579)" style="fill: none; stroke: #46ff00; stroke-width: 0.3; stroke-linejoin: miter"/>
   </g>
  </g>
 </g>
 <defs>
  <clipPath id="pd8389b0579">
   <rect x="7.2" y="7.2" width="334.8" height="332.64"/>
  </clipPath>
 </defs>
</svg>
