<?xml version="1.0" encoding="utf-8" standalone="no"?>
<!DOCTYPE svg PUBLIC "-//W3C//DTD SVG 1.1//EN"
  "http://www.w3.org/Graphics/SVG/1.1/DTD/svg11.dtd">
<svg xmlns:xlink="http://www.w3.org/1999/xlink" width="349.2pt" height="347.04pt" viewBox="0 0 349.2 347.04" xmlns="http://www.w3.org/2000/svg" version="1.1">
 <metadata>
  <rdf:RDF xmlns:dc="http://purl.org/dc/elements/1.1/" xmlns:cc="http://creativecommons.org/ns#" xmlns:rdf="http://www.w3.org/1999/02/22-rdf-syntax-ns#">
   <cc:Work>
    <dc:type rdf:resource="http://purl.org/dc/dcmitype/StillImage"/>
    <dc:date>2023-12-26T02:20:13.006959</dc:date>
    <dc:format>image/svg+xml</dc:format>
    <dc:creator>
     <cc:Agent>
      <dc:title>Matplotlib v3.7.2, https://matplotlib.org/</dc:title>
     </cc:Agent>
    </dc:creator>
   </cc:Work>
  </rdf:RDF>
 </metadata>
 <defs>
  <style type="text/css">*{stroke-linejoin: round; stroke-linecap: butt}</style>
 </defs>
 <g id="figure_1">
  <g id="patch_1">
   <path d="M 0 347.04 
L 349.2 347.04 
L 349.2 -0 
L 0 -0 
L 0 347.04 
z
" style="fill: none"/>
  </g>
  <g id="axes_1">
   <g id="patch_2">
    <path d="M 183.9 173.52 
L 182.654036 168.9 
L 179.25 165.517925 
L 174.6 164.28 
L 169.95 165.517925 
L 166.545964 168.9 
L 165.3 173.52 
L 166.545964 178.14 
L 169.95 181.522075 
L 174.6 182.76 
L 179.25 181.522075 
L 182.654036 178.14 
L 183.9 173.52 
" clip-path="url(#p62995d272c)" style="fill: none; stroke: #ff8a00; stroke-linejoin: miter"/>
   </g>
   <g id="patch_3">
    <path d="M 199.798865 173.52 
L 187.044313 171.561731 
L 198.565545 165.78336 
L 185.826177 167.836881 
L 194.98631 158.804037 
L 183.509144 164.668334 
L 189.411521 153.265214 
L 180.320023 162.36625 
L 182.386878 149.709071 
L 176.570986 161.155973 
L 174.6 148.483708 
L 172.629014 161.155973 
L 166.813122 149.709071 
L 168.879977 162.36625 
L 159.788479 153.265214 
L 165.690856 164.668334 
L 154.21369 158.804037 
L 163.373823 167.836881 
L 150.634455 165.78336 
L 162.155687 171.561731 
L 149.401135 173.52 
L 162.155687 175.478269 
L 150.634455 181.25664 
L 163.373823 179.203119 
L 154.21369 188.235963 
L 165.690856 182.371666 
L 159.788479 193.774786 
L 168.879977 184.67375 
L 166.813122 197.330929 
L 172.629014 185.884027 
L 174.6 198.556292 
L 176.570986 185.884027 
L 182.386878 197.330929 
L 180.320023 184.67375 
L 189.411521 193.774786 
L 183.509144 182.371666 
L 194.98631 188.235963 
L 185.826177 179.203119 
L 198.565545 181.25664 
L 187.044313 175.478269 
L 199.798865 173.52 
L 199.798865 173.52 
" clip-path="url(#p62995d272c)" style="fill: none; stroke: #ff8a00; stroke-width: 0.5; stroke-linejoin: miter"/>
   </g>
   <g id="patch_4">
    <path d="M 230.4 173.52 
L 214.056558 134.318 
L 174.6 118.08 
L 135.143442 134.318 
L 118.8 173.52 
L 135.143442 212.722 
L 174.6 228.96 
L 214.056558 212.722 
L 230.4 173.52 
" clip-path="url(#p62995d272c)" style="fill: none; stroke: #ff8a00; stroke-width: 0.3; stroke-linejoin: miter"/>
   </g>
   <g id="patch_5">
    <path d="M 239.526284 173.52 
L 205.956987 165.172128 
L 230.827811 141.266298 
L 197.554908 150.713188 
L 207.063142 117.654949 
L 183.002079 142.365316 
L 174.6 109.012595 
L 166.197921 142.365316 
L 142.136858 117.654949 
L 151.645092 150.713188 
L 118.372189 141.266298 
L 143.243013 165.172128 
L 109.673716 173.52 
L 143.243013 181.867872 
L 118.372189 205.773702 
L 151.645092 196.326812 
L 142.136858 229.385051 
L 166.197921 204.674684 
L 174.6 238.027405 
L 183.002079 204.674684 
L 207.063142 229.385051 
L 197.554908 196.326812 
L 230.827811 205.773702 
L 205.956987 181.867872 
L 239.526284 173.52 
L 239.526284 173.52 
" clip-path="url(#p62995d272c)" style="fill: none; stroke: #ff8a00; stroke-width: 0.3; stroke-linejoin: miter"/>
   </g>
   <g id="patch_6">
    <path d="M 276.9 173.52 
L 246.937024 101.649667 
L 174.6 71.88 
L 102.262976 101.649667 
L 72.3 173.52 
L 102.262976 245.390333 
L 174.6 275.16 
L 246.937024 245.390333 
L 276.9 173.52 
" clip-path="url(#p62995d272c)" style="fill: none; stroke: #ff8a00; stroke-width: 0.3; stroke-linejoin: miter"/>
   </g>
   <g id="patch_7">
    <path d="M 274.041277 173.52 
L 223.708495 165.792159 
L 269.174274 142.989208 
L 218.901413 151.092933 
L 255.049683 115.446982 
L 209.7578 138.589024 
L 233.050116 93.589348 
L 197.172697 129.504402 
L 205.329044 79.555883 
L 182.378021 124.728334 
L 174.6 74.72028 
L 166.821979 124.728334 
L 143.870956 79.555883 
L 152.027303 129.504402 
L 116.149884 93.589348 
L 139.4422 138.589024 
L 94.150317 115.446982 
L 130.298587 151.092933 
L 80.025726 142.989208 
L 125.491505 165.792159 
L 75.158723 173.52 
L 125.491505 181.247841 
L 80.025726 204.050792 
L 130.298587 195.947067 
L 94.150317 231.593018 
L 139.4422 208.450976 
L 116.149884 253.450652 
L 152.027303 217.535598 
L 143.870956 267.484117 
L 166.821979 222.311666 
L 174.6 272.31972 
L 182.378021 222.311666 
L 205.329044 267.484117 
L 197.172697 217.535598 
L 233.050116 253.450652 
L 209.7578 208.450976 
L 255.049683 231.593018 
L 218.901413 195.947067 
L 269.174274 204.050792 
L 223.708495 181.247841 
L 274.041277 173.52 
L 274.041277 173.52 
" clip-path="url(#p62995d272c)" style="fill: none; stroke: #ff8a00; stroke-width: 0.3; stroke-linejoin: miter"/>
   </g>
   <g id="patch_8">
    <path d="M 323.4 173.52 
L 249 45.486804 
L 100.2 45.486804 
L 25.8 173.52 
L 100.2 301.553196 
L 249 301.553196 
L 323.4 173.52 
" clip-path="url(#p62995d272c)" style="fill: none; stroke: #ff8a00; stroke-width: 0.3; stroke-linejoin: miter"/>
   </g>
   <g id="patch_9">
    <path d="M 338.784019 173.52 
L 253.894792 152.410102 
L 316.787531 91.957616 
L 232.647817 115.846685 
L 256.69201 32.249808 
L 195.846976 94.736787 
L 174.6 10.395233 
L 153.353024 94.736787 
L 92.50799 32.249808 
L 116.552183 115.846685 
L 32.412469 91.957616 
L 95.305208 152.410102 
L 10.415981 173.52 
L 95.305208 194.629898 
L 32.412469 255.082384 
L 116.552183 231.193315 
L 92.50799 314.790192 
L 153.353024 252.303213 
L 174.6 336.644767 
L 195.846976 252.303213 
L 256.69201 314.790192 
L 232.647817 231.193315 
L 316.787531 255.082384 
L 253.894792 194.629898 
L 338.784019 173.52 
L 338.784019 173.52 
" clip-path="url(#p62995d272c)" style="fill: none; stroke: #ff8a00; stroke-width: 0.3; stroke-linejoin: miter"/>
   </g>
  </g>
 </g>
 <defs>
  <clipPath id="p62995d272c">
   <rect x="7.2" y="7.2" width="334.8" height="332.64"/>
  </clipPath>
 </defs>
</svg>
