<?xml version="1.0" encoding="utf-8" standalone="no"?>
<!DOCTYPE svg PUBLIC "-//W3C//DTD SVG 1.1//EN"
  "http://www.w3.org/Graphics/SVG/1.1/DTD/svg11.dtd">
<svg xmlns:xlink="http://www.w3.org/1999/xlink" width="349.2pt" height="347.04pt" viewBox="0 0 349.2 347.04" xmlns="http://www.w3.org/2000/svg" version="1.1">
 <metadata>
  <rdf:RDF xmlns:dc="http://purl.org/dc/elements/1.1/" xmlns:cc="http://creativecommons.org/ns#" xmlns:rdf="http://www.w3.org/1999/02/22-rdf-syntax-ns#">
   <cc:Work>
    <dc:type rdf:resource="http://purl.org/dc/dcmitype/StillImage"/>
    <dc:date>2023-12-26T02:20:13.220888</dc:date>
    <dc:format>image/svg+xml</dc:format>
    <dc:creator>
     <cc:Agent>
      <dc:title>Matplotlib v3.7.2, https://matplotlib.org/</dc:title>
     </cc:Agent>
    </dc:creator>
   </cc:Work>
  </rdf:RDF>
 </metadata>
 <defs>
  <style type="text/css">*{stroke-linejoin: round; stroke-linecap: butt}</style>
 </defs>
 <g id="figure_1">
  <g id="patch_1">
   <path d="M 0 347.04 
L 349.2 347.04 
L 349.2 -0 
L 0 -0 
L 0 347.04 
z
" style="fill: none"/>
  </g>
  <g id="axes_1">
   <g id="patch_2">
    <path d="M 196.66295 173.52 
L 185.255587 170.683264 
L 193.707076 162.559696 
L 182.400431 165.769894 
L 185.631475 154.536196 
L 177.455156 162.933159 
L 174.6 151.599391 
L 171.744844 162.933159 
L 163.568525 154.536196 
L 166.799569 165.769894 
L 155.492924 162.559696 
L 163.944413 170.683264 
L 152.53705 173.52 
L 163.944413 176.356736 
L 155.492924 184.480304 
L 166.799569 181.270106 
L 163.568525 192.503804 
L 171.744844 184.106841 
L 174.6 195.440609 
L 177.455156 184.106841 
L 185.631475 192.503804 
L 182.400431 181.270106 
L 193.707076 184.480304 
L 185.255587 176.356736 
L 196.66295 173.52 
L 196.66295 173.52 
" clip-path="url(#pfebcc9e186)" style="fill: none; stroke: #13ff00; stroke-width: 0.7; stroke-linejoin: miter"/>
   </g>
   <g id="patch_3">
    <path d="M 221.1 173.52 
L 197.85 133.509626 
L 151.35 133.509626 
L 128.1 173.52 
L 151.35 213.530374 
L 197.85 213.530374 
L 221.1 173.52 
" clip-path="url(#pfebcc9e186)" style="fill: none; stroke: #13ff00; stroke-width: 0.3; stroke-linejoin: miter"/>
   </g>
   <g id="patch_4">
    <path d="M 242.857447 173.52 
L 208.07295 166.904772 
L 237.661658 147.567528 
L 202.976996 154.681426 
L 222.865304 125.566085 
L 193.560903 145.326081 
L 200.720994 110.865191 
L 181.258184 140.263005 
L 174.6 105.702924 
L 167.941816 140.263005 
L 148.479006 110.865191 
L 155.639097 145.326081 
L 126.334696 125.566085 
L 146.223004 154.681426 
L 111.538342 147.567528 
L 141.12705 166.904772 
L 106.342553 173.52 
L 141.12705 180.135228 
L 111.538342 199.472472 
L 146.223004 192.358574 
L 126.334696 221.473915 
L 155.639097 201.713919 
L 148.479006 236.174809 
L 167.941816 206.776995 
L 174.6 241.337076 
L 181.258184 206.776995 
L 200.720994 236.174809 
L 193.560903 201.713919 
L 222.865304 221.473915 
L 202.976996 192.358574 
L 237.661658 199.472472 
L 208.07295 180.135228 
L 242.857447 173.52 
L 242.857447 173.52 
" clip-path="url(#pfebcc9e186)" style="fill: none; stroke: #13ff00; stroke-width: 0.3; stroke-linejoin: miter"/>
   </g>
   <g id="patch_5">
    <path d="M 267.6 173.52 
L 240.360931 108.183333 
L 174.6 81.12 
L 108.839069 108.183333 
L 81.6 173.52 
L 108.839069 238.856667 
L 174.6 265.92 
L 240.360931 238.856667 
L 267.6 173.52 
" clip-path="url(#pfebcc9e186)" style="fill: none; stroke: #13ff00; stroke-width: 0.3; stroke-linejoin: miter"/>
   </g>
   <g id="patch_6">
    <path d="M 265.394118 173.52 
L 219.438146 166.464153 
L 260.950338 145.644087 
L 215.049076 153.043133 
L 248.053984 120.496863 
L 206.700568 141.626532 
L 227.967444 100.539912 
L 195.209833 133.331886 
L 202.656925 87.726761 
L 181.701665 128.971132 
L 174.6 83.311651 
L 167.498335 128.971132 
L 146.543075 87.726761 
L 153.990167 133.331886 
L 121.232556 100.539912 
L 142.499432 141.626532 
L 101.146016 120.496863 
L 134.150924 153.043133 
L 88.249662 145.644087 
L 129.761854 166.464153 
L 83.805882 173.52 
L 129.761854 180.575847 
L 88.249662 201.395913 
L 134.150924 193.996867 
L 101.146016 226.543137 
L 142.499432 205.413468 
L 121.232556 246.500088 
L 153.990167 213.708114 
L 146.543075 259.313239 
L 167.498335 218.068868 
L 174.6 263.728349 
L 181.701665 218.068868 
L 202.656925 259.313239 
L 195.209833 213.708114 
L 227.967444 246.500088 
L 206.700568 205.413468 
L 248.053984 226.543137 
L 215.049076 193.996867 
L 260.950338 201.395913 
L 219.438146 180.575847 
L 265.394118 173.52 
L 265.394118 173.52 
" clip-path="url(#pfebcc9e186)" style="fill: none; stroke: #13ff00; stroke-width: 0.3; stroke-linejoin: miter"/>
   </g>
   <g id="patch_7">
    <path d="M 314.1 173.52 
L 244.35 53.488879 
L 104.85 53.488879 
L 35.1 173.52 
L 104.85 293.551121 
L 244.35 293.551121 
L 314.1 173.52 
" clip-path="url(#pfebcc9e186)" style="fill: none; stroke: #13ff00; stroke-width: 0.3; stroke-linejoin: miter"/>
   </g>
   <g id="patch_8">
    <path d="M 349.545771 173.52 
L 260.995949 159.924508 
L 340.983316 119.807566 
L 252.538912 134.064346 
L 316.134102 71.352879 
L 236.452671 112.066379 
L 277.430544 32.899021 
L 214.311859 96.08392 
L 228.661216 8.210125 
L 188.283774 87.681444 
L 174.6 -0.297089 
L 160.916226 87.681444 
L 120.538784 8.210125 
L 134.888141 96.08392 
L 71.769456 32.899021 
L 112.747329 112.066379 
L 33.065898 71.352879 
L 96.661088 134.064346 
L 8.216684 119.807566 
L 88.204051 159.924508 
L -0.345771 173.52 
L 88.204051 187.115492 
L 8.216684 227.232434 
L 96.661088 212.975654 
L 33.065898 275.687121 
L 112.747329 234.973621 
L 71.769456 314.140979 
L 134.888141 250.95608 
L 120.538784 338.829875 
L 160.916226 259.358556 
L 174.6 347.337089 
L 188.283774 259.358556 
L 228.661216 338.829875 
L 214.311859 250.95608 
L 277.430544 314.140979 
L 236.452671 234.973621 
L 316.134102 275.687121 
L 252.538912 212.975654 
L 340.983316 227.232434 
L 260.995949 187.115492 
L 349.545771 173.52 
L 349.545771 173.52 
" clip-path="url(#pfebcc9e186)" style="fill: none; stroke: #13ff00; stroke-width: 0.3; stroke-linejoin: miter"/>
   </g>
  </g>
 </g>
 <defs>
  <clipPath id="pfebcc9e186">
   <rect x="7.2" y="7.2" width="334.8" height="332.64"/>
  </clipPath>
 </defs>
</svg>
