<?xml version="1.0" encoding="utf-8" standalone="no"?>
<!DOCTYPE svg PUBLIC "-//W3C//DTD SVG 1.1//EN"
  "http://www.w3.org/Graphics/SVG/1.1/DTD/svg11.dtd">
<svg xmlns:xlink="http://www.w3.org/1999/xlink" width="357.12pt" height="266.112pt" viewBox="0 0 357.12 266.112" xmlns="http://www.w3.org/2000/svg" version="1.1">
 <metadata>
  <rdf:RDF xmlns:dc="http://purl.org/dc/elements/1.1/" xmlns:cc="http://creativecommons.org/ns#" xmlns:rdf="http://www.w3.org/1999/02/22-rdf-syntax-ns#">
   <cc:Work>
    <dc:type rdf:resource="http://purl.org/dc/dcmitype/StillImage"/>
    <dc:date>2023-12-25T15:51:44.510530</dc:date>
    <dc:format>image/svg+xml</dc:format>
    <dc:creator>
     <cc:Agent>
      <dc:title>Matplotlib v3.7.2, https://matplotlib.org/</dc:title>
     </cc:Agent>
    </dc:creator>
   </cc:Work>
  </rdf:RDF>
 </metadata>
 <defs>
  <style type="text/css">*{stroke-linejoin: round; stroke-linecap: butt}</style>
 </defs>
 <g id="figure_1">
  <g id="patch_1">
   <path d="M 0 266.112 
L 357.12 266.112 
L 357.12 0 
L 0 0 
L 0 266.112 
z
" style="fill: none"/>
  </g>
  <g id="axes_1">
   <g id="patch_2">
    <path d="M 327.960375 133.056 
L 253.260187 36.643664 
L 103.859813 36.643664 
L 29.159625 133.056 
L 103.859813 229.468336 
L 253.260187 229.468336 
L 204.544591 121.876933 
L 178.56 110.697867 
L 152.575409 121.876933 
L 152.575409 144.235067 
L 178.56 155.414133 
z
" clip-path="url(#pcb26dd5f78)" style="fill: #60ca60; fill-opacity: 0.5; stroke: #000000; stroke-linejoin: miter"/>
   </g>
   <g id="patch_3">
    <path d="M 250.258491 40.517825 
L 106.861509 40.517825 
L 35.163018 133.056 
L 106.861509 225.594175 
L 250.258491 225.594175 
L 321.956982 133.056 
L 178.56 120.715352 
L 164.217716 126.885676 
L 164.217716 139.226324 
L 178.56 145.396648 
L 192.902284 139.226324 
z
" clip-path="url(#pcb26dd5f78)" style="fill: #60ca60; fill-opacity: 0.5; stroke: #000000; stroke-linejoin: miter"/>
   </g>
   <g id="patch_4">
    <path d="M 110.634097 45.386943 
L 42.708193 133.056 
L 110.634097 220.725057 
L 246.485903 220.725057 
L 314.411807 133.056 
L 246.485903 45.386943 
L 158.637253 124.484854 
L 158.637253 141.627146 
L 178.56 150.198291 
L 198.482747 141.627146 
L 198.482747 124.484854 
z
" clip-path="url(#pcb26dd5f78)" style="fill: #60ca60; fill-opacity: 0.5; stroke: #000000; stroke-linejoin: miter"/>
   </g>
   <g id="patch_5">
    <path d="M 17.901453 133.056 
L 98.230727 236.733556 
L 258.889273 236.733556 
L 339.218547 133.056 
L 258.889273 29.378444 
L 98.230727 29.378444 
L 157.609615 142.069255 
L 178.56 151.08251 
L 199.510385 142.069255 
L 199.510385 124.042745 
L 178.56 115.02949 
z
" clip-path="url(#pcb26dd5f78)" style="fill: #60ca60; fill-opacity: 0.5; stroke: #000000; stroke-linejoin: miter"/>
   </g>
   <g id="patch_6">
    <path d="M 105.661922 227.14243 
L 251.458078 227.14243 
L 324.356156 133.056 
L 251.458078 38.96957 
L 105.661922 38.96957 
L 32.763844 133.056 
L 178.56 157.585887 
L 207.068601 145.320944 
L 207.068601 120.791056 
L 178.56 108.526113 
L 150.051399 120.791056 
z
" clip-path="url(#pcb26dd5f78)" style="fill: #60ca60; fill-opacity: 0.5; stroke: #000000; stroke-linejoin: miter"/>
   </g>
   <g id="patch_7">
    <path d="M 244.166995 217.732142 
L 309.77399 133.056 
L 244.166995 48.379858 
L 112.953005 48.379858 
L 47.34601 133.056 
L 112.953005 217.732142 
L 212.571885 147.688561 
L 212.571885 118.423439 
L 178.56 103.790877 
L 144.548115 118.423439 
L 144.548115 147.688561 
z
" clip-path="url(#pcb26dd5f78)" style="fill: #60ca60; fill-opacity: 0.5; stroke: #000000; stroke-linejoin: miter"/>
   </g>
  </g>
 </g>
 <defs>
  <clipPath id="pcb26dd5f78">
   <rect x="0" y="-0" width="357.12" height="266.112"/>
  </clipPath>
 </defs>
</svg>
