<?xml version="1.0" encoding="utf-8" standalone="no"?>
<!DOCTYPE svg PUBLIC "-//W3C//DTD SVG 1.1//EN"
  "http://www.w3.org/Graphics/SVG/1.1/DTD/svg11.dtd">
<svg xmlns:xlink="http://www.w3.org/1999/xlink" width="357.12pt" height="266.112pt" viewBox="0 0 357.12 266.112" xmlns="http://www.w3.org/2000/svg" version="1.1">
 <metadata>
  <rdf:RDF xmlns:dc="http://purl.org/dc/elements/1.1/" xmlns:cc="http://creativecommons.org/ns#" xmlns:rdf="http://www.w3.org/1999/02/22-rdf-syntax-ns#">
   <cc:Work>
    <dc:type rdf:resource="http://purl.org/dc/dcmitype/StillImage"/>
    <dc:date>2023-12-25T15:51:45.006118</dc:date>
    <dc:format>image/svg+xml</dc:format>
    <dc:creator>
     <cc:Agent>
      <dc:title>Matplotlib v3.7.2, https://matplotlib.org/</dc:title>
     </cc:Agent>
    </dc:creator>
   </cc:Work>
  </rdf:RDF>
 </metadata>
 <defs>
  <style type="text/css">*{stroke-linejoin: round; stroke-linecap: butt}</style>
 </defs>
 <g id="figure_1">
  <g id="patch_1">
   <path d="M 0 266.112 
L 357.12 266.112 
L 357.12 0 
L 0 0 
L 0 266.112 
z
" style="fill: none"/>
  </g>
  <g id="axes_1">
   <g id="patch_2">
    <path d="M 264.238268 133.056 
L 221.399134 77.765362 
L 135.720866 77.765362 
L 92.881732 133.056 
L 135.720866 188.346638 
L 221.399134 188.346638 
L 188.491248 128.783388 
L 178.56 124.510775 
L 168.628752 128.783388 
L 168.628752 137.328612 
L 178.56 141.601225 
z
" clip-path="url(#p631c407fae)" style="fill: #25ab82; fill-opacity: 0.5; stroke: #000000; stroke-linejoin: miter"/>
   </g>
   <g id="patch_3">
    <path d="M 221.516081 77.614424 
L 135.603919 77.614424 
L 92.647837 133.056 
L 135.603919 188.497576 
L 221.516081 188.497576 
L 264.472163 133.056 
L 178.56 121.842117 
L 165.527241 127.449059 
L 165.527241 138.662941 
L 178.56 144.269883 
L 191.592759 138.662941 
z
" clip-path="url(#p631c407fae)" style="fill: #25ab82; fill-opacity: 0.5; stroke: #000000; stroke-linejoin: miter"/>
   </g>
   <g id="patch_4">
    <path d="M 131.664832 72.530413 
L 84.769664 133.056 
L 131.664832 193.581587 
L 225.455168 193.581587 
L 272.350336 133.056 
L 225.455168 72.530413 
L 160.854766 125.438871 
L 160.854766 140.673129 
L 178.56 148.290258 
L 196.265234 140.673129 
L 196.265234 125.438871 
z
" clip-path="url(#p631c407fae)" style="fill: #25ab82; fill-opacity: 0.5; stroke: #000000; stroke-linejoin: miter"/>
   </g>
   <g id="patch_5">
    <path d="M 91.850851 133.056 
L 135.205426 189.011894 
L 221.914574 189.011894 
L 265.269149 133.056 
L 221.914574 77.100106 
L 135.205426 77.100106 
L 162.436115 139.992803 
L 178.56 146.929606 
L 194.683885 139.992803 
L 194.683885 126.119197 
L 178.56 119.182394 
z
" clip-path="url(#p631c407fae)" style="fill: #25ab82; fill-opacity: 0.5; stroke: #000000; stroke-linejoin: miter"/>
   </g>
   <g id="patch_6">
    <path d="M 140.731666 181.879412 
L 216.388334 181.879412 
L 254.216667 133.056 
L 216.388334 84.232588 
L 140.731666 84.232588 
L 102.903333 133.056 
L 178.56 141.764885 
L 188.681454 137.410443 
L 188.681454 128.701557 
L 178.56 124.347115 
L 168.438546 128.701557 
z
" clip-path="url(#p631c407fae)" style="fill: #25ab82; fill-opacity: 0.5; stroke: #000000; stroke-linejoin: miter"/>
   </g>
   <g id="patch_7">
    <path d="M 222.911102 190.29807 
L 267.262205 133.056 
L 222.911102 75.81393 
L 134.208898 75.81393 
L 89.857795 133.056 
L 134.208898 190.29807 
L 198.007724 141.422782 
L 198.007724 124.689218 
L 178.56 116.322437 
L 159.112276 124.689218 
L 159.112276 141.422782 
z
" clip-path="url(#p631c407fae)" style="fill: #25ab82; fill-opacity: 0.5; stroke: #000000; stroke-linejoin: miter"/>
   </g>
  </g>
 </g>
 <defs>
  <clipPath id="p631c407fae">
   <rect x="0" y="-0" width="357.12" height="266.112"/>
  </clipPath>
 </defs>
</svg>
