<?xml version="1.0" encoding="utf-8" standalone="no"?>
<!DOCTYPE svg PUBLIC "-//W3C//DTD SVG 1.1//EN"
  "http://www.w3.org/Graphics/SVG/1.1/DTD/svg11.dtd">
<svg xmlns:xlink="http://www.w3.org/1999/xlink" width="357.12pt" height="266.112pt" viewBox="0 0 357.12 266.112" xmlns="http://www.w3.org/2000/svg" version="1.1">
 <metadata>
  <rdf:RDF xmlns:dc="http://purl.org/dc/elements/1.1/" xmlns:cc="http://creativecommons.org/ns#" xmlns:rdf="http://www.w3.org/1999/02/22-rdf-syntax-ns#">
   <cc:Work>
    <dc:type rdf:resource="http://purl.org/dc/dcmitype/StillImage"/>
    <dc:date>2023-12-25T15:51:44.706168</dc:date>
    <dc:format>image/svg+xml</dc:format>
    <dc:creator>
     <cc:Agent>
      <dc:title>Matplotlib v3.7.2, https://matplotlib.org/</dc:title>
     </cc:Agent>
    </dc:creator>
   </cc:Work>
  </rdf:RDF>
 </metadata>
 <defs>
  <style type="text/css">*{stroke-linejoin: round; stroke-linecap: butt}</style>
 </defs>
 <g id="figure_1">
  <g id="patch_1">
   <path d="M 0 266.112 
L 357.12 266.112 
L 357.12 0 
L 0 0 
L 0 266.112 
z
" style="fill: none"/>
  </g>
  <g id="axes_1">
   <g id="patch_2">
    <path d="M 287.531578 133.056 
L 233.045789 62.733523 
L 124.074211 62.733523 
L 69.588422 133.056 
L 124.074211 203.378477 
L 233.045789 203.378477 
L 192.585665 127.021891 
L 178.56 120.987783 
L 164.534335 127.021891 
L 164.534335 139.090109 
L 178.56 145.124217 
z
" clip-path="url(#p7cea587930)" style="fill: #4cc26c; fill-opacity: 0.5; stroke: #000000; stroke-linejoin: miter"/>
   </g>
   <g id="patch_3">
    <path d="M 236.147859 58.729815 
L 120.972141 58.729815 
L 63.384283 133.056 
L 120.972141 207.382185 
L 236.147859 207.382185 
L 293.735717 133.056 
L 178.56 108.136071 
L 149.598094 120.596036 
L 149.598094 145.515964 
L 178.56 157.975929 
L 207.521906 145.515964 
z
" clip-path="url(#p7cea587930)" style="fill: #4cc26c; fill-opacity: 0.5; stroke: #000000; stroke-linejoin: miter"/>
   </g>
   <g id="patch_4">
    <path d="M 121.780361 59.772949 
L 65.000721 133.056 
L 121.780361 206.339051 
L 235.339639 206.339051 
L 292.119279 133.056 
L 235.339639 59.772949 
L 156.0825 123.385751 
L 156.0825 142.726249 
L 178.56 152.396499 
L 201.0375 142.726249 
L 201.0375 123.385751 
z
" clip-path="url(#p7cea587930)" style="fill: #4cc26c; fill-opacity: 0.5; stroke: #000000; stroke-linejoin: miter"/>
   </g>
   <g id="patch_5">
    <path d="M 62.301888 133.056 
L 120.430944 208.080685 
L 236.689056 208.080685 
L 294.818112 133.056 
L 236.689056 58.031315 
L 120.430944 58.031315 
L 159.421453 141.289768 
L 178.56 149.523536 
L 197.698547 141.289768 
L 197.698547 124.822232 
L 178.56 116.588464 
z
" clip-path="url(#p7cea587930)" style="fill: #4cc26c; fill-opacity: 0.5; stroke: #000000; stroke-linejoin: miter"/>
   </g>
   <g id="patch_6">
    <path d="M 114.806859 215.339452 
L 242.313141 215.339452 
L 306.066283 133.056 
L 242.313141 50.772548 
L 114.806859 50.772548 
L 51.053717 133.056 
L 178.56 151.62679 
L 200.142946 142.341395 
L 200.142946 123.770605 
L 178.56 114.48521 
L 156.977054 123.770605 
z
" clip-path="url(#p7cea587930)" style="fill: #4cc26c; fill-opacity: 0.5; stroke: #000000; stroke-linejoin: miter"/>
   </g>
   <g id="patch_7">
    <path d="M 240.857166 213.460287 
L 303.154332 133.056 
L 240.857166 52.651713 
L 116.262834 52.651713 
L 53.965668 133.056 
L 116.262834 213.460287 
L 208.945797 146.128549 
L 208.945797 119.983451 
L 178.56 106.910901 
L 148.174203 119.983451 
L 148.174203 146.128549 
z
" clip-path="url(#p7cea587930)" style="fill: #4cc26c; fill-opacity: 0.5; stroke: #000000; stroke-linejoin: miter"/>
   </g>
  </g>
 </g>
 <defs>
  <clipPath id="p7cea587930">
   <rect x="0" y="-0" width="357.12" height="266.112"/>
  </clipPath>
 </defs>
</svg>
