<?xml version="1.0" encoding="utf-8" standalone="no"?>
<!DOCTYPE svg PUBLIC "-//W3C//DTD SVG 1.1//EN"
  "http://www.w3.org/Graphics/SVG/1.1/DTD/svg11.dtd">
<svg xmlns:xlink="http://www.w3.org/1999/xlink" width="357.12pt" height="266.112pt" viewBox="0 0 357.12 266.112" xmlns="http://www.w3.org/2000/svg" version="1.1">
 <metadata>
  <rdf:RDF xmlns:dc="http://purl.org/dc/elements/1.1/" xmlns:cc="http://creativecommons.org/ns#" xmlns:rdf="http://www.w3.org/1999/02/22-rdf-syntax-ns#">
   <cc:Work>
    <dc:type rdf:resource="http://purl.org/dc/dcmitype/StillImage"/>
    <dc:date>2023-12-24T19:54:33.980757</dc:date>
    <dc:format>image/svg+xml</dc:format>
    <dc:creator>
     <cc:Agent>
      <dc:title>Matplotlib v3.7.2, https://matplotlib.org/</dc:title>
     </cc:Agent>
    </dc:creator>
   </cc:Work>
  </rdf:RDF>
 </metadata>
 <defs>
  <style type="text/css">*{stroke-linejoin: round; stroke-linecap: butt}</style>
 </defs>
 <g id="figure_1">
  <g id="patch_1">
   <path d="M 0 266.112 
L 357.12 266.112 
L 357.12 0 
L 0 0 
L 0 266.112 
z
" style="fill: none"/>
  </g>
  <g id="axes_1">
   <g id="patch_2">
    <path d="M 293.85453 110.97994 
L 239.933306 77.752962 
L 180.86282 105.69872 
L 198.276476 156.197127 
L 268.109194 159.4611 
L 258.965739 101.510476 
L 217.066108 99.552092 
L 201.618906 128.640788 
L 233.971641 148.576975 
L 269.413932 131.80952 
" clip-path="url(#p451d26e7bc)" style="fill: #440154; stroke: #000000; stroke-linejoin: miter"/>
   </g>
   <g id="patch_3">
    <path d="M 245.815143 120.178298 
L 241.321707 117.409383 
L 236.399167 119.738197 
L 237.850305 123.946397 
L 243.669698 124.218395 
L 242.817432 119.470555 
L 239.492065 119.315128 
L 238.266096 121.623755 
L 240.833773 123.205992 
L 243.646654 121.875241 
" clip-path="url(#p451d26e7bc)" style="fill: #440154; stroke: #000000; stroke-linejoin: miter"/>
   </g>
   <g id="patch_4">
    <path d="M 243.041309 117.725896 
L 238.547873 114.956982 
L 233.625333 117.285795 
L 235.076471 121.493995 
L 240.895864 121.765993 
L 240.043598 117.018153 
L 236.718231 116.862726 
L 235.492262 119.171353 
L 238.05994 120.75359 
L 240.87282 119.422839 
" clip-path="url(#p451d26e7bc)" style="fill: #440154; stroke: #000000; stroke-linejoin: miter"/>
   </g>
   <g id="patch_5">
    <path d="M 238.738765 117.812858 
L 234.245329 115.043944 
L 229.322789 117.372757 
L 230.773927 121.580957 
L 236.59332 121.852955 
L 235.741054 117.105115 
L 232.415686 116.949688 
L 231.189718 119.258315 
L 233.757395 120.840552 
L 236.570276 119.509801 
" clip-path="url(#p451d26e7bc)" style="fill: #440154; stroke: #000000; stroke-linejoin: miter"/>
   </g>
   <g id="patch_6">
    <path d="M 236.147414 120.3737 
L 231.653978 117.604785 
L 226.731438 119.933598 
L 228.182576 124.141799 
L 234.001969 124.413797 
L 233.149703 119.665957 
L 229.824335 119.51053 
L 228.598367 121.819156 
L 231.166044 123.401393 
L 233.978925 122.070643 
" clip-path="url(#p451d26e7bc)" style="fill: #440154; stroke: #000000; stroke-linejoin: miter"/>
   </g>
   <g id="patch_7">
    <path d="M 237.218596 123.480055 
L 232.725161 120.71114 
L 227.80262 123.039954 
L 229.253758 127.248154 
L 235.073151 127.520152 
L 234.220885 122.772312 
L 230.895518 122.616885 
L 229.669549 124.925512 
L 232.237227 126.507749 
L 235.050107 125.176998 
" clip-path="url(#p451d26e7bc)" style="fill: #440154; stroke: #000000; stroke-linejoin: miter"/>
   </g>
   <g id="patch_8">
    <path d="M 241.145689 124.792775 
L 236.652254 122.02386 
L 231.729714 124.352674 
L 233.180852 128.560874 
L 239.000245 128.832872 
L 238.147979 124.085032 
L 234.822611 123.929605 
L 233.596643 126.238232 
L 236.16432 127.820469 
L 238.9772 126.489718 
" clip-path="url(#p451d26e7bc)" style="fill: #440154; stroke: #000000; stroke-linejoin: miter"/>
   </g>
   <g id="patch_9">
    <path d="M 244.971513 123.323355 
L 240.478077 120.55444 
L 235.555537 122.883254 
L 237.006675 127.091454 
L 242.826068 127.363452 
L 241.973802 122.615612 
L 238.648435 122.460185 
L 237.422466 124.768812 
L 239.990143 126.351049 
L 242.803024 125.020298 
" clip-path="url(#p451d26e7bc)" style="fill: #440154; stroke: #000000; stroke-linejoin: miter"/>
   </g>
   <g id="patch_10">
    <path d="M 260.568524 81.551118 
L 206.647299 48.32414 
L 147.576813 76.269899 
L 164.990469 126.768306 
L 234.823187 130.032279 
L 225.679732 72.081654 
L 183.780101 70.12327 
L 168.332899 99.211967 
L 200.685634 119.148153 
L 236.127926 102.380698 
" clip-path="url(#p451d26e7bc)" style="fill: #440154; stroke: #000000; stroke-linejoin: miter"/>
   </g>
   <g id="patch_11">
    <path d="M 212.529136 90.749477 
L 208.035701 87.980562 
L 203.11316 90.309375 
L 204.564298 94.517576 
L 210.383691 94.789574 
L 209.531425 90.041734 
L 206.206058 89.886306 
L 204.980089 92.194933 
L 207.547767 93.77717 
L 210.360647 92.44642 
" clip-path="url(#p451d26e7bc)" style="fill: #440154; stroke: #000000; stroke-linejoin: miter"/>
   </g>
   <g id="patch_12">
    <path d="M 209.755302 88.297075 
L 205.261867 85.52816 
L 200.339326 87.856973 
L 201.790464 92.065174 
L 207.609857 92.337172 
L 206.757591 87.589332 
L 203.432224 87.433905 
L 202.206256 89.742531 
L 204.773933 91.324768 
L 207.586813 89.994018 
" clip-path="url(#p451d26e7bc)" style="fill: #440154; stroke: #000000; stroke-linejoin: miter"/>
   </g>
   <g id="patch_13">
    <path d="M 205.452758 88.384037 
L 200.959323 85.615122 
L 196.036782 87.943935 
L 197.48792 92.152136 
L 203.307313 92.424134 
L 202.455047 87.676294 
L 199.12968 87.520867 
L 197.903711 89.829493 
L 200.471389 91.41173 
L 203.284269 90.08098 
" clip-path="url(#p451d26e7bc)" style="fill: #440154; stroke: #000000; stroke-linejoin: miter"/>
   </g>
   <g id="patch_14">
    <path d="M 202.861407 90.944879 
L 198.367971 88.175964 
L 193.445431 90.504777 
L 194.896569 94.712977 
L 200.715962 94.984975 
L 199.863696 90.237135 
L 196.538329 90.081708 
L 195.31236 92.390335 
L 197.880038 93.972572 
L 200.692918 92.641821 
" clip-path="url(#p451d26e7bc)" style="fill: #440154; stroke: #000000; stroke-linejoin: miter"/>
   </g>
   <g id="patch_15">
    <path d="M 203.932589 94.051234 
L 199.439154 91.282319 
L 194.516613 93.611132 
L 195.967751 97.819333 
L 201.787144 98.09133 
L 200.934878 93.343491 
L 197.609511 93.188063 
L 196.383543 95.49669 
L 198.95122 97.078927 
L 201.7641 95.748177 
" clip-path="url(#p451d26e7bc)" style="fill: #440154; stroke: #000000; stroke-linejoin: miter"/>
   </g>
   <g id="patch_16">
    <path d="M 207.859683 95.363954 
L 203.366247 92.595039 
L 198.443707 94.923852 
L 199.894845 99.132053 
L 205.714238 99.404051 
L 204.861972 94.656211 
L 201.536605 94.500783 
L 200.310636 96.80941 
L 202.878314 98.391647 
L 205.691194 97.060897 
" clip-path="url(#p451d26e7bc)" style="fill: #440154; stroke: #000000; stroke-linejoin: miter"/>
   </g>
   <g id="patch_17">
    <path d="M 211.685506 93.894534 
L 207.192071 91.125619 
L 202.26953 93.454432 
L 203.720668 97.662633 
L 209.540061 97.93463 
L 208.687795 93.186791 
L 205.362428 93.031363 
L 204.136459 95.33999 
L 206.704137 96.922227 
L 209.517017 95.591477 
" clip-path="url(#p451d26e7bc)" style="fill: #440154; stroke: #000000; stroke-linejoin: miter"/>
   </g>
   <g id="patch_18">
    <path d="M 208.937993 82.594662 
L 155.016768 49.367684 
L 95.946282 77.313442 
L 113.359938 127.811849 
L 183.192656 131.075822 
L 174.049201 73.125197 
L 132.14957 71.166813 
L 116.702368 100.25551 
L 149.055103 120.191697 
L 184.497395 103.424241 
" clip-path="url(#p451d26e7bc)" style="fill: #440154; stroke: #000000; stroke-linejoin: miter"/>
   </g>
   <g id="patch_19">
    <path d="M 160.898605 91.79302 
L 156.405169 89.024105 
L 151.482629 91.352918 
L 152.933767 95.561119 
L 158.75316 95.833117 
L 157.900894 91.085277 
L 154.575527 90.92985 
L 153.349558 93.238476 
L 155.917236 94.820713 
L 158.730116 93.489963 
" clip-path="url(#p451d26e7bc)" style="fill: #440154; stroke: #000000; stroke-linejoin: miter"/>
   </g>
   <g id="patch_20">
    <path d="M 158.124771 89.340618 
L 153.631336 86.571703 
L 148.708795 88.900517 
L 150.159933 93.108717 
L 155.979326 93.380715 
L 155.12706 88.632875 
L 151.801693 88.477448 
L 150.575724 90.786074 
L 153.143402 92.368312 
L 155.956282 91.037561 
" clip-path="url(#p451d26e7bc)" style="fill: #440154; stroke: #000000; stroke-linejoin: miter"/>
   </g>
   <g id="patch_21">
    <path d="M 153.822227 89.42758 
L 149.328791 86.658665 
L 144.406251 88.987478 
L 145.857389 93.195679 
L 151.676782 93.467677 
L 150.824516 88.719837 
L 147.499148 88.56441 
L 146.27318 90.873036 
L 148.840857 92.455273 
L 151.653738 91.124523 
" clip-path="url(#p451d26e7bc)" style="fill: #440154; stroke: #000000; stroke-linejoin: miter"/>
   </g>
   <g id="patch_22">
    <path d="M 151.230876 91.988422 
L 146.73744 89.219507 
L 141.8149 91.54832 
L 143.266038 95.756521 
L 149.085431 96.028518 
L 148.233165 91.280679 
L 144.907797 91.125251 
L 143.681829 93.433878 
L 146.249506 95.016115 
L 149.062387 93.685365 
" clip-path="url(#p451d26e7bc)" style="fill: #440154; stroke: #000000; stroke-linejoin: miter"/>
   </g>
   <g id="patch_23">
    <path d="M 152.302058 95.094777 
L 147.808623 92.325862 
L 142.886082 94.654675 
L 144.33722 98.862876 
L 150.156613 99.134874 
L 149.304347 94.387034 
L 145.97898 94.231606 
L 144.753011 96.540233 
L 147.320689 98.12247 
L 150.133569 96.79172 
" clip-path="url(#p451d26e7bc)" style="fill: #440154; stroke: #000000; stroke-linejoin: miter"/>
   </g>
   <g id="patch_24">
    <path d="M 156.229152 96.407497 
L 151.735716 93.638582 
L 146.813176 95.967395 
L 148.264314 100.175596 
L 154.083707 100.447594 
L 153.231441 95.699754 
L 149.906073 95.544327 
L 148.680105 97.852953 
L 151.247782 99.43519 
L 154.060663 98.10444 
" clip-path="url(#p451d26e7bc)" style="fill: #440154; stroke: #000000; stroke-linejoin: miter"/>
   </g>
   <g id="patch_25">
    <path d="M 160.054975 94.938077 
L 155.561539 92.169162 
L 150.638999 94.497975 
L 152.090137 98.706176 
L 157.90953 98.978174 
L 157.057264 94.230334 
L 153.731897 94.074907 
L 152.505928 96.383533 
L 155.073606 97.96577 
L 157.886486 96.63502 
" clip-path="url(#p451d26e7bc)" style="fill: #440154; stroke: #000000; stroke-linejoin: miter"/>
   </g>
   <g id="patch_26">
    <path d="M 177.84178 113.32476 
L 123.920555 80.097782 
L 64.850069 108.043541 
L 82.263725 158.541947 
L 152.096443 161.80592 
L 142.952988 103.855296 
L 101.053358 101.896912 
L 85.606155 130.985608 
L 117.95889 150.921795 
L 153.401182 134.15434 
" clip-path="url(#p451d26e7bc)" style="fill: #440154; stroke: #000000; stroke-linejoin: miter"/>
   </g>
   <g id="patch_27">
    <path d="M 129.802392 122.523118 
L 125.308957 119.754204 
L 120.386416 122.083017 
L 121.837554 126.291217 
L 127.656947 126.563215 
L 126.804681 121.815375 
L 123.479314 121.659948 
L 122.253346 123.968575 
L 124.821023 125.550812 
L 127.633903 124.220061 
" clip-path="url(#p451d26e7bc)" style="fill: #440154; stroke: #000000; stroke-linejoin: miter"/>
   </g>
   <g id="patch_28">
    <path d="M 127.028558 120.070717 
L 122.535123 117.301802 
L 117.612582 119.630615 
L 119.06372 123.838816 
L 124.883114 124.110813 
L 124.030848 119.362973 
L 120.70548 119.207546 
L 119.479512 121.516173 
L 122.047189 123.09841 
L 124.860069 121.76766 
" clip-path="url(#p451d26e7bc)" style="fill: #440154; stroke: #000000; stroke-linejoin: miter"/>
   </g>
   <g id="patch_29">
    <path d="M 122.726014 120.157678 
L 118.232579 117.388764 
L 113.310038 119.717577 
L 114.761176 123.925777 
L 120.580569 124.197775 
L 119.728303 119.449935 
L 116.402936 119.294508 
L 115.176967 121.603135 
L 117.744645 123.185372 
L 120.557525 121.854621 
" clip-path="url(#p451d26e7bc)" style="fill: #440154; stroke: #000000; stroke-linejoin: miter"/>
   </g>
   <g id="patch_30">
    <path d="M 120.134663 122.71852 
L 115.641228 119.949605 
L 110.718687 122.278418 
L 112.169825 126.486619 
L 117.989218 126.758617 
L 117.136952 122.010777 
L 113.811585 121.85535 
L 112.585616 124.163976 
L 115.153294 125.746213 
L 117.966174 124.415463 
" clip-path="url(#p451d26e7bc)" style="fill: #440154; stroke: #000000; stroke-linejoin: miter"/>
   </g>
   <g id="patch_31">
    <path d="M 121.205845 125.824875 
L 116.71241 123.05596 
L 111.789869 125.384774 
L 113.241007 129.592974 
L 119.060401 129.864972 
L 118.208135 125.117132 
L 114.882767 124.961705 
L 113.656799 127.270332 
L 116.224476 128.852569 
L 119.037356 127.521818 
" clip-path="url(#p451d26e7bc)" style="fill: #440154; stroke: #000000; stroke-linejoin: miter"/>
   </g>
   <g id="patch_32">
    <path d="M 125.132939 127.137595 
L 120.639504 124.368681 
L 115.716963 126.697494 
L 117.168101 130.905694 
L 122.987494 131.177692 
L 122.135228 126.429852 
L 118.809861 126.274425 
L 117.583892 128.583052 
L 120.15157 130.165289 
L 122.96445 128.834538 
" clip-path="url(#p451d26e7bc)" style="fill: #440154; stroke: #000000; stroke-linejoin: miter"/>
   </g>
   <g id="patch_33">
    <path d="M 128.958762 125.668175 
L 124.465327 122.89926 
L 119.542786 125.228074 
L 120.993924 129.436274 
L 126.813317 129.708272 
L 125.961051 124.960432 
L 122.635684 124.805005 
L 121.409716 127.113632 
L 123.977393 128.695869 
L 126.790273 127.365118 
" clip-path="url(#p451d26e7bc)" style="fill: #440154; stroke: #000000; stroke-linejoin: miter"/>
   </g>
   <g id="patch_34">
    <path d="M 190.695968 150.601023 
L 136.774744 117.374045 
L 77.704257 145.319803 
L 95.117914 195.81821 
L 164.950631 199.082183 
L 155.807176 141.131558 
L 113.907546 139.173175 
L 98.460344 168.261871 
L 130.813078 188.198058 
L 166.25537 171.430603 
" clip-path="url(#p451d26e7bc)" style="fill: #440154; stroke: #000000; stroke-linejoin: miter"/>
   </g>
   <g id="patch_35">
    <path d="M 142.65658 159.799381 
L 138.163145 157.030466 
L 133.240605 159.35928 
L 134.691743 163.56748 
L 140.511136 163.839478 
L 139.65887 159.091638 
L 136.333502 158.936211 
L 135.107534 161.244837 
L 137.675211 162.827075 
L 140.488091 161.496324 
" clip-path="url(#p451d26e7bc)" style="fill: #440154; stroke: #000000; stroke-linejoin: miter"/>
   </g>
   <g id="patch_36">
    <path d="M 139.882746 157.346979 
L 135.389311 154.578065 
L 130.466771 156.906878 
L 131.917909 161.115078 
L 137.737302 161.387076 
L 136.885036 156.639236 
L 133.559668 156.483809 
L 132.3337 158.792436 
L 134.901377 160.374673 
L 137.714258 159.043922 
" clip-path="url(#p451d26e7bc)" style="fill: #440154; stroke: #000000; stroke-linejoin: miter"/>
   </g>
   <g id="patch_37">
    <path d="M 135.580202 157.433941 
L 131.086767 154.665026 
L 126.164226 156.99384 
L 127.615364 161.20204 
L 133.434757 161.474038 
L 132.582492 156.726198 
L 129.257124 156.570771 
L 128.031156 158.879398 
L 130.598833 160.461635 
L 133.411713 159.130884 
" clip-path="url(#p451d26e7bc)" style="fill: #440154; stroke: #000000; stroke-linejoin: miter"/>
   </g>
   <g id="patch_38">
    <path d="M 132.988851 159.994783 
L 128.495416 157.225868 
L 123.572875 159.554681 
L 125.024013 163.762882 
L 130.843406 164.03488 
L 129.99114 159.28704 
L 126.665773 159.131612 
L 125.439805 161.440239 
L 128.007482 163.022476 
L 130.820362 161.691726 
" clip-path="url(#p451d26e7bc)" style="fill: #440154; stroke: #000000; stroke-linejoin: miter"/>
   </g>
   <g id="patch_39">
    <path d="M 134.060034 163.101138 
L 129.566598 160.332223 
L 124.644058 162.661036 
L 126.095196 166.869237 
L 131.914589 167.141235 
L 131.062323 162.393395 
L 127.736955 162.237968 
L 126.510987 164.546594 
L 129.078664 166.128831 
L 131.891545 164.798081 
" clip-path="url(#p451d26e7bc)" style="fill: #440154; stroke: #000000; stroke-linejoin: miter"/>
   </g>
   <g id="patch_40">
    <path d="M 137.987127 164.413858 
L 133.493692 161.644943 
L 128.571151 163.973757 
L 130.022289 168.181957 
L 135.841682 168.453955 
L 134.989416 163.706115 
L 131.664049 163.550688 
L 130.43808 165.859314 
L 133.005758 167.441552 
L 135.818638 166.110801 
" clip-path="url(#p451d26e7bc)" style="fill: #440154; stroke: #000000; stroke-linejoin: miter"/>
   </g>
   <g id="patch_41">
    <path d="M 141.81295 162.944438 
L 137.319515 160.175523 
L 132.396975 162.504336 
L 133.848113 166.712537 
L 139.667506 166.984535 
L 138.81524 162.236695 
L 135.489872 162.081268 
L 134.263904 164.389894 
L 136.831581 165.972131 
L 139.644461 164.641381 
" clip-path="url(#p451d26e7bc)" style="fill: #440154; stroke: #000000; stroke-linejoin: miter"/>
   </g>
   <g id="patch_42">
    <path d="M 237.821091 166.353664 
L 183.899867 133.126686 
L 124.829381 161.072444 
L 142.243037 211.570851 
L 212.075755 214.834824 
L 202.9323 156.8842 
L 161.032669 154.925816 
L 145.585467 184.014512 
L 177.938202 203.950699 
L 213.380493 187.183244 
" clip-path="url(#p451d26e7bc)" style="fill: #440154; stroke: #000000; stroke-linejoin: miter"/>
   </g>
   <g id="patch_43">
    <path d="M 189.781704 175.552022 
L 185.288268 172.783107 
L 180.365728 175.111921 
L 181.816866 179.320121 
L 187.636259 179.592119 
L 186.783993 174.844279 
L 183.458625 174.688852 
L 182.232657 176.997479 
L 184.800334 178.579716 
L 187.613215 177.248965 
" clip-path="url(#p451d26e7bc)" style="fill: #440154; stroke: #000000; stroke-linejoin: miter"/>
   </g>
   <g id="patch_44">
    <path d="M 187.00787 173.09962 
L 182.514434 170.330706 
L 177.591894 172.659519 
L 179.043032 176.867719 
L 184.862425 177.139717 
L 184.010159 172.391877 
L 180.684792 172.23645 
L 179.458823 174.545077 
L 182.0265 176.127314 
L 184.839381 174.796563 
" clip-path="url(#p451d26e7bc)" style="fill: #440154; stroke: #000000; stroke-linejoin: miter"/>
   </g>
   <g id="patch_45">
    <path d="M 182.705325 173.186582 
L 178.21189 170.417668 
L 173.28935 172.746481 
L 174.740488 176.954681 
L 180.559881 177.226679 
L 179.707615 172.478839 
L 176.382247 172.323412 
L 175.156279 174.632039 
L 177.723956 176.214276 
L 180.536836 174.883525 
" clip-path="url(#p451d26e7bc)" style="fill: #440154; stroke: #000000; stroke-linejoin: miter"/>
   </g>
   <g id="patch_46">
    <path d="M 180.113974 175.747424 
L 175.620539 172.978509 
L 170.697999 175.307322 
L 172.149137 179.515523 
L 177.96853 179.787521 
L 177.116264 175.039681 
L 173.790896 174.884254 
L 172.564928 177.19288 
L 175.132605 178.775117 
L 177.945485 177.444367 
" clip-path="url(#p451d26e7bc)" style="fill: #440154; stroke: #000000; stroke-linejoin: miter"/>
   </g>
   <g id="patch_47">
    <path d="M 181.185157 178.853779 
L 176.691721 176.084864 
L 171.769181 178.413677 
L 173.220319 182.621878 
L 179.039712 182.893876 
L 178.187446 178.146036 
L 174.862079 177.990609 
L 173.63611 180.299235 
L 176.203787 181.881472 
L 179.016668 180.550722 
" clip-path="url(#p451d26e7bc)" style="fill: #440154; stroke: #000000; stroke-linejoin: miter"/>
   </g>
   <g id="patch_48">
    <path d="M 185.11225 180.166499 
L 180.618815 177.397584 
L 175.696275 179.726398 
L 177.147413 183.934598 
L 182.966806 184.206596 
L 182.11454 179.458756 
L 178.789172 179.303329 
L 177.563204 181.611956 
L 180.130881 183.194193 
L 182.943761 181.863442 
" clip-path="url(#p451d26e7bc)" style="fill: #440154; stroke: #000000; stroke-linejoin: miter"/>
   </g>
   <g id="patch_49">
    <path d="M 188.938074 178.697079 
L 184.444638 175.928164 
L 179.522098 178.256978 
L 180.973236 182.465178 
L 186.792629 182.737176 
L 185.940363 177.989336 
L 182.614995 177.833909 
L 181.389027 180.142535 
L 183.956704 181.724773 
L 186.769585 180.394022 
" clip-path="url(#p451d26e7bc)" style="fill: #440154; stroke: #000000; stroke-linejoin: miter"/>
   </g>
   <g id="patch_50">
    <path d="M 283.730971 148.720623 
L 229.809746 115.493645 
L 170.73926 143.439404 
L 188.152916 193.93781 
L 257.985634 197.201784 
L 248.842179 139.251159 
L 206.942548 137.292775 
L 191.495346 166.381471 
L 223.848081 186.317658 
L 259.290373 169.550203 
" clip-path="url(#p451d26e7bc)" style="fill: #440154; stroke: #000000; stroke-linejoin: miter"/>
   </g>
   <g id="patch_51">
    <path d="M 235.691583 157.918981 
L 231.198148 155.150067 
L 226.275607 157.47888 
L 227.726745 161.68708 
L 233.546138 161.959078 
L 232.693872 157.211238 
L 229.368505 157.055811 
L 228.142536 159.364438 
L 230.710214 160.946675 
L 233.523094 159.615924 
" clip-path="url(#p451d26e7bc)" style="fill: #440154; stroke: #000000; stroke-linejoin: miter"/>
   </g>
   <g id="patch_52">
    <path d="M 232.917749 155.46658 
L 228.424314 152.697665 
L 223.501773 155.026478 
L 224.952911 159.234679 
L 230.772304 159.506676 
L 229.920038 154.758837 
L 226.594671 154.603409 
L 225.368702 156.912036 
L 227.93638 158.494273 
L 230.74926 157.163523 
" clip-path="url(#p451d26e7bc)" style="fill: #440154; stroke: #000000; stroke-linejoin: miter"/>
   </g>
   <g id="patch_53">
    <path d="M 228.615205 155.553542 
L 224.121769 152.784627 
L 219.199229 155.11344 
L 220.650367 159.321641 
L 226.46976 159.593638 
L 225.617494 154.845799 
L 222.292127 154.690371 
L 221.066158 156.998998 
L 223.633835 158.581235 
L 226.446716 157.250485 
" clip-path="url(#p451d26e7bc)" style="fill: #440154; stroke: #000000; stroke-linejoin: miter"/>
   </g>
   <g id="patch_54">
    <path d="M 226.023854 158.114383 
L 221.530418 155.345468 
L 216.607878 157.674282 
L 218.059016 161.882482 
L 223.878409 162.15448 
L 223.026143 157.40664 
L 219.700775 157.251213 
L 218.474807 159.559839 
L 221.042484 161.142077 
L 223.855365 159.811326 
" clip-path="url(#p451d26e7bc)" style="fill: #440154; stroke: #000000; stroke-linejoin: miter"/>
   </g>
   <g id="patch_55">
    <path d="M 227.095036 161.220738 
L 222.601601 158.451824 
L 217.67906 160.780637 
L 219.130198 164.988837 
L 224.949591 165.260835 
L 224.097325 160.512995 
L 220.771958 160.357568 
L 219.545989 162.666195 
L 222.113667 164.248432 
L 224.926547 162.917681 
" clip-path="url(#p451d26e7bc)" style="fill: #440154; stroke: #000000; stroke-linejoin: miter"/>
   </g>
   <g id="patch_56">
    <path d="M 231.02213 162.533458 
L 226.528694 159.764544 
L 221.606154 162.093357 
L 223.057292 166.301557 
L 228.876685 166.573555 
L 228.024419 161.825715 
L 224.699051 161.670288 
L 223.473083 163.978915 
L 226.04076 165.561152 
L 228.853641 164.230401 
" clip-path="url(#p451d26e7bc)" style="fill: #440154; stroke: #000000; stroke-linejoin: miter"/>
   </g>
   <g id="patch_57">
    <path d="M 234.847953 161.064038 
L 230.354518 158.295124 
L 225.431977 160.623937 
L 226.883115 164.832137 
L 232.702508 165.104135 
L 231.850242 160.356295 
L 228.524875 160.200868 
L 227.298906 162.509495 
L 229.866584 164.091732 
L 232.679464 162.760981 
" clip-path="url(#p451d26e7bc)" style="fill: #440154; stroke: #000000; stroke-linejoin: miter"/>
   </g>
  </g>
 </g>
 <defs>
  <clipPath id="p451d26e7bc">
   <rect x="0" y="-0" width="357.12" height="266.112"/>
  </clipPath>
 </defs>
</svg>
