<?xml version="1.0" encoding="utf-8" standalone="no"?>
<!DOCTYPE svg PUBLIC "-//W3C//DTD SVG 1.1//EN"
  "http://www.w3.org/Graphics/SVG/1.1/DTD/svg11.dtd">
<svg xmlns:xlink="http://www.w3.org/1999/xlink" width="357.12pt" height="266.112pt" viewBox="0 0 357.12 266.112" xmlns="http://www.w3.org/2000/svg" version="1.1">
 <metadata>
  <rdf:RDF xmlns:dc="http://purl.org/dc/elements/1.1/" xmlns:cc="http://creativecommons.org/ns#" xmlns:rdf="http://www.w3.org/1999/02/22-rdf-syntax-ns#">
   <cc:Work>
    <dc:type rdf:resource="http://purl.org/dc/dcmitype/StillImage"/>
    <dc:date>2023-12-24T19:54:34.375095</dc:date>
    <dc:format>image/svg+xml</dc:format>
    <dc:creator>
     <cc:Agent>
      <dc:title>Matplotlib v3.7.2, https://matplotlib.org/</dc:title>
     </cc:Agent>
    </dc:creator>
   </cc:Work>
  </rdf:RDF>
 </metadata>
 <defs>
  <style type="text/css">*{stroke-linejoin: round; stroke-linecap: butt}</style>
 </defs>
 <g id="figure_1">
  <g id="patch_1">
   <path d="M 0 266.112 
L 357.12 266.112 
L 357.12 0 
L 0 0 
L 0 266.112 
z
" style="fill: none"/>
  </g>
  <g id="axes_1">
   <g id="patch_2">
    <path d="M 151.874578 172.700532 
L 181.583343 171.399832 
L 194.926054 151.577566 
L 178.56 133.056 
L 148.851235 134.3567 
L 135.508524 154.178966 
L 166.169395 164.953442 
L 179.727094 158.301432 
L 178.774988 146.226257 
L 164.265183 140.80309 
L 150.707484 147.455099 
L 151.65959 159.530275 
" clip-path="url(#p0845fd4acd)" style="fill: #5ec962; fill-opacity: 0.325; stroke: #000000; stroke-linejoin: miter"/>
   </g>
   <g id="patch_3">
    <path d="M 163.946554 154.766101 
L 165.361257 154.704163 
L 165.996625 153.760245 
L 165.217289 152.878266 
L 163.802586 152.940204 
L 163.167218 153.884121 
L 164.626679 154.38982 
L 165.264006 154.077119 
L 165.219249 153.509482 
L 164.537164 153.254547 
L 163.899837 153.567248 
L 163.944594 154.134885 
" clip-path="url(#p0845fd4acd)" style="fill: #5ec962; fill-opacity: 0.325; stroke: #000000; stroke-linejoin: miter"/>
   </g>
   <g id="patch_4">
    <path d="M 165.361257 154.704163 
L 166.775961 154.642225 
L 167.411328 153.698307 
L 166.631992 152.816328 
L 165.217289 152.878266 
L 164.581922 153.822183 
L 166.041382 154.327882 
L 166.67871 154.01518 
L 166.633952 153.447544 
L 165.951868 153.192609 
L 165.31454 153.50531 
L 165.359297 154.072947 
" clip-path="url(#p0845fd4acd)" style="fill: #5ec962; fill-opacity: 0.325; stroke: #000000; stroke-linejoin: miter"/>
   </g>
   <g id="patch_5">
    <path d="M 165.996625 153.760245 
L 167.411328 153.698307 
L 168.046695 152.75439 
L 167.267359 151.87241 
L 165.852656 151.934349 
L 165.217289 152.878266 
L 166.676749 153.383964 
L 167.314077 153.071263 
L 167.26932 152.503627 
L 166.587235 152.248691 
L 165.949907 152.561393 
L 165.994664 153.129029 
" clip-path="url(#p0845fd4acd)" style="fill: #5ec962; fill-opacity: 0.325; stroke: #000000; stroke-linejoin: miter"/>
   </g>
   <g id="patch_6">
    <path d="M 165.217289 152.878266 
L 166.631992 152.816328 
L 167.267359 151.87241 
L 166.488023 150.990431 
L 165.07332 151.052369 
L 164.437953 151.996287 
L 165.897413 152.501985 
L 166.534741 152.189284 
L 166.489984 151.621647 
L 165.807899 151.366712 
L 165.170571 151.679413 
L 165.215328 152.24705 
" clip-path="url(#p0845fd4acd)" style="fill: #5ec962; fill-opacity: 0.325; stroke: #000000; stroke-linejoin: miter"/>
   </g>
   <g id="patch_7">
    <path d="M 163.802586 152.940204 
L 165.217289 152.878266 
L 165.852656 151.934349 
L 165.07332 151.052369 
L 163.658617 151.114307 
L 163.02325 152.058225 
L 164.48271 152.563923 
L 165.120038 152.251222 
L 165.075281 151.683585 
L 164.393196 151.42865 
L 163.755868 151.741351 
L 163.800625 152.308988 
" clip-path="url(#p0845fd4acd)" style="fill: #5ec962; fill-opacity: 0.325; stroke: #000000; stroke-linejoin: miter"/>
   </g>
   <g id="patch_8">
    <path d="M 163.167218 153.884121 
L 164.581922 153.822183 
L 165.217289 152.878266 
L 164.437953 151.996287 
L 163.02325 152.058225 
L 162.387883 153.002142 
L 163.847343 153.507841 
L 164.484671 153.195139 
L 164.439913 152.627503 
L 163.757829 152.372568 
L 163.120501 152.685269 
L 163.165258 153.252905 
" clip-path="url(#p0845fd4acd)" style="fill: #5ec962; fill-opacity: 0.325; stroke: #000000; stroke-linejoin: miter"/>
   </g>
   <g id="patch_9">
    <path d="M 181.583343 171.399832 
L 211.292108 170.099132 
L 224.634819 150.276867 
L 208.268765 131.7553 
L 178.56 133.056 
L 165.217289 152.878266 
L 195.87816 163.652742 
L 209.435859 157.000733 
L 208.483753 144.925557 
L 193.973948 139.502391 
L 180.416249 146.1544 
L 181.368355 158.229575 
" clip-path="url(#p0845fd4acd)" style="fill: #5ec962; fill-opacity: 0.325; stroke: #000000; stroke-linejoin: miter"/>
   </g>
   <g id="patch_10">
    <path d="M 193.65532 153.465401 
L 195.070023 153.403463 
L 195.70539 152.459546 
L 194.926054 151.577566 
L 193.511351 151.639504 
L 192.875984 152.583422 
L 194.335444 153.08912 
L 194.972772 152.776419 
L 194.928015 152.208782 
L 194.24593 151.953847 
L 193.608602 152.266548 
L 193.653359 152.834185 
" clip-path="url(#p0845fd4acd)" style="fill: #5ec962; fill-opacity: 0.325; stroke: #000000; stroke-linejoin: miter"/>
   </g>
   <g id="patch_11">
    <path d="M 195.070023 153.403463 
L 196.484726 153.341525 
L 197.120093 152.397608 
L 196.340757 151.515628 
L 194.926054 151.577566 
L 194.290687 152.521484 
L 195.750147 153.027182 
L 196.387475 152.714481 
L 196.342718 152.146844 
L 195.660633 151.891909 
L 195.023305 152.20461 
L 195.068062 152.772247 
" clip-path="url(#p0845fd4acd)" style="fill: #5ec962; fill-opacity: 0.325; stroke: #000000; stroke-linejoin: miter"/>
   </g>
   <g id="patch_12">
    <path d="M 195.70539 152.459546 
L 197.120093 152.397608 
L 197.75546 151.45369 
L 196.976124 150.571711 
L 195.561421 150.633649 
L 194.926054 151.577566 
L 196.385514 152.083265 
L 197.022842 151.770563 
L 196.978085 151.202927 
L 196.296 150.947992 
L 195.658672 151.260693 
L 195.703429 151.828329 
" clip-path="url(#p0845fd4acd)" style="fill: #5ec962; fill-opacity: 0.325; stroke: #000000; stroke-linejoin: miter"/>
   </g>
   <g id="patch_13">
    <path d="M 194.926054 151.577566 
L 196.340757 151.515628 
L 196.976124 150.571711 
L 196.196788 149.689731 
L 194.782085 149.751669 
L 194.146718 150.695587 
L 195.606178 151.201285 
L 196.243506 150.888584 
L 196.198749 150.320948 
L 195.516664 150.066012 
L 194.879336 150.378714 
L 194.924093 150.94635 
" clip-path="url(#p0845fd4acd)" style="fill: #5ec962; fill-opacity: 0.325; stroke: #000000; stroke-linejoin: miter"/>
   </g>
   <g id="patch_14">
    <path d="M 193.511351 151.639504 
L 194.926054 151.577566 
L 195.561421 150.633649 
L 194.782085 149.751669 
L 193.367382 149.813608 
L 192.732015 150.757525 
L 194.191475 151.263223 
L 194.828803 150.950522 
L 194.784046 150.382886 
L 194.101961 150.12795 
L 193.464633 150.440652 
L 193.50939 151.008288 
" clip-path="url(#p0845fd4acd)" style="fill: #5ec962; fill-opacity: 0.325; stroke: #000000; stroke-linejoin: miter"/>
   </g>
   <g id="patch_15">
    <path d="M 192.875984 152.583422 
L 194.290687 152.521484 
L 194.926054 151.577566 
L 194.146718 150.695587 
L 192.732015 150.757525 
L 192.096648 151.701442 
L 193.556108 152.207141 
L 194.193436 151.894439 
L 194.148679 151.326803 
L 193.466594 151.071868 
L 192.829266 151.384569 
L 192.874023 151.952206 
" clip-path="url(#p0845fd4acd)" style="fill: #5ec962; fill-opacity: 0.325; stroke: #000000; stroke-linejoin: miter"/>
   </g>
   <g id="patch_16">
    <path d="M 194.926054 151.577566 
L 224.634819 150.276867 
L 237.977531 130.454601 
L 221.611476 111.933034 
L 191.902711 113.233734 
L 178.56 133.056 
L 209.220871 143.830476 
L 222.77857 137.178467 
L 221.826464 125.103291 
L 207.316659 119.680125 
L 193.75896 126.332134 
L 194.711066 138.407309 
" clip-path="url(#p0845fd4acd)" style="fill: #5ec962; fill-opacity: 0.325; stroke: #000000; stroke-linejoin: miter"/>
   </g>
   <g id="patch_17">
    <path d="M 206.998031 133.643135 
L 208.412734 133.581197 
L 209.048101 132.63728 
L 208.268765 131.7553 
L 206.854062 131.817238 
L 206.218695 132.761156 
L 207.678155 133.266854 
L 208.315483 132.954153 
L 208.270726 132.386516 
L 207.588641 132.131581 
L 206.951313 132.444283 
L 206.99607 133.011919 
" clip-path="url(#p0845fd4acd)" style="fill: #5ec962; fill-opacity: 0.325; stroke: #000000; stroke-linejoin: miter"/>
   </g>
   <g id="patch_18">
    <path d="M 208.412734 133.581197 
L 209.827437 133.519259 
L 210.462804 132.575342 
L 209.683468 131.693362 
L 208.268765 131.7553 
L 207.633398 132.699218 
L 209.092858 133.204916 
L 209.730186 132.892215 
L 209.685429 132.324578 
L 209.003344 132.069643 
L 208.366016 132.382344 
L 208.410773 132.949981 
" clip-path="url(#p0845fd4acd)" style="fill: #5ec962; fill-opacity: 0.325; stroke: #000000; stroke-linejoin: miter"/>
   </g>
   <g id="patch_19">
    <path d="M 209.048101 132.63728 
L 210.462804 132.575342 
L 211.098171 131.631424 
L 210.318836 130.749445 
L 208.904132 130.811383 
L 208.268765 131.7553 
L 209.728225 132.260999 
L 210.365553 131.948297 
L 210.320796 131.380661 
L 209.638711 131.125726 
L 209.001384 131.438427 
L 209.046141 132.006063 
" clip-path="url(#p0845fd4acd)" style="fill: #5ec962; fill-opacity: 0.325; stroke: #000000; stroke-linejoin: miter"/>
   </g>
   <g id="patch_20">
    <path d="M 208.268765 131.7553 
L 209.683468 131.693362 
L 210.318836 130.749445 
L 209.5395 129.867465 
L 208.124797 129.929403 
L 207.489429 130.873321 
L 208.94889 131.379019 
L 209.586217 131.066318 
L 209.54146 130.498682 
L 208.859375 130.243746 
L 208.222048 130.556448 
L 208.266805 131.124084 
" clip-path="url(#p0845fd4acd)" style="fill: #5ec962; fill-opacity: 0.325; stroke: #000000; stroke-linejoin: miter"/>
   </g>
   <g id="patch_21">
    <path d="M 206.854062 131.817238 
L 208.268765 131.7553 
L 208.904132 130.811383 
L 208.124797 129.929403 
L 206.710093 129.991342 
L 206.074726 130.935259 
L 207.534186 131.440957 
L 208.171514 131.128256 
L 208.126757 130.56062 
L 207.444672 130.305684 
L 206.807344 130.618386 
L 206.852102 131.186022 
" clip-path="url(#p0845fd4acd)" style="fill: #5ec962; fill-opacity: 0.325; stroke: #000000; stroke-linejoin: miter"/>
   </g>
   <g id="patch_22">
    <path d="M 206.218695 132.761156 
L 207.633398 132.699218 
L 208.268765 131.7553 
L 207.489429 130.873321 
L 206.074726 130.935259 
L 205.439359 131.879176 
L 206.898819 132.384875 
L 207.536147 132.072174 
L 207.49139 131.504537 
L 206.809305 131.249602 
L 206.171977 131.562303 
L 206.216734 132.12994 
" clip-path="url(#p0845fd4acd)" style="fill: #5ec962; fill-opacity: 0.325; stroke: #000000; stroke-linejoin: miter"/>
   </g>
   <g id="patch_23">
    <path d="M 178.56 133.056 
L 208.268765 131.7553 
L 221.611476 111.933034 
L 205.245422 93.411468 
L 175.536657 94.712168 
L 162.193946 114.534434 
L 192.854817 125.30891 
L 206.412516 118.656901 
L 205.46041 106.581725 
L 190.950605 101.158558 
L 177.392906 107.810568 
L 178.345012 119.885743 
" clip-path="url(#p0845fd4acd)" style="fill: #5ec962; fill-opacity: 0.325; stroke: #000000; stroke-linejoin: miter"/>
   </g>
   <g id="patch_24">
    <path d="M 190.631977 115.121569 
L 192.04668 115.059631 
L 192.682047 114.115713 
L 191.902711 113.233734 
L 190.488008 113.295672 
L 189.852641 114.23959 
L 191.312101 114.745288 
L 191.949429 114.432587 
L 191.904672 113.86495 
L 191.222587 113.610015 
L 190.585259 113.922716 
L 190.630016 114.490353 
" clip-path="url(#p0845fd4acd)" style="fill: #5ec962; fill-opacity: 0.325; stroke: #000000; stroke-linejoin: miter"/>
   </g>
   <g id="patch_25">
    <path d="M 192.04668 115.059631 
L 193.461383 114.997693 
L 194.09675 114.053775 
L 193.317414 113.171796 
L 191.902711 113.233734 
L 191.267344 114.177651 
L 192.726804 114.68335 
L 193.364132 114.370649 
L 193.319375 113.803012 
L 192.63729 113.548077 
L 191.999962 113.860778 
L 192.044719 114.428415 
" clip-path="url(#p0845fd4acd)" style="fill: #5ec962; fill-opacity: 0.325; stroke: #000000; stroke-linejoin: miter"/>
   </g>
   <g id="patch_26">
    <path d="M 192.682047 114.115713 
L 194.09675 114.053775 
L 194.732117 113.109858 
L 193.952782 112.227879 
L 192.538078 112.289817 
L 191.902711 113.233734 
L 193.362171 113.739432 
L 193.999499 113.426731 
L 193.954742 112.859095 
L 193.272657 112.604159 
L 192.635329 112.916861 
L 192.680087 113.484497 
" clip-path="url(#p0845fd4acd)" style="fill: #5ec962; fill-opacity: 0.325; stroke: #000000; stroke-linejoin: miter"/>
   </g>
   <g id="patch_27">
    <path d="M 191.902711 113.233734 
L 193.317414 113.171796 
L 193.952782 112.227879 
L 193.173446 111.345899 
L 191.758743 111.407837 
L 191.123375 112.351755 
L 192.582836 112.857453 
L 193.220163 112.544752 
L 193.175406 111.977115 
L 192.493321 111.72218 
L 191.855994 112.034881 
L 191.900751 112.602518 
" clip-path="url(#p0845fd4acd)" style="fill: #5ec962; fill-opacity: 0.325; stroke: #000000; stroke-linejoin: miter"/>
   </g>
   <g id="patch_28">
    <path d="M 190.488008 113.295672 
L 191.902711 113.233734 
L 192.538078 112.289817 
L 191.758743 111.407837 
L 190.344039 111.469775 
L 189.708672 112.413693 
L 191.168132 112.919391 
L 191.80546 112.60669 
L 191.760703 112.039053 
L 191.078618 111.784118 
L 190.44129 112.09682 
L 190.486048 112.664456 
" clip-path="url(#p0845fd4acd)" style="fill: #5ec962; fill-opacity: 0.325; stroke: #000000; stroke-linejoin: miter"/>
   </g>
   <g id="patch_29">
    <path d="M 189.852641 114.23959 
L 191.267344 114.177651 
L 191.902711 113.233734 
L 191.123375 112.351755 
L 189.708672 112.413693 
L 189.073305 113.35761 
L 190.532765 113.863309 
L 191.170093 113.550607 
L 191.125336 112.982971 
L 190.443251 112.728036 
L 189.805923 113.040737 
L 189.85068 113.608373 
" clip-path="url(#p0845fd4acd)" style="fill: #5ec962; fill-opacity: 0.325; stroke: #000000; stroke-linejoin: miter"/>
   </g>
   <g id="patch_30">
    <path d="M 148.851235 134.3567 
L 178.56 133.056 
L 191.902711 113.233734 
L 175.536657 94.712168 
L 145.827892 96.012868 
L 132.485181 115.835133 
L 163.146052 126.609609 
L 176.703751 119.9576 
L 175.751645 107.882425 
L 161.24184 102.459258 
L 147.684141 109.111267 
L 148.636247 121.186443 
" clip-path="url(#p0845fd4acd)" style="fill: #5ec962; fill-opacity: 0.325; stroke: #000000; stroke-linejoin: miter"/>
   </g>
   <g id="patch_31">
    <path d="M 160.923212 116.422269 
L 162.337915 116.360331 
L 162.973282 115.416413 
L 162.193946 114.534434 
L 160.779243 114.596372 
L 160.143876 115.540289 
L 161.603336 116.045988 
L 162.240664 115.733286 
L 162.195907 115.16565 
L 161.513822 114.910715 
L 160.876494 115.223416 
L 160.921251 115.791052 
" clip-path="url(#p0845fd4acd)" style="fill: #5ec962; fill-opacity: 0.325; stroke: #000000; stroke-linejoin: miter"/>
   </g>
   <g id="patch_32">
    <path d="M 162.337915 116.360331 
L 163.752618 116.298392 
L 164.387985 115.354475 
L 163.608649 114.472496 
L 162.193946 114.534434 
L 161.558579 115.478351 
L 163.018039 115.98405 
L 163.655367 115.671348 
L 163.61061 115.103712 
L 162.928525 114.848777 
L 162.291197 115.161478 
L 162.335954 115.729114 
" clip-path="url(#p0845fd4acd)" style="fill: #5ec962; fill-opacity: 0.325; stroke: #000000; stroke-linejoin: miter"/>
   </g>
   <g id="patch_33">
    <path d="M 162.973282 115.416413 
L 164.387985 115.354475 
L 165.023352 114.410558 
L 164.244016 113.528578 
L 162.829313 113.590516 
L 162.193946 114.534434 
L 163.653406 115.040132 
L 164.290734 114.727431 
L 164.245977 114.159794 
L 163.563892 113.904859 
L 162.926564 114.217561 
L 162.971321 114.785197 
" clip-path="url(#p0845fd4acd)" style="fill: #5ec962; fill-opacity: 0.325; stroke: #000000; stroke-linejoin: miter"/>
   </g>
   <g id="patch_34">
    <path d="M 162.193946 114.534434 
L 163.608649 114.472496 
L 164.244016 113.528578 
L 163.46468 112.646599 
L 162.049977 112.708537 
L 161.41461 113.652454 
L 162.87407 114.158153 
L 163.511398 113.845452 
L 163.466641 113.277815 
L 162.784556 113.02288 
L 162.147228 113.335581 
L 162.191985 113.903218 
" clip-path="url(#p0845fd4acd)" style="fill: #5ec962; fill-opacity: 0.325; stroke: #000000; stroke-linejoin: miter"/>
   </g>
   <g id="patch_35">
    <path d="M 160.779243 114.596372 
L 162.193946 114.534434 
L 162.829313 113.590516 
L 162.049977 112.708537 
L 160.635274 112.770475 
L 159.999907 113.714392 
L 161.459367 114.220091 
L 162.096695 113.90739 
L 162.051938 113.339753 
L 161.369853 113.084818 
L 160.732525 113.397519 
L 160.777282 113.965156 
" clip-path="url(#p0845fd4acd)" style="fill: #5ec962; fill-opacity: 0.325; stroke: #000000; stroke-linejoin: miter"/>
   </g>
   <g id="patch_36">
    <path d="M 160.143876 115.540289 
L 161.558579 115.478351 
L 162.193946 114.534434 
L 161.41461 113.652454 
L 159.999907 113.714392 
L 159.36454 114.65831 
L 160.824 115.164008 
L 161.461328 114.851307 
L 161.416571 114.283671 
L 160.734486 114.028735 
L 160.097158 114.341437 
L 160.141915 114.909073 
" clip-path="url(#p0845fd4acd)" style="fill: #5ec962; fill-opacity: 0.325; stroke: #000000; stroke-linejoin: miter"/>
   </g>
   <g id="patch_37">
    <path d="M 135.508524 154.178966 
L 165.217289 152.878266 
L 178.56 133.056 
L 162.193946 114.534434 
L 132.485181 115.835133 
L 119.142469 135.657399 
L 149.803341 146.431875 
L 163.36104 139.779866 
L 162.408934 127.704691 
L 147.899129 122.281524 
L 134.34143 128.933533 
L 135.293536 141.008709 
" clip-path="url(#p0845fd4acd)" style="fill: #5ec962; fill-opacity: 0.325; stroke: #000000; stroke-linejoin: miter"/>
   </g>
   <g id="patch_38">
    <path d="M 147.5805 136.244535 
L 148.995203 136.182597 
L 149.630571 135.238679 
L 148.851235 134.3567 
L 147.436532 134.418638 
L 146.801164 135.362555 
L 148.260625 135.868254 
L 148.897952 135.555552 
L 148.853195 134.987916 
L 148.17111 134.732981 
L 147.533783 135.045682 
L 147.57854 135.613318 
" clip-path="url(#p0845fd4acd)" style="fill: #5ec962; fill-opacity: 0.325; stroke: #000000; stroke-linejoin: miter"/>
   </g>
   <g id="patch_39">
    <path d="M 148.995203 136.182597 
L 150.409907 136.120658 
L 151.045274 135.176741 
L 150.265938 134.294762 
L 148.851235 134.3567 
L 148.215868 135.300617 
L 149.675328 135.806316 
L 150.312656 135.493614 
L 150.267898 134.925978 
L 149.585814 134.671043 
L 148.948486 134.983744 
L 148.993243 135.55138 
" clip-path="url(#p0845fd4acd)" style="fill: #5ec962; fill-opacity: 0.325; stroke: #000000; stroke-linejoin: miter"/>
   </g>
   <g id="patch_40">
    <path d="M 149.630571 135.238679 
L 151.045274 135.176741 
L 151.680641 134.232824 
L 150.901305 133.350844 
L 149.486602 133.412782 
L 148.851235 134.3567 
L 150.310695 134.862398 
L 150.948023 134.549697 
L 150.903266 133.98206 
L 150.221181 133.727125 
L 149.583853 134.039826 
L 149.62861 134.607463 
" clip-path="url(#p0845fd4acd)" style="fill: #5ec962; fill-opacity: 0.325; stroke: #000000; stroke-linejoin: miter"/>
   </g>
   <g id="patch_41">
    <path d="M 148.851235 134.3567 
L 150.265938 134.294762 
L 150.901305 133.350844 
L 150.121969 132.468865 
L 148.707266 132.530803 
L 148.071899 133.47472 
L 149.531359 133.980419 
L 150.168687 133.667717 
L 150.12393 133.100081 
L 149.441845 132.845146 
L 148.804517 133.157847 
L 148.849274 133.725484 
" clip-path="url(#p0845fd4acd)" style="fill: #5ec962; fill-opacity: 0.325; stroke: #000000; stroke-linejoin: miter"/>
   </g>
   <g id="patch_42">
    <path d="M 147.436532 134.418638 
L 148.851235 134.3567 
L 149.486602 133.412782 
L 148.707266 132.530803 
L 147.292563 132.592741 
L 146.657196 133.536658 
L 148.116656 134.042357 
L 148.753984 133.729656 
L 148.709227 133.162019 
L 148.027142 132.907084 
L 147.389814 133.219785 
L 147.434571 133.787422 
" clip-path="url(#p0845fd4acd)" style="fill: #5ec962; fill-opacity: 0.325; stroke: #000000; stroke-linejoin: miter"/>
   </g>
   <g id="patch_43">
    <path d="M 146.801164 135.362555 
L 148.215868 135.300617 
L 148.851235 134.3567 
L 148.071899 133.47472 
L 146.657196 133.536658 
L 146.021829 134.480576 
L 147.481289 134.986274 
L 148.118616 134.673573 
L 148.073859 134.105937 
L 147.391775 133.851001 
L 146.754447 134.163703 
L 146.799204 134.731339 
" clip-path="url(#p0845fd4acd)" style="fill: #5ec962; fill-opacity: 0.325; stroke: #000000; stroke-linejoin: miter"/>
   </g>
  </g>
 </g>
 <defs>
  <clipPath id="p0845fd4acd">
   <rect x="0" y="-0" width="357.12" height="266.112"/>
  </clipPath>
 </defs>
</svg>
