<?xml version="1.0" encoding="utf-8" standalone="no"?>
<!DOCTYPE svg PUBLIC "-//W3C//DTD SVG 1.1//EN"
  "http://www.w3.org/Graphics/SVG/1.1/DTD/svg11.dtd">
<svg xmlns:xlink="http://www.w3.org/1999/xlink" width="357.12pt" height="266.112pt" viewBox="0 0 357.12 266.112" xmlns="http://www.w3.org/2000/svg" version="1.1">
 <metadata>
  <rdf:RDF xmlns:dc="http://purl.org/dc/elements/1.1/" xmlns:cc="http://creativecommons.org/ns#" xmlns:rdf="http://www.w3.org/1999/02/22-rdf-syntax-ns#">
   <cc:Work>
    <dc:type rdf:resource="http://purl.org/dc/dcmitype/StillImage"/>
    <dc:date>2023-12-24T19:54:34.242563</dc:date>
    <dc:format>image/svg+xml</dc:format>
    <dc:creator>
     <cc:Agent>
      <dc:title>Matplotlib v3.7.2, https://matplotlib.org/</dc:title>
     </cc:Agent>
    </dc:creator>
   </cc:Work>
  </rdf:RDF>
 </metadata>
 <defs>
  <style type="text/css">*{stroke-linejoin: round; stroke-linecap: butt}</style>
 </defs>
 <g id="figure_1">
  <g id="patch_1">
   <path d="M 0 266.112 
L 357.12 266.112 
L 357.12 0 
L 0 0 
L 0 266.112 
z
" style="fill: none"/>
  </g>
  <g id="axes_1">
   <g id="patch_2">
    <path d="M 221.759027 90.671898 
L 179.786512 90.007875 
L 165.968792 119.548203 
L 199.401488 138.469153 
L 233.881749 120.622615 
L 200.580639 97.08328 
L 181.424938 106.998023 
L 188.159784 123.637311 
L 211.477848 124.006212 
L 219.154359 107.594919 
" clip-path="url(#padd57279da)" style="fill: #21918c; fill-opacity: 0.55; stroke: #000000; stroke-linejoin: miter"/>
   </g>
   <g id="patch_3">
    <path d="M 202.55946 109.509276 
L 200.227653 109.472386 
L 199.460002 111.113516 
L 201.317374 112.16468 
L 203.232944 111.173205 
L 201.382457 109.880394 
L 200.337601 110.421199 
L 200.704956 111.328796 
L 201.97685 111.348918 
L 202.395569 110.453756 
" clip-path="url(#padd57279da)" style="fill: #21918c; fill-opacity: 0.55; stroke: #000000; stroke-linejoin: miter"/>
   </g>
   <g id="patch_4">
    <path d="M 200.591175 109.323568 
L 198.259368 109.286678 
L 197.491717 110.927807 
L 199.349089 111.978971 
L 201.264659 110.987496 
L 199.414172 109.694686 
L 198.369316 110.23549 
L 198.736671 111.143087 
L 200.008565 111.163209 
L 200.427284 110.268048 
" clip-path="url(#padd57279da)" style="fill: #21918c; fill-opacity: 0.55; stroke: #000000; stroke-linejoin: miter"/>
   </g>
   <g id="patch_5">
    <path d="M 199.391202 110.500904 
L 197.059395 110.464014 
L 196.291744 112.105143 
L 198.149116 113.156307 
L 200.064686 112.164833 
L 198.214199 110.872022 
L 197.169343 111.412826 
L 197.536698 112.320423 
L 198.808592 112.340545 
L 199.227311 111.445384 
" clip-path="url(#padd57279da)" style="fill: #21918c; fill-opacity: 0.55; stroke: #000000; stroke-linejoin: miter"/>
   </g>
   <g id="patch_6">
    <path d="M 200.159514 111.863949 
L 197.827707 111.827059 
L 197.060056 113.468188 
L 198.917428 114.519352 
L 200.832998 113.527878 
L 198.982511 112.235067 
L 197.937655 112.775871 
L 198.30501 113.683468 
L 199.576904 113.70359 
L 199.995623 112.808429 
" clip-path="url(#padd57279da)" style="fill: #21918c; fill-opacity: 0.55; stroke: #000000; stroke-linejoin: miter"/>
   </g>
   <g id="patch_7">
    <path d="M 202.127799 112.049658 
L 199.795992 112.012767 
L 199.028341 113.653897 
L 200.885713 114.705061 
L 202.801283 113.713586 
L 200.950796 112.420776 
L 199.90594 112.96158 
L 200.273295 113.869177 
L 201.545189 113.889299 
L 201.963908 112.994138 
" clip-path="url(#padd57279da)" style="fill: #21918c; fill-opacity: 0.55; stroke: #000000; stroke-linejoin: miter"/>
   </g>
   <g id="patch_8">
    <path d="M 203.327771 110.872321 
L 200.995965 110.835431 
L 200.228314 112.476561 
L 202.085686 113.527725 
L 204.001256 112.53625 
L 202.150769 111.243439 
L 201.105913 111.784244 
L 201.473268 112.691841 
L 202.745162 112.711963 
L 203.163881 111.816801 
" clip-path="url(#padd57279da)" style="fill: #21918c; fill-opacity: 0.55; stroke: #000000; stroke-linejoin: miter"/>
   </g>
   <g id="patch_9">
    <path d="M 186.329898 87.329139 
L 144.357383 86.665116 
L 130.539664 116.205445 
L 163.972359 135.126395 
L 198.45262 117.279857 
L 165.15151 93.740521 
L 145.99581 103.655265 
L 152.730655 120.294552 
L 176.048719 120.663454 
L 183.72523 104.25216 
" clip-path="url(#padd57279da)" style="fill: #21918c; fill-opacity: 0.55; stroke: #000000; stroke-linejoin: miter"/>
   </g>
   <g id="patch_10">
    <path d="M 167.130331 106.166518 
L 164.798524 106.129628 
L 164.030873 107.770757 
L 165.888245 108.821921 
L 167.803815 107.830447 
L 165.953328 106.537636 
L 164.908472 107.07844 
L 165.275827 107.986038 
L 166.547721 108.00616 
L 166.96644 107.110998 
" clip-path="url(#padd57279da)" style="fill: #21918c; fill-opacity: 0.55; stroke: #000000; stroke-linejoin: miter"/>
   </g>
   <g id="patch_11">
    <path d="M 165.162046 105.980809 
L 162.830239 105.943919 
L 162.062588 107.585048 
L 163.91996 108.636212 
L 165.83553 107.644738 
L 163.985043 106.351927 
L 162.940187 106.892731 
L 163.307542 107.800329 
L 164.579436 107.820451 
L 164.998155 106.925289 
" clip-path="url(#padd57279da)" style="fill: #21918c; fill-opacity: 0.55; stroke: #000000; stroke-linejoin: miter"/>
   </g>
   <g id="patch_12">
    <path d="M 163.962073 107.158145 
L 161.630266 107.121255 
L 160.862615 108.762385 
L 162.719987 109.813549 
L 164.635557 108.822074 
L 162.78507 107.529263 
L 161.740214 108.070067 
L 162.107569 108.977665 
L 163.379463 108.997787 
L 163.798182 108.102625 
" clip-path="url(#padd57279da)" style="fill: #21918c; fill-opacity: 0.55; stroke: #000000; stroke-linejoin: miter"/>
   </g>
   <g id="patch_13">
    <path d="M 164.730385 108.52119 
L 162.398578 108.4843 
L 161.630927 110.12543 
L 163.488299 111.176593 
L 165.403869 110.185119 
L 163.553382 108.892308 
L 162.508526 109.433112 
L 162.875881 110.34071 
L 164.147775 110.360832 
L 164.566494 109.46567 
" clip-path="url(#padd57279da)" style="fill: #21918c; fill-opacity: 0.55; stroke: #000000; stroke-linejoin: miter"/>
   </g>
   <g id="patch_14">
    <path d="M 166.69867 108.706899 
L 164.366863 108.670009 
L 163.599212 110.311138 
L 165.456584 111.362302 
L 167.372154 110.370828 
L 165.521667 109.078017 
L 164.476811 109.618821 
L 164.844166 110.526419 
L 166.11606 110.546541 
L 166.534779 109.651379 
" clip-path="url(#padd57279da)" style="fill: #21918c; fill-opacity: 0.55; stroke: #000000; stroke-linejoin: miter"/>
   </g>
   <g id="patch_15">
    <path d="M 167.898643 107.529563 
L 165.566836 107.492673 
L 164.799185 109.133802 
L 166.656557 110.184966 
L 168.572127 109.193492 
L 166.72164 107.900681 
L 165.676784 108.441485 
L 166.044139 109.349083 
L 167.316033 109.369204 
L 167.734752 108.474043 
" clip-path="url(#padd57279da)" style="fill: #21918c; fill-opacity: 0.55; stroke: #000000; stroke-linejoin: miter"/>
   </g>
   <g id="patch_16">
    <path d="M 164.730385 108.52119 
L 122.757869 107.857168 
L 108.94015 137.397496 
L 142.372845 156.318446 
L 176.853106 138.471908 
L 143.551997 114.932572 
L 124.396296 124.847316 
L 131.131141 141.486603 
L 154.449205 141.855505 
L 162.125716 125.444211 
" clip-path="url(#padd57279da)" style="fill: #21918c; fill-opacity: 0.55; stroke: #000000; stroke-linejoin: miter"/>
   </g>
   <g id="patch_17">
    <path d="M 145.530817 127.358569 
L 143.199011 127.321679 
L 142.43136 128.962808 
L 144.288732 130.013972 
L 146.204302 129.022498 
L 144.353815 127.729687 
L 143.308958 128.270491 
L 143.676313 129.178089 
L 144.948208 129.198211 
L 145.366927 128.303049 
" clip-path="url(#padd57279da)" style="fill: #21918c; fill-opacity: 0.55; stroke: #000000; stroke-linejoin: miter"/>
   </g>
   <g id="patch_18">
    <path d="M 143.562532 127.17286 
L 141.230726 127.13597 
L 140.463075 128.7771 
L 142.320447 129.828263 
L 144.236017 128.836789 
L 142.38553 127.543978 
L 141.340673 128.084782 
L 141.708028 128.99238 
L 142.979923 129.012502 
L 143.398642 128.11734 
" clip-path="url(#padd57279da)" style="fill: #21918c; fill-opacity: 0.55; stroke: #000000; stroke-linejoin: miter"/>
   </g>
   <g id="patch_19">
    <path d="M 142.362559 128.350197 
L 140.030753 128.313306 
L 139.263102 129.954436 
L 141.120474 131.0056 
L 143.036044 130.014125 
L 141.185557 128.721314 
L 140.1407 129.262119 
L 140.508056 130.169716 
L 141.77995 130.189838 
L 142.198669 129.294677 
" clip-path="url(#padd57279da)" style="fill: #21918c; fill-opacity: 0.55; stroke: #000000; stroke-linejoin: miter"/>
   </g>
   <g id="patch_20">
    <path d="M 143.130871 129.713242 
L 140.799065 129.676351 
L 140.031414 131.317481 
L 141.888786 132.368645 
L 143.804356 131.37717 
L 141.953869 130.084359 
L 140.909012 130.625164 
L 141.276367 131.532761 
L 142.548262 131.552883 
L 142.966981 130.657722 
" clip-path="url(#padd57279da)" style="fill: #21918c; fill-opacity: 0.55; stroke: #000000; stroke-linejoin: miter"/>
   </g>
   <g id="patch_21">
    <path d="M 145.099156 129.89895 
L 142.76735 129.86206 
L 141.999699 131.50319 
L 143.857071 132.554353 
L 145.772641 131.562879 
L 143.922154 130.270068 
L 142.877297 130.810872 
L 143.244652 131.71847 
L 144.516547 131.738592 
L 144.935266 130.84343 
" clip-path="url(#padd57279da)" style="fill: #21918c; fill-opacity: 0.55; stroke: #000000; stroke-linejoin: miter"/>
   </g>
   <g id="patch_22">
    <path d="M 146.299129 128.721614 
L 143.967323 128.684724 
L 143.199672 130.325853 
L 145.057044 131.377017 
L 146.972614 130.385543 
L 145.122127 129.092732 
L 144.07727 129.633536 
L 144.444625 130.541134 
L 145.71652 130.561256 
L 146.135239 129.666094 
" clip-path="url(#padd57279da)" style="fill: #21918c; fill-opacity: 0.55; stroke: #000000; stroke-linejoin: miter"/>
   </g>
   <g id="patch_23">
    <path d="M 178.56 133.056 
L 136.587485 132.391977 
L 122.769765 161.932306 
L 156.20246 180.853256 
L 190.682722 163.006717 
L 157.381612 139.467382 
L 138.225911 149.382126 
L 144.960757 166.021413 
L 168.278821 166.390315 
L 175.955331 149.979021 
" clip-path="url(#padd57279da)" style="fill: #21918c; fill-opacity: 0.55; stroke: #000000; stroke-linejoin: miter"/>
   </g>
   <g id="patch_24">
    <path d="M 159.360432 151.893379 
L 157.028626 151.856489 
L 156.260975 153.497618 
L 158.118347 154.548782 
L 160.033917 153.557308 
L 158.18343 152.264497 
L 157.138573 152.805301 
L 157.505929 153.712898 
L 158.777823 153.73302 
L 159.196542 152.837859 
" clip-path="url(#padd57279da)" style="fill: #21918c; fill-opacity: 0.55; stroke: #000000; stroke-linejoin: miter"/>
   </g>
   <g id="patch_25">
    <path d="M 157.392147 151.70767 
L 155.060341 151.67078 
L 154.29269 153.311909 
L 156.150062 154.363073 
L 158.065632 153.371599 
L 156.215145 152.078788 
L 155.170289 152.619592 
L 155.537644 153.52719 
L 156.809538 153.547311 
L 157.228257 152.65215 
" clip-path="url(#padd57279da)" style="fill: #21918c; fill-opacity: 0.55; stroke: #000000; stroke-linejoin: miter"/>
   </g>
   <g id="patch_26">
    <path d="M 156.192174 152.885006 
L 153.860368 152.848116 
L 153.092717 154.489245 
L 154.950089 155.540409 
L 156.865659 154.548935 
L 155.015172 153.256124 
L 153.970316 153.796928 
L 154.337671 154.704526 
L 155.609565 154.724648 
L 156.028284 153.829486 
" clip-path="url(#padd57279da)" style="fill: #21918c; fill-opacity: 0.55; stroke: #000000; stroke-linejoin: miter"/>
   </g>
   <g id="patch_27">
    <path d="M 156.960486 154.248051 
L 154.62868 154.211161 
L 153.861029 155.85229 
L 155.718401 156.903454 
L 157.633971 155.91198 
L 155.783484 154.619169 
L 154.738628 155.159973 
L 155.105983 156.067571 
L 156.377877 156.087693 
L 156.796596 155.192531 
" clip-path="url(#padd57279da)" style="fill: #21918c; fill-opacity: 0.55; stroke: #000000; stroke-linejoin: miter"/>
   </g>
   <g id="patch_28">
    <path d="M 158.928771 154.43376 
L 156.596965 154.39687 
L 155.829314 156.037999 
L 157.686686 157.089163 
L 159.602256 156.097689 
L 157.751769 154.804878 
L 156.706912 155.345682 
L 157.074268 156.25328 
L 158.346162 156.273401 
L 158.764881 155.37824 
" clip-path="url(#padd57279da)" style="fill: #21918c; fill-opacity: 0.55; stroke: #000000; stroke-linejoin: miter"/>
   </g>
   <g id="patch_29">
    <path d="M 160.128744 153.256424 
L 157.796938 153.219534 
L 157.029287 154.860663 
L 158.886659 155.911827 
L 160.802229 154.920353 
L 158.951742 153.627542 
L 157.906885 154.168346 
L 158.274241 155.075943 
L 159.546135 155.096065 
L 159.964854 154.200904 
" clip-path="url(#padd57279da)" style="fill: #21918c; fill-opacity: 0.55; stroke: #000000; stroke-linejoin: miter"/>
   </g>
   <g id="patch_30">
    <path d="M 213.989129 136.398758 
L 172.016613 135.734736 
L 158.198894 165.275064 
L 191.631589 184.196014 
L 226.111851 166.349476 
L 192.810741 142.81014 
L 173.65504 152.724884 
L 180.389885 169.364171 
L 203.70795 169.733073 
L 211.38446 153.321779 
" clip-path="url(#padd57279da)" style="fill: #21918c; fill-opacity: 0.55; stroke: #000000; stroke-linejoin: miter"/>
   </g>
   <g id="patch_31">
    <path d="M 194.789561 155.236137 
L 192.457755 155.199247 
L 191.690104 156.840376 
L 193.547476 157.89154 
L 195.463046 156.900066 
L 193.612559 155.607255 
L 192.567702 156.148059 
L 192.935058 157.055657 
L 194.206952 157.075779 
L 194.625671 156.180617 
" clip-path="url(#padd57279da)" style="fill: #21918c; fill-opacity: 0.55; stroke: #000000; stroke-linejoin: miter"/>
   </g>
   <g id="patch_32">
    <path d="M 192.821276 155.050428 
L 190.48947 155.013538 
L 189.721819 156.654668 
L 191.579191 157.705832 
L 193.494761 156.714357 
L 191.644274 155.421546 
L 190.599417 155.96235 
L 190.966773 156.869948 
L 192.238667 156.89007 
L 192.657386 155.994908 
" clip-path="url(#padd57279da)" style="fill: #21918c; fill-opacity: 0.55; stroke: #000000; stroke-linejoin: miter"/>
   </g>
   <g id="patch_33">
    <path d="M 191.621303 156.227765 
L 189.289497 156.190874 
L 188.521846 157.832004 
L 190.379218 158.883168 
L 192.294788 157.891693 
L 190.444301 156.598882 
L 189.399444 157.139687 
L 189.7668 158.047284 
L 191.038694 158.067406 
L 191.457413 157.172245 
" clip-path="url(#padd57279da)" style="fill: #21918c; fill-opacity: 0.55; stroke: #000000; stroke-linejoin: miter"/>
   </g>
   <g id="patch_34">
    <path d="M 192.389615 157.59081 
L 190.057809 157.553919 
L 189.290158 159.195049 
L 191.14753 160.246213 
L 193.0631 159.254738 
L 191.212613 157.961927 
L 190.167756 158.502732 
L 190.535112 159.410329 
L 191.807006 159.430451 
L 192.225725 158.53529 
" clip-path="url(#padd57279da)" style="fill: #21918c; fill-opacity: 0.55; stroke: #000000; stroke-linejoin: miter"/>
   </g>
   <g id="patch_35">
    <path d="M 194.3579 157.776518 
L 192.026094 157.739628 
L 191.258443 159.380758 
L 193.115815 160.431921 
L 195.031385 159.440447 
L 193.180898 158.147636 
L 192.136041 158.68844 
L 192.503397 159.596038 
L 193.775291 159.61616 
L 194.19401 158.720998 
" clip-path="url(#padd57279da)" style="fill: #21918c; fill-opacity: 0.55; stroke: #000000; stroke-linejoin: miter"/>
   </g>
   <g id="patch_36">
    <path d="M 195.557873 156.599182 
L 193.226067 156.562292 
L 192.458416 158.203421 
L 194.315788 159.254585 
L 196.231358 158.263111 
L 194.380871 156.9703 
L 193.336014 157.511104 
L 193.703369 158.418702 
L 194.975264 158.438824 
L 195.393983 157.543662 
" clip-path="url(#padd57279da)" style="fill: #21918c; fill-opacity: 0.55; stroke: #000000; stroke-linejoin: miter"/>
   </g>
   <g id="patch_37">
    <path d="M 235.588642 115.206707 
L 193.616127 114.542684 
L 179.798408 144.083013 
L 213.231103 163.003963 
L 247.711364 145.157425 
L 214.410254 121.618089 
L 195.254554 131.532833 
L 201.989399 148.17212 
L 225.307463 148.541022 
L 232.983974 132.129728 
" clip-path="url(#padd57279da)" style="fill: #21918c; fill-opacity: 0.55; stroke: #000000; stroke-linejoin: miter"/>
   </g>
   <g id="patch_38">
    <path d="M 216.389075 134.044086 
L 214.057268 134.007196 
L 213.289617 135.648325 
L 215.146989 136.699489 
L 217.062559 135.708015 
L 215.212072 134.415204 
L 214.167216 134.956008 
L 214.534571 135.863606 
L 215.806466 135.883728 
L 216.225184 134.988566 
" clip-path="url(#padd57279da)" style="fill: #21918c; fill-opacity: 0.55; stroke: #000000; stroke-linejoin: miter"/>
   </g>
   <g id="patch_39">
    <path d="M 214.42079 133.858377 
L 212.088983 133.821487 
L 211.321332 135.462616 
L 213.178704 136.51378 
L 215.094274 135.522306 
L 213.243787 134.229495 
L 212.198931 134.770299 
L 212.566286 135.677897 
L 213.838181 135.698019 
L 214.256899 134.802857 
" clip-path="url(#padd57279da)" style="fill: #21918c; fill-opacity: 0.55; stroke: #000000; stroke-linejoin: miter"/>
   </g>
   <g id="patch_40">
    <path d="M 213.220817 135.035713 
L 210.88901 134.998823 
L 210.121359 136.639953 
L 211.978731 137.691117 
L 213.894301 136.699642 
L 212.043814 135.406831 
L 210.998958 135.947636 
L 211.366313 136.855233 
L 212.638208 136.875355 
L 213.056926 135.980193 
" clip-path="url(#padd57279da)" style="fill: #21918c; fill-opacity: 0.55; stroke: #000000; stroke-linejoin: miter"/>
   </g>
   <g id="patch_41">
    <path d="M 213.989129 136.398758 
L 211.657322 136.361868 
L 210.889671 138.002998 
L 212.747043 139.054162 
L 214.662613 138.062687 
L 212.812126 136.769876 
L 211.76727 137.31068 
L 212.134625 138.218278 
L 213.40652 138.2384 
L 213.825238 137.343238 
" clip-path="url(#padd57279da)" style="fill: #21918c; fill-opacity: 0.55; stroke: #000000; stroke-linejoin: miter"/>
   </g>
   <g id="patch_42">
    <path d="M 215.957414 136.584467 
L 213.625607 136.547577 
L 212.857956 138.188706 
L 214.715328 139.23987 
L 216.630898 138.248396 
L 214.780411 136.955585 
L 213.735555 137.496389 
L 214.10291 138.403987 
L 215.374804 138.424109 
L 215.793523 137.528947 
" clip-path="url(#padd57279da)" style="fill: #21918c; fill-opacity: 0.55; stroke: #000000; stroke-linejoin: miter"/>
   </g>
   <g id="patch_43">
    <path d="M 217.157387 135.407131 
L 214.82558 135.370241 
L 214.057929 137.01137 
L 215.915301 138.062534 
L 217.830871 137.07106 
L 215.980384 135.778249 
L 214.935528 136.319053 
L 215.302883 137.226651 
L 216.574777 137.246773 
L 216.993496 136.351611 
" clip-path="url(#padd57279da)" style="fill: #21918c; fill-opacity: 0.55; stroke: #000000; stroke-linejoin: miter"/>
   </g>
  </g>
 </g>
 <defs>
  <clipPath id="padd57279da">
   <rect x="0" y="-0" width="357.12" height="266.112"/>
  </clipPath>
 </defs>
</svg>
