<?xml version="1.0" encoding="utf-8" standalone="no"?>
<!DOCTYPE svg PUBLIC "-//W3C//DTD SVG 1.1//EN"
  "http://www.w3.org/Graphics/SVG/1.1/DTD/svg11.dtd">
<svg xmlns:xlink="http://www.w3.org/1999/xlink" width="357.12pt" height="266.112pt" viewBox="0 0 357.12 266.112" xmlns="http://www.w3.org/2000/svg" version="1.1">
 <metadata>
  <rdf:RDF xmlns:dc="http://purl.org/dc/elements/1.1/" xmlns:cc="http://creativecommons.org/ns#" xmlns:rdf="http://www.w3.org/1999/02/22-rdf-syntax-ns#">
   <cc:Work>
    <dc:type rdf:resource="http://purl.org/dc/dcmitype/StillImage"/>
    <dc:date>2023-12-24T19:54:34.109935</dc:date>
    <dc:format>image/svg+xml</dc:format>
    <dc:creator>
     <cc:Agent>
      <dc:title>Matplotlib v3.7.2, https://matplotlib.org/</dc:title>
     </cc:Agent>
    </dc:creator>
   </cc:Work>
  </rdf:RDF>
 </metadata>
 <defs>
  <style type="text/css">*{stroke-linejoin: round; stroke-linecap: butt}</style>
 </defs>
 <g id="figure_1">
  <g id="patch_1">
   <path d="M 0 266.112 
L 357.12 266.112 
L 357.12 0 
L 0 0 
L 0 266.112 
z
" style="fill: none"/>
  </g>
  <g id="axes_1">
   <g id="patch_2">
    <path d="M 246.451884 89.851998 
L 195.424973 80.721447 
L 168.003381 114.062238 
L 202.082815 143.798532 
L 250.566657 128.83578 
L 218.462014 92.971409 
L 190.756962 101.521552 
L 193.108261 123.797999 
L 222.266496 129.015457 
L 237.935977 109.963576 
" clip-path="url(#pcb34b730b7)" style="fill: #3b528b; fill-opacity: 0.775; stroke: #000000; stroke-linejoin: miter"/>
   </g>
   <g id="patch_3">
    <path d="M 217.032068 108.573732 
L 213.630273 107.965029 
L 211.802167 110.187748 
L 214.07413 112.170168 
L 217.306386 111.172651 
L 215.155046 108.81592 
L 213.359349 109.370096 
L 213.511748 110.813939 
L 215.401633 111.152108 
L 216.417248 109.917264 
" clip-path="url(#pcb34b730b7)" style="fill: #3b528b; fill-opacity: 0.775; stroke: #000000; stroke-linejoin: miter"/>
   </g>
   <g id="patch_4">
    <path d="M 213.630273 107.965029 
L 210.228479 107.356325 
L 208.400373 109.579045 
L 210.672336 111.561464 
L 213.904592 110.563947 
L 211.753252 108.207216 
L 209.957555 108.761392 
L 210.109954 110.205236 
L 211.999839 110.543405 
L 213.015454 109.30856 
" clip-path="url(#pcb34b730b7)" style="fill: #3b528b; fill-opacity: 0.775; stroke: #000000; stroke-linejoin: miter"/>
   </g>
   <g id="patch_5">
    <path d="M 211.802167 110.187748 
L 208.400373 109.579045 
L 206.572267 111.801764 
L 208.844229 113.784184 
L 212.076485 112.786667 
L 209.925146 110.429936 
L 208.129448 110.984112 
L 208.281847 112.427956 
L 210.171733 112.766124 
L 211.187348 111.53128 
" clip-path="url(#pcb34b730b7)" style="fill: #3b528b; fill-opacity: 0.775; stroke: #000000; stroke-linejoin: miter"/>
   </g>
   <g id="patch_6">
    <path d="M 214.07413 112.170168 
L 210.672336 111.561464 
L 208.844229 113.784184 
L 211.116192 115.766603 
L 214.348448 114.769086 
L 212.197109 112.412355 
L 210.401411 112.966531 
L 210.55381 114.410375 
L 212.443695 114.748544 
L 213.45931 113.513699 
" clip-path="url(#pcb34b730b7)" style="fill: #3b528b; fill-opacity: 0.775; stroke: #000000; stroke-linejoin: miter"/>
   </g>
   <g id="patch_7">
    <path d="M 217.306386 111.172651 
L 213.904592 110.563947 
L 212.076485 112.786667 
L 214.348448 114.769086 
L 217.580704 113.77157 
L 215.429365 111.414839 
L 213.633667 111.969015 
L 213.786066 113.412858 
L 215.675951 113.751027 
L 216.691566 112.516183 
" clip-path="url(#pcb34b730b7)" style="fill: #3b528b; fill-opacity: 0.775; stroke: #000000; stroke-linejoin: miter"/>
   </g>
   <g id="patch_8">
    <path d="M 195.424973 80.721447 
L 144.398062 71.590896 
L 116.97647 104.931687 
L 151.055905 134.667981 
L 199.539746 119.705229 
L 167.435104 83.840858 
L 139.730051 92.391002 
L 142.08135 114.667449 
L 171.239585 119.884906 
L 186.909066 100.833025 
" clip-path="url(#pcb34b730b7)" style="fill: #3b528b; fill-opacity: 0.775; stroke: #000000; stroke-linejoin: miter"/>
   </g>
   <g id="patch_9">
    <path d="M 166.005157 99.443181 
L 162.603363 98.834478 
L 160.775257 101.057197 
L 163.047219 103.039617 
L 166.279475 102.0421 
L 164.128136 99.685369 
L 162.332438 100.239545 
L 162.484837 101.683389 
L 164.374722 102.021557 
L 165.390337 100.786713 
" clip-path="url(#pcb34b730b7)" style="fill: #3b528b; fill-opacity: 0.775; stroke: #000000; stroke-linejoin: miter"/>
   </g>
   <g id="patch_10">
    <path d="M 162.603363 98.834478 
L 159.201569 98.225774 
L 157.373462 100.448494 
L 159.645425 102.430913 
L 162.877681 101.433397 
L 160.726342 99.076665 
L 158.930644 99.630841 
L 159.083043 101.074685 
L 160.972928 101.412854 
L 161.988543 100.17801 
" clip-path="url(#pcb34b730b7)" style="fill: #3b528b; fill-opacity: 0.775; stroke: #000000; stroke-linejoin: miter"/>
   </g>
   <g id="patch_11">
    <path d="M 160.775257 101.057197 
L 157.373462 100.448494 
L 155.545356 102.671213 
L 157.817319 104.653633 
L 161.049575 103.656116 
L 158.898235 101.299385 
L 157.102538 101.853561 
L 157.254937 103.297405 
L 159.144822 103.635573 
L 160.160437 102.400729 
" clip-path="url(#pcb34b730b7)" style="fill: #3b528b; fill-opacity: 0.775; stroke: #000000; stroke-linejoin: miter"/>
   </g>
   <g id="patch_12">
    <path d="M 163.047219 103.039617 
L 159.645425 102.430913 
L 157.817319 104.653633 
L 160.089281 106.636052 
L 163.321537 105.638536 
L 161.170198 103.281804 
L 159.3745 103.83598 
L 159.526899 105.279824 
L 161.416785 105.617993 
L 162.432399 104.383149 
" clip-path="url(#pcb34b730b7)" style="fill: #3b528b; fill-opacity: 0.775; stroke: #000000; stroke-linejoin: miter"/>
   </g>
   <g id="patch_13">
    <path d="M 166.279475 102.0421 
L 162.877681 101.433397 
L 161.049575 103.656116 
L 163.321537 105.638536 
L 166.553793 104.641019 
L 164.402454 102.284288 
L 162.606756 102.838464 
L 162.759155 104.282307 
L 164.649041 104.620476 
L 165.664655 103.385632 
" clip-path="url(#pcb34b730b7)" style="fill: #3b528b; fill-opacity: 0.775; stroke: #000000; stroke-linejoin: miter"/>
   </g>
   <g id="patch_14">
    <path d="M 168.003381 114.062238 
L 116.97647 104.931687 
L 89.554878 138.272479 
L 123.634312 168.008772 
L 172.118153 153.046021 
L 140.013511 117.181649 
L 112.308459 125.731793 
L 114.659758 148.00824 
L 143.817992 153.225698 
L 159.487474 134.173817 
" clip-path="url(#pcb34b730b7)" style="fill: #3b528b; fill-opacity: 0.775; stroke: #000000; stroke-linejoin: miter"/>
   </g>
   <g id="patch_15">
    <path d="M 138.583564 132.783973 
L 135.18177 132.175269 
L 133.353664 134.397989 
L 135.625626 136.380408 
L 138.857883 135.382891 
L 136.706543 133.02616 
L 134.910845 133.580336 
L 135.063244 135.02418 
L 136.95313 135.362349 
L 137.968745 134.127505 
" clip-path="url(#pcb34b730b7)" style="fill: #3b528b; fill-opacity: 0.775; stroke: #000000; stroke-linejoin: miter"/>
   </g>
   <g id="patch_16">
    <path d="M 135.18177 132.175269 
L 131.779976 131.566566 
L 129.95187 133.789285 
L 132.223832 135.771705 
L 135.456088 134.774188 
L 133.304749 132.417457 
L 131.509051 132.971633 
L 131.66145 134.415477 
L 133.551336 134.753645 
L 134.566951 133.518801 
" clip-path="url(#pcb34b730b7)" style="fill: #3b528b; fill-opacity: 0.775; stroke: #000000; stroke-linejoin: miter"/>
   </g>
   <g id="patch_17">
    <path d="M 133.353664 134.397989 
L 129.95187 133.789285 
L 128.123764 136.012005 
L 130.395726 137.994424 
L 133.627982 136.996908 
L 131.476643 134.640176 
L 129.680945 135.194352 
L 129.833344 136.638196 
L 131.72323 136.976365 
L 132.738844 135.741521 
" clip-path="url(#pcb34b730b7)" style="fill: #3b528b; fill-opacity: 0.775; stroke: #000000; stroke-linejoin: miter"/>
   </g>
   <g id="patch_18">
    <path d="M 135.625626 136.380408 
L 132.223832 135.771705 
L 130.395726 137.994424 
L 132.667689 139.976844 
L 135.899945 138.979327 
L 133.748605 136.622596 
L 131.952908 137.176772 
L 132.105307 138.620616 
L 133.995192 138.958784 
L 135.010807 137.72394 
" clip-path="url(#pcb34b730b7)" style="fill: #3b528b; fill-opacity: 0.775; stroke: #000000; stroke-linejoin: miter"/>
   </g>
   <g id="patch_19">
    <path d="M 138.857883 135.382891 
L 135.456088 134.774188 
L 133.627982 136.996908 
L 135.899945 138.979327 
L 139.132201 137.98181 
L 136.980861 135.625079 
L 135.185164 136.179255 
L 135.337563 137.623099 
L 137.227448 137.961268 
L 138.243063 136.726423 
" clip-path="url(#pcb34b730b7)" style="fill: #3b528b; fill-opacity: 0.775; stroke: #000000; stroke-linejoin: miter"/>
   </g>
   <g id="patch_20">
    <path d="M 202.082815 143.798532 
L 151.055905 134.667981 
L 123.634312 168.008772 
L 157.713747 197.745065 
L 206.197588 182.782314 
L 174.092946 146.917943 
L 146.387894 155.468086 
L 148.739192 177.744533 
L 177.897427 182.961991 
L 193.566908 163.91011 
" clip-path="url(#pcb34b730b7)" style="fill: #3b528b; fill-opacity: 0.775; stroke: #000000; stroke-linejoin: miter"/>
   </g>
   <g id="patch_21">
    <path d="M 172.662999 162.520266 
L 169.261205 161.911563 
L 167.433099 164.134282 
L 169.705061 166.116702 
L 172.937317 165.119185 
L 170.785978 162.762454 
L 168.99028 163.31663 
L 169.142679 164.760473 
L 171.032565 165.098642 
L 172.048179 163.863798 
" clip-path="url(#pcb34b730b7)" style="fill: #3b528b; fill-opacity: 0.775; stroke: #000000; stroke-linejoin: miter"/>
   </g>
   <g id="patch_22">
    <path d="M 169.261205 161.911563 
L 165.859411 161.302859 
L 164.031305 163.525579 
L 166.303267 165.507998 
L 169.535523 164.510481 
L 167.384184 162.15375 
L 165.588486 162.707926 
L 165.740885 164.15177 
L 167.630771 164.489939 
L 168.646385 163.255094 
" clip-path="url(#pcb34b730b7)" style="fill: #3b528b; fill-opacity: 0.775; stroke: #000000; stroke-linejoin: miter"/>
   </g>
   <g id="patch_23">
    <path d="M 167.433099 164.134282 
L 164.031305 163.525579 
L 162.203199 165.748298 
L 164.475161 167.730718 
L 167.707417 166.733201 
L 165.556078 164.37647 
L 163.76038 164.930646 
L 163.912779 166.374489 
L 165.802664 166.712658 
L 166.818279 165.477814 
" clip-path="url(#pcb34b730b7)" style="fill: #3b528b; fill-opacity: 0.775; stroke: #000000; stroke-linejoin: miter"/>
   </g>
   <g id="patch_24">
    <path d="M 169.705061 166.116702 
L 166.303267 165.507998 
L 164.475161 167.730718 
L 166.747123 169.713137 
L 169.979379 168.71562 
L 167.82804 166.358889 
L 166.032342 166.913065 
L 166.184741 168.356909 
L 168.074627 168.695078 
L 169.090241 167.460233 
" clip-path="url(#pcb34b730b7)" style="fill: #3b528b; fill-opacity: 0.775; stroke: #000000; stroke-linejoin: miter"/>
   </g>
   <g id="patch_25">
    <path d="M 172.937317 165.119185 
L 169.535523 164.510481 
L 167.707417 166.733201 
L 169.979379 168.71562 
L 173.211635 167.718104 
L 171.060296 165.361372 
L 169.264598 165.915548 
L 169.416997 167.359392 
L 171.306883 167.697561 
L 172.322497 166.462717 
" clip-path="url(#pcb34b730b7)" style="fill: #3b528b; fill-opacity: 0.775; stroke: #000000; stroke-linejoin: miter"/>
   </g>
   <g id="patch_26">
    <path d="M 250.566657 128.83578 
L 199.539746 119.705229 
L 172.118153 153.046021 
L 206.197588 182.782314 
L 254.681429 167.819562 
L 222.576787 131.955191 
L 194.871735 140.505335 
L 197.223034 162.781782 
L 226.381268 167.999239 
L 242.05075 148.947359 
" clip-path="url(#pcb34b730b7)" style="fill: #3b528b; fill-opacity: 0.775; stroke: #000000; stroke-linejoin: miter"/>
   </g>
   <g id="patch_27">
    <path d="M 221.14684 147.557514 
L 217.745046 146.948811 
L 215.91694 149.17153 
L 218.188902 151.15395 
L 221.421159 150.156433 
L 219.269819 147.799702 
L 217.474121 148.353878 
L 217.62652 149.797722 
L 219.516406 150.13589 
L 220.532021 148.901046 
" clip-path="url(#pcb34b730b7)" style="fill: #3b528b; fill-opacity: 0.775; stroke: #000000; stroke-linejoin: miter"/>
   </g>
   <g id="patch_28">
    <path d="M 217.745046 146.948811 
L 214.343252 146.340107 
L 212.515146 148.562827 
L 214.787108 150.545246 
L 218.019364 149.54773 
L 215.868025 147.190999 
L 214.072327 147.745175 
L 214.224726 149.189018 
L 216.114612 149.527187 
L 217.130226 148.292343 
" clip-path="url(#pcb34b730b7)" style="fill: #3b528b; fill-opacity: 0.775; stroke: #000000; stroke-linejoin: miter"/>
   </g>
   <g id="patch_29">
    <path d="M 215.91694 149.17153 
L 212.515146 148.562827 
L 210.68704 150.785546 
L 212.959002 152.767966 
L 216.191258 151.770449 
L 214.039919 149.413718 
L 212.244221 149.967894 
L 212.39662 151.411738 
L 214.286506 151.749906 
L 215.30212 150.515062 
" clip-path="url(#pcb34b730b7)" style="fill: #3b528b; fill-opacity: 0.775; stroke: #000000; stroke-linejoin: miter"/>
   </g>
   <g id="patch_30">
    <path d="M 218.188902 151.15395 
L 214.787108 150.545246 
L 212.959002 152.767966 
L 215.230965 154.750385 
L 218.463221 153.752869 
L 216.311881 151.396138 
L 214.516184 151.950314 
L 214.668583 153.394157 
L 216.558468 153.732326 
L 217.574083 152.497482 
" clip-path="url(#pcb34b730b7)" style="fill: #3b528b; fill-opacity: 0.775; stroke: #000000; stroke-linejoin: miter"/>
   </g>
   <g id="patch_31">
    <path d="M 221.421159 150.156433 
L 218.019364 149.54773 
L 216.191258 151.770449 
L 218.463221 153.752869 
L 221.695477 152.755352 
L 219.544137 150.398621 
L 217.74844 150.952797 
L 217.900839 152.396641 
L 219.790724 152.734809 
L 220.806339 151.499965 
" clip-path="url(#pcb34b730b7)" style="fill: #3b528b; fill-opacity: 0.775; stroke: #000000; stroke-linejoin: miter"/>
   </g>
  </g>
 </g>
 <defs>
  <clipPath id="pcb34b730b7">
   <rect x="0" y="-0" width="357.12" height="266.112"/>
  </clipPath>
 </defs>
</svg>
