<?xml version="1.0" encoding="utf-8" standalone="no"?>
<!DOCTYPE svg PUBLIC "-//W3C//DTD SVG 1.1//EN"
  "http://www.w3.org/Graphics/SVG/1.1/DTD/svg11.dtd">
<svg xmlns:xlink="http://www.w3.org/1999/xlink" width="349.2pt" height="347.04pt" viewBox="0 0 349.2 347.04" xmlns="http://www.w3.org/2000/svg" version="1.1">
 <metadata>
  <rdf:RDF xmlns:dc="http://purl.org/dc/elements/1.1/" xmlns:cc="http://creativecommons.org/ns#" xmlns:rdf="http://www.w3.org/1999/02/22-rdf-syntax-ns#">
   <cc:Work>
    <dc:type rdf:resource="http://purl.org/dc/dcmitype/StillImage"/>
    <dc:date>2023-12-26T02:20:09.717085</dc:date>
    <dc:format>image/svg+xml</dc:format>
    <dc:creator>
     <cc:Agent>
      <dc:title>Matplotlib v3.7.2, https://matplotlib.org/</dc:title>
     </cc:Agent>
    </dc:creator>
   </cc:Work>
  </rdf:RDF>
 </metadata>
 <defs>
  <style type="text/css">*{stroke-linejoin: round; stroke-linecap: butt}</style>
 </defs>
 <g id="figure_1">
  <g id="patch_1">
   <path d="M 0 347.04 
L 349.2 347.04 
L 349.2 -0 
L 0 -0 
L 0 347.04 
z
" style="fill: none"/>
  </g>
  <g id="axes_1">
   <g id="patch_2">
    <path d="M 183.9 173.52 
L 182.654036 168.9 
L 179.25 165.517925 
L 174.6 164.28 
L 169.95 165.517925 
L 166.545964 168.9 
L 165.3 173.52 
L 166.545964 178.14 
L 169.95 181.522075 
L 174.6 182.76 
L 179.25 181.522075 
L 182.654036 178.14 
L 183.9 173.52 
" clip-path="url(#pd8b0a98b5e)" style="fill: none; stroke: #ff8a00; stroke-linejoin: miter"/>
   </g>
   <g id="patch_3">
    <path d="M 184.669155 173.52 
L 179.463029 172.225362 
L 183.320144 168.517903 
L 178.159984 169.982984 
L 179.634578 164.856115 
L 175.903045 168.688346 
L 174.6 163.515807 
L 173.296955 168.688346 
L 169.565422 164.856115 
L 171.040016 169.982984 
L 165.879856 168.517903 
L 169.736971 172.225362 
L 164.530845 173.52 
L 169.736971 174.814638 
L 165.879856 178.522097 
L 171.040016 177.057016 
L 169.565422 182.183885 
L 173.296955 178.351654 
L 174.6 183.524193 
L 175.903045 178.351654 
L 179.634578 182.183885 
L 178.159984 177.057016 
L 183.320144 178.522097 
L 179.463029 174.814638 
L 184.669155 173.52 
L 184.669155 173.52 
" clip-path="url(#pd8b0a98b5e)" style="fill: none; stroke: #46ff00; stroke-width: 0.9; stroke-linejoin: miter"/>
   </g>
   <g id="patch_4">
    <path d="M 193.2 173.52 
L 187.752186 160.452667 
L 174.6 155.04 
L 161.447814 160.452667 
L 156 173.52 
L 161.447814 186.587333 
L 174.6 192 
L 187.752186 186.587333 
L 193.2 173.52 
" clip-path="url(#pd8b0a98b5e)" style="fill: none; stroke: #ff009d; stroke-width: 0.8; stroke-linejoin: miter"/>
   </g>
   <g id="patch_5">
    <path d="M 196.66295 173.52 
L 185.255587 170.683264 
L 193.707076 162.559696 
L 182.400431 165.769894 
L 185.631475 154.536196 
L 177.455156 162.933159 
L 174.6 151.599391 
L 171.744844 162.933159 
L 163.568525 154.536196 
L 166.799569 165.769894 
L 155.492924 162.559696 
L 163.944413 170.683264 
L 152.53705 173.52 
L 163.944413 176.356736 
L 155.492924 184.480304 
L 166.799569 181.270106 
L 163.568525 192.503804 
L 171.744844 184.106841 
L 174.6 195.440609 
L 177.455156 184.106841 
L 185.631475 192.503804 
L 182.400431 181.270106 
L 193.707076 184.480304 
L 185.255587 176.356736 
L 196.66295 173.52 
L 196.66295 173.52 
" clip-path="url(#pd8b0a98b5e)" style="fill: none; stroke: #13ff00; stroke-width: 0.7; stroke-linejoin: miter"/>
   </g>
   <g id="patch_6">
    <path d="M 202.5 173.52 
L 188.55 149.513776 
L 160.65 149.513776 
L 146.7 173.52 
L 160.65 197.526224 
L 188.55 197.526224 
L 202.5 173.52 
" clip-path="url(#pd8b0a98b5e)" style="fill: none; stroke: #3600ff; stroke-width: 0.6; stroke-linejoin: miter"/>
   </g>
   <g id="patch_7">
    <path d="M 199.798865 173.52 
L 187.044313 171.561731 
L 198.565545 165.78336 
L 185.826177 167.836881 
L 194.98631 158.804037 
L 183.509144 164.668334 
L 189.411521 153.265214 
L 180.320023 162.36625 
L 182.386878 149.709071 
L 176.570986 161.155973 
L 174.6 148.483708 
L 172.629014 161.155973 
L 166.813122 149.709071 
L 168.879977 162.36625 
L 159.788479 153.265214 
L 165.690856 164.668334 
L 154.21369 158.804037 
L 163.373823 167.836881 
L 150.634455 165.78336 
L 162.155687 171.561731 
L 149.401135 173.52 
L 162.155687 175.478269 
L 150.634455 181.25664 
L 163.373823 179.203119 
L 154.21369 188.235963 
L 165.690856 182.371666 
L 159.788479 193.774786 
L 168.879977 184.67375 
L 166.813122 197.330929 
L 172.629014 185.884027 
L 174.6 198.556292 
L 176.570986 185.884027 
L 182.386878 197.330929 
L 180.320023 184.67375 
L 189.411521 193.774786 
L 183.509144 182.371666 
L 194.98631 188.235963 
L 185.826177 179.203119 
L 198.565545 181.25664 
L 187.044313 175.478269 
L 199.798865 173.52 
L 199.798865 173.52 
" clip-path="url(#pd8b0a98b5e)" style="fill: none; stroke: #ff8a00; stroke-width: 0.5; stroke-linejoin: miter"/>
   </g>
   <g id="patch_8">
    <path d="M 211.8 173.52 
L 193.2 141.511701 
L 156 141.511701 
L 137.4 173.52 
L 156 205.528299 
L 193.2 205.528299 
L 211.8 173.52 
" clip-path="url(#pd8b0a98b5e)" style="fill: none; stroke: #46ff00; stroke-width: 0.4; stroke-linejoin: miter"/>
   </g>
   <g id="patch_9">
    <path d="M 208.697778 173.52 
L 191.067962 169.135891 
L 204.129542 156.581104 
L 186.655385 161.542392 
L 191.648889 144.180971 
L 179.012577 157.158283 
L 174.6 139.642208 
L 170.187423 157.158283 
L 157.551111 144.180971 
L 162.544615 161.542392 
L 145.070458 156.581104 
L 158.132038 169.135891 
L 140.502222 173.52 
L 158.132038 177.904109 
L 145.070458 190.458896 
L 162.544615 185.497608 
L 157.551111 202.859029 
L 170.187423 189.881717 
L 174.6 207.397792 
L 179.012577 189.881717 
L 191.648889 202.859029 
L 186.655385 185.497608 
L 204.129542 190.458896 
L 191.067962 177.904109 
L 208.697778 173.52 
L 208.697778 173.52 
" clip-path="url(#pd8b0a98b5e)" style="fill: none; stroke: #ff009d; stroke-width: 0.3; stroke-linejoin: miter"/>
   </g>
   <g id="patch_10">
    <path d="M 221.1 173.52 
L 197.85 133.509626 
L 151.35 133.509626 
L 128.1 173.52 
L 151.35 213.530374 
L 197.85 213.530374 
L 221.1 173.52 
" clip-path="url(#pd8b0a98b5e)" style="fill: none; stroke: #13ff00; stroke-width: 0.3; stroke-linejoin: miter"/>
   </g>
   <g id="patch_11">
    <path d="M 228.243954 173.52 
L 200.50804 166.622749 
L 221.057027 146.871068 
L 193.566002 154.676359 
L 201.421977 127.362696 
L 181.542039 147.779108 
L 174.6 120.222136 
L 167.657961 147.779108 
L 147.778023 127.362696 
L 155.633998 154.676359 
L 128.142973 146.871068 
L 148.69196 166.622749 
L 120.956046 173.52 
L 148.69196 180.417251 
L 128.142973 200.168932 
L 155.633998 192.363641 
L 147.778023 219.677304 
L 167.657961 199.260892 
L 174.6 226.817864 
L 181.542039 199.260892 
L 201.421977 219.677304 
L 193.566002 192.363641 
L 221.057027 200.168932 
L 200.50804 180.417251 
L 228.243954 173.52 
L 228.243954 173.52 
" clip-path="url(#pd8b0a98b5e)" style="fill: none; stroke: #3600ff; stroke-width: 0.3; stroke-linejoin: miter"/>
   </g>
   <g id="patch_12">
    <path d="M 230.4 173.52 
L 214.056558 134.318 
L 174.6 118.08 
L 135.143442 134.318 
L 118.8 173.52 
L 135.143442 212.722 
L 174.6 228.96 
L 214.056558 212.722 
L 230.4 173.52 
" clip-path="url(#pd8b0a98b5e)" style="fill: none; stroke: #ff8a00; stroke-width: 0.3; stroke-linejoin: miter"/>
   </g>
   <g id="patch_13">
    <path d="M 231.786639 173.52 
L 202.841288 169.075877 
L 228.987725 155.962367 
L 200.076834 160.622654 
L 220.864963 140.123398 
L 194.81853 153.431912 
L 208.213463 127.553521 
L 187.581095 148.207533 
L 192.271643 119.483163 
L 179.072981 145.460914 
L 174.6 116.702307 
L 170.127019 145.460914 
L 156.928357 119.483163 
L 161.618905 148.207533 
L 140.986537 127.553521 
L 154.38147 153.431912 
L 128.335037 140.123398 
L 149.123166 160.622654 
L 120.212275 155.962367 
L 146.358712 169.075877 
L 117.413361 173.52 
L 146.358712 177.964123 
L 120.212275 191.077633 
L 149.123166 186.417346 
L 128.335037 206.916602 
L 154.38147 193.608088 
L 140.986537 219.486479 
L 161.618905 198.832467 
L 156.928357 227.556837 
L 170.127019 201.579086 
L 174.6 230.337693 
L 179.072981 201.579086 
L 192.271643 227.556837 
L 187.581095 198.832467 
L 208.213463 219.486479 
L 194.81853 193.608088 
L 220.864963 206.916602 
L 200.076834 186.417346 
L 228.987725 191.077633 
L 202.841288 177.964123 
L 231.786639 173.52 
L 231.786639 173.52 
" clip-path="url(#pd8b0a98b5e)" style="fill: none; stroke: #46ff00; stroke-width: 0.3; stroke-linejoin: miter"/>
   </g>
   <g id="patch_14">
    <path d="M 239.7 173.52 
L 207.15 117.505477 
L 142.05 117.505477 
L 109.5 173.52 
L 142.05 229.534523 
L 207.15 229.534523 
L 239.7 173.52 
" clip-path="url(#pd8b0a98b5e)" style="fill: none; stroke: #ff009d; stroke-width: 0.3; stroke-linejoin: miter"/>
   </g>
   <g id="patch_15">
    <path d="M 242.857447 173.52 
L 208.07295 166.904772 
L 237.661658 147.567528 
L 202.976996 154.681426 
L 222.865304 125.566085 
L 193.560903 145.326081 
L 200.720994 110.865191 
L 181.258184 140.263005 
L 174.6 105.702924 
L 167.941816 140.263005 
L 148.479006 110.865191 
L 155.639097 145.326081 
L 126.334696 125.566085 
L 146.223004 154.681426 
L 111.538342 147.567528 
L 141.12705 166.904772 
L 106.342553 173.52 
L 141.12705 180.135228 
L 111.538342 199.472472 
L 146.223004 192.358574 
L 126.334696 221.473915 
L 155.639097 201.713919 
L 148.479006 236.174809 
L 167.941816 206.776995 
L 174.6 241.337076 
L 181.258184 206.776995 
L 200.720994 236.174809 
L 193.560903 201.713919 
L 222.865304 221.473915 
L 202.976996 192.358574 
L 237.661658 199.472472 
L 208.07295 180.135228 
L 242.857447 173.52 
L 242.857447 173.52 
" clip-path="url(#pd8b0a98b5e)" style="fill: none; stroke: #13ff00; stroke-width: 0.3; stroke-linejoin: miter"/>
   </g>
   <g id="patch_16">
    <path d="M 249 173.52 
L 211.8 109.503402 
L 137.4 109.503402 
L 100.2 173.52 
L 137.4 237.536598 
L 211.8 237.536598 
L 249 173.52 
" clip-path="url(#pd8b0a98b5e)" style="fill: none; stroke: #3600ff; stroke-width: 0.3; stroke-linejoin: miter"/>
   </g>
   <g id="patch_17">
    <path d="M 239.526284 173.52 
L 205.956987 165.172128 
L 230.827811 141.266298 
L 197.554908 150.713188 
L 207.063142 117.654949 
L 183.002079 142.365316 
L 174.6 109.012595 
L 166.197921 142.365316 
L 142.136858 117.654949 
L 151.645092 150.713188 
L 118.372189 141.266298 
L 143.243013 165.172128 
L 109.673716 173.52 
L 143.243013 181.867872 
L 118.372189 205.773702 
L 151.645092 196.326812 
L 142.136858 229.385051 
L 166.197921 204.674684 
L 174.6 238.027405 
L 183.002079 204.674684 
L 207.063142 229.385051 
L 197.554908 196.326812 
L 230.827811 205.773702 
L 205.956987 181.867872 
L 239.526284 173.52 
L 239.526284 173.52 
" clip-path="url(#pd8b0a98b5e)" style="fill: none; stroke: #ff8a00; stroke-width: 0.3; stroke-linejoin: miter"/>
   </g>
   <g id="patch_18">
    <path d="M 258.3 173.52 
L 247.086326 131.94 
L 216.45 101.501327 
L 174.6 90.36 
L 132.75 101.501327 
L 102.113674 131.94 
L 90.9 173.52 
L 102.113674 215.1 
L 132.75 245.538673 
L 174.6 256.68 
L 216.45 245.538673 
L 247.086326 215.1 
L 258.3 173.52 
" clip-path="url(#pd8b0a98b5e)" style="fill: none; stroke: #46ff00; stroke-width: 0.3; stroke-linejoin: miter"/>
   </g>
   <g id="patch_19">
    <path d="M 274.482742 173.52 
L 224.114116 167.043399 
L 271.07932 147.835228 
L 220.73981 154.531566 
L 261.100992 123.900831 
L 214.221153 143.313764 
L 245.227764 103.347899 
L 205.00238 134.154467 
L 224.541371 87.577079 
L 193.711735 127.677866 
L 200.451556 77.663127 
L 181.118657 124.32533 
L 174.6 74.281663 
L 168.081343 124.32533 
L 148.748444 77.663127 
L 155.488265 127.677866 
L 124.658629 87.577079 
L 144.19762 134.154467 
L 103.972236 103.347899 
L 134.978847 143.313764 
L 88.099008 123.900831 
L 128.46019 154.531566 
L 78.12068 147.835228 
L 125.085884 167.043399 
L 74.717258 173.52 
L 125.085884 179.996601 
L 78.12068 199.204772 
L 128.46019 192.508434 
L 88.099008 223.139169 
L 134.978847 203.726236 
L 103.972236 243.692101 
L 144.19762 212.885533 
L 124.658629 259.462921 
L 155.488265 219.362134 
L 148.748444 269.376873 
L 168.081343 222.71467 
L 174.6 272.758337 
L 181.118657 222.71467 
L 200.451556 269.376873 
L 193.711735 219.362134 
L 224.541371 259.462921 
L 205.00238 212.885533 
L 245.227764 243.692101 
L 214.221153 203.726236 
L 261.100992 223.139169 
L 220.73981 192.508434 
L 271.07932 199.204772 
L 224.114116 179.996601 
L 274.482742 173.52 
L 274.482742 173.52 
" clip-path="url(#pd8b0a98b5e)" style="fill: none; stroke: #ff009d; stroke-width: 0.3; stroke-linejoin: miter"/>
   </g>
   <g id="patch_20">
    <path d="M 267.6 173.52 
L 240.360931 108.183333 
L 174.6 81.12 
L 108.839069 108.183333 
L 81.6 173.52 
L 108.839069 238.856667 
L 174.6 265.92 
L 240.360931 238.856667 
L 267.6 173.52 
" clip-path="url(#pd8b0a98b5e)" style="fill: none; stroke: #13ff00; stroke-width: 0.3; stroke-linejoin: miter"/>
   </g>
   <g id="patch_21">
    <path d="M 286.061346 173.52 
L 228.431696 159.1889 
L 271.128357 118.14888 
L 214.007537 134.366705 
L 230.330673 77.614406 
L 189.02416 120.035605 
L 174.6 62.777759 
L 160.17584 120.035605 
L 118.869327 77.614406 
L 135.192463 134.366705 
L 78.071643 118.14888 
L 120.768304 159.1889 
L 63.138654 173.52 
L 120.768304 187.8511 
L 78.071643 228.89112 
L 135.192463 212.673295 
L 118.869327 269.425594 
L 160.17584 227.004395 
L 174.6 284.262241 
L 189.02416 227.004395 
L 230.330673 269.425594 
L 214.007537 212.673295 
L 271.128357 228.89112 
L 228.431696 187.8511 
L 286.061346 173.52 
L 286.061346 173.52 
" clip-path="url(#pd8b0a98b5e)" style="fill: none; stroke: #3600ff; stroke-width: 0.3; stroke-linejoin: miter"/>
   </g>
   <g id="patch_22">
    <path d="M 276.9 173.52 
L 246.937024 101.649667 
L 174.6 71.88 
L 102.262976 101.649667 
L 72.3 173.52 
L 102.262976 245.390333 
L 174.6 275.16 
L 246.937024 245.390333 
L 276.9 173.52 
" clip-path="url(#pd8b0a98b5e)" style="fill: none; stroke: #ff8a00; stroke-width: 0.3; stroke-linejoin: miter"/>
   </g>
   <g id="patch_23">
    <path d="M 290.145601 173.52 
L 231.262712 162.321801 
L 281.350216 129.587886 
L 222.636328 141.630228 
L 256.303078 92.344039 
L 206.696848 125.793584 
L 218.817387 67.458495 
L 185.870914 117.222854 
L 174.6 58.719855 
L 163.329086 117.222854 
L 130.382613 67.458495 
L 142.503152 125.793584 
L 92.896922 92.344039 
L 126.563672 141.630228 
L 67.849784 129.587886 
L 117.937288 162.321801 
L 59.054399 173.52 
L 117.937288 184.718199 
L 67.849784 217.452114 
L 126.563672 205.409772 
L 92.896922 254.695961 
L 142.503152 221.246416 
L 130.382613 279.581505 
L 163.329086 229.817146 
L 174.6 288.320145 
L 185.870914 229.817146 
L 218.817387 279.581505 
L 206.696848 221.246416 
L 256.303078 254.695961 
L 222.636328 205.409772 
L 281.350216 217.452114 
L 231.262712 184.718199 
L 290.145601 173.52 
L 290.145601 173.52 
" clip-path="url(#pd8b0a98b5e)" style="fill: none; stroke: #46ff00; stroke-width: 0.3; stroke-linejoin: miter"/>
   </g>
   <g id="patch_24">
    <path d="M 286.2 173.52 
L 271.248435 118.08 
L 230.4 77.495103 
L 174.6 62.64 
L 118.8 77.495103 
L 77.951565 118.08 
L 63 173.52 
L 77.951565 228.96 
L 118.8 269.544897 
L 174.6 284.4 
L 230.4 269.544897 
L 271.248435 228.96 
L 286.2 173.52 
" clip-path="url(#pd8b0a98b5e)" style="fill: none; stroke: #ff009d; stroke-width: 0.3; stroke-linejoin: miter"/>
   </g>
   <g id="patch_25">
    <path d="M 265.394118 173.52 
L 219.438146 166.464153 
L 260.950338 145.644087 
L 215.049076 153.043133 
L 248.053984 120.496863 
L 206.700568 141.626532 
L 227.967444 100.539912 
L 195.209833 133.331886 
L 202.656925 87.726761 
L 181.701665 128.971132 
L 174.6 83.311651 
L 167.498335 128.971132 
L 146.543075 87.726761 
L 153.990167 133.331886 
L 121.232556 100.539912 
L 142.499432 141.626532 
L 101.146016 120.496863 
L 134.150924 153.043133 
L 88.249662 145.644087 
L 129.761854 166.464153 
L 83.805882 173.52 
L 129.761854 180.575847 
L 88.249662 201.395913 
L 134.150924 193.996867 
L 101.146016 226.543137 
L 142.499432 205.413468 
L 121.232556 246.500088 
L 153.990167 213.708114 
L 146.543075 259.313239 
L 167.498335 218.068868 
L 174.6 263.728349 
L 181.701665 218.068868 
L 202.656925 259.313239 
L 195.209833 213.708114 
L 227.967444 246.500088 
L 206.700568 205.413468 
L 248.053984 226.543137 
L 215.049076 193.996867 
L 260.950338 201.395913 
L 219.438146 180.575847 
L 265.394118 173.52 
L 265.394118 173.52 
" clip-path="url(#pd8b0a98b5e)" style="fill: none; stroke: #13ff00; stroke-width: 0.3; stroke-linejoin: miter"/>
   </g>
   <g id="patch_26">
    <path d="M 295.5 173.52 
L 279.302471 113.46 
L 235.05 69.493028 
L 174.6 53.4 
L 114.15 69.493028 
L 69.897529 113.46 
L 53.7 173.52 
L 69.897529 233.58 
L 114.15 277.546972 
L 174.6 293.64 
L 235.05 277.546972 
L 279.302471 233.58 
L 295.5 173.52 
" clip-path="url(#pd8b0a98b5e)" style="fill: none; stroke: #3600ff; stroke-width: 0.3; stroke-linejoin: miter"/>
   </g>
   <g id="patch_27">
    <path d="M 274.041277 173.52 
L 223.708495 165.792159 
L 269.174274 142.989208 
L 218.901413 151.092933 
L 255.049683 115.446982 
L 209.7578 138.589024 
L 233.050116 93.589348 
L 197.172697 129.504402 
L 205.329044 79.555883 
L 182.378021 124.728334 
L 174.6 74.72028 
L 166.821979 124.728334 
L 143.870956 79.555883 
L 152.027303 129.504402 
L 116.149884 93.589348 
L 139.4422 138.589024 
L 94.150317 115.446982 
L 130.298587 151.092933 
L 80.025726 142.989208 
L 125.491505 165.792159 
L 75.158723 173.52 
L 125.491505 181.247841 
L 80.025726 204.050792 
L 130.298587 195.947067 
L 94.150317 231.593018 
L 139.4422 208.450976 
L 116.149884 253.450652 
L 152.027303 217.535598 
L 143.870956 267.484117 
L 166.821979 222.311666 
L 174.6 272.31972 
L 182.378021 222.311666 
L 205.329044 267.484117 
L 197.172697 217.535598 
L 233.050116 253.450652 
L 209.7578 208.450976 
L 255.049683 231.593018 
L 218.901413 195.947067 
L 269.174274 204.050792 
L 223.708495 181.247841 
L 274.041277 173.52 
L 274.041277 173.52 
" clip-path="url(#pd8b0a98b5e)" style="fill: none; stroke: #ff8a00; stroke-width: 0.3; stroke-linejoin: miter"/>
   </g>
   <g id="patch_28">
    <path d="M 304.8 173.52 
L 239.7 61.490954 
L 109.5 61.490954 
L 44.4 173.52 
L 109.5 285.549046 
L 239.7 285.549046 
L 304.8 173.52 
" clip-path="url(#pd8b0a98b5e)" style="fill: none; stroke: #46ff00; stroke-width: 0.3; stroke-linejoin: miter"/>
   </g>
   <g id="patch_29">
    <path d="M 305.042724 173.52 
L 238.568152 160.878034 
L 295.113362 123.923784 
L 228.82958 137.518727 
L 266.836934 81.878143 
L 210.835047 119.640288 
L 224.518269 53.784143 
L 187.324056 109.964546 
L 174.6 43.918842 
L 161.875944 109.964546 
L 124.681731 53.784143 
L 138.364953 119.640288 
L 82.363066 81.878143 
L 120.37042 137.518727 
L 54.086638 123.923784 
L 110.631848 160.878034 
L 44.157276 173.52 
L 110.631848 186.161966 
L 54.086638 223.116216 
L 120.37042 209.521273 
L 82.363066 265.161857 
L 138.364953 227.399712 
L 124.681731 293.255857 
L 161.875944 237.075454 
L 174.6 303.121158 
L 187.324056 237.075454 
L 224.518269 293.255857 
L 210.835047 227.399712 
L 266.836934 265.161857 
L 228.82958 209.521273 
L 295.113362 223.116216 
L 238.568152 186.161966 
L 305.042724 173.52 
L 305.042724 173.52 
" clip-path="url(#pd8b0a98b5e)" style="fill: none; stroke: #ff009d; stroke-width: 0.3; stroke-linejoin: miter"/>
   </g>
   <g id="patch_30">
    <path d="M 314.1 173.52 
L 244.35 53.488879 
L 104.85 53.488879 
L 35.1 173.52 
L 104.85 293.551121 
L 244.35 293.551121 
L 314.1 173.52 
" clip-path="url(#pd8b0a98b5e)" style="fill: none; stroke: #13ff00; stroke-width: 0.3; stroke-linejoin: miter"/>
   </g>
   <g id="patch_31">
    <path d="M 318.508055 173.52 
L 244.102254 155.017076 
L 299.228032 102.030192 
L 225.479181 122.969072 
L 246.554028 49.69602 
L 193.223073 104.466148 
L 174.6 30.540384 
L 155.976927 104.466148 
L 102.645972 49.69602 
L 123.720819 122.969072 
L 49.971968 102.030192 
L 105.097746 155.017076 
L 30.691945 173.52 
L 105.097746 192.022924 
L 49.971968 245.009808 
L 123.720819 224.070928 
L 102.645972 297.34398 
L 155.976927 242.573852 
L 174.6 316.499616 
L 193.223073 242.573852 
L 246.554028 297.34398 
L 225.479181 224.070928 
L 299.228032 245.009808 
L 244.102254 192.022924 
L 318.508055 173.52 
L 318.508055 173.52 
" clip-path="url(#pd8b0a98b5e)" style="fill: none; stroke: #3600ff; stroke-width: 0.3; stroke-linejoin: miter"/>
   </g>
   <g id="patch_32">
    <path d="M 323.4 173.52 
L 249 45.486804 
L 100.2 45.486804 
L 25.8 173.52 
L 100.2 301.553196 
L 249 301.553196 
L 323.4 173.52 
" clip-path="url(#pd8b0a98b5e)" style="fill: none; stroke: #ff8a00; stroke-width: 0.3; stroke-linejoin: miter"/>
   </g>
   <g id="patch_33">
    <path d="M 333.734171 173.52 
L 251.455903 153.059384 
L 312.414235 94.466251 
L 230.862426 117.620558 
L 254.167086 36.594889 
L 195.193477 97.159942 
L 174.6 15.412501 
L 154.006523 97.159942 
L 95.032914 36.594889 
L 118.337574 117.620558 
L 36.785765 94.466251 
L 97.744097 153.059384 
L 15.465829 173.52 
L 97.744097 193.980616 
L 36.785765 252.573749 
L 118.337574 229.419442 
L 95.032914 310.445111 
L 154.006523 249.880058 
L 174.6 331.627499 
L 195.193477 249.880058 
L 254.167086 310.445111 
L 230.862426 229.419442 
L 312.414235 252.573749 
L 251.455903 193.980616 
L 333.734171 173.52 
L 333.734171 173.52 
" clip-path="url(#pd8b0a98b5e)" style="fill: none; stroke: #46ff00; stroke-width: 0.3; stroke-linejoin: miter"/>
   </g>
   <g id="patch_34">
    <path d="M 332.7 173.52 
L 253.65 37.48473 
L 95.55 37.48473 
L 16.5 173.52 
L 95.55 309.55527 
L 253.65 309.55527 
L 332.7 173.52 
" clip-path="url(#pd8b0a98b5e)" style="fill: none; stroke: #ff009d; stroke-width: 0.3; stroke-linejoin: miter"/>
   </g>
   <g id="patch_35">
    <path d="M 349.545771 173.52 
L 260.995949 159.924508 
L 340.983316 119.807566 
L 252.538912 134.064346 
L 316.134102 71.352879 
L 236.452671 112.066379 
L 277.430544 32.899021 
L 214.311859 96.08392 
L 228.661216 8.210125 
L 188.283774 87.681444 
L 174.6 -0.297089 
L 160.916226 87.681444 
L 120.538784 8.210125 
L 134.888141 96.08392 
L 71.769456 32.899021 
L 112.747329 112.066379 
L 33.065898 71.352879 
L 96.661088 134.064346 
L 8.216684 119.807566 
L 88.204051 159.924508 
L -0.345771 173.52 
L 88.204051 187.115492 
L 8.216684 227.232434 
L 96.661088 212.975654 
L 33.065898 275.687121 
L 112.747329 234.973621 
L 71.769456 314.140979 
L 134.888141 250.95608 
L 120.538784 338.829875 
L 160.916226 259.358556 
L 174.6 347.337089 
L 188.283774 259.358556 
L 228.661216 338.829875 
L 214.311859 250.95608 
L 277.430544 314.140979 
L 236.452671 234.973621 
L 316.134102 275.687121 
L 252.538912 212.975654 
L 340.983316 227.232434 
L 260.995949 187.115492 
L 349.545771 173.52 
L 349.545771 173.52 
" clip-path="url(#pd8b0a98b5e)" style="fill: none; stroke: #13ff00; stroke-width: 0.3; stroke-linejoin: miter"/>
   </g>
   <g id="patch_36">
    <path d="M 342 173.52 
L 292.969675 55.914 
L 174.6 7.2 
L 56.230325 55.914 
L 7.2 173.52 
L 56.230325 291.126 
L 174.6 339.84 
L 292.969675 291.126 
L 342 173.52 
" clip-path="url(#pd8b0a98b5e)" style="fill: none; stroke: #3600ff; stroke-width: 0.3; stroke-linejoin: miter"/>
   </g>
   <g id="patch_37">
    <path d="M 338.784019 173.52 
L 253.894792 152.410102 
L 316.787531 91.957616 
L 232.647817 115.846685 
L 256.69201 32.249808 
L 195.846976 94.736787 
L 174.6 10.395233 
L 153.353024 94.736787 
L 92.50799 32.249808 
L 116.552183 115.846685 
L 32.412469 91.957616 
L 95.305208 152.410102 
L 10.415981 173.52 
L 95.305208 194.629898 
L 32.412469 255.082384 
L 116.552183 231.193315 
L 92.50799 314.790192 
L 153.353024 252.303213 
L 174.6 336.644767 
L 195.846976 252.303213 
L 256.69201 314.790192 
L 232.647817 231.193315 
L 316.787531 255.082384 
L 253.894792 194.629898 
L 338.784019 173.52 
L 338.784019 173.52 
" clip-path="url(#pd8b0a98b5e)" style="fill: none; stroke: #ff8a00; stroke-width: 0.3; stroke-linejoin: miter"/>
   </g>
  </g>
 </g>
 <defs>
  <clipPath id="pd8b0a98b5e">
   <rect x="7.2" y="7.2" width="334.8" height="332.64"/>
  </clipPath>
 </defs>
</svg>
