<?xml version="1.0" encoding="utf-8" standalone="no"?>
<!DOCTYPE svg PUBLIC "-//W3C//DTD SVG 1.1//EN"
  "http://www.w3.org/Graphics/SVG/1.1/DTD/svg11.dtd">
<svg xmlns:xlink="http://www.w3.org/1999/xlink" width="432pt" height="432pt" viewBox="0 0 432 432" xmlns="http://www.w3.org/2000/svg" version="1.1">
 <metadata>
  <rdf:RDF xmlns:dc="http://purl.org/dc/elements/1.1/" xmlns:cc="http://creativecommons.org/ns#" xmlns:rdf="http://www.w3.org/1999/02/22-rdf-syntax-ns#">
   <cc:Work>
    <dc:type rdf:resource="http://purl.org/dc/dcmitype/StillImage"/>
    <dc:date>2023-12-25T22:17:51.104210</dc:date>
    <dc:format>image/svg+xml</dc:format>
    <dc:creator>
     <cc:Agent>
      <dc:title>Matplotlib v3.7.2, https://matplotlib.org/</dc:title>
     </cc:Agent>
    </dc:creator>
   </cc:Work>
  </rdf:RDF>
 </metadata>
 <defs>
  <style type="text/css">*{stroke-linejoin: round; stroke-linecap: butt}</style>
 </defs>
 <g id="figure_1">
  <g id="patch_1">
   <path d="M 0 432 
L 432 432 
L 432 0 
L 0 0 
z
" style="fill: #ffffff"/>
  </g>
  <g id="axes_1">
   <g id="patch_2">
    <path d="M 373.581818 218.16 
L 344.517677 124.713261 
L 268.426768 66.96 
L 174.373232 66.96 
L 98.282323 124.713261 
L 69.218182 218.16 
L 98.282323 311.606739 
L 174.373232 369.36 
L 268.426768 369.36 
L 344.517677 311.606739 
L 362.739612 218.16 
L 286.690387 189.907541 
L 321.342198 113.752525 
L 248.444164 149.95253 
L 221.4 70.505533 
L 194.355836 149.95253 
L 121.457802 113.752525 
L 156.109613 189.907541 
L 80.060388 218.16 
L 156.109613 246.412459 
L 121.457802 322.567475 
L 194.355836 286.36747 
L 221.4 365.814467 
L 248.444164 286.36747 
L 321.342198 322.567475 
L 286.690387 246.412459 
L 362.739612 218.16 
L 373.581818 218.16 
" clip-path="url(#pab8e8cd418)" style="fill: #1f77b4; stroke: #000000; stroke-linejoin: miter"/>
   </g>
  </g>
 </g>
 <defs>
  <clipPath id="pab8e8cd418">
   <rect x="54" y="51.84" width="334.8" height="332.64"/>
  </clipPath>
 </defs>
</svg>
