<?xml version="1.0" encoding="utf-8" standalone="no"?>
<!DOCTYPE svg PUBLIC "-//W3C//DTD SVG 1.1//EN"
  "http://www.w3.org/Graphics/SVG/1.1/DTD/svg11.dtd">
<svg xmlns:xlink="http://www.w3.org/1999/xlink" width="432pt" height="432pt" viewBox="0 0 432 432" xmlns="http://www.w3.org/2000/svg" version="1.1">
 <metadata>
  <rdf:RDF xmlns:dc="http://purl.org/dc/elements/1.1/" xmlns:cc="http://creativecommons.org/ns#" xmlns:rdf="http://www.w3.org/1999/02/22-rdf-syntax-ns#">
   <cc:Work>
    <dc:type rdf:resource="http://purl.org/dc/dcmitype/StillImage"/>
    <dc:date>2023-12-25T22:17:50.744885</dc:date>
    <dc:format>image/svg+xml</dc:format>
    <dc:creator>
     <cc:Agent>
      <dc:title>Matplotlib v3.7.2, https://matplotlib.org/</dc:title>
     </cc:Agent>
    </dc:creator>
   </cc:Work>
  </rdf:RDF>
 </metadata>
 <defs>
  <style type="text/css">*{stroke-linejoin: round; stroke-linecap: butt}</style>
 </defs>
 <g id="figure_1">
  <g id="patch_1">
   <path d="M 0 432 
L 432 432 
L 432 0 
L 0 0 
z
" style="fill: #ffffff"/>
  </g>
  <g id="axes_1">
   <g id="patch_2">
    <path d="M 357.009595 218.16 
L 317.290464 117.985285 
L 221.4 76.491559 
L 125.509536 117.985285 
L 85.790405 218.16 
L 125.509536 318.334715 
L 221.4 359.828441 
L 317.290464 318.334715 
L 373.581818 218.16 
L 293.766755 193.596071 
L 344.517677 124.713261 
L 266.125114 153.850799 
L 268.426768 66.96 
L 221.4 138.669456 
L 174.373232 66.96 
L 176.674886 153.850799 
L 98.282323 124.713261 
L 149.033245 193.596071 
L 69.218182 218.16 
L 149.033245 242.723929 
L 98.282323 311.606739 
L 176.674886 282.469201 
L 174.373232 369.36 
L 221.4 297.650544 
L 268.426768 369.36 
L 266.125114 282.469201 
L 344.517677 311.606739 
L 293.766755 242.723929 
L 373.581818 218.16 
L 357.009595 218.16 
" clip-path="url(#p601739f043)" style="fill: #1f77b4; stroke: #000000; stroke-linejoin: miter"/>
   </g>
  </g>
 </g>
 <defs>
  <clipPath id="p601739f043">
   <rect x="54" y="51.84" width="334.8" height="332.64"/>
  </clipPath>
 </defs>
</svg>
