<?xml version="1.0" encoding="utf-8" standalone="no"?>
<!DOCTYPE svg PUBLIC "-//W3C//DTD SVG 1.1//EN"
  "http://www.w3.org/Graphics/SVG/1.1/DTD/svg11.dtd">
<svg xmlns:xlink="http://www.w3.org/1999/xlink" width="432pt" height="432pt" viewBox="0 0 432 432" xmlns="http://www.w3.org/2000/svg" version="1.1">
 <metadata>
  <rdf:RDF xmlns:dc="http://purl.org/dc/elements/1.1/" xmlns:cc="http://creativecommons.org/ns#" xmlns:rdf="http://www.w3.org/1999/02/22-rdf-syntax-ns#">
   <cc:Work>
    <dc:type rdf:resource="http://purl.org/dc/dcmitype/StillImage"/>
    <dc:date>2023-12-25T22:17:50.817441</dc:date>
    <dc:format>image/svg+xml</dc:format>
    <dc:creator>
     <cc:Agent>
      <dc:title>Matplotlib v3.7.2, https://matplotlib.org/</dc:title>
     </cc:Agent>
    </dc:creator>
   </cc:Work>
  </rdf:RDF>
 </metadata>
 <defs>
  <style type="text/css">*{stroke-linejoin: round; stroke-linecap: butt}</style>
 </defs>
 <g id="figure_1">
  <g id="patch_1">
   <path d="M 0 432 
L 432 432 
L 432 0 
L 0 0 
z
" style="fill: #ffffff"/>
  </g>
  <g id="axes_1">
   <g id="patch_2">
    <path d="M 373.581818 218.16 
L 297.490909 86.056112 
L 145.309091 86.056112 
L 69.218182 218.16 
L 145.309091 350.263888 
L 297.490909 350.263888 
L 372.244539 218.16 
L 294.252318 198.59328 
L 352.035203 142.56 
L 274.731598 164.702727 
L 296.82227 87.216959 
L 240.92072 145.136008 
L 221.4 66.96 
L 201.87928 145.136008 
L 145.97773 87.216959 
L 168.068402 164.702727 
L 90.764797 142.56 
L 148.547682 198.59328 
L 70.555461 218.16 
L 148.547682 237.72672 
L 90.764797 293.76 
L 168.068402 271.617273 
L 145.97773 349.103041 
L 201.87928 291.183992 
L 221.4 369.36 
L 240.92072 291.183992 
L 296.82227 349.103041 
L 274.731598 271.617273 
L 352.035203 293.76 
L 294.252318 237.72672 
L 372.244539 218.16 
L 373.581818 218.16 
" clip-path="url(#p78b8326e2e)" style="fill: #1f77b4; stroke: #000000; stroke-linejoin: miter"/>
   </g>
  </g>
 </g>
 <defs>
  <clipPath id="p78b8326e2e">
   <rect x="54" y="51.84" width="334.8" height="332.64"/>
  </clipPath>
 </defs>
</svg>
