<?xml version="1.0" encoding="utf-8" standalone="no"?>
<!DOCTYPE svg PUBLIC "-//W3C//DTD SVG 1.1//EN"
  "http://www.w3.org/Graphics/SVG/1.1/DTD/svg11.dtd">
<svg xmlns:xlink="http://www.w3.org/1999/xlink" width="432pt" height="432pt" viewBox="0 0 432 432" xmlns="http://www.w3.org/2000/svg" version="1.1">
 <metadata>
  <rdf:RDF xmlns:dc="http://purl.org/dc/elements/1.1/" xmlns:cc="http://creativecommons.org/ns#" xmlns:rdf="http://www.w3.org/1999/02/22-rdf-syntax-ns#">
   <cc:Work>
    <dc:type rdf:resource="http://purl.org/dc/dcmitype/StillImage"/>
    <dc:date>2023-12-25T22:17:51.032732</dc:date>
    <dc:format>image/svg+xml</dc:format>
    <dc:creator>
     <cc:Agent>
      <dc:title>Matplotlib v3.7.2, https://matplotlib.org/</dc:title>
     </cc:Agent>
    </dc:creator>
   </cc:Work>
  </rdf:RDF>
 </metadata>
 <defs>
  <style type="text/css">*{stroke-linejoin: round; stroke-linecap: butt}</style>
 </defs>
 <g id="figure_1">
  <g id="patch_1">
   <path d="M 0 432 
L 432 432 
L 432 0 
L 0 0 
z
" style="fill: #ffffff"/>
  </g>
  <g id="axes_1">
   <g id="patch_2">
    <path d="M 351.090414 218.16 
L 333.715194 143.76628 
L 286.245207 89.306298 
L 221.4 69.372561 
L 156.554793 89.306298 
L 109.084806 143.76628 
L 91.709586 218.16 
L 109.084806 292.55372 
L 156.554793 347.013702 
L 221.4 366.947439 
L 286.245207 347.013702 
L 333.715194 292.55372 
L 373.581818 218.16 
L 287.29666 174.51232 
L 297.490909 66.96 
L 221.4 130.864639 
L 145.309091 66.96 
L 155.50334 174.51232 
L 69.218182 218.16 
L 155.50334 261.80768 
L 145.309091 369.36 
L 221.4 305.455361 
L 297.490909 369.36 
L 287.29666 261.80768 
L 373.581818 218.16 
L 351.090414 218.16 
" clip-path="url(#p82f52221d0)" style="fill: #1f77b4; stroke: #000000; stroke-linejoin: miter"/>
   </g>
  </g>
 </g>
 <defs>
  <clipPath id="p82f52221d0">
   <rect x="54" y="51.84" width="334.8" height="332.64"/>
  </clipPath>
 </defs>
</svg>
