<?xml version="1.0" encoding="utf-8" standalone="no"?>
<!DOCTYPE svg PUBLIC "-//W3C//DTD SVG 1.1//EN"
  "http://www.w3.org/Graphics/SVG/1.1/DTD/svg11.dtd">
<svg xmlns:xlink="http://www.w3.org/1999/xlink" width="432pt" height="432pt" viewBox="0 0 432 432" xmlns="http://www.w3.org/2000/svg" version="1.1">
 <metadata>
  <rdf:RDF xmlns:dc="http://purl.org/dc/elements/1.1/" xmlns:cc="http://creativecommons.org/ns#" xmlns:rdf="http://www.w3.org/1999/02/22-rdf-syntax-ns#">
   <cc:Work>
    <dc:type rdf:resource="http://purl.org/dc/dcmitype/StillImage"/>
    <dc:date>2023-12-25T22:17:51.252803</dc:date>
    <dc:format>image/svg+xml</dc:format>
    <dc:creator>
     <cc:Agent>
      <dc:title>Matplotlib v3.7.2, https://matplotlib.org/</dc:title>
     </cc:Agent>
    </dc:creator>
   </cc:Work>
  </rdf:RDF>
 </metadata>
 <defs>
  <style type="text/css">*{stroke-linejoin: round; stroke-linecap: butt}</style>
 </defs>
 <g id="figure_1">
  <g id="patch_1">
   <path d="M 0 432 
L 432 432 
L 432 0 
L 0 0 
z
" style="fill: #ffffff"/>
  </g>
  <g id="axes_1">
   <g id="patch_2">
    <path d="M 373.581818 218.16 
L 353.193321 142.56 
L 297.490909 87.216959 
L 221.4 66.96 
L 145.309091 87.216959 
L 89.606679 142.56 
L 69.218182 218.16 
L 89.606679 293.76 
L 145.309091 349.103041 
L 221.4 369.36 
L 297.490909 349.103041 
L 353.193321 293.76 
L 357.829019 218.16 
L 286.275854 197.216554 
L 331.773395 138.486396 
L 261.495483 163.329346 
L 263.558885 89.2454 
L 221.4 150.385584 
L 179.241115 89.2454 
L 181.304517 163.329346 
L 111.026605 138.486396 
L 156.524146 197.216554 
L 84.970981 218.16 
L 156.524146 239.103446 
L 111.026605 297.833604 
L 181.304517 272.990654 
L 179.241115 347.0746 
L 221.4 285.934416 
L 263.558885 347.0746 
L 261.495483 272.990654 
L 331.773395 297.833604 
L 286.275854 239.103446 
L 357.829019 218.16 
L 373.581818 218.16 
" clip-path="url(#p3c90013fcb)" style="fill: #1f77b4; stroke: #000000; stroke-linejoin: miter"/>
   </g>
  </g>
 </g>
 <defs>
  <clipPath id="p3c90013fcb">
   <rect x="54" y="51.84" width="334.8" height="332.64"/>
  </clipPath>
 </defs>
</svg>
