<?xml version="1.0" encoding="utf-8" standalone="no"?>
<!DOCTYPE svg PUBLIC "-//W3C//DTD SVG 1.1//EN"
  "http://www.w3.org/Graphics/SVG/1.1/DTD/svg11.dtd">
<svg xmlns:xlink="http://www.w3.org/1999/xlink" width="432pt" height="432pt" viewBox="0 0 432 432" xmlns="http://www.w3.org/2000/svg" version="1.1">
 <metadata>
  <rdf:RDF xmlns:dc="http://purl.org/dc/elements/1.1/" xmlns:cc="http://creativecommons.org/ns#" xmlns:rdf="http://www.w3.org/1999/02/22-rdf-syntax-ns#">
   <cc:Work>
    <dc:type rdf:resource="http://purl.org/dc/dcmitype/StillImage"/>
    <dc:date>2023-12-25T22:17:50.595739</dc:date>
    <dc:format>image/svg+xml</dc:format>
    <dc:creator>
     <cc:Agent>
      <dc:title>Matplotlib v3.7.2, https://matplotlib.org/</dc:title>
     </cc:Agent>
    </dc:creator>
   </cc:Work>
  </rdf:RDF>
 </metadata>
 <defs>
  <style type="text/css">*{stroke-linejoin: round; stroke-linecap: butt}</style>
 </defs>
 <g id="figure_1">
  <g id="patch_1">
   <path d="M 0 432 
L 432 432 
L 432 0 
L 0 0 
z
" style="fill: #ffffff"/>
  </g>
  <g id="axes_1">
   <g id="patch_2">
    <path d="M 349.021754 218.16 
L 324.648168 132.099912 
L 260.837291 78.911852 
L 181.962709 78.911852 
L 118.151832 132.099912 
L 93.778246 218.16 
L 118.151832 304.220088 
L 181.962709 357.408148 
L 260.837291 357.408148 
L 324.648168 304.220088 
L 373.581818 218.16 
L 287.29666 174.51232 
L 297.490909 66.96 
L 221.4 130.864639 
L 145.309091 66.96 
L 155.50334 174.51232 
L 69.218182 218.16 
L 155.50334 261.80768 
L 145.309091 369.36 
L 221.4 305.455361 
L 297.490909 369.36 
L 287.29666 261.80768 
L 373.581818 218.16 
L 349.021754 218.16 
" clip-path="url(#p4cf0c5ba5e)" style="fill: #1f77b4; stroke: #000000; stroke-linejoin: miter"/>
   </g>
  </g>
 </g>
 <defs>
  <clipPath id="p4cf0c5ba5e">
   <rect x="54" y="51.84" width="334.8" height="332.64"/>
  </clipPath>
 </defs>
</svg>
