<?xml version="1.0" encoding="utf-8" standalone="no"?>
<!DOCTYPE svg PUBLIC "-//W3C//DTD SVG 1.1//EN"
  "http://www.w3.org/Graphics/SVG/1.1/DTD/svg11.dtd">
<svg xmlns:xlink="http://www.w3.org/1999/xlink" width="432pt" height="432pt" viewBox="0 0 432 432" xmlns="http://www.w3.org/2000/svg" version="1.1">
 <metadata>
  <rdf:RDF xmlns:dc="http://purl.org/dc/elements/1.1/" xmlns:cc="http://creativecommons.org/ns#" xmlns:rdf="http://www.w3.org/1999/02/22-rdf-syntax-ns#">
   <cc:Work>
    <dc:type rdf:resource="http://purl.org/dc/dcmitype/StillImage"/>
    <dc:date>2023-12-25T22:17:50.671950</dc:date>
    <dc:format>image/svg+xml</dc:format>
    <dc:creator>
     <cc:Agent>
      <dc:title>Matplotlib v3.7.2, https://matplotlib.org/</dc:title>
     </cc:Agent>
    </dc:creator>
   </cc:Work>
  </rdf:RDF>
 </metadata>
 <defs>
  <style type="text/css">*{stroke-linejoin: round; stroke-linecap: butt}</style>
 </defs>
 <g id="figure_1">
  <g id="patch_1">
   <path d="M 0 432 
L 432 432 
L 432 0 
L 0 0 
z
" style="fill: #ffffff"/>
  </g>
  <g id="axes_1">
   <g id="patch_2">
    <path d="M 371.576707 218.16 
L 351.456843 142.56 
L 296.488354 87.216959 
L 221.4 66.96 
L 146.311646 87.216959 
L 91.343157 142.56 
L 71.223293 218.16 
L 91.343157 293.76 
L 146.311646 349.103041 
L 221.4 369.36 
L 296.488354 349.103041 
L 351.456843 293.76 
L 373.581818 218.16 
L 293.766755 194.486398 
L 344.517677 128.100264 
L 266.125114 156.181704 
L 268.426768 72.440287 
L 221.4 141.550613 
L 174.373232 72.440287 
L 176.674886 156.181704 
L 98.282323 128.100264 
L 149.033245 194.486398 
L 69.218182 218.16 
L 149.033245 241.833602 
L 98.282323 308.219736 
L 176.674886 280.138296 
L 174.373232 363.879713 
L 221.4 294.769387 
L 268.426768 363.879713 
L 266.125114 280.138296 
L 344.517677 308.219736 
L 293.766755 241.833602 
L 373.581818 218.16 
L 371.576707 218.16 
" clip-path="url(#p01747cbb05)" style="fill: #1f77b4; stroke: #000000; stroke-linejoin: miter"/>
   </g>
  </g>
 </g>
 <defs>
  <clipPath id="p01747cbb05">
   <rect x="54" y="51.84" width="334.8" height="332.64"/>
  </clipPath>
 </defs>
</svg>
