<?xml version="1.0" encoding="utf-8" standalone="no"?>
<!DOCTYPE svg PUBLIC "-//W3C//DTD SVG 1.1//EN"
  "http://www.w3.org/Graphics/SVG/1.1/DTD/svg11.dtd">
<svg xmlns:xlink="http://www.w3.org/1999/xlink" width="432pt" height="432pt" viewBox="0 0 432 432" xmlns="http://www.w3.org/2000/svg" version="1.1">
 <metadata>
  <rdf:RDF xmlns:dc="http://purl.org/dc/elements/1.1/" xmlns:cc="http://creativecommons.org/ns#" xmlns:rdf="http://www.w3.org/1999/02/22-rdf-syntax-ns#">
   <cc:Work>
    <dc:type rdf:resource="http://purl.org/dc/dcmitype/StillImage"/>
    <dc:date>2023-12-25T22:17:50.888463</dc:date>
    <dc:format>image/svg+xml</dc:format>
    <dc:creator>
     <cc:Agent>
      <dc:title>Matplotlib v3.7.2, https://matplotlib.org/</dc:title>
     </cc:Agent>
    </dc:creator>
   </cc:Work>
  </rdf:RDF>
 </metadata>
 <defs>
  <style type="text/css">*{stroke-linejoin: round; stroke-linecap: butt}</style>
 </defs>
 <g id="figure_1">
  <g id="patch_1">
   <path d="M 0 432 
L 432 432 
L 432 0 
L 0 0 
z
" style="fill: #ffffff"/>
  </g>
  <g id="axes_1">
   <g id="patch_2">
    <path d="M 373.581818 218.16 
L 297.490909 66.96 
L 145.309091 66.96 
L 69.218182 218.16 
L 145.309091 369.36 
L 297.490909 369.36 
L 344.531507 218.16 
L 278.27934 191.130547 
L 308.467124 118.272168 
L 244.960194 152.905129 
L 221.4 76.897273 
L 197.839806 152.905129 
L 134.332876 118.272168 
L 164.52066 191.130547 
L 98.268493 218.16 
L 164.52066 245.189453 
L 134.332876 318.047832 
L 197.839806 283.414871 
L 221.4 359.422727 
L 244.960194 283.414871 
L 308.467124 318.047832 
L 278.27934 245.189453 
L 344.531507 218.16 
L 373.581818 218.16 
" clip-path="url(#pe5b1d6809e)" style="fill: #1f77b4; stroke: #000000; stroke-linejoin: miter"/>
   </g>
  </g>
 </g>
 <defs>
  <clipPath id="pe5b1d6809e">
   <rect x="54" y="51.84" width="334.8" height="332.64"/>
  </clipPath>
 </defs>
</svg>
