<?xml version="1.0" encoding="utf-8" standalone="no"?>
<!DOCTYPE svg PUBLIC "-//W3C//DTD SVG 1.1//EN"
  "http://www.w3.org/Graphics/SVG/1.1/DTD/svg11.dtd">
<svg xmlns:xlink="http://www.w3.org/1999/xlink" width="266.112pt" height="266.112pt" viewBox="0 0 266.112 266.112" xmlns="http://www.w3.org/2000/svg" version="1.1">
 <metadata>
  <rdf:RDF xmlns:dc="http://purl.org/dc/elements/1.1/" xmlns:cc="http://creativecommons.org/ns#" xmlns:rdf="http://www.w3.org/1999/02/22-rdf-syntax-ns#">
   <cc:Work>
    <dc:type rdf:resource="http://purl.org/dc/dcmitype/StillImage"/>
    <dc:date>2023-12-24T19:34:25.059733</dc:date>
    <dc:format>image/svg+xml</dc:format>
    <dc:creator>
     <cc:Agent>
      <dc:title>Matplotlib v3.7.2, https://matplotlib.org/</dc:title>
     </cc:Agent>
    </dc:creator>
   </cc:Work>
  </rdf:RDF>
 </metadata>
 <defs>
  <style type="text/css">*{stroke-linejoin: round; stroke-linecap: butt}</style>
 </defs>
 <g id="figure_1">
  <g id="patch_1">
   <path d="M 0 266.112 
L 266.112 266.112 
L 266.112 0 
L 0 0 
L 0 266.112 
z
" style="fill: none"/>
  </g>
  <g id="axes_1">
   <g id="patch_2">
    <path d="M 119.368635 83.940858 
L 171.097622 57.286322 
L 226.523142 75.016635 
L 253.177678 126.745622 
L 235.447365 182.171142 
L 183.718378 208.825678 
L 128.292858 191.095365 
L 101.638322 139.366378 
z
" clip-path="url(#pbd8266a871)" style="fill: #440154; stroke: #000000; stroke-linejoin: miter"/>
   </g>
   <g id="patch_3">
    <path d="M 186.525229 143.910826 
L 178.962991 140.458033 
L 176.057174 132.669229 
L 179.509967 125.106991 
L 187.298771 122.201174 
L 194.861009 125.653967 
L 197.766826 133.442771 
L 194.314033 141.005009 
z
" clip-path="url(#pbd8266a871)" style="fill: #440154; stroke: #000000; stroke-linejoin: miter"/>
   </g>
   <g id="patch_4">
    <path d="M 186.917068 136.833269 
L 178.677337 135.730516 
L 173.630731 129.124382 
L 174.733484 120.884651 
L 181.339618 115.838046 
L 189.579349 116.940798 
L 194.625954 123.546932 
L 193.523202 131.786663 
z
" clip-path="url(#pbd8266a871)" style="fill: #440154; stroke: #000000; stroke-linejoin: miter"/>
   </g>
   <g id="patch_5">
    <path d="M 166.559414 123.018137 
L 170.114389 115.503393 
L 177.941863 112.703414 
L 185.456607 116.258389 
L 188.256586 124.085863 
L 184.701611 131.600607 
L 176.874137 134.400586 
L 169.359393 130.845611 
z
" clip-path="url(#pbd8266a871)" style="fill: #440154; stroke: #000000; stroke-linejoin: miter"/>
   </g>
   <g id="patch_6">
    <path d="M 181.033089 129.644565 
L 175.663231 135.990734 
L 167.378749 136.681089 
L 161.032581 131.311231 
L 160.342225 123.026749 
L 165.712083 116.680581 
L 173.996565 115.990225 
L 180.342734 121.360083 
z
" clip-path="url(#pbd8266a871)" style="fill: #440154; stroke: #000000; stroke-linejoin: miter"/>
   </g>
   <g id="patch_7">
    <path d="M 164.076137 143.220856 
L 158.009653 137.536931 
L 157.739144 129.228137 
L 163.423069 123.161653 
L 171.731863 122.891144 
L 177.798347 128.575069 
L 178.068856 136.883863 
L 172.384931 142.950347 
z
" clip-path="url(#pbd8266a871)" style="fill: #440154; stroke: #000000; stroke-linejoin: miter"/>
   </g>
   <g id="patch_8">
    <path d="M 166.08356 129.938705 
L 174.388329 129.564494 
L 180.525295 135.172245 
L 180.899506 143.477015 
L 175.291755 149.613981 
L 166.986985 149.988192 
L 160.850019 144.38044 
L 160.475808 136.075671 
z
" clip-path="url(#pbd8266a871)" style="fill: #440154; stroke: #000000; stroke-linejoin: miter"/>
   </g>
   <g id="patch_9">
    <path d="M 170.559461 134.12944 
L 178.526658 131.756045 
L 185.83856 135.711461 
L 188.211955 143.678658 
L 184.256539 150.99056 
L 176.289342 153.363955 
L 168.97744 149.408539 
L 166.604045 141.441342 
z
" clip-path="url(#pbd8266a871)" style="fill: #440154; stroke: #000000; stroke-linejoin: miter"/>
   </g>
   <g id="patch_10">
    <path d="M 194.198811 135.706636 
L 194.126956 144.019522 
L 188.19805 149.846811 
L 179.885164 149.774956 
L 174.057875 143.84605 
L 174.129729 135.533164 
L 180.058636 129.705875 
L 188.371522 129.777729 
z
" clip-path="url(#pbd8266a871)" style="fill: #440154; stroke: #000000; stroke-linejoin: miter"/>
   </g>
   <g id="patch_11">
    <path d="M 186.45544 28.926285 
L 231.455534 65.822679 
L 237.185715 123.732241 
L 200.289321 168.732334 
L 142.379759 174.462515 
L 97.379666 137.566121 
L 91.649485 79.65656 
L 128.545879 34.656466 
z
" clip-path="url(#pbd8266a871)" style="fill: #440154; stroke: #000000; stroke-linejoin: miter"/>
   </g>
   <g id="patch_12">
    <path d="M 177.601887 91.475187 
L 183.750031 97.070681 
L 184.140813 105.374688 
L 178.545319 111.522831 
L 170.241312 111.913613 
L 164.093169 106.318119 
L 163.702387 98.014113 
L 169.297881 91.865969 
z
" clip-path="url(#pbd8266a871)" style="fill: #440154; stroke: #000000; stroke-linejoin: miter"/>
   </g>
   <g id="patch_13">
    <path d="M 167.106763 105.060009 
L 161.155623 99.255428 
L 161.051991 90.942877 
L 166.856572 84.991738 
L 175.169123 84.888105 
L 181.120262 90.692687 
L 181.223895 99.005237 
L 175.419313 104.956377 
z
" clip-path="url(#pbd8266a871)" style="fill: #440154; stroke: #000000; stroke-linejoin: miter"/>
   </g>
   <g id="patch_14">
    <path d="M 153.815827 89.828359 
L 158.59123 83.023599 
L 166.779641 81.588627 
L 173.584401 86.36403 
L 175.019373 94.552441 
L 170.24397 101.357201 
L 162.055559 102.792173 
L 155.250799 98.01677 
z
" clip-path="url(#pbd8266a871)" style="fill: #440154; stroke: #000000; stroke-linejoin: miter"/>
   </g>
   <g id="patch_15">
    <path d="M 164.383595 86.414284 
L 168.477886 93.649338 
L 166.257031 101.660395 
L 159.021976 105.754686 
L 151.010919 103.533831 
L 146.916628 96.298776 
L 149.137484 88.287719 
L 156.372538 84.193428 
z
" clip-path="url(#pbd8266a871)" style="fill: #440154; stroke: #000000; stroke-linejoin: miter"/>
   </g>
   <g id="patch_16">
    <path d="M 165.286351 98.472153 
L 164.526715 106.75057 
L 158.135847 112.067151 
L 149.85743 111.307515 
L 144.540849 104.916647 
L 145.300485 96.63823 
L 151.691353 91.321649 
L 159.96977 92.081285 
z
" clip-path="url(#pbd8266a871)" style="fill: #440154; stroke: #000000; stroke-linejoin: miter"/>
   </g>
   <g id="patch_17">
    <path d="M 147.101562 106.025582 
L 151.894361 99.233064 
L 160.086418 97.819048 
L 166.878936 102.611847 
L 168.292952 110.803903 
L 163.500153 117.596422 
L 155.308097 119.010438 
L 148.515578 114.217639 
z
" clip-path="url(#pbd8266a871)" style="fill: #440154; stroke: #000000; stroke-linejoin: miter"/>
   </g>
   <g id="patch_18">
    <path d="M 154.378068 115.343837 
L 154.387313 107.030646 
L 160.272163 101.158869 
L 168.585354 101.168113 
L 174.457131 107.052963 
L 174.447887 115.366154 
L 168.563037 121.237932 
L 160.249846 121.228687 
z
" clip-path="url(#pbd8266a871)" style="fill: #440154; stroke: #000000; stroke-linejoin: miter"/>
   </g>
   <g id="patch_19">
    <path d="M 170.401725 119.251478 
L 162.95463 115.556887 
L 160.301208 107.678525 
L 163.995799 100.23143 
L 171.87416 97.578008 
L 179.321256 101.272599 
L 181.974678 109.150961 
L 178.280087 116.598056 
z
" clip-path="url(#pbd8266a871)" style="fill: #440154; stroke: #000000; stroke-linejoin: miter"/>
   </g>
   <g id="patch_20">
    <path d="M 85.391218 29.467748 
L 141.238264 13.113554 
L 192.292252 41.039218 
L 208.646446 96.886264 
L 180.720782 147.940252 
L 124.873736 164.294446 
L 73.819748 136.368782 
L 57.465554 80.521736 
z
" clip-path="url(#pbd8266a871)" style="fill: #440154; stroke: #000000; stroke-linejoin: miter"/>
   </g>
   <g id="patch_21">
    <path d="M 137.223957 79.243372 
L 145.476522 78.241173 
L 152.020628 83.367957 
L 153.022827 91.620522 
L 147.896043 98.164628 
L 139.643478 99.166827 
L 133.099372 94.040043 
L 132.097173 85.787478 
z
" clip-path="url(#pbd8266a871)" style="fill: #440154; stroke: #000000; stroke-linejoin: miter"/>
   </g>
   <g id="patch_22">
    <path d="M 130.811049 75.851745 
L 137.77284 71.30832 
L 145.908255 73.018364 
L 150.45168 79.980154 
L 148.741636 88.11557 
L 141.779846 92.658994 
L 133.64443 90.948951 
L 129.101006 83.98716 
z
" clip-path="url(#pbd8266a871)" style="fill: #440154; stroke: #000000; stroke-linejoin: miter"/>
   </g>
   <g id="patch_23">
    <path d="M 123.052289 74.968853 
L 128.974181 69.134436 
L 137.287147 69.196289 
L 143.121564 75.118181 
L 143.059711 83.431147 
L 137.137819 89.265564 
L 128.824853 89.203711 
L 122.990436 83.281819 
z
" clip-path="url(#pbd8266a871)" style="fill: #440154; stroke: #000000; stroke-linejoin: miter"/>
   </g>
   <g id="patch_24">
    <path d="M 117.662556 88.522324 
L 115.579313 80.474384 
L 119.796991 73.310556 
L 127.84493 71.227313 
L 135.008758 75.444991 
L 137.092001 83.49293 
L 132.874324 90.656758 
L 124.826384 92.740001 
z
" clip-path="url(#pbd8266a871)" style="fill: #440154; stroke: #000000; stroke-linejoin: miter"/>
   </g>
   <g id="patch_25">
    <path d="M 128.083362 78.832648 
L 133.736257 84.928057 
L 133.423352 93.235362 
L 127.327943 98.888257 
L 119.020638 98.575352 
L 113.367743 92.479943 
L 113.680648 84.172638 
L 119.776057 78.519743 
z
" clip-path="url(#pbd8266a871)" style="fill: #440154; stroke: #000000; stroke-linejoin: miter"/>
   </g>
   <g id="patch_26">
    <path d="M 136.859101 92.73474 
L 135.678692 100.963705 
L 129.02526 105.947787 
L 120.796295 104.767378 
L 115.812213 98.113945 
L 116.992622 89.88498 
L 123.646055 84.900899 
L 131.87502 86.081308 
z
" clip-path="url(#pbd8266a871)" style="fill: #440154; stroke: #000000; stroke-linejoin: miter"/>
   </g>
   <g id="patch_27">
    <path d="M 125.765856 106.259748 
L 122.207644 98.746535 
L 125.004252 90.917856 
L 132.517465 87.359644 
L 140.346144 90.156252 
L 143.904356 97.669465 
L 141.107748 105.498144 
L 133.594535 109.056356 
z
" clip-path="url(#pbd8266a871)" style="fill: #440154; stroke: #000000; stroke-linejoin: miter"/>
   </g>
   <g id="patch_28">
    <path d="M 129.082985 97.329319 
L 130.867976 89.210018 
L 137.871367 84.730985 
L 145.990667 86.515976 
L 150.469701 93.519367 
L 148.68471 101.638667 
L 141.681319 106.117701 
L 133.562018 104.33271 
z
" clip-path="url(#pbd8266a871)" style="fill: #440154; stroke: #000000; stroke-linejoin: miter"/>
   </g>
   <g id="patch_29">
    <path d="M 100.439527 177.716044 
L 47.051651 154.56249 
L 25.672756 100.439527 
L 48.82631 47.051651 
L 102.949273 25.672756 
L 156.337149 48.82631 
L 177.716044 102.949273 
L 154.56249 156.337149 
z
" clip-path="url(#pbd8266a871)" style="fill: #440154; stroke: #000000; stroke-linejoin: miter"/>
   </g>
   <g id="patch_30">
    <path d="M 121.110556 106.135796 
L 115.066812 111.843894 
L 106.757004 111.606556 
L 101.048906 105.562812 
L 101.286244 97.253004 
L 107.329988 91.544906 
L 115.639796 91.782244 
L 121.347894 97.825988 
z
" clip-path="url(#pbd8266a871)" style="fill: #440154; stroke: #000000; stroke-linejoin: miter"/>
   </g>
   <g id="patch_31">
    <path d="M 106.985429 84.206797 
L 115.017668 86.349777 
L 119.182003 93.544744 
L 117.039023 101.576983 
L 109.844057 105.741318 
L 101.811817 103.598338 
L 97.647482 96.403371 
L 99.790463 88.371132 
z
" clip-path="url(#pbd8266a871)" style="fill: #440154; stroke: #000000; stroke-linejoin: miter"/>
   </g>
   <g id="patch_32">
    <path d="M 96.737073 101.854858 
L 91.355237 95.518844 
L 92.029942 87.233073 
L 98.365956 81.851237 
L 106.651727 82.525942 
L 112.033563 88.861956 
L 111.358858 97.147727 
L 105.022844 102.529563 
z
" clip-path="url(#pbd8266a871)" style="fill: #440154; stroke: #000000; stroke-linejoin: miter"/>
   </g>
   <g id="patch_33">
    <path d="M 84.904725 99.046573 
L 84.974261 90.733667 
L 90.901542 84.904725 
L 99.214447 84.974261 
L 105.04339 90.901542 
L 104.973854 99.214447 
L 99.046573 105.04339 
L 90.733667 104.973854 
z
" clip-path="url(#pbd8266a871)" style="fill: #440154; stroke: #000000; stroke-linejoin: miter"/>
   </g>
   <g id="patch_34">
    <path d="M 81.515092 103.698056 
L 83.225019 95.562616 
L 90.186744 91.019092 
L 98.322184 92.729019 
L 102.865708 99.690744 
L 101.155781 107.826184 
L 94.194056 112.369708 
L 86.058616 110.659781 
z
" clip-path="url(#pbd8266a871)" style="fill: #440154; stroke: #000000; stroke-linejoin: miter"/>
   </g>
   <g id="patch_35">
    <path d="M 84.121734 107.963165 
L 87.61962 100.421678 
L 95.425635 97.56242 
L 102.967122 101.060306 
L 105.82638 108.866321 
L 102.328494 116.407808 
L 94.522479 119.267066 
L 86.980992 115.76918 
z
" clip-path="url(#pbd8266a871)" style="fill: #440154; stroke: #000000; stroke-linejoin: miter"/>
   </g>
   <g id="patch_36">
    <path d="M 112.016265 114.580108 
L 106.601832 120.888289 
L 98.312692 121.520265 
L 92.004511 116.105832 
L 91.372536 107.816692 
L 96.786968 101.508511 
L 105.076108 100.876536 
L 111.384289 106.290968 
z
" clip-path="url(#pbd8266a871)" style="fill: #440154; stroke: #000000; stroke-linejoin: miter"/>
   </g>
   <g id="patch_37">
    <path d="M 97.891236 111.104099 
L 99.071837 102.875162 
L 105.725386 97.891236 
L 113.954324 99.071837 
L 118.93825 105.725386 
L 117.757648 113.954324 
L 111.104099 118.93825 
L 102.875162 117.757648 
z
" clip-path="url(#pbd8266a871)" style="fill: #440154; stroke: #000000; stroke-linejoin: miter"/>
   </g>
   <g id="patch_38">
    <path d="M 115.742601 204.117798 
L 57.574899 202.423457 
L 17.642202 160.094601 
L 19.336543 101.926899 
L 61.665399 61.994202 
L 119.833101 63.688543 
L 159.765798 106.017399 
L 158.071457 164.185101 
z
" clip-path="url(#pbd8266a871)" style="fill: #440154; stroke: #000000; stroke-linejoin: miter"/>
   </g>
   <g id="patch_39">
    <path d="M 91.404382 124.589146 
L 99.384086 122.258146 
L 106.674854 126.252382 
L 109.005854 134.232086 
L 105.011618 141.522854 
L 97.031914 143.853854 
L 89.741146 139.859618 
L 87.410146 131.879914 
z
" clip-path="url(#pbd8266a871)" style="fill: #440154; stroke: #000000; stroke-linejoin: miter"/>
   </g>
   <g id="patch_40">
    <path d="M 85.728661 131.231634 
L 85.106482 122.941753 
L 90.528366 116.639975 
L 98.818247 116.017796 
L 105.120025 121.43968 
L 105.742204 129.729561 
L 100.32032 136.031339 
L 92.030439 136.653518 
z
" clip-path="url(#pbd8266a871)" style="fill: #440154; stroke: #000000; stroke-linejoin: miter"/>
   </g>
   <g id="patch_41">
    <path d="M 92.630146 133.6793 
L 84.319122 133.489287 
L 78.5767 127.478146 
L 78.766713 119.167122 
L 84.777854 113.4247 
L 93.088878 113.614713 
L 98.8313 119.625854 
L 98.641287 127.936878 
z
" clip-path="url(#pbd8266a871)" style="fill: #440154; stroke: #000000; stroke-linejoin: miter"/>
   </g>
   <g id="patch_42">
    <path d="M 92.575831 128.740381 
L 87.773059 135.525851 
L 79.578933 136.927831 
L 72.793463 132.125059 
L 71.391484 123.930933 
L 76.194256 117.145463 
L 84.388381 115.743484 
L 91.173851 120.546256 
z
" clip-path="url(#pbd8266a871)" style="fill: #440154; stroke: #000000; stroke-linejoin: miter"/>
   </g>
   <g id="patch_43">
    <path d="M 87.630419 139.904714 
L 80.318434 143.859978 
L 72.351286 141.486419 
L 68.396022 134.174434 
L 70.769581 126.207286 
L 78.081566 122.252022 
L 86.048714 124.625581 
L 90.003978 131.937566 
z
" clip-path="url(#pbd8266a871)" style="fill: #440154; stroke: #000000; stroke-linejoin: miter"/>
   </g>
   <g id="patch_44">
    <path d="M 83.903011 129.085556 
L 90.900373 133.574004 
L 92.674444 141.695697 
L 88.185996 148.693059 
L 80.064303 150.467129 
L 73.066941 145.978682 
L 71.292871 137.856989 
L 75.781318 130.859627 
z
" clip-path="url(#pbd8266a871)" style="fill: #440154; stroke: #000000; stroke-linejoin: miter"/>
   </g>
   <g id="patch_45">
    <path d="M 89.051482 131.703845 
L 96.626168 135.129246 
L 99.560155 142.907482 
L 96.134754 150.482168 
L 88.356518 153.416155 
L 80.781832 149.990754 
L 77.847845 142.212518 
L 81.273246 134.637832 
z
" clip-path="url(#pbd8266a871)" style="fill: #440154; stroke: #000000; stroke-linejoin: miter"/>
   </g>
   <g id="patch_46">
    <path d="M 104.316157 133.538356 
L 106.122728 141.652882 
L 101.66233 148.668157 
L 93.547804 150.474728 
L 86.532529 146.01433 
L 84.725958 137.899804 
L 89.186356 130.884529 
L 97.300882 129.077958 
z
" clip-path="url(#pbd8266a871)" style="fill: #440154; stroke: #000000; stroke-linejoin: miter"/>
   </g>
   <g id="patch_47">
    <path d="M 87.606588 239.133051 
L 38.901011 207.287814 
L 26.978949 150.329788 
L 58.824186 101.624211 
L 115.782212 89.702149 
L 164.487789 121.547386 
L 176.409851 178.505412 
L 144.564614 227.210989 
z
" clip-path="url(#pbd8266a871)" style="fill: #440154; stroke: #000000; stroke-linejoin: miter"/>
   </g>
   <g id="patch_48">
    <path d="M 121.551516 167.702387 
L 116.196463 174.061054 
L 107.913613 174.770716 
L 101.554946 169.415663 
L 100.845284 161.132812 
L 106.200337 154.774146 
L 114.483188 154.064484 
L 120.841854 159.419537 
z
" clip-path="url(#pbd8266a871)" style="fill: #440154; stroke: #000000; stroke-linejoin: miter"/>
   </g>
   <g id="patch_49">
    <path d="M 118.365511 153.343057 
L 118.529883 161.654628 
L 112.768943 167.648025 
L 104.457372 167.812397 
L 98.463975 162.051457 
L 98.299603 153.739886 
L 104.060543 147.746489 
L 112.372114 147.582117 
z
" clip-path="url(#pbd8266a871)" style="fill: #440154; stroke: #000000; stroke-linejoin: miter"/>
   </g>
   <g id="patch_50">
    <path d="M 97.083791 145.079012 
L 105.388311 144.699303 
L 111.528988 150.302991 
L 111.908697 158.607511 
L 106.305009 164.748188 
L 98.000489 165.127897 
L 91.859812 159.524209 
L 91.480103 151.219689 
z
" clip-path="url(#pbd8266a871)" style="fill: #440154; stroke: #000000; stroke-linejoin: miter"/>
   </g>
   <g id="patch_51">
    <path d="M 91.728684 168.062796 
L 85.349689 162.731975 
L 84.608518 154.451884 
L 89.93934 148.072889 
L 98.21943 147.331718 
L 104.598425 152.662539 
L 105.339596 160.94263 
L 100.008775 167.321625 
z
" clip-path="url(#pbd8266a871)" style="fill: #440154; stroke: #000000; stroke-linejoin: miter"/>
   </g>
   <g id="patch_52">
    <path d="M 102.446235 167.994566 
L 96.913073 174.198868 
L 88.613434 174.673435 
L 82.409132 169.140273 
L 81.934565 160.840633 
L 87.467727 154.636332 
L 95.767367 154.161765 
L 101.971668 159.694927 
z
" clip-path="url(#pbd8266a871)" style="fill: #440154; stroke: #000000; stroke-linejoin: miter"/>
   </g>
   <g id="patch_53">
    <path d="M 95.301259 181.994728 
L 87.528517 179.046215 
L 84.117272 171.465144 
L 87.065785 163.692403 
L 94.646856 160.281158 
L 102.419597 163.22967 
L 105.830842 170.810741 
L 102.88233 178.583483 
z
" clip-path="url(#pbd8266a871)" style="fill: #440154; stroke: #000000; stroke-linejoin: miter"/>
   </g>
   <g id="patch_54">
    <path d="M 102.476684 184.755107 
L 94.587112 182.135204 
L 90.860893 174.703884 
L 93.480796 166.814312 
L 100.912116 163.088093 
L 108.801688 165.707996 
L 112.527907 173.139316 
L 109.908004 181.028888 
z
" clip-path="url(#pbd8266a871)" style="fill: #440154; stroke: #000000; stroke-linejoin: miter"/>
   </g>
   <g id="patch_55">
    <path d="M 102.102792 162.298479 
L 110.201965 160.424275 
L 117.254207 164.825992 
L 119.128411 172.925165 
L 114.726693 179.977407 
L 106.627521 181.851611 
L 99.575279 177.449893 
L 97.701075 169.350721 
z
" clip-path="url(#pbd8266a871)" style="fill: #440154; stroke: #000000; stroke-linejoin: miter"/>
   </g>
   <g id="patch_56">
    <path d="M 201.573145 210.366547 
L 158.199726 249.16215 
L 100.097453 245.925145 
L 61.30185 202.551726 
L 64.538855 144.449453 
L 107.912274 105.65385 
L 166.014547 108.890855 
L 204.81015 152.264274 
z
" clip-path="url(#pbd8266a871)" style="fill: #440154; stroke: #000000; stroke-linejoin: miter"/>
   </g>
   <g id="patch_57">
    <path d="M 131.701863 177.686747 
L 134.685034 169.927242 
L 142.281253 166.549863 
L 150.040758 169.533034 
L 153.418137 177.129253 
L 150.434966 184.888758 
L 142.838747 188.266137 
L 135.079242 185.282966 
z
" clip-path="url(#pbd8266a871)" style="fill: #440154; stroke: #000000; stroke-linejoin: miter"/>
   </g>
   <g id="patch_58">
    <path d="M 130.244929 165.479107 
L 136.719616 160.264929 
L 144.984893 161.156243 
L 150.199071 167.630931 
L 149.307757 175.896207 
L 142.833069 181.110385 
L 134.567793 180.219071 
L 129.353615 173.744384 
z
" clip-path="url(#pbd8266a871)" style="fill: #440154; stroke: #000000; stroke-linejoin: miter"/>
   </g>
   <g id="patch_59">
    <path d="M 122.712062 164.590426 
L 128.084782 158.24668 
L 136.369574 157.560062 
L 142.71332 162.932782 
L 143.399938 171.217574 
L 138.027218 177.56132 
L 129.742426 178.247938 
L 123.39868 172.875218 
z
" clip-path="url(#pbd8266a871)" style="fill: #440154; stroke: #000000; stroke-linejoin: miter"/>
   </g>
   <g id="patch_60">
    <path d="M 119.081019 162.603904 
L 126.92193 159.841777 
L 134.41941 163.433019 
L 137.181538 171.27393 
L 133.590295 178.77141 
L 125.749384 181.533538 
L 118.251904 177.942295 
L 115.489777 170.101384 
z
" clip-path="url(#pbd8266a871)" style="fill: #440154; stroke: #000000; stroke-linejoin: miter"/>
   </g>
   <g id="patch_61">
    <path d="M 128.460577 187.097309 
L 120.171512 187.730264 
L 113.862691 182.316577 
L 113.229736 174.027512 
L 118.643423 167.718691 
L 126.932488 167.085736 
L 133.241309 172.499423 
L 133.874264 180.788488 
z
" clip-path="url(#pbd8266a871)" style="fill: #440154; stroke: #000000; stroke-linejoin: miter"/>
   </g>
   <g id="patch_62">
    <path d="M 120.506369 193.293289 
L 115.733132 186.487009 
L 117.170711 178.299054 
L 123.976991 173.525818 
L 132.164946 174.963397 
L 136.938182 181.769677 
L 135.500603 189.957631 
L 128.694323 194.730868 
z
" clip-path="url(#pbd8266a871)" style="fill: #440154; stroke: #000000; stroke-linejoin: miter"/>
   </g>
   <g id="patch_63">
    <path d="M 136.514192 176.615508 
L 142.78203 182.076592 
L 143.352492 190.370192 
L 137.891408 196.63803 
L 129.597808 197.208492 
L 123.32997 191.747408 
L 122.759508 183.453808 
L 128.220592 177.18597 
z
" clip-path="url(#pbd8266a871)" style="fill: #440154; stroke: #000000; stroke-linejoin: miter"/>
   </g>
   <g id="patch_64">
    <path d="M 150.543883 185.555547 
L 146.380958 192.751329 
L 138.349139 194.895883 
L 131.153356 190.732958 
L 129.008802 182.701139 
L 133.171728 175.505356 
L 141.203547 173.360802 
L 148.399329 177.523728 
z
" clip-path="url(#pbd8266a871)" style="fill: #440154; stroke: #000000; stroke-linejoin: miter"/>
   </g>
   <g id="patch_65">
    <path d="M 220.802919 215.423098 
L 168.221708 240.354375 
L 113.412102 220.802919 
L 88.480825 168.221708 
L 108.032281 113.412102 
L 160.613492 88.480825 
L 215.423098 108.032281 
L 240.354375 160.613492 
z
" clip-path="url(#pbd8266a871)" style="fill: #440154; stroke: #000000; stroke-linejoin: miter"/>
   </g>
   <g id="patch_66">
    <path d="M 163.982477 168.798316 
L 163.795945 160.487213 
L 169.540883 154.478477 
L 177.851987 154.291945 
L 183.860723 160.036883 
L 184.047255 168.347987 
L 178.302316 174.356723 
L 169.991213 174.543255 
z
" clip-path="url(#pbd8266a871)" style="fill: #440154; stroke: #000000; stroke-linejoin: miter"/>
   </g>
   <g id="patch_67">
    <path d="M 179.912715 151.295678 
L 181.869243 159.375358 
L 177.539522 166.472029 
L 169.459842 168.428558 
L 162.363171 164.098836 
L 160.406642 156.019156 
L 164.736364 148.922485 
L 172.816044 146.965956 
z
" clip-path="url(#pbd8266a871)" style="fill: #440154; stroke: #000000; stroke-linejoin: miter"/>
   </g>
   <g id="patch_68">
    <path d="M 156.782549 147.188134 
L 164.481533 144.052074 
L 172.143066 147.278549 
L 175.279126 154.977533 
L 172.052651 162.639066 
L 164.353667 165.775126 
L 156.692134 162.548651 
L 153.556074 154.849667 
z
" clip-path="url(#pbd8266a871)" style="fill: #440154; stroke: #000000; stroke-linejoin: miter"/>
   </g>
   <g id="patch_69">
    <path d="M 159.433309 146.975179 
L 166.506485 151.343177 
L 168.419335 159.433309 
L 164.051337 166.506485 
L 155.961205 168.419335 
L 148.888029 164.051337 
L 146.975179 155.961205 
L 151.343177 148.888029 
z
" clip-path="url(#pbd8266a871)" style="fill: #440154; stroke: #000000; stroke-linejoin: miter"/>
   </g>
   <g id="patch_70">
    <path d="M 163.56282 157.847377 
L 165.675371 165.887673 
L 161.483823 173.06682 
L 153.443527 175.179371 
L 146.26438 170.987823 
L 144.151829 162.947527 
L 148.343377 155.76838 
L 156.383673 153.655829 
z
" clip-path="url(#pbd8266a871)" style="fill: #440154; stroke: #000000; stroke-linejoin: miter"/>
   </g>
   <g id="patch_71">
    <path d="M 161.684904 181.241185 
L 153.372878 181.101706 
L 147.594015 175.12559 
L 147.733493 166.813564 
L 153.70961 161.0347 
L 162.021636 161.174179 
L 167.800499 167.150296 
L 167.661021 175.462322 
z
" clip-path="url(#pbd8266a871)" style="fill: #440154; stroke: #000000; stroke-linejoin: miter"/>
   </g>
   <g id="patch_72">
    <path d="M 174.730676 177.330016 
L 169.299932 183.62416 
L 161.009184 184.234676 
L 154.71504 178.803932 
L 154.104524 170.513184 
L 159.535268 164.21904 
L 167.826016 163.608524 
L 174.12016 169.039268 
z
" clip-path="url(#pbd8266a871)" style="fill: #440154; stroke: #000000; stroke-linejoin: miter"/>
   </g>
   <g id="patch_73">
    <path d="M 170.023706 181.942355 
L 162.710185 177.989931 
L 160.333531 170.023706 
L 164.285955 162.710185 
L 172.25218 160.333531 
L 179.5657 164.285955 
L 181.942355 172.25218 
L 177.989931 179.5657 
z
" clip-path="url(#pbd8266a871)" style="fill: #440154; stroke: #000000; stroke-linejoin: miter"/>
   </g>
  </g>
 </g>
 <defs>
  <clipPath id="pbd8266a871">
   <rect x="0" y="-0" width="266.112" height="266.112"/>
  </clipPath>
 </defs>
</svg>
