<?xml version="1.0" encoding="utf-8" standalone="no"?>
<!DOCTYPE svg PUBLIC "-//W3C//DTD SVG 1.1//EN"
  "http://www.w3.org/Graphics/SVG/1.1/DTD/svg11.dtd">
<svg xmlns:xlink="http://www.w3.org/1999/xlink" width="357.12pt" height="266.112pt" viewBox="0 0 357.12 266.112" xmlns="http://www.w3.org/2000/svg" version="1.1">
 <metadata>
  <rdf:RDF xmlns:dc="http://purl.org/dc/elements/1.1/" xmlns:cc="http://creativecommons.org/ns#" xmlns:rdf="http://www.w3.org/1999/02/22-rdf-syntax-ns#">
   <cc:Work>
    <dc:type rdf:resource="http://purl.org/dc/dcmitype/StillImage"/>
    <dc:date>2023-12-24T20:08:54.476826</dc:date>
    <dc:format>image/svg+xml</dc:format>
    <dc:creator>
     <cc:Agent>
      <dc:title>Matplotlib v3.7.2, https://matplotlib.org/</dc:title>
     </cc:Agent>
    </dc:creator>
   </cc:Work>
  </rdf:RDF>
 </metadata>
 <defs>
  <style type="text/css">*{stroke-linejoin: round; stroke-linecap: butt}</style>
 </defs>
 <g id="figure_1">
  <g id="patch_1">
   <path d="M 0 266.112 
L 357.12 266.112 
L 357.12 0 
L 0 0 
L 0 266.112 
z
" style="fill: none"/>
  </g>
  <g id="axes_1">
   <g id="patch_2">
    <path d="M 222.754366 133.056 
L 209.810136 109.769608 
L 178.56 100.124069 
L 147.309864 109.769608 
L 134.365634 133.056 
L 147.309864 156.342392 
L 178.56 165.987931 
L 209.810136 156.342392 
z
" clip-path="url(#p6800b1c4b9)" style="fill: #2c728e; fill-opacity: 0.5; stroke: #000000; stroke-linejoin: miter"/>
   </g>
   <g id="patch_3">
    <path d="M 193.436513 121.970598 
L 185.508598 118.258623 
L 176.204428 117.477449 
L 167.366808 119.781798 
L 160.746136 124.715266 
L 157.653719 131.300719 
L 158.702048 138.233826 
L 163.683487 144.141402 
L 171.611402 147.853377 
L 180.915572 148.634551 
L 189.753192 146.330202 
L 196.373864 141.396734 
L 199.466281 134.811281 
L 198.417952 127.878174 
z
" clip-path="url(#p6800b1c4b9)" style="fill: #2c728e; fill-opacity: 0.5; stroke: #000000; stroke-linejoin: miter"/>
   </g>
   <g id="patch_4">
    <path d="M 178.56 115.683598 
L 162.074786 120.771857 
L 155.246387 133.056 
L 162.074786 145.340143 
L 178.56 150.428402 
L 195.045214 145.340143 
L 201.873613 133.056 
L 195.045214 120.771857 
z
" clip-path="url(#p6800b1c4b9)" style="fill: #2c728e; fill-opacity: 0.5; stroke: #000000; stroke-linejoin: miter"/>
   </g>
   <g id="patch_5">
    <path d="M 149.297638 111.250821 
L 137.176771 133.056 
L 149.297638 154.861179 
L 178.56 163.89318 
L 207.822362 154.861179 
L 219.943229 133.056 
L 207.822362 111.250821 
L 178.56 102.21882 
z
" clip-path="url(#p6800b1c4b9)" style="fill: #2c728e; fill-opacity: 0.5; stroke: #000000; stroke-linejoin: miter"/>
   </g>
   <g id="patch_6">
    <path d="M 160.635691 133.056 
L 163.037093 139.734251 
L 169.597846 144.623069 
L 178.56 146.412501 
L 187.522154 144.623069 
L 194.082907 139.734251 
L 196.484309 133.056 
L 194.082907 126.377749 
L 187.522154 121.488931 
L 178.56 119.699499 
L 169.597846 121.488931 
L 163.037093 126.377749 
z
" clip-path="url(#p6800b1c4b9)" style="fill: #2c728e; fill-opacity: 0.5; stroke: #000000; stroke-linejoin: miter"/>
   </g>
   <g id="patch_7">
    <path d="M 157.515089 148.737853 
L 173.904198 154.960448 
L 192.071665 152.816288 
L 205.078135 143.124369 
L 207.955579 129.586676 
L 199.604911 117.374147 
L 183.215802 111.151552 
L 165.048335 113.295712 
L 152.041865 122.987631 
L 149.164421 136.525324 
z
" clip-path="url(#p6800b1c4b9)" style="fill: #2c728e; fill-opacity: 0.5; stroke: #000000; stroke-linejoin: miter"/>
   </g>
   <g id="patch_8">
    <path d="M 178.56 160.824882 
L 204.910758 152.691565 
L 215.825599 133.056 
L 204.910758 113.420435 
L 178.56 105.287118 
L 152.209242 113.420435 
L 141.294401 133.056 
L 152.209242 152.691565 
z
" clip-path="url(#p6800b1c4b9)" style="fill: #2c728e; fill-opacity: 0.5; stroke: #000000; stroke-linejoin: miter"/>
   </g>
   <g id="patch_9">
    <path d="M 196.578982 146.483048 
L 203.728954 136.026489 
L 201.265242 124.435305 
L 190.128899 116.136933 
L 174.573629 114.301069 
L 160.541018 119.628952 
L 153.391046 130.085511 
L 155.854758 141.676695 
L 166.991101 149.975067 
L 182.546371 151.810931 
z
" clip-path="url(#p6800b1c4b9)" style="fill: #2c728e; fill-opacity: 0.5; stroke: #000000; stroke-linejoin: miter"/>
   </g>
  </g>
 </g>
 <defs>
  <clipPath id="p6800b1c4b9">
   <rect x="0" y="-0" width="357.12" height="266.112"/>
  </clipPath>
 </defs>
</svg>
