<?xml version="1.0" encoding="utf-8" standalone="no"?>
<!DOCTYPE svg PUBLIC "-//W3C//DTD SVG 1.1//EN"
  "http://www.w3.org/Graphics/SVG/1.1/DTD/svg11.dtd">
<svg xmlns:xlink="http://www.w3.org/1999/xlink" width="357.12pt" height="266.112pt" viewBox="0 0 357.12 266.112" xmlns="http://www.w3.org/2000/svg" version="1.1">
 <metadata>
  <rdf:RDF xmlns:dc="http://purl.org/dc/elements/1.1/" xmlns:cc="http://creativecommons.org/ns#" xmlns:rdf="http://www.w3.org/1999/02/22-rdf-syntax-ns#">
   <cc:Work>
    <dc:type rdf:resource="http://purl.org/dc/dcmitype/StillImage"/>
    <dc:date>2023-12-24T20:08:54.716364</dc:date>
    <dc:format>image/svg+xml</dc:format>
    <dc:creator>
     <cc:Agent>
      <dc:title>Matplotlib v3.7.2, https://matplotlib.org/</dc:title>
     </cc:Agent>
    </dc:creator>
   </cc:Work>
  </rdf:RDF>
 </metadata>
 <defs>
  <style type="text/css">*{stroke-linejoin: round; stroke-linecap: butt}</style>
 </defs>
 <g id="figure_1">
  <g id="patch_1">
   <path d="M 0 266.112 
L 357.12 266.112 
L 357.12 0 
L 0 0 
L 0 266.112 
z
" style="fill: none"/>
  </g>
  <g id="axes_1">
   <g id="patch_2">
    <path d="M 201.738755 133.056 
L 198.633391 124.420044 
L 190.149378 118.098086 
L 178.56 115.784089 
L 166.970622 118.098086 
L 158.486609 124.420044 
L 155.381245 133.056 
L 158.486609 141.691956 
L 166.970622 148.013914 
L 178.56 150.327911 
L 190.149378 148.013914 
L 198.633391 141.691956 
z
" clip-path="url(#pea4f2fd493)" style="fill: #25858e; fill-opacity: 0.5; stroke: #000000; stroke-linejoin: miter"/>
   </g>
   <g id="patch_3">
    <path d="M 192.467628 122.692574 
L 178.56 118.399903 
L 164.652372 122.692574 
L 158.891644 133.056 
L 164.652372 143.419426 
L 178.56 147.712097 
L 192.467628 143.419426 
L 198.228356 133.056 
z
" clip-path="url(#pea4f2fd493)" style="fill: #25858e; fill-opacity: 0.5; stroke: #000000; stroke-linejoin: miter"/>
   </g>
   <g id="patch_4">
    <path d="M 178.56 112.279421 
L 158.844456 118.36474 
L 150.67801 133.056 
L 158.844456 147.74726 
L 178.56 153.832579 
L 198.275544 147.74726 
L 206.44199 133.056 
L 198.275544 118.36474 
z
" clip-path="url(#pea4f2fd493)" style="fill: #25858e; fill-opacity: 0.5; stroke: #000000; stroke-linejoin: miter"/>
   </g>
   <g id="patch_5">
    <path d="M 164.039112 122.235597 
L 158.024364 133.056 
L 164.039112 143.876403 
L 178.56 148.358361 
L 193.080888 143.876403 
L 199.095636 133.056 
L 193.080888 122.235597 
L 178.56 117.753639 
z
" clip-path="url(#pea4f2fd493)" style="fill: #25858e; fill-opacity: 0.5; stroke: #000000; stroke-linejoin: miter"/>
   </g>
   <g id="patch_6">
    <path d="M 160.310529 133.056 
L 165.655676 142.671803 
L 178.56 146.654799 
L 191.464324 142.671803 
L 196.809471 133.056 
L 191.464324 123.440197 
L 178.56 119.457201 
L 165.655676 123.440197 
z
" clip-path="url(#pea4f2fd493)" style="fill: #25858e; fill-opacity: 0.5; stroke: #000000; stroke-linejoin: miter"/>
   </g>
   <g id="patch_7">
    <path d="M 164.711339 143.375486 
L 175.496237 147.470281 
L 187.451388 146.059311 
L 196.010331 139.681518 
L 197.90384 130.773002 
L 192.408661 122.736514 
L 181.623763 118.641719 
L 169.668612 120.052689 
L 161.109669 126.430482 
L 159.21616 135.338998 
z
" clip-path="url(#pea4f2fd493)" style="fill: #25858e; fill-opacity: 0.5; stroke: #000000; stroke-linejoin: miter"/>
   </g>
   <g id="patch_8">
    <path d="M 178.56 146.493464 
L 187.57648 144.693185 
L 194.177001 139.774732 
L 196.59296 133.056 
L 194.177001 126.337268 
L 187.57648 121.418815 
L 178.56 119.618536 
L 169.54352 121.418815 
L 162.942999 126.337268 
L 160.52704 133.056 
L 162.942999 139.774732 
L 169.54352 144.693185 
z
" clip-path="url(#pea4f2fd493)" style="fill: #25858e; fill-opacity: 0.5; stroke: #000000; stroke-linejoin: miter"/>
   </g>
   <g id="patch_9">
    <path d="M 191.354444 142.589924 
L 196.654076 133.056 
L 191.354444 123.522076 
L 178.56 119.572995 
L 165.765556 123.522076 
L 160.465924 133.056 
L 165.765556 142.589924 
L 178.56 146.539005 
z
" clip-path="url(#pea4f2fd493)" style="fill: #25858e; fill-opacity: 0.5; stroke: #000000; stroke-linejoin: miter"/>
   </g>
  </g>
 </g>
 <defs>
  <clipPath id="pea4f2fd493">
   <rect x="0" y="-0" width="357.12" height="266.112"/>
  </clipPath>
 </defs>
</svg>
