<?xml version="1.0" encoding="utf-8" standalone="no"?>
<!DOCTYPE svg PUBLIC "-//W3C//DTD SVG 1.1//EN"
  "http://www.w3.org/Graphics/SVG/1.1/DTD/svg11.dtd">
<svg xmlns:xlink="http://www.w3.org/1999/xlink" width="357.12pt" height="266.112pt" viewBox="0 0 357.12 266.112" xmlns="http://www.w3.org/2000/svg" version="1.1">
 <metadata>
  <rdf:RDF xmlns:dc="http://purl.org/dc/elements/1.1/" xmlns:cc="http://creativecommons.org/ns#" xmlns:rdf="http://www.w3.org/1999/02/22-rdf-syntax-ns#">
   <cc:Work>
    <dc:type rdf:resource="http://purl.org/dc/dcmitype/StillImage"/>
    <dc:date>2023-12-25T15:49:21.874829</dc:date>
    <dc:format>image/svg+xml</dc:format>
    <dc:creator>
     <cc:Agent>
      <dc:title>Matplotlib v3.7.2, https://matplotlib.org/</dc:title>
     </cc:Agent>
    </dc:creator>
   </cc:Work>
  </rdf:RDF>
 </metadata>
 <defs>
  <style type="text/css">*{stroke-linejoin: round; stroke-linecap: butt}</style>
 </defs>
 <g id="figure_1">
  <g id="patch_1">
   <path d="M 0 266.112 
L 357.12 266.112 
L 357.12 0 
L 0 0 
L 0 266.112 
z
" style="fill: none"/>
  </g>
  <g id="axes_1">
   <g id="patch_2">
    <path d="M 178.56 133.056 
L 186.026694 123.640408 
L 180.622875 122.227919 
L 174.905002 122.463906 
L 169.743569 124.312444 
L 165.924358 127.492108 
L 164.028808 131.518825 
L 164.345501 135.779563 
L 178.56 133.056 
L 174.905002 122.463906 
L 169.743569 124.312444 
L 165.924358 127.492108 
L 164.028808 131.518825 
L 164.345501 135.779563 
L 166.826223 139.625663 
L 171.093306 142.471592 
L 178.56 133.056 
L 165.924358 127.492108 
L 164.028808 131.518825 
L 164.345501 135.779563 
L 166.826223 139.625663 
L 171.093306 142.471592 
L 176.497125 143.884081 
L 182.214998 143.648094 
L 178.56 133.056 
L 164.345501 135.779563 
L 166.826223 139.625663 
L 171.093306 142.471592 
L 176.497125 143.884081 
L 182.214998 143.648094 
L 187.376431 141.799556 
L 191.195642 138.619892 
L 178.56 133.056 
L 171.093306 142.471592 
L 176.497125 143.884081 
L 182.214998 143.648094 
L 187.376431 141.799556 
L 191.195642 138.619892 
L 193.091192 134.593175 
L 192.774499 130.332437 
L 178.56 133.056 
L 182.214998 143.648094 
L 187.376431 141.799556 
L 191.195642 138.619892 
L 193.091192 134.593175 
L 192.774499 130.332437 
L 190.293777 126.486337 
L 186.026694 123.640408 
L 178.56 133.056 
L 191.195642 138.619892 
L 193.091192 134.593175 
L 192.774499 130.332437 
L 190.293777 126.486337 
L 186.026694 123.640408 
L 180.622875 122.227919 
L 174.905002 122.463906 
L 178.56 133.056 
L 192.774499 130.332437 
L 190.293777 126.486337 
L 186.026694 123.640408 
L 180.622875 122.227919 
L 174.905002 122.463906 
L 169.743569 124.312444 
z
" clip-path="url(#pb25ca84e9c)" style="fill: #482071; fill-opacity: 0.5; stroke: #000000; stroke-linejoin: miter"/>
   </g>
   <g id="patch_3">
    <path d="M 178.56 133.056 
L 185.22436 138.117704 
L 187.316543 135.83199 
L 188.075622 133.123656 
L 187.386034 130.405023 
L 185.352762 128.089977 
L 182.285354 126.530963 
L 178.650794 125.965327 
L 178.56 133.056 
L 188.075622 133.123656 
L 187.386034 130.405023 
L 185.352762 128.089977 
L 182.285354 126.530963 
L 178.650794 125.965327 
L 175.002412 126.479181 
L 171.89564 127.994296 
L 178.56 133.056 
L 185.352762 128.089977 
L 182.285354 126.530963 
L 178.650794 125.965327 
L 175.002412 126.479181 
L 171.89564 127.994296 
L 169.803457 130.28001 
L 169.044378 132.988344 
L 178.56 133.056 
L 178.650794 125.965327 
L 175.002412 126.479181 
L 171.89564 127.994296 
L 169.803457 130.28001 
L 169.044378 132.988344 
L 169.733966 135.706977 
L 171.767238 138.022023 
L 178.56 133.056 
L 171.89564 127.994296 
L 169.803457 130.28001 
L 169.044378 132.988344 
L 169.733966 135.706977 
L 171.767238 138.022023 
L 174.834646 139.581037 
L 178.469206 140.146673 
L 178.56 133.056 
L 169.044378 132.988344 
L 169.733966 135.706977 
L 171.767238 138.022023 
L 174.834646 139.581037 
L 178.469206 140.146673 
L 182.117588 139.632819 
L 185.22436 138.117704 
L 178.56 133.056 
L 171.767238 138.022023 
L 174.834646 139.581037 
L 178.469206 140.146673 
L 182.117588 139.632819 
L 185.22436 138.117704 
L 187.316543 135.83199 
L 188.075622 133.123656 
L 178.56 133.056 
L 178.469206 140.146673 
L 182.117588 139.632819 
L 185.22436 138.117704 
L 187.316543 135.83199 
L 188.075622 133.123656 
L 187.386034 130.405023 
z
" clip-path="url(#pb25ca84e9c)" style="fill: #482071; fill-opacity: 0.5; stroke: #000000; stroke-linejoin: miter"/>
   </g>
   <g id="patch_4">
    <path d="M 178.56 133.056 
L 149.550473 109.819209 
L 139.825255 119.860386 
L 135.997051 131.910476 
L 138.64867 144.134962 
L 147.376427 154.672776 
L 160.8516 161.919632 
L 177.022717 164.772262 
L 178.56 133.056 
L 135.997051 131.910476 
L 138.64867 144.134962 
L 147.376427 154.672776 
L 160.8516 161.919632 
L 177.022717 164.772262 
L 193.427871 162.796378 
L 207.569527 156.292791 
L 178.56 133.056 
L 147.376427 154.672776 
L 160.8516 161.919632 
L 177.022717 164.772262 
L 193.427871 162.796378 
L 207.569527 156.292791 
L 217.294745 146.251614 
L 221.122949 134.201524 
L 178.56 133.056 
L 177.022717 164.772262 
L 193.427871 162.796378 
L 207.569527 156.292791 
L 217.294745 146.251614 
L 221.122949 134.201524 
L 218.47133 121.977038 
L 209.743573 111.439224 
L 178.56 133.056 
L 207.569527 156.292791 
L 217.294745 146.251614 
L 221.122949 134.201524 
L 218.47133 121.977038 
L 209.743573 111.439224 
L 196.2684 104.192368 
L 180.097283 101.339738 
L 178.56 133.056 
L 221.122949 134.201524 
L 218.47133 121.977038 
L 209.743573 111.439224 
L 196.2684 104.192368 
L 180.097283 101.339738 
L 163.692129 103.315622 
L 149.550473 109.819209 
L 178.56 133.056 
L 209.743573 111.439224 
L 196.2684 104.192368 
L 180.097283 101.339738 
L 163.692129 103.315622 
L 149.550473 109.819209 
L 139.825255 119.860386 
L 135.997051 131.910476 
L 178.56 133.056 
L 180.097283 101.339738 
L 163.692129 103.315622 
L 149.550473 109.819209 
L 139.825255 119.860386 
L 135.997051 131.910476 
L 138.64867 144.134962 
z
" clip-path="url(#pb25ca84e9c)" style="fill: #482071; fill-opacity: 0.5; stroke: #000000; stroke-linejoin: miter"/>
   </g>
   <g id="patch_5">
    <path d="M 178.56 133.056 
L 291.945585 163.43953 
L 298.918321 128.793588 
L 287.567595 94.79656 
L 259.62145 66.624185 
L 219.334434 48.565451 
L 172.83988 43.369638 
L 127.216163 51.82776 
L 178.56 133.056 
L 287.567595 94.79656 
L 259.62145 66.624185 
L 219.334434 48.565451 
L 172.83988 43.369638 
L 127.216163 51.82776 
L 89.409079 72.652146 
L 65.174415 102.67247 
L 178.56 133.056 
L 219.334434 48.565451 
L 172.83988 43.369638 
L 127.216163 51.82776 
L 89.409079 72.652146 
L 65.174415 102.67247 
L 58.201679 137.318412 
L 69.552405 171.31544 
L 178.56 133.056 
L 127.216163 51.82776 
L 89.409079 72.652146 
L 65.174415 102.67247 
L 58.201679 137.318412 
L 69.552405 171.31544 
L 97.49855 199.487815 
L 137.785566 217.546549 
L 178.56 133.056 
L 65.174415 102.67247 
L 58.201679 137.318412 
L 69.552405 171.31544 
L 97.49855 199.487815 
L 137.785566 217.546549 
L 184.28012 222.742362 
L 229.903837 214.28424 
L 178.56 133.056 
L 69.552405 171.31544 
L 97.49855 199.487815 
L 137.785566 217.546549 
L 184.28012 222.742362 
L 229.903837 214.28424 
L 267.710921 193.459854 
L 291.945585 163.43953 
L 178.56 133.056 
L 137.785566 217.546549 
L 184.28012 222.742362 
L 229.903837 214.28424 
L 267.710921 193.459854 
L 291.945585 163.43953 
L 298.918321 128.793588 
L 287.567595 94.79656 
L 178.56 133.056 
L 229.903837 214.28424 
L 267.710921 193.459854 
L 291.945585 163.43953 
L 298.918321 128.793588 
L 287.567595 94.79656 
L 259.62145 66.624185 
z
" clip-path="url(#pb25ca84e9c)" style="fill: #482071; fill-opacity: 0.5; stroke: #000000; stroke-linejoin: miter"/>
   </g>
   <g id="patch_6">
    <path d="M 178.56 133.056 
L 217.290353 161.590321 
L 228.996205 148.373894 
L 233.023602 132.825456 
L 228.759409 117.312116 
L 216.852812 104.19564 
L 199.116481 95.472892 
L 178.250612 92.471832 
L 178.56 133.056 
L 233.023602 132.825456 
L 228.759409 117.312116 
L 216.852812 104.19564 
L 199.116481 95.472892 
L 178.250612 92.471832 
L 157.431844 95.649343 
L 139.829647 104.521679 
L 178.56 133.056 
L 216.852812 104.19564 
L 199.116481 95.472892 
L 178.250612 92.471832 
L 157.431844 95.649343 
L 139.829647 104.521679 
L 128.123795 117.738106 
L 124.096398 133.286544 
L 178.56 133.056 
L 178.250612 92.471832 
L 157.431844 95.649343 
L 139.829647 104.521679 
L 128.123795 117.738106 
L 124.096398 133.286544 
L 128.360591 148.799884 
L 140.267188 161.91636 
L 178.56 133.056 
L 139.829647 104.521679 
L 128.123795 117.738106 
L 124.096398 133.286544 
L 128.360591 148.799884 
L 140.267188 161.91636 
L 158.003519 170.639108 
L 178.869388 173.640168 
L 178.56 133.056 
L 124.096398 133.286544 
L 128.360591 148.799884 
L 140.267188 161.91636 
L 158.003519 170.639108 
L 178.869388 173.640168 
L 199.688156 170.462657 
L 217.290353 161.590321 
L 178.56 133.056 
L 140.267188 161.91636 
L 158.003519 170.639108 
L 178.869388 173.640168 
L 199.688156 170.462657 
L 217.290353 161.590321 
L 228.996205 148.373894 
L 233.023602 132.825456 
L 178.56 133.056 
L 178.869388 173.640168 
L 199.688156 170.462657 
L 217.290353 161.590321 
L 228.996205 148.373894 
L 233.023602 132.825456 
L 228.759409 117.312116 
z
" clip-path="url(#pb25ca84e9c)" style="fill: #482071; fill-opacity: 0.5; stroke: #000000; stroke-linejoin: miter"/>
   </g>
   <g id="patch_7">
    <path d="M 178.56 133.056 
L 275.699676 94.011661 
L 248.253832 69.283299 
L 210.197733 54.263753 
L 167.325077 51.239611 
L 126.162836 60.671274 
L 92.977588 81.122855 
L 72.821486 109.480786 
L 178.56 133.056 
L 210.197733 54.263753 
L 167.325077 51.239611 
L 126.162836 60.671274 
L 92.977588 81.122855 
L 72.821486 109.480786 
L 68.763115 141.42783 
L 81.420324 172.100339 
L 178.56 133.056 
L 126.162836 60.671274 
L 92.977588 81.122855 
L 72.821486 109.480786 
L 68.763115 141.42783 
L 81.420324 172.100339 
L 108.866168 196.828701 
L 146.922267 211.848247 
L 178.56 133.056 
L 72.821486 109.480786 
L 68.763115 141.42783 
L 81.420324 172.100339 
L 108.866168 196.828701 
L 146.922267 211.848247 
L 189.794923 214.872389 
L 230.957164 205.440726 
L 178.56 133.056 
L 81.420324 172.100339 
L 108.866168 196.828701 
L 146.922267 211.848247 
L 189.794923 214.872389 
L 230.957164 205.440726 
L 264.142412 184.989145 
L 284.298514 156.631214 
L 178.56 133.056 
L 146.922267 211.848247 
L 189.794923 214.872389 
L 230.957164 205.440726 
L 264.142412 184.989145 
L 284.298514 156.631214 
L 288.356885 124.68417 
L 275.699676 94.011661 
L 178.56 133.056 
L 230.957164 205.440726 
L 264.142412 184.989145 
L 284.298514 156.631214 
L 288.356885 124.68417 
L 275.699676 94.011661 
L 248.253832 69.283299 
L 210.197733 54.263753 
L 178.56 133.056 
L 284.298514 156.631214 
L 288.356885 124.68417 
L 275.699676 94.011661 
L 248.253832 69.283299 
L 210.197733 54.263753 
L 167.325077 51.239611 
z
" clip-path="url(#pb25ca84e9c)" style="fill: #482071; fill-opacity: 0.5; stroke: #000000; stroke-linejoin: miter"/>
   </g>
   <g id="patch_8">
    <path d="M 178.56 133.056 
L 174.166083 151.151871 
L 183.793827 151.027378 
L 192.624768 148.166906 
L 199.314475 143.005935 
L 202.844502 136.330177 
L 202.677434 129.155955 
L 198.838704 122.57548 
L 178.56 133.056 
L 192.624768 148.166906 
L 199.314475 143.005935 
L 202.844502 136.330177 
L 202.677434 129.155955 
L 198.838704 122.57548 
L 191.912726 117.590568 
L 182.953917 114.960129 
L 178.56 133.056 
L 202.844502 136.330177 
L 202.677434 129.155955 
L 198.838704 122.57548 
L 191.912726 117.590568 
L 182.953917 114.960129 
L 173.326173 115.084622 
L 164.495232 117.945094 
L 178.56 133.056 
L 198.838704 122.57548 
L 191.912726 117.590568 
L 182.953917 114.960129 
L 173.326173 115.084622 
L 164.495232 117.945094 
L 157.805525 123.106065 
L 154.275498 129.781823 
L 178.56 133.056 
L 182.953917 114.960129 
L 173.326173 115.084622 
L 164.495232 117.945094 
L 157.805525 123.106065 
L 154.275498 129.781823 
L 154.442566 136.956045 
L 158.281296 143.53652 
L 178.56 133.056 
L 164.495232 117.945094 
L 157.805525 123.106065 
L 154.275498 129.781823 
L 154.442566 136.956045 
L 158.281296 143.53652 
L 165.207274 148.521432 
L 174.166083 151.151871 
L 178.56 133.056 
L 154.275498 129.781823 
L 154.442566 136.956045 
L 158.281296 143.53652 
L 165.207274 148.521432 
L 174.166083 151.151871 
L 183.793827 151.027378 
L 192.624768 148.166906 
L 178.56 133.056 
L 158.281296 143.53652 
L 165.207274 148.521432 
L 174.166083 151.151871 
L 183.793827 151.027378 
L 192.624768 148.166906 
L 199.314475 143.005935 
z
" clip-path="url(#pb25ca84e9c)" style="fill: #482071; fill-opacity: 0.5; stroke: #000000; stroke-linejoin: miter"/>
   </g>
   <g id="patch_9">
    <path d="M 178.56 133.056 
L 189.323028 153.52691 
L 199.016738 148.89946 
L 205.596095 141.859987 
L 208.059451 133.480187 
L 206.031783 125.035808 
L 199.821786 117.812431 
L 190.374874 112.909749 
L 178.56 133.056 
L 205.596095 141.859987 
L 208.059451 133.480187 
L 206.031783 125.035808 
L 199.821786 117.812431 
L 190.374874 112.909749 
L 179.129255 111.074151 
L 167.796972 112.58509 
L 178.56 133.056 
L 206.031783 125.035808 
L 199.821786 117.812431 
L 190.374874 112.909749 
L 179.129255 111.074151 
L 167.796972 112.58509 
L 158.103262 117.21254 
L 151.523905 124.252013 
L 178.56 133.056 
L 190.374874 112.909749 
L 179.129255 111.074151 
L 167.796972 112.58509 
L 158.103262 117.21254 
L 151.523905 124.252013 
L 149.060549 132.631813 
L 151.088217 141.076192 
L 178.56 133.056 
L 167.796972 112.58509 
L 158.103262 117.21254 
L 151.523905 124.252013 
L 149.060549 132.631813 
L 151.088217 141.076192 
L 157.298214 148.299569 
L 166.745126 153.202251 
L 178.56 133.056 
L 151.523905 124.252013 
L 149.060549 132.631813 
L 151.088217 141.076192 
L 157.298214 148.299569 
L 166.745126 153.202251 
L 177.990745 155.037849 
L 189.323028 153.52691 
L 178.56 133.056 
L 151.088217 141.076192 
L 157.298214 148.299569 
L 166.745126 153.202251 
L 177.990745 155.037849 
L 189.323028 153.52691 
L 199.016738 148.89946 
L 205.596095 141.859987 
L 178.56 133.056 
L 166.745126 153.202251 
L 177.990745 155.037849 
L 189.323028 153.52691 
L 199.016738 148.89946 
L 205.596095 141.859987 
L 208.059451 133.480187 
z
" clip-path="url(#pb25ca84e9c)" style="fill: #482071; fill-opacity: 0.5; stroke: #000000; stroke-linejoin: miter"/>
   </g>
  </g>
 </g>
 <defs>
  <clipPath id="pb25ca84e9c">
   <rect x="0" y="-0" width="357.12" height="266.112"/>
  </clipPath>
 </defs>
</svg>
