<?xml version="1.0" encoding="utf-8" standalone="no"?>
<!DOCTYPE svg PUBLIC "-//W3C//DTD SVG 1.1//EN"
  "http://www.w3.org/Graphics/SVG/1.1/DTD/svg11.dtd">
<svg xmlns:xlink="http://www.w3.org/1999/xlink" width="357.12pt" height="266.112pt" viewBox="0 0 357.12 266.112" xmlns="http://www.w3.org/2000/svg" version="1.1">
 <metadata>
  <rdf:RDF xmlns:dc="http://purl.org/dc/elements/1.1/" xmlns:cc="http://creativecommons.org/ns#" xmlns:rdf="http://www.w3.org/1999/02/22-rdf-syntax-ns#">
   <cc:Work>
    <dc:type rdf:resource="http://purl.org/dc/dcmitype/StillImage"/>
    <dc:date>2023-12-25T15:49:21.744215</dc:date>
    <dc:format>image/svg+xml</dc:format>
    <dc:creator>
     <cc:Agent>
      <dc:title>Matplotlib v3.7.2, https://matplotlib.org/</dc:title>
     </cc:Agent>
    </dc:creator>
   </cc:Work>
  </rdf:RDF>
 </metadata>
 <defs>
  <style type="text/css">*{stroke-linejoin: round; stroke-linecap: butt}</style>
 </defs>
 <g id="figure_1">
  <g id="patch_1">
   <path d="M 0 266.112 
L 357.12 266.112 
L 357.12 0 
L 0 0 
L 0 266.112 
z
" style="fill: none"/>
  </g>
  <g id="axes_1">
   <g id="patch_2">
    <path d="M 178.56 133.056 
L 175.219284 117.948265 
L 167.714885 120.050914 
L 161.861556 124.13347 
L 158.550414 129.5744 
L 158.28555 135.545372 
L 161.107287 141.13736 
L 166.586042 145.499034 
L 178.56 133.056 
L 161.861556 124.13347 
L 158.550414 129.5744 
L 158.28555 135.545372 
L 161.107287 141.13736 
L 166.586042 145.499034 
L 173.887723 147.966369 
L 181.900716 148.163735 
L 178.56 133.056 
L 158.28555 135.545372 
L 161.107287 141.13736 
L 166.586042 145.499034 
L 173.887723 147.966369 
L 181.900716 148.163735 
L 189.405115 146.061086 
L 195.258444 141.97853 
L 178.56 133.056 
L 166.586042 145.499034 
L 173.887723 147.966369 
L 181.900716 148.163735 
L 189.405115 146.061086 
L 195.258444 141.97853 
L 198.569586 136.5376 
L 198.83445 130.566628 
L 178.56 133.056 
L 181.900716 148.163735 
L 189.405115 146.061086 
L 195.258444 141.97853 
L 198.569586 136.5376 
L 198.83445 130.566628 
L 196.012713 124.97464 
L 190.533958 120.612966 
L 178.56 133.056 
L 195.258444 141.97853 
L 198.569586 136.5376 
L 198.83445 130.566628 
L 196.012713 124.97464 
L 190.533958 120.612966 
L 183.232277 118.145631 
L 175.219284 117.948265 
L 178.56 133.056 
L 198.83445 130.566628 
L 196.012713 124.97464 
L 190.533958 120.612966 
L 183.232277 118.145631 
L 175.219284 117.948265 
L 167.714885 120.050914 
L 161.861556 124.13347 
L 178.56 133.056 
L 190.533958 120.612966 
L 183.232277 118.145631 
L 175.219284 117.948265 
L 167.714885 120.050914 
L 161.861556 124.13347 
L 158.550414 129.5744 
z
" clip-path="url(#p4ebcf87c8e)" style="fill: #482677; fill-opacity: 0.5; stroke: #000000; stroke-linejoin: miter"/>
   </g>
   <g id="patch_3">
    <path d="M 178.56 133.056 
L 204.274648 123.44342 
L 197.380621 116.842322 
L 187.621325 112.70961 
L 176.482524 111.674451 
L 165.660001 113.89444 
L 156.801385 119.031602 
L 151.255321 126.303851 
L 178.56 133.056 
L 187.621325 112.70961 
L 176.482524 111.674451 
L 165.660001 113.89444 
L 156.801385 119.031602 
L 151.255321 126.303851 
L 149.866147 134.604054 
L 152.845352 142.66858 
L 178.56 133.056 
L 165.660001 113.89444 
L 156.801385 119.031602 
L 151.255321 126.303851 
L 149.866147 134.604054 
L 152.845352 142.66858 
L 159.739379 149.269678 
L 169.498675 153.40239 
L 178.56 133.056 
L 151.255321 126.303851 
L 149.866147 134.604054 
L 152.845352 142.66858 
L 159.739379 149.269678 
L 169.498675 153.40239 
L 180.637476 154.437549 
L 191.459999 152.21756 
L 178.56 133.056 
L 152.845352 142.66858 
L 159.739379 149.269678 
L 169.498675 153.40239 
L 180.637476 154.437549 
L 191.459999 152.21756 
L 200.318615 147.080398 
L 205.864679 139.808149 
L 178.56 133.056 
L 169.498675 153.40239 
L 180.637476 154.437549 
L 191.459999 152.21756 
L 200.318615 147.080398 
L 205.864679 139.808149 
L 207.253853 131.507946 
L 204.274648 123.44342 
L 178.56 133.056 
L 191.459999 152.21756 
L 200.318615 147.080398 
L 205.864679 139.808149 
L 207.253853 131.507946 
L 204.274648 123.44342 
L 197.380621 116.842322 
L 187.621325 112.70961 
L 178.56 133.056 
L 205.864679 139.808149 
L 207.253853 131.507946 
L 204.274648 123.44342 
L 197.380621 116.842322 
L 187.621325 112.70961 
L 176.482524 111.674451 
z
" clip-path="url(#p4ebcf87c8e)" style="fill: #482677; fill-opacity: 0.5; stroke: #000000; stroke-linejoin: miter"/>
   </g>
   <g id="patch_4">
    <path d="M 178.56 133.056 
L 94.237182 69.858456 
L 68.200279 98.714652 
L 58.964643 132.799006 
L 67.936317 166.922486 
L 93.749443 195.8901 
L 132.474208 215.291792 
L 178.215117 222.17383 
L 178.56 133.056 
L 58.964643 132.799006 
L 67.936317 166.922486 
L 93.749443 195.8901 
L 132.474208 215.291792 
L 178.215117 222.17383 
L 224.008531 215.488487 
L 262.882818 196.253544 
L 178.56 133.056 
L 93.749443 195.8901 
L 132.474208 215.291792 
L 178.215117 222.17383 
L 224.008531 215.488487 
L 262.882818 196.253544 
L 288.919721 167.397348 
L 298.155357 133.312994 
L 178.56 133.056 
L 178.215117 222.17383 
L 224.008531 215.488487 
L 262.882818 196.253544 
L 288.919721 167.397348 
L 298.155357 133.312994 
L 289.183683 99.189514 
L 263.370557 70.2219 
L 178.56 133.056 
L 262.882818 196.253544 
L 288.919721 167.397348 
L 298.155357 133.312994 
L 289.183683 99.189514 
L 263.370557 70.2219 
L 224.645792 50.820208 
L 178.904883 43.93817 
L 178.56 133.056 
L 298.155357 133.312994 
L 289.183683 99.189514 
L 263.370557 70.2219 
L 224.645792 50.820208 
L 178.904883 43.93817 
L 133.111469 50.623513 
L 94.237182 69.858456 
L 178.56 133.056 
L 263.370557 70.2219 
L 224.645792 50.820208 
L 178.904883 43.93817 
L 133.111469 50.623513 
L 94.237182 69.858456 
L 68.200279 98.714652 
L 58.964643 132.799006 
L 178.56 133.056 
L 178.904883 43.93817 
L 133.111469 50.623513 
L 94.237182 69.858456 
L 68.200279 98.714652 
L 58.964643 132.799006 
L 67.936317 166.922486 
z
" clip-path="url(#p4ebcf87c8e)" style="fill: #482677; fill-opacity: 0.5; stroke: #000000; stroke-linejoin: miter"/>
   </g>
   <g id="patch_5">
    <path d="M 178.56 133.056 
L 179.373578 133.320364 
L 179.447414 133.06824 
L 179.38615 132.814253 
L 179.199112 132.597069 
L 178.914775 132.449753 
L 178.576426 132.394733 
L 178.235577 132.440385 
L 178.56 133.056 
L 179.38615 132.814253 
L 179.199112 132.597069 
L 178.914775 132.449753 
L 178.576426 132.394733 
L 178.235577 132.440385 
L 177.944119 132.579759 
L 177.746422 132.791636 
L 178.56 133.056 
L 178.914775 132.449753 
L 178.576426 132.394733 
L 178.235577 132.440385 
L 177.944119 132.579759 
L 177.746422 132.791636 
L 177.672586 133.04376 
L 177.73385 133.297747 
L 178.56 133.056 
L 178.235577 132.440385 
L 177.944119 132.579759 
L 177.746422 132.791636 
L 177.672586 133.04376 
L 177.73385 133.297747 
L 177.920888 133.514931 
L 178.205225 133.662247 
L 178.56 133.056 
L 177.746422 132.791636 
L 177.672586 133.04376 
L 177.73385 133.297747 
L 177.920888 133.514931 
L 178.205225 133.662247 
L 178.543574 133.717267 
L 178.884423 133.671615 
L 178.56 133.056 
L 177.73385 133.297747 
L 177.920888 133.514931 
L 178.205225 133.662247 
L 178.543574 133.717267 
L 178.884423 133.671615 
L 179.175881 133.532241 
L 179.373578 133.320364 
L 178.56 133.056 
L 178.205225 133.662247 
L 178.543574 133.717267 
L 178.884423 133.671615 
L 179.175881 133.532241 
L 179.373578 133.320364 
L 179.447414 133.06824 
L 179.38615 132.814253 
L 178.56 133.056 
L 178.884423 133.671615 
L 179.175881 133.532241 
L 179.373578 133.320364 
L 179.447414 133.06824 
L 179.38615 132.814253 
L 179.199112 132.597069 
z
" clip-path="url(#p4ebcf87c8e)" style="fill: #482677; fill-opacity: 0.5; stroke: #000000; stroke-linejoin: miter"/>
   </g>
   <g id="patch_6">
    <path d="M 178.56 133.056 
L 183.184996 95.247521 
L 163.416098 96.806653 
L 145.952722 103.884418 
L 133.453508 115.403293 
L 127.821349 129.609632 
L 129.91369 144.34065 
L 139.41199 157.353681 
L 178.56 133.056 
L 145.952722 103.884418 
L 133.453508 115.403293 
L 127.821349 129.609632 
L 129.91369 144.34065 
L 139.41199 157.353681 
L 154.87022 166.667612 
L 173.935004 170.864479 
L 178.56 133.056 
L 127.821349 129.609632 
L 129.91369 144.34065 
L 139.41199 157.353681 
L 154.87022 166.667612 
L 173.935004 170.864479 
L 193.703902 169.305347 
L 211.167278 162.227582 
L 178.56 133.056 
L 139.41199 157.353681 
L 154.87022 166.667612 
L 173.935004 170.864479 
L 193.703902 169.305347 
L 211.167278 162.227582 
L 223.666492 150.708707 
L 229.298651 136.502368 
L 178.56 133.056 
L 173.935004 170.864479 
L 193.703902 169.305347 
L 211.167278 162.227582 
L 223.666492 150.708707 
L 229.298651 136.502368 
L 227.20631 121.77135 
L 217.70801 108.758319 
L 178.56 133.056 
L 211.167278 162.227582 
L 223.666492 150.708707 
L 229.298651 136.502368 
L 227.20631 121.77135 
L 217.70801 108.758319 
L 202.24978 99.444388 
L 183.184996 95.247521 
L 178.56 133.056 
L 229.298651 136.502368 
L 227.20631 121.77135 
L 217.70801 108.758319 
L 202.24978 99.444388 
L 183.184996 95.247521 
L 163.416098 96.806653 
L 145.952722 103.884418 
L 178.56 133.056 
L 217.70801 108.758319 
L 202.24978 99.444388 
L 183.184996 95.247521 
L 163.416098 96.806653 
L 145.952722 103.884418 
L 133.453508 115.403293 
z
" clip-path="url(#p4ebcf87c8e)" style="fill: #482677; fill-opacity: 0.5; stroke: #000000; stroke-linejoin: miter"/>
   </g>
   <g id="patch_7">
    <path d="M 178.56 133.056 
L 22.522592 128.813481 
L 32.221454 173.632188 
L 64.199032 212.273538 
L 113.587032 238.854737 
L 172.866576 249.329036 
L 233.012893 242.10182 
L 284.869251 218.273366 
L 178.56 133.056 
L 64.199032 212.273538 
L 113.587032 238.854737 
L 172.866576 249.329036 
L 233.012893 242.10182 
L 284.869251 218.273366 
L 320.540989 181.471341 
L 334.597408 137.298519 
L 178.56 133.056 
L 172.866576 249.329036 
L 233.012893 242.10182 
L 284.869251 218.273366 
L 320.540989 181.471341 
L 334.597408 137.298519 
L 324.898546 92.479812 
L 292.920968 53.838462 
L 178.56 133.056 
L 284.869251 218.273366 
L 320.540989 181.471341 
L 334.597408 137.298519 
L 324.898546 92.479812 
L 292.920968 53.838462 
L 243.532968 27.257263 
L 184.253424 16.782964 
L 178.56 133.056 
L 334.597408 137.298519 
L 324.898546 92.479812 
L 292.920968 53.838462 
L 243.532968 27.257263 
L 184.253424 16.782964 
L 124.107107 24.01018 
L 72.250749 47.838634 
L 178.56 133.056 
L 292.920968 53.838462 
L 243.532968 27.257263 
L 184.253424 16.782964 
L 124.107107 24.01018 
L 72.250749 47.838634 
L 36.579011 84.640659 
L 22.522592 128.813481 
L 178.56 133.056 
L 184.253424 16.782964 
L 124.107107 24.01018 
L 72.250749 47.838634 
L 36.579011 84.640659 
L 22.522592 128.813481 
L 32.221454 173.632188 
L 64.199032 212.273538 
L 178.56 133.056 
L 72.250749 47.838634 
L 36.579011 84.640659 
L 22.522592 128.813481 
L 32.221454 173.632188 
L 64.199032 212.273538 
L 113.587032 238.854737 
z
" clip-path="url(#p4ebcf87c8e)" style="fill: #482677; fill-opacity: 0.5; stroke: #000000; stroke-linejoin: miter"/>
   </g>
   <g id="patch_8">
    <path d="M 178.56 133.056 
L 196.510661 220.977494 
L 240.297022 209.166042 
L 274.684481 185.767527 
L 294.437859 154.344159 
L 296.549884 119.679862 
L 280.699018 87.051961 
L 249.298412 61.427757 
L 178.56 133.056 
L 274.684481 185.767527 
L 294.437859 154.344159 
L 296.549884 119.679862 
L 280.699018 87.051961 
L 249.298412 61.427757 
L 207.128525 46.708305 
L 160.609339 45.134506 
L 178.56 133.056 
L 296.549884 119.679862 
L 280.699018 87.051961 
L 249.298412 61.427757 
L 207.128525 46.708305 
L 160.609339 45.134506 
L 116.822978 56.945958 
L 82.435519 80.344473 
L 178.56 133.056 
L 249.298412 61.427757 
L 207.128525 46.708305 
L 160.609339 45.134506 
L 116.822978 56.945958 
L 82.435519 80.344473 
L 62.682141 111.767841 
L 60.570116 146.432138 
L 178.56 133.056 
L 160.609339 45.134506 
L 116.822978 56.945958 
L 82.435519 80.344473 
L 62.682141 111.767841 
L 60.570116 146.432138 
L 76.420982 179.060039 
L 107.821588 204.684243 
L 178.56 133.056 
L 82.435519 80.344473 
L 62.682141 111.767841 
L 60.570116 146.432138 
L 76.420982 179.060039 
L 107.821588 204.684243 
L 149.991475 219.403695 
L 196.510661 220.977494 
L 178.56 133.056 
L 60.570116 146.432138 
L 76.420982 179.060039 
L 107.821588 204.684243 
L 149.991475 219.403695 
L 196.510661 220.977494 
L 240.297022 209.166042 
L 274.684481 185.767527 
L 178.56 133.056 
L 107.821588 204.684243 
L 149.991475 219.403695 
L 196.510661 220.977494 
L 240.297022 209.166042 
L 274.684481 185.767527 
L 294.437859 154.344159 
z
" clip-path="url(#p4ebcf87c8e)" style="fill: #482677; fill-opacity: 0.5; stroke: #000000; stroke-linejoin: miter"/>
   </g>
   <g id="patch_9">
    <path d="M 178.56 133.056 
L 179.8778 156.990897 
L 192.069442 154.793177 
L 202.204395 149.286168 
L 208.739703 141.308264 
L 210.680425 132.074027 
L 207.731103 122.989286 
L 200.340745 115.437112 
L 178.56 133.056 
L 202.204395 149.286168 
L 208.739703 141.308264 
L 210.680425 132.074027 
L 207.731103 122.989286 
L 200.340745 115.437112 
L 189.634466 110.567254 
L 177.2422 109.121103 
L 178.56 133.056 
L 210.680425 132.074027 
L 207.731103 122.989286 
L 200.340745 115.437112 
L 189.634466 110.567254 
L 177.2422 109.121103 
L 165.050558 111.318823 
L 154.915605 116.825832 
L 178.56 133.056 
L 200.340745 115.437112 
L 189.634466 110.567254 
L 177.2422 109.121103 
L 165.050558 111.318823 
L 154.915605 116.825832 
L 148.380297 124.803736 
L 146.439575 134.037973 
L 178.56 133.056 
L 177.2422 109.121103 
L 165.050558 111.318823 
L 154.915605 116.825832 
L 148.380297 124.803736 
L 146.439575 134.037973 
L 149.388897 143.122714 
L 156.779255 150.674888 
L 178.56 133.056 
L 154.915605 116.825832 
L 148.380297 124.803736 
L 146.439575 134.037973 
L 149.388897 143.122714 
L 156.779255 150.674888 
L 167.485534 155.544746 
L 179.8778 156.990897 
L 178.56 133.056 
L 146.439575 134.037973 
L 149.388897 143.122714 
L 156.779255 150.674888 
L 167.485534 155.544746 
L 179.8778 156.990897 
L 192.069442 154.793177 
L 202.204395 149.286168 
L 178.56 133.056 
L 156.779255 150.674888 
L 167.485534 155.544746 
L 179.8778 156.990897 
L 192.069442 154.793177 
L 202.204395 149.286168 
L 208.739703 141.308264 
z
" clip-path="url(#p4ebcf87c8e)" style="fill: #482677; fill-opacity: 0.5; stroke: #000000; stroke-linejoin: miter"/>
   </g>
  </g>
 </g>
 <defs>
  <clipPath id="p4ebcf87c8e">
   <rect x="0" y="-0" width="357.12" height="266.112"/>
  </clipPath>
 </defs>
</svg>
