<?xml version="1.0" encoding="utf-8" standalone="no"?>
<!DOCTYPE svg PUBLIC "-//W3C//DTD SVG 1.1//EN"
  "http://www.w3.org/Graphics/SVG/1.1/DTD/svg11.dtd">
<svg xmlns:xlink="http://www.w3.org/1999/xlink" width="357.12pt" height="266.112pt" viewBox="0 0 357.12 266.112" xmlns="http://www.w3.org/2000/svg" version="1.1">
 <metadata>
  <rdf:RDF xmlns:dc="http://purl.org/dc/elements/1.1/" xmlns:cc="http://creativecommons.org/ns#" xmlns:rdf="http://www.w3.org/1999/02/22-rdf-syntax-ns#">
   <cc:Work>
    <dc:type rdf:resource="http://purl.org/dc/dcmitype/StillImage"/>
    <dc:date>2023-12-24T19:37:11.563455</dc:date>
    <dc:format>image/svg+xml</dc:format>
    <dc:creator>
     <cc:Agent>
      <dc:title>Matplotlib v3.7.2, https://matplotlib.org/</dc:title>
     </cc:Agent>
    </dc:creator>
   </cc:Work>
  </rdf:RDF>
 </metadata>
 <defs>
  <style type="text/css">*{stroke-linejoin: round; stroke-linecap: butt}</style>
 </defs>
 <g id="figure_1">
  <g id="patch_1">
   <path d="M 0 266.112 
L 357.12 266.112 
L 357.12 0 
L 0 0 
L 0 266.112 
z
" style="fill: none"/>
  </g>
  <g id="axes_1">
   <g id="patch_2">
    <path d="M 164.486073 172.105093 
L 162.847018 143.034551 
L 189.273974 121.614942 
L 228.286389 120.393582 
L 257.031319 140.085927 
L 258.670374 169.156468 
L 232.243418 190.576077 
L 193.231003 191.797437 
z
" clip-path="url(#pa119e6a25c)" style="fill: #31688e; stroke: #000000; stroke-linejoin: miter"/>
   </g>
   <g id="patch_3">
    <path d="M 214.438547 158.728596 
L 214.438547 158.728596 
L 214.438547 158.728596 
L 214.438547 158.728596 
L 214.438547 158.728596 
L 214.438547 158.728596 
L 214.438547 158.728596 
z
" clip-path="url(#pa119e6a25c)" style="fill: #31688e; stroke: #000000; stroke-linejoin: miter"/>
   </g>
   <g id="patch_4">
    <path d="M 215.859362 156.018438 
L 215.859362 156.018438 
L 215.859362 156.018438 
L 215.859362 156.018438 
L 215.859362 156.018438 
L 215.859362 156.018438 
L 215.859362 156.018438 
z
" clip-path="url(#pa119e6a25c)" style="fill: #31688e; stroke: #000000; stroke-linejoin: miter"/>
   </g>
   <g id="patch_5">
    <path d="M 214.292276 153.353427 
L 214.292276 153.353427 
L 214.292276 153.353427 
L 214.292276 153.353427 
L 214.292276 153.353427 
L 214.292276 153.353427 
L 214.292276 153.353427 
z
" clip-path="url(#pa119e6a25c)" style="fill: #31688e; stroke: #000000; stroke-linejoin: miter"/>
   </g>
   <g id="patch_6">
    <path d="M 210.655267 152.294691 
L 210.655267 152.294691 
L 210.655267 152.294691 
L 210.655267 152.294691 
L 210.655267 152.294691 
L 210.655267 152.294691 
L 210.655267 152.294691 
z
" clip-path="url(#pa119e6a25c)" style="fill: #31688e; stroke: #000000; stroke-linejoin: miter"/>
   </g>
   <g id="patch_7">
    <path d="M 207.078845 153.462423 
L 207.078845 153.462423 
L 207.078845 153.462423 
L 207.078845 153.462423 
L 207.078845 153.462423 
L 207.078845 153.462423 
L 207.078845 153.462423 
z
" clip-path="url(#pa119e6a25c)" style="fill: #31688e; stroke: #000000; stroke-linejoin: miter"/>
   </g>
   <g id="patch_8">
    <path d="M 205.65803 156.172581 
L 205.65803 156.172581 
L 205.65803 156.172581 
L 205.65803 156.172581 
L 205.65803 156.172581 
L 205.65803 156.172581 
L 205.65803 156.172581 
z
" clip-path="url(#pa119e6a25c)" style="fill: #31688e; stroke: #000000; stroke-linejoin: miter"/>
   </g>
   <g id="patch_9">
    <path d="M 207.225116 158.837592 
L 207.225116 158.837592 
L 207.225116 158.837592 
L 207.225116 158.837592 
L 207.225116 158.837592 
L 207.225116 158.837592 
L 207.225116 158.837592 
z
" clip-path="url(#pa119e6a25c)" style="fill: #31688e; stroke: #000000; stroke-linejoin: miter"/>
   </g>
   <g id="patch_10">
    <path d="M 210.862125 159.896328 
L 210.862125 159.896328 
L 210.862125 159.896328 
L 210.862125 159.896328 
L 210.862125 159.896328 
L 210.862125 159.896328 
L 210.862125 159.896328 
z
" clip-path="url(#pa119e6a25c)" style="fill: #31688e; stroke: #000000; stroke-linejoin: miter"/>
   </g>
   <g id="patch_11">
    <path d="M 192.206308 102.179982 
L 229.940743 94.69983 
L 263.721167 109.293161 
L 273.759467 137.411401 
L 254.175342 162.583265 
L 216.440908 170.063418 
L 182.660484 155.470086 
L 172.622184 127.351846 
z
" clip-path="url(#pa119e6a25c)" style="fill: #31688e; stroke: #000000; stroke-linejoin: miter"/>
   </g>
   <g id="patch_12">
    <path d="M 226.870676 135.01471 
L 226.870676 135.01471 
L 226.870676 135.01471 
L 226.870676 135.01471 
L 226.870676 135.01471 
L 226.870676 135.01471 
L 226.870676 135.01471 
z
" clip-path="url(#pa119e6a25c)" style="fill: #31688e; stroke: #000000; stroke-linejoin: miter"/>
   </g>
   <g id="patch_13">
    <path d="M 228.291491 132.304552 
L 228.291491 132.304552 
L 228.291491 132.304552 
L 228.291491 132.304552 
L 228.291491 132.304552 
L 228.291491 132.304552 
L 228.291491 132.304552 
z
" clip-path="url(#pa119e6a25c)" style="fill: #31688e; stroke: #000000; stroke-linejoin: miter"/>
   </g>
   <g id="patch_14">
    <path d="M 226.724405 129.639541 
L 226.724405 129.639541 
L 226.724405 129.639541 
L 226.724405 129.639541 
L 226.724405 129.639541 
L 226.724405 129.639541 
L 226.724405 129.639541 
z
" clip-path="url(#pa119e6a25c)" style="fill: #31688e; stroke: #000000; stroke-linejoin: miter"/>
   </g>
   <g id="patch_15">
    <path d="M 223.087396 128.580805 
L 223.087396 128.580805 
L 223.087396 128.580805 
L 223.087396 128.580805 
L 223.087396 128.580805 
L 223.087396 128.580805 
L 223.087396 128.580805 
z
" clip-path="url(#pa119e6a25c)" style="fill: #31688e; stroke: #000000; stroke-linejoin: miter"/>
   </g>
   <g id="patch_16">
    <path d="M 219.510974 129.748537 
L 219.510974 129.748537 
L 219.510974 129.748537 
L 219.510974 129.748537 
L 219.510974 129.748537 
L 219.510974 129.748537 
L 219.510974 129.748537 
z
" clip-path="url(#pa119e6a25c)" style="fill: #31688e; stroke: #000000; stroke-linejoin: miter"/>
   </g>
   <g id="patch_17">
    <path d="M 218.090159 132.458695 
L 218.090159 132.458695 
L 218.090159 132.458695 
L 218.090159 132.458695 
L 218.090159 132.458695 
L 218.090159 132.458695 
L 218.090159 132.458695 
z
" clip-path="url(#pa119e6a25c)" style="fill: #31688e; stroke: #000000; stroke-linejoin: miter"/>
   </g>
   <g id="patch_18">
    <path d="M 219.657246 135.123706 
L 219.657246 135.123706 
L 219.657246 135.123706 
L 219.657246 135.123706 
L 219.657246 135.123706 
L 219.657246 135.123706 
L 219.657246 135.123706 
z
" clip-path="url(#pa119e6a25c)" style="fill: #31688e; stroke: #000000; stroke-linejoin: miter"/>
   </g>
   <g id="patch_19">
    <path d="M 223.294255 136.182442 
L 223.294255 136.182442 
L 223.294255 136.182442 
L 223.294255 136.182442 
L 223.294255 136.182442 
L 223.294255 136.182442 
L 223.294255 136.182442 
z
" clip-path="url(#pa119e6a25c)" style="fill: #31688e; stroke: #000000; stroke-linejoin: miter"/>
   </g>
   <g id="patch_20">
    <path d="M 251.672 130.433254 
L 219.034794 146.405934 
L 180.799829 140.503501 
L 159.36463 116.183518 
L 167.285645 87.692303 
L 199.922851 71.719622 
L 238.157816 77.622056 
L 259.593015 101.942038 
z
" clip-path="url(#pa119e6a25c)" style="fill: #31688e; stroke: #000000; stroke-linejoin: miter"/>
   </g>
   <g id="patch_21">
    <path d="M 213.158673 111.695865 
L 213.158673 111.695865 
L 213.158673 111.695865 
L 213.158673 111.695865 
L 213.158673 111.695865 
L 213.158673 111.695865 
L 213.158673 111.695865 
z
" clip-path="url(#pa119e6a25c)" style="fill: #31688e; stroke: #000000; stroke-linejoin: miter"/>
   </g>
   <g id="patch_22">
    <path d="M 214.579488 108.985707 
L 214.579488 108.985707 
L 214.579488 108.985707 
L 214.579488 108.985707 
L 214.579488 108.985707 
L 214.579488 108.985707 
L 214.579488 108.985707 
z
" clip-path="url(#pa119e6a25c)" style="fill: #31688e; stroke: #000000; stroke-linejoin: miter"/>
   </g>
   <g id="patch_23">
    <path d="M 213.012402 106.320696 
L 213.012402 106.320696 
L 213.012402 106.320696 
L 213.012402 106.320696 
L 213.012402 106.320696 
L 213.012402 106.320696 
L 213.012402 106.320696 
z
" clip-path="url(#pa119e6a25c)" style="fill: #31688e; stroke: #000000; stroke-linejoin: miter"/>
   </g>
   <g id="patch_24">
    <path d="M 209.375393 105.261959 
L 209.375393 105.261959 
L 209.375393 105.261959 
L 209.375393 105.261959 
L 209.375393 105.261959 
L 209.375393 105.261959 
L 209.375393 105.261959 
z
" clip-path="url(#pa119e6a25c)" style="fill: #31688e; stroke: #000000; stroke-linejoin: miter"/>
   </g>
   <g id="patch_25">
    <path d="M 205.798971 106.429691 
L 205.798971 106.429691 
L 205.798971 106.429691 
L 205.798971 106.429691 
L 205.798971 106.429691 
L 205.798971 106.429691 
L 205.798971 106.429691 
z
" clip-path="url(#pa119e6a25c)" style="fill: #31688e; stroke: #000000; stroke-linejoin: miter"/>
   </g>
   <g id="patch_26">
    <path d="M 204.378157 109.13985 
L 204.378157 109.13985 
L 204.378157 109.13985 
L 204.378157 109.13985 
L 204.378157 109.13985 
L 204.378157 109.13985 
L 204.378157 109.13985 
z
" clip-path="url(#pa119e6a25c)" style="fill: #31688e; stroke: #000000; stroke-linejoin: miter"/>
   </g>
   <g id="patch_27">
    <path d="M 205.945243 111.804861 
L 205.945243 111.804861 
L 205.945243 111.804861 
L 205.945243 111.804861 
L 205.945243 111.804861 
L 205.945243 111.804861 
L 205.945243 111.804861 
z
" clip-path="url(#pa119e6a25c)" style="fill: #31688e; stroke: #000000; stroke-linejoin: miter"/>
   </g>
   <g id="patch_28">
    <path d="M 209.582252 112.863597 
L 209.582252 112.863597 
L 209.582252 112.863597 
L 209.582252 112.863597 
L 209.582252 112.863597 
L 209.582252 112.863597 
L 209.582252 112.863597 
z
" clip-path="url(#pa119e6a25c)" style="fill: #31688e; stroke: #000000; stroke-linejoin: miter"/>
   </g>
   <g id="patch_29">
    <path d="M 226.810673 89.623415 
L 222.069082 118.504278 
L 191.31032 136.427747 
L 152.552453 132.894497 
L 128.499313 109.974258 
L 133.240903 81.093396 
L 163.999665 63.169927 
L 202.757533 66.703176 
z
" clip-path="url(#pa119e6a25c)" style="fill: #31688e; stroke: #000000; stroke-linejoin: miter"/>
   </g>
   <g id="patch_30">
    <path d="M 181.334844 102.431923 
L 181.334844 102.431923 
L 181.334844 102.431923 
L 181.334844 102.431923 
L 181.334844 102.431923 
L 181.334844 102.431923 
L 181.334844 102.431923 
z
" clip-path="url(#pa119e6a25c)" style="fill: #31688e; stroke: #000000; stroke-linejoin: miter"/>
   </g>
   <g id="patch_31">
    <path d="M 182.755658 99.721765 
L 182.755658 99.721765 
L 182.755658 99.721765 
L 182.755658 99.721765 
L 182.755658 99.721765 
L 182.755658 99.721765 
L 182.755658 99.721765 
z
" clip-path="url(#pa119e6a25c)" style="fill: #31688e; stroke: #000000; stroke-linejoin: miter"/>
   </g>
   <g id="patch_32">
    <path d="M 181.188572 97.056754 
L 181.188572 97.056754 
L 181.188572 97.056754 
L 181.188572 97.056754 
L 181.188572 97.056754 
L 181.188572 97.056754 
L 181.188572 97.056754 
z
" clip-path="url(#pa119e6a25c)" style="fill: #31688e; stroke: #000000; stroke-linejoin: miter"/>
   </g>
   <g id="patch_33">
    <path d="M 177.551563 95.998018 
L 177.551563 95.998018 
L 177.551563 95.998018 
L 177.551563 95.998018 
L 177.551563 95.998018 
L 177.551563 95.998018 
L 177.551563 95.998018 
z
" clip-path="url(#pa119e6a25c)" style="fill: #31688e; stroke: #000000; stroke-linejoin: miter"/>
   </g>
   <g id="patch_34">
    <path d="M 173.975142 97.16575 
L 173.975142 97.16575 
L 173.975142 97.16575 
L 173.975142 97.16575 
L 173.975142 97.16575 
L 173.975142 97.16575 
L 173.975142 97.16575 
z
" clip-path="url(#pa119e6a25c)" style="fill: #31688e; stroke: #000000; stroke-linejoin: miter"/>
   </g>
   <g id="patch_35">
    <path d="M 172.554327 99.875908 
L 172.554327 99.875908 
L 172.554327 99.875908 
L 172.554327 99.875908 
L 172.554327 99.875908 
L 172.554327 99.875908 
L 172.554327 99.875908 
z
" clip-path="url(#pa119e6a25c)" style="fill: #31688e; stroke: #000000; stroke-linejoin: miter"/>
   </g>
   <g id="patch_36">
    <path d="M 174.121413 102.540919 
L 174.121413 102.540919 
L 174.121413 102.540919 
L 174.121413 102.540919 
L 174.121413 102.540919 
L 174.121413 102.540919 
L 174.121413 102.540919 
z
" clip-path="url(#pa119e6a25c)" style="fill: #31688e; stroke: #000000; stroke-linejoin: miter"/>
   </g>
   <g id="patch_37">
    <path d="M 177.758422 103.599655 
L 177.758422 103.599655 
L 177.758422 103.599655 
L 177.758422 103.599655 
L 177.758422 103.599655 
L 177.758422 103.599655 
L 177.758422 103.599655 
z
" clip-path="url(#pa119e6a25c)" style="fill: #31688e; stroke: #000000; stroke-linejoin: miter"/>
   </g>
   <g id="patch_38">
    <path d="M 157.955832 72.995277 
L 189.690457 89.947796 
L 196.043451 118.656284 
L 173.293318 142.303698 
L 134.766776 147.037704 
L 103.032151 130.085184 
L 96.679157 101.376697 
L 119.42929 77.729283 
z
" clip-path="url(#pa119e6a25c)" style="fill: #31688e; stroke: #000000; stroke-linejoin: miter"/>
   </g>
   <g id="patch_39">
    <path d="M 150.041155 112.649577 
L 150.041155 112.649577 
L 150.041155 112.649577 
L 150.041155 112.649577 
L 150.041155 112.649577 
L 150.041155 112.649577 
L 150.041155 112.649577 
z
" clip-path="url(#pa119e6a25c)" style="fill: #31688e; stroke: #000000; stroke-linejoin: miter"/>
   </g>
   <g id="patch_40">
    <path d="M 151.46197 109.939419 
L 151.46197 109.939419 
L 151.46197 109.939419 
L 151.46197 109.939419 
L 151.46197 109.939419 
L 151.46197 109.939419 
L 151.46197 109.939419 
z
" clip-path="url(#pa119e6a25c)" style="fill: #31688e; stroke: #000000; stroke-linejoin: miter"/>
   </g>
   <g id="patch_41">
    <path d="M 149.894884 107.274408 
L 149.894884 107.274408 
L 149.894884 107.274408 
L 149.894884 107.274408 
L 149.894884 107.274408 
L 149.894884 107.274408 
L 149.894884 107.274408 
z
" clip-path="url(#pa119e6a25c)" style="fill: #31688e; stroke: #000000; stroke-linejoin: miter"/>
   </g>
   <g id="patch_42">
    <path d="M 146.257875 106.215672 
L 146.257875 106.215672 
L 146.257875 106.215672 
L 146.257875 106.215672 
L 146.257875 106.215672 
L 146.257875 106.215672 
L 146.257875 106.215672 
z
" clip-path="url(#pa119e6a25c)" style="fill: #31688e; stroke: #000000; stroke-linejoin: miter"/>
   </g>
   <g id="patch_43">
    <path d="M 142.681453 107.383404 
L 142.681453 107.383404 
L 142.681453 107.383404 
L 142.681453 107.383404 
L 142.681453 107.383404 
L 142.681453 107.383404 
L 142.681453 107.383404 
z
" clip-path="url(#pa119e6a25c)" style="fill: #31688e; stroke: #000000; stroke-linejoin: miter"/>
   </g>
   <g id="patch_44">
    <path d="M 141.260638 110.093562 
L 141.260638 110.093562 
L 141.260638 110.093562 
L 141.260638 110.093562 
L 141.260638 110.093562 
L 141.260638 110.093562 
L 141.260638 110.093562 
z
" clip-path="url(#pa119e6a25c)" style="fill: #31688e; stroke: #000000; stroke-linejoin: miter"/>
   </g>
   <g id="patch_45">
    <path d="M 142.827724 112.758573 
L 142.827724 112.758573 
L 142.827724 112.758573 
L 142.827724 112.758573 
L 142.827724 112.758573 
L 142.827724 112.758573 
L 142.827724 112.758573 
z
" clip-path="url(#pa119e6a25c)" style="fill: #31688e; stroke: #000000; stroke-linejoin: miter"/>
   </g>
   <g id="patch_46">
    <path d="M 146.464733 113.817309 
L 146.464733 113.817309 
L 146.464733 113.817309 
L 146.464733 113.817309 
L 146.464733 113.817309 
L 146.464733 113.817309 
L 146.464733 113.817309 
z
" clip-path="url(#pa119e6a25c)" style="fill: #31688e; stroke: #000000; stroke-linejoin: miter"/>
   </g>
   <g id="patch_47">
    <path d="M 129.338809 171.592178 
L 94.755052 158.08401 
L 83.118965 130.309813 
L 101.24681 104.539337 
L 138.519541 95.868575 
L 173.103297 109.376743 
L 184.739384 137.150939 
L 166.61154 162.921416 
z
" clip-path="url(#pa119e6a25c)" style="fill: #31688e; stroke: #000000; stroke-linejoin: miter"/>
   </g>
   <g id="patch_48">
    <path d="M 137.609026 136.363463 
L 137.609026 136.363463 
L 137.609026 136.363463 
L 137.609026 136.363463 
L 137.609026 136.363463 
L 137.609026 136.363463 
L 137.609026 136.363463 
z
" clip-path="url(#pa119e6a25c)" style="fill: #31688e; stroke: #000000; stroke-linejoin: miter"/>
   </g>
   <g id="patch_49">
    <path d="M 139.029841 133.653305 
L 139.029841 133.653305 
L 139.029841 133.653305 
L 139.029841 133.653305 
L 139.029841 133.653305 
L 139.029841 133.653305 
L 139.029841 133.653305 
z
" clip-path="url(#pa119e6a25c)" style="fill: #31688e; stroke: #000000; stroke-linejoin: miter"/>
   </g>
   <g id="patch_50">
    <path d="M 137.462754 130.988294 
L 137.462754 130.988294 
L 137.462754 130.988294 
L 137.462754 130.988294 
L 137.462754 130.988294 
L 137.462754 130.988294 
L 137.462754 130.988294 
z
" clip-path="url(#pa119e6a25c)" style="fill: #31688e; stroke: #000000; stroke-linejoin: miter"/>
   </g>
   <g id="patch_51">
    <path d="M 133.825745 129.929558 
L 133.825745 129.929558 
L 133.825745 129.929558 
L 133.825745 129.929558 
L 133.825745 129.929558 
L 133.825745 129.929558 
L 133.825745 129.929558 
z
" clip-path="url(#pa119e6a25c)" style="fill: #31688e; stroke: #000000; stroke-linejoin: miter"/>
   </g>
   <g id="patch_52">
    <path d="M 130.249324 131.09729 
L 130.249324 131.09729 
L 130.249324 131.09729 
L 130.249324 131.09729 
L 130.249324 131.09729 
L 130.249324 131.09729 
L 130.249324 131.09729 
z
" clip-path="url(#pa119e6a25c)" style="fill: #31688e; stroke: #000000; stroke-linejoin: miter"/>
   </g>
   <g id="patch_53">
    <path d="M 128.828509 133.807448 
L 128.828509 133.807448 
L 128.828509 133.807448 
L 128.828509 133.807448 
L 128.828509 133.807448 
L 128.828509 133.807448 
L 128.828509 133.807448 
z
" clip-path="url(#pa119e6a25c)" style="fill: #31688e; stroke: #000000; stroke-linejoin: miter"/>
   </g>
   <g id="patch_54">
    <path d="M 130.395595 136.472459 
L 130.395595 136.472459 
L 130.395595 136.472459 
L 130.395595 136.472459 
L 130.395595 136.472459 
L 130.395595 136.472459 
L 130.395595 136.472459 
z
" clip-path="url(#pa119e6a25c)" style="fill: #31688e; stroke: #000000; stroke-linejoin: miter"/>
   </g>
   <g id="patch_55">
    <path d="M 134.032604 137.531195 
L 134.032604 137.531195 
L 134.032604 137.531195 
L 134.032604 137.531195 
L 134.032604 137.531195 
L 134.032604 137.531195 
L 134.032604 137.531195 
z
" clip-path="url(#pa119e6a25c)" style="fill: #31688e; stroke: #000000; stroke-linejoin: miter"/>
   </g>
   <g id="patch_56">
    <path d="M 186.341389 181.820007 
L 151.50059 194.956286 
L 114.398999 185.887122 
L 96.770225 159.925106 
L 108.940966 132.278437 
L 143.781766 119.142157 
L 180.883357 128.211322 
L 198.51213 154.173337 
z
" clip-path="url(#pa119e6a25c)" style="fill: #31688e; stroke: #000000; stroke-linejoin: miter"/>
   </g>
   <g id="patch_57">
    <path d="M 151.321029 159.682309 
L 151.321029 159.682309 
L 151.321029 159.682309 
L 151.321029 159.682309 
L 151.321029 159.682309 
L 151.321029 159.682309 
L 151.321029 159.682309 
z
" clip-path="url(#pa119e6a25c)" style="fill: #31688e; stroke: #000000; stroke-linejoin: miter"/>
   </g>
   <g id="patch_58">
    <path d="M 152.741843 156.97215 
L 152.741843 156.97215 
L 152.741843 156.97215 
L 152.741843 156.97215 
L 152.741843 156.97215 
L 152.741843 156.97215 
L 152.741843 156.97215 
z
" clip-path="url(#pa119e6a25c)" style="fill: #31688e; stroke: #000000; stroke-linejoin: miter"/>
   </g>
   <g id="patch_59">
    <path d="M 151.174757 154.307139 
L 151.174757 154.307139 
L 151.174757 154.307139 
L 151.174757 154.307139 
L 151.174757 154.307139 
L 151.174757 154.307139 
L 151.174757 154.307139 
z
" clip-path="url(#pa119e6a25c)" style="fill: #31688e; stroke: #000000; stroke-linejoin: miter"/>
   </g>
   <g id="patch_60">
    <path d="M 147.537748 153.248403 
L 147.537748 153.248403 
L 147.537748 153.248403 
L 147.537748 153.248403 
L 147.537748 153.248403 
L 147.537748 153.248403 
L 147.537748 153.248403 
z
" clip-path="url(#pa119e6a25c)" style="fill: #31688e; stroke: #000000; stroke-linejoin: miter"/>
   </g>
   <g id="patch_61">
    <path d="M 143.961327 154.416135 
L 143.961327 154.416135 
L 143.961327 154.416135 
L 143.961327 154.416135 
L 143.961327 154.416135 
L 143.961327 154.416135 
L 143.961327 154.416135 
z
" clip-path="url(#pa119e6a25c)" style="fill: #31688e; stroke: #000000; stroke-linejoin: miter"/>
   </g>
   <g id="patch_62">
    <path d="M 142.540512 157.126293 
L 142.540512 157.126293 
L 142.540512 157.126293 
L 142.540512 157.126293 
L 142.540512 157.126293 
L 142.540512 157.126293 
L 142.540512 157.126293 
z
" clip-path="url(#pa119e6a25c)" style="fill: #31688e; stroke: #000000; stroke-linejoin: miter"/>
   </g>
   <g id="patch_63">
    <path d="M 144.107598 159.791304 
L 144.107598 159.791304 
L 144.107598 159.791304 
L 144.107598 159.791304 
L 144.107598 159.791304 
L 144.107598 159.791304 
L 144.107598 159.791304 
z
" clip-path="url(#pa119e6a25c)" style="fill: #31688e; stroke: #000000; stroke-linejoin: miter"/>
   </g>
   <g id="patch_64">
    <path d="M 147.744607 160.850041 
L 147.744607 160.850041 
L 147.744607 160.850041 
L 147.744607 160.850041 
L 147.744607 160.850041 
L 147.744607 160.850041 
L 147.744607 160.850041 
z
" clip-path="url(#pa119e6a25c)" style="fill: #31688e; stroke: #000000; stroke-linejoin: miter"/>
   </g>
   <g id="patch_65">
    <path d="M 180.323894 128.302551 
L 216.141787 139.888157 
L 230.47492 166.953173 
L 214.927138 193.64328 
L 178.60612 204.323776 
L 142.788227 192.73817 
L 128.455095 165.673154 
L 144.002877 138.983047 
z
" clip-path="url(#pa119e6a25c)" style="fill: #31688e; stroke: #000000; stroke-linejoin: miter"/>
   </g>
   <g id="patch_66">
    <path d="M 183.144858 168.94625 
L 183.144858 168.94625 
L 183.144858 168.94625 
L 183.144858 168.94625 
L 183.144858 168.94625 
L 183.144858 168.94625 
L 183.144858 168.94625 
z
" clip-path="url(#pa119e6a25c)" style="fill: #31688e; stroke: #000000; stroke-linejoin: miter"/>
   </g>
   <g id="patch_67">
    <path d="M 184.565673 166.236092 
L 184.565673 166.236092 
L 184.565673 166.236092 
L 184.565673 166.236092 
L 184.565673 166.236092 
L 184.565673 166.236092 
L 184.565673 166.236092 
z
" clip-path="url(#pa119e6a25c)" style="fill: #31688e; stroke: #000000; stroke-linejoin: miter"/>
   </g>
   <g id="patch_68">
    <path d="M 182.998587 163.571081 
L 182.998587 163.571081 
L 182.998587 163.571081 
L 182.998587 163.571081 
L 182.998587 163.571081 
L 182.998587 163.571081 
L 182.998587 163.571081 
z
" clip-path="url(#pa119e6a25c)" style="fill: #31688e; stroke: #000000; stroke-linejoin: miter"/>
   </g>
   <g id="patch_69">
    <path d="M 179.361578 162.512345 
L 179.361578 162.512345 
L 179.361578 162.512345 
L 179.361578 162.512345 
L 179.361578 162.512345 
L 179.361578 162.512345 
L 179.361578 162.512345 
z
" clip-path="url(#pa119e6a25c)" style="fill: #31688e; stroke: #000000; stroke-linejoin: miter"/>
   </g>
   <g id="patch_70">
    <path d="M 175.785156 163.680077 
L 175.785156 163.680077 
L 175.785156 163.680077 
L 175.785156 163.680077 
L 175.785156 163.680077 
L 175.785156 163.680077 
L 175.785156 163.680077 
z
" clip-path="url(#pa119e6a25c)" style="fill: #31688e; stroke: #000000; stroke-linejoin: miter"/>
   </g>
   <g id="patch_71">
    <path d="M 174.364342 166.390235 
L 174.364342 166.390235 
L 174.364342 166.390235 
L 174.364342 166.390235 
L 174.364342 166.390235 
L 174.364342 166.390235 
L 174.364342 166.390235 
z
" clip-path="url(#pa119e6a25c)" style="fill: #31688e; stroke: #000000; stroke-linejoin: miter"/>
   </g>
   <g id="patch_72">
    <path d="M 175.931428 169.055246 
L 175.931428 169.055246 
L 175.931428 169.055246 
L 175.931428 169.055246 
L 175.931428 169.055246 
L 175.931428 169.055246 
L 175.931428 169.055246 
z
" clip-path="url(#pa119e6a25c)" style="fill: #31688e; stroke: #000000; stroke-linejoin: miter"/>
   </g>
   <g id="patch_73">
    <path d="M 179.568437 170.113982 
L 179.568437 170.113982 
L 179.568437 170.113982 
L 179.568437 170.113982 
L 179.568437 170.113982 
L 179.568437 170.113982 
L 179.568437 170.113982 
z
" clip-path="url(#pa119e6a25c)" style="fill: #31688e; stroke: #000000; stroke-linejoin: miter"/>
   </g>
  </g>
 </g>
 <defs>
  <clipPath id="pa119e6a25c">
   <rect x="0" y="-0" width="357.12" height="266.112"/>
  </clipPath>
 </defs>
</svg>
