<?xml version="1.0" encoding="utf-8" standalone="no"?>
<!DOCTYPE svg PUBLIC "-//W3C//DTD SVG 1.1//EN"
  "http://www.w3.org/Graphics/SVG/1.1/DTD/svg11.dtd">
<svg xmlns:xlink="http://www.w3.org/1999/xlink" width="357.12pt" height="266.112pt" viewBox="0 0 357.12 266.112" xmlns="http://www.w3.org/2000/svg" version="1.1">
 <metadata>
  <rdf:RDF xmlns:dc="http://purl.org/dc/elements/1.1/" xmlns:cc="http://creativecommons.org/ns#" xmlns:rdf="http://www.w3.org/1999/02/22-rdf-syntax-ns#">
   <cc:Work>
    <dc:type rdf:resource="http://purl.org/dc/dcmitype/StillImage"/>
    <dc:date>2023-12-24T19:37:11.687925</dc:date>
    <dc:format>image/svg+xml</dc:format>
    <dc:creator>
     <cc:Agent>
      <dc:title>Matplotlib v3.7.2, https://matplotlib.org/</dc:title>
     </cc:Agent>
    </dc:creator>
   </cc:Work>
  </rdf:RDF>
 </metadata>
 <defs>
  <style type="text/css">*{stroke-linejoin: round; stroke-linecap: butt}</style>
 </defs>
 <g id="figure_1">
  <g id="patch_1">
   <path d="M 0 266.112 
L 357.12 266.112 
L 357.12 0 
L 0 0 
L 0 266.112 
z
" style="fill: none"/>
  </g>
  <g id="axes_1">
   <g id="patch_2">
    <path d="M 143.019815 130.448763 
L 143.019815 130.448763 
L 143.019815 130.448763 
L 143.019815 130.448763 
L 143.019815 130.448763 
L 143.019815 130.448763 
L 143.019815 130.448763 
z
" clip-path="url(#pabbca87aa0)" style="fill: #35b779; stroke: #000000; stroke-linejoin: miter"/>
   </g>
   <g id="patch_3">
    <path d="M 150.955206 149.938834 
L 150.955206 149.938834 
L 150.955206 149.938834 
L 150.955206 149.938834 
L 150.955206 149.938834 
L 150.955206 149.938834 
L 150.955206 149.938834 
z
" clip-path="url(#pabbca87aa0)" style="fill: #35b779; stroke: #000000; stroke-linejoin: miter"/>
   </g>
   <g id="patch_4">
    <path d="M 175.061111 159.53917 
L 175.061111 159.53917 
L 175.061111 159.53917 
L 175.061111 159.53917 
L 175.061111 159.53917 
L 175.061111 159.53917 
L 175.061111 159.53917 
z
" clip-path="url(#pabbca87aa0)" style="fill: #35b779; stroke: #000000; stroke-linejoin: miter"/>
   </g>
   <g id="patch_5">
    <path d="M 201.216617 153.626024 
L 201.216617 153.626024 
L 201.216617 153.626024 
L 201.216617 153.626024 
L 201.216617 153.626024 
L 201.216617 153.626024 
L 201.216617 153.626024 
z
" clip-path="url(#pabbca87aa0)" style="fill: #35b779; stroke: #000000; stroke-linejoin: miter"/>
   </g>
   <g id="patch_6">
    <path d="M 214.100185 135.663237 
L 214.100185 135.663237 
L 214.100185 135.663237 
L 214.100185 135.663237 
L 214.100185 135.663237 
L 214.100185 135.663237 
L 214.100185 135.663237 
z
" clip-path="url(#pabbca87aa0)" style="fill: #35b779; stroke: #000000; stroke-linejoin: miter"/>
   </g>
   <g id="patch_7">
    <path d="M 206.164794 116.173166 
L 206.164794 116.173166 
L 206.164794 116.173166 
L 206.164794 116.173166 
L 206.164794 116.173166 
L 206.164794 116.173166 
L 206.164794 116.173166 
z
" clip-path="url(#pabbca87aa0)" style="fill: #35b779; stroke: #000000; stroke-linejoin: miter"/>
   </g>
   <g id="patch_8">
    <path d="M 182.058889 106.57283 
L 182.058889 106.57283 
L 182.058889 106.57283 
L 182.058889 106.57283 
L 182.058889 106.57283 
L 182.058889 106.57283 
L 182.058889 106.57283 
z
" clip-path="url(#pabbca87aa0)" style="fill: #35b779; stroke: #000000; stroke-linejoin: miter"/>
   </g>
   <g id="patch_9">
    <path d="M 155.903383 112.485976 
L 155.903383 112.485976 
L 155.903383 112.485976 
L 155.903383 112.485976 
L 155.903383 112.485976 
L 155.903383 112.485976 
L 155.903383 112.485976 
z
" clip-path="url(#pabbca87aa0)" style="fill: #35b779; stroke: #000000; stroke-linejoin: miter"/>
   </g>
  </g>
 </g>
 <defs>
  <clipPath id="pabbca87aa0">
   <rect x="0" y="-0" width="357.12" height="266.112"/>
  </clipPath>
 </defs>
</svg>
