<?xml version="1.0" encoding="utf-8" standalone="no"?>
<!DOCTYPE svg PUBLIC "-//W3C//DTD SVG 1.1//EN"
  "http://www.w3.org/Graphics/SVG/1.1/DTD/svg11.dtd">
<svg xmlns:xlink="http://www.w3.org/1999/xlink" width="357.12pt" height="266.112pt" viewBox="0 0 357.12 266.112" xmlns="http://www.w3.org/2000/svg" version="1.1">
 <metadata>
  <rdf:RDF xmlns:dc="http://purl.org/dc/elements/1.1/" xmlns:cc="http://creativecommons.org/ns#" xmlns:rdf="http://www.w3.org/1999/02/22-rdf-syntax-ns#">
   <cc:Work>
    <dc:type rdf:resource="http://purl.org/dc/dcmitype/StillImage"/>
    <dc:date>2023-12-24T19:37:11.793432</dc:date>
    <dc:format>image/svg+xml</dc:format>
    <dc:creator>
     <cc:Agent>
      <dc:title>Matplotlib v3.7.2, https://matplotlib.org/</dc:title>
     </cc:Agent>
    </dc:creator>
   </cc:Work>
  </rdf:RDF>
 </metadata>
 <defs>
  <style type="text/css">*{stroke-linejoin: round; stroke-linecap: butt}</style>
 </defs>
 <g id="figure_1">
  <g id="patch_1">
   <path d="M 0 266.112 
L 357.12 266.112 
L 357.12 0 
L 0 0 
L 0 266.112 
z
" style="fill: none"/>
  </g>
  <g id="axes_1">
   <g id="patch_2">
    <path d="M 114.630029 160.808223 
L 97.85677 134.533359 
L 110.929324 107.11625 
L 146.189965 94.617467 
L 182.983488 104.358628 
L 199.756746 130.633492 
L 186.684192 158.050601 
L 151.423552 170.549384 
z
" clip-path="url(#pbed5acdee5)" style="fill: #fde725; stroke: #000000; stroke-linejoin: miter"/>
   </g>
   <g id="patch_3">
    <path d="M 155.525016 110.400579 
L 192.036324 120.71452 
L 208.066498 147.2457 
L 194.225278 174.452513 
L 158.620664 186.397578 
L 122.109356 176.083637 
L 106.079183 149.552457 
L 119.920402 122.345644 
z
" clip-path="url(#pbed5acdee5)" style="fill: #fde725; stroke: #000000; stroke-linejoin: miter"/>
   </g>
   <g id="patch_4">
    <path d="M 225.402595 141.312114 
L 224.701202 170.403606 
L 196.599418 190.604827 
L 157.558887 190.082176 
L 130.449023 169.141815 
L 131.150416 140.050322 
L 159.2522 119.849101 
L 198.292731 120.371752 
z
" clip-path="url(#pbed5acdee5)" style="fill: #fde725; stroke: #000000; stroke-linejoin: miter"/>
   </g>
   <g id="patch_5">
    <path d="M 245.611639 133.364271 
L 246.90461 162.444501 
L 220.223742 183.688607 
L 181.198324 184.652079 
L 152.688918 164.770529 
L 151.395946 135.690298 
L 178.076815 114.446193 
L 217.102232 113.48272 
z
" clip-path="url(#pbed5acdee5)" style="fill: #fde725; stroke: #000000; stroke-linejoin: miter"/>
   </g>
   <g id="patch_6">
    <path d="M 221.175743 96.740656 
L 252.317607 114.29295 
L 257.68231 143.113212 
L 234.127283 166.318924 
L 195.450741 170.316493 
L 164.308877 152.764199 
L 158.944173 123.943937 
L 182.4992 100.738225 
z
" clip-path="url(#pbed5acdee5)" style="fill: #fde725; stroke: #000000; stroke-linejoin: miter"/>
   </g>
   <g id="patch_7">
    <path d="M 209.903362 155.012723 
L 171.621603 149.281182 
L 149.99115 125.057382 
L 157.682828 96.531297 
L 190.190957 80.413121 
L 228.472716 86.144662 
L 250.10317 110.368461 
L 242.411492 138.894546 
z
" clip-path="url(#pbed5acdee5)" style="fill: #fde725; stroke: #000000; stroke-linejoin: miter"/>
   </g>
   <g id="patch_8">
    <path d="M 176.160219 72.93632 
L 213.059569 82.452616 
L 230.121039 108.624238 
L 217.350253 136.120205 
L 182.228163 148.833752 
L 145.328813 139.317456 
L 128.267343 113.145834 
L 141.038129 85.649867 
z
" clip-path="url(#pbed5acdee5)" style="fill: #fde725; stroke: #000000; stroke-linejoin: miter"/>
   </g>
   <g id="patch_9">
    <path d="M 182.30766 83.633329 
L 206.88424 106.243133 
L 202.807358 135.18029 
L 172.465197 153.493805 
L 133.631783 150.455871 
L 109.055204 127.846067 
L 113.132086 98.908911 
L 143.474246 80.595395 
z
" clip-path="url(#pbed5acdee5)" style="fill: #fde725; stroke: #000000; stroke-linejoin: miter"/>
   </g>
  </g>
 </g>
 <defs>
  <clipPath id="pbed5acdee5">
   <rect x="0" y="-0" width="357.12" height="266.112"/>
  </clipPath>
 </defs>
</svg>
