<?xml version="1.0" encoding="utf-8" standalone="no"?>
<!DOCTYPE svg PUBLIC "-//W3C//DTD SVG 1.1//EN"
  "http://www.w3.org/Graphics/SVG/1.1/DTD/svg11.dtd">
<svg xmlns:xlink="http://www.w3.org/1999/xlink" width="357.12pt" height="266.112pt" viewBox="0 0 357.12 266.112" xmlns="http://www.w3.org/2000/svg" version="1.1">
 <metadata>
  <rdf:RDF xmlns:dc="http://purl.org/dc/elements/1.1/" xmlns:cc="http://creativecommons.org/ns#" xmlns:rdf="http://www.w3.org/1999/02/22-rdf-syntax-ns#">
   <cc:Work>
    <dc:type rdf:resource="http://purl.org/dc/dcmitype/StillImage"/>
    <dc:date>2023-12-24T20:07:10.432562</dc:date>
    <dc:format>image/svg+xml</dc:format>
    <dc:creator>
     <cc:Agent>
      <dc:title>Matplotlib v3.7.2, https://matplotlib.org/</dc:title>
     </cc:Agent>
    </dc:creator>
   </cc:Work>
  </rdf:RDF>
 </metadata>
 <defs>
  <style type="text/css">*{stroke-linejoin: round; stroke-linecap: butt}</style>
 </defs>
 <g id="figure_1">
  <g id="patch_1">
   <path d="M 0 266.112 
L 357.12 266.112 
L 357.12 0 
L 0 0 
L 0 266.112 
z
" style="fill: none"/>
  </g>
  <g id="axes_1">
   <g id="patch_2">
    <path d="M 178.56 133.056 
L 181.944065 113.002942 
L 176.628959 112.896302 
L 178.56 133.056 
L 161.923923 117.093254 
L 158.064382 119.818422 
L 178.56 133.056 
L 151.64897 130.534326 
L 151.505859 134.494937 
L 178.56 133.056 
L 157.138133 145.45256 
L 160.795285 148.328541 
L 178.56 133.056 
L 175.175935 153.109058 
L 180.491041 153.215698 
L 178.56 133.056 
L 195.196077 149.018746 
L 199.055618 146.293578 
L 178.56 133.056 
L 205.47103 135.577674 
L 205.614141 131.617063 
L 178.56 133.056 
L 199.981867 120.65944 
z
" clip-path="url(#p31529f292d)" style="fill: #fde725; fill-opacity: 0.5; stroke: #000000; stroke-linejoin: miter"/>
   </g>
   <g id="patch_3">
    <path d="M 178.56 133.056 
L 152.156131 143.260698 
L 155.335161 146.903048 
L 178.56 133.056 
L 169.573202 154.184237 
L 175.277454 155.084709 
L 178.56 133.056 
L 192.254617 152.731141 
L 197.142618 150.362251 
L 178.56 133.056 
L 206.913911 139.752614 
L 208.122336 135.502026 
L 178.56 133.056 
L 204.963869 122.851302 
L 201.784839 119.208952 
L 178.56 133.056 
L 187.546798 111.927763 
L 181.842546 111.027291 
L 178.56 133.056 
L 164.865383 113.380859 
L 159.977382 115.749749 
L 178.56 133.056 
L 150.206089 126.359386 
z
" clip-path="url(#p31529f292d)" style="fill: #fde725; fill-opacity: 0.5; stroke: #000000; stroke-linejoin: miter"/>
   </g>
   <g id="patch_4">
    <path d="M 178.56 133.056 
L 165.922455 119.629732 
L 162.650157 121.724881 
L 178.56 133.056 
L 156.883302 130.221026 
L 156.55759 133.426722 
L 178.56 133.056 
L 160.542064 142.473009 
L 163.353737 144.911399 
L 178.56 133.056 
L 174.755489 149.208636 
L 179.057506 149.451344 
L 178.56 133.056 
L 191.197545 146.482268 
L 194.469843 144.387119 
L 178.56 133.056 
L 200.236698 135.890974 
L 200.56241 132.685278 
L 178.56 133.056 
L 196.577936 123.638991 
L 193.766263 121.200601 
L 178.56 133.056 
L 182.364511 116.903364 
z
" clip-path="url(#p31529f292d)" style="fill: #fde725; fill-opacity: 0.5; stroke: #000000; stroke-linejoin: miter"/>
   </g>
   <g id="patch_5">
    <path d="M 178.56 133.056 
L 162.545271 144.037948 
L 165.728168 146.155054 
L 178.56 133.056 
L 177.65699 149.259708 
L 181.916626 149.079632 
L 178.56 133.056 
L 193.297679 144.989556 
L 196.138817 142.617784 
L 178.56 133.056 
L 200.305236 133.728888 
L 200.063576 130.554772 
L 178.56 133.056 
L 194.574729 122.074052 
L 191.391832 119.956946 
L 178.56 133.056 
L 179.46301 116.852292 
L 175.203374 117.032368 
L 178.56 133.056 
L 163.822321 121.122444 
L 160.981183 123.494216 
L 178.56 133.056 
L 156.814764 132.383112 
z
" clip-path="url(#p31529f292d)" style="fill: #fde725; fill-opacity: 0.5; stroke: #000000; stroke-linejoin: miter"/>
   </g>
   <g id="patch_6">
    <path d="M 178.56 133.056 
L 175.58489 118.410342 
L 171.807683 119.124257 
L 178.56 133.056 
L 162.558558 124.267567 
L 160.565126 126.762624 
L 178.56 133.056 
L 158.905654 135.272937 
L 159.863722 138.087565 
L 178.56 133.056 
L 166.765999 144.979655 
L 170.114344 146.465084 
L 178.56 133.056 
L 181.53511 147.701658 
L 185.312317 146.987743 
L 178.56 133.056 
L 194.561442 141.844433 
L 196.554874 139.349376 
L 178.56 133.056 
L 198.214346 130.839063 
L 197.256278 128.024435 
L 178.56 133.056 
L 190.354001 121.132345 
z
" clip-path="url(#p31529f292d)" style="fill: #fde725; fill-opacity: 0.5; stroke: #000000; stroke-linejoin: miter"/>
   </g>
   <g id="patch_7">
    <path d="M 178.56 133.056 
L 163.970722 116.241484 
L 159.848851 118.685468 
L 178.56 133.056 
L 152.288004 128.853558 
L 151.692574 132.753565 
L 178.56 133.056 
L 155.995065 143.927365 
L 159.274871 146.998824 
L 178.56 133.056 
L 172.920359 152.632874 
L 178.154135 153.076566 
L 178.56 133.056 
L 193.149278 149.870516 
L 197.271149 147.426532 
L 178.56 133.056 
L 204.831996 137.258442 
L 205.427426 133.358435 
L 178.56 133.056 
L 201.124935 122.184635 
L 197.845129 119.113176 
L 178.56 133.056 
L 184.199641 113.479126 
z
" clip-path="url(#p31529f292d)" style="fill: #fde725; fill-opacity: 0.5; stroke: #000000; stroke-linejoin: miter"/>
   </g>
   <g id="patch_8">
    <path d="M 178.56 133.056 
L 159.301457 131.568686 
L 159.282111 134.396951 
L 178.56 133.056 
L 163.530795 142.151802 
L 166.200945 144.161881 
L 178.56 133.056 
L 176.564038 147.406721 
L 180.359545 147.421136 
L 178.56 133.056 
L 190.766488 144.255182 
L 193.463996 142.26549 
L 178.56 133.056 
L 197.818543 134.543314 
L 197.837889 131.715049 
L 178.56 133.056 
L 193.589205 123.960198 
L 190.919055 121.950119 
L 178.56 133.056 
L 180.555962 118.705279 
L 176.760455 118.690864 
L 178.56 133.056 
L 166.353512 121.856818 
z
" clip-path="url(#p31529f292d)" style="fill: #fde725; fill-opacity: 0.5; stroke: #000000; stroke-linejoin: miter"/>
   </g>
   <g id="patch_9">
    <path d="M 178.56 133.056 
L 184.935681 113.286157 
L 179.637241 112.739172 
L 178.56 133.056 
L 164.308067 115.717209 
L 160.042453 118.122226 
L 178.56 133.056 
L 152.029041 128.305089 
L 151.294993 132.253282 
L 178.56 133.056 
L 155.291492 143.675989 
L 158.519004 146.854559 
L 178.56 133.056 
L 172.184319 152.825843 
L 177.482759 153.372828 
L 178.56 133.056 
L 192.811933 150.394791 
L 197.077547 147.989774 
L 178.56 133.056 
L 205.090959 137.806911 
L 205.825007 133.858718 
L 178.56 133.056 
L 201.828508 122.436011 
z
" clip-path="url(#p31529f292d)" style="fill: #fde725; fill-opacity: 0.5; stroke: #000000; stroke-linejoin: miter"/>
   </g>
  </g>
 </g>
 <defs>
  <clipPath id="p31529f292d">
   <rect x="0" y="-0" width="357.12" height="266.112"/>
  </clipPath>
 </defs>
</svg>
