<?xml version="1.0" encoding="utf-8" standalone="no"?>
<!DOCTYPE svg PUBLIC "-//W3C//DTD SVG 1.1//EN"
  "http://www.w3.org/Graphics/SVG/1.1/DTD/svg11.dtd">
<svg xmlns:xlink="http://www.w3.org/1999/xlink" width="357.12pt" height="266.112pt" viewBox="0 0 357.12 266.112" xmlns="http://www.w3.org/2000/svg" version="1.1">
 <metadata>
  <rdf:RDF xmlns:dc="http://purl.org/dc/elements/1.1/" xmlns:cc="http://creativecommons.org/ns#" xmlns:rdf="http://www.w3.org/1999/02/22-rdf-syntax-ns#">
   <cc:Work>
    <dc:type rdf:resource="http://purl.org/dc/dcmitype/StillImage"/>
    <dc:date>2023-12-24T20:07:10.217968</dc:date>
    <dc:format>image/svg+xml</dc:format>
    <dc:creator>
     <cc:Agent>
      <dc:title>Matplotlib v3.7.2, https://matplotlib.org/</dc:title>
     </cc:Agent>
    </dc:creator>
   </cc:Work>
  </rdf:RDF>
 </metadata>
 <defs>
  <style type="text/css">*{stroke-linejoin: round; stroke-linecap: butt}</style>
 </defs>
 <g id="figure_1">
  <g id="patch_1">
   <path d="M 0 266.112 
L 357.12 266.112 
L 357.12 0 
L 0 0 
L 0 266.112 
z
" style="fill: none"/>
  </g>
  <g id="axes_1">
   <g id="patch_2">
    <path d="M 178.56 133.056 
L 172.026567 101.09607 
L 163.784691 102.659961 
L 178.56 133.056 
L 143.612391 113.899439 
L 139.26853 119.347992 
L 178.56 133.056 
L 135.670051 137.924462 
L 137.768779 144.065988 
L 178.56 133.056 
L 152.852061 159.097605 
L 160.163972 162.334483 
L 178.56 133.056 
L 185.093433 165.01593 
L 193.335309 163.452039 
L 178.56 133.056 
L 213.507609 152.212561 
L 217.85147 146.764008 
L 178.56 133.056 
L 221.449949 128.187538 
L 219.351221 122.046012 
L 178.56 133.056 
L 204.267939 107.014395 
z
" clip-path="url(#pf44acfe587)" style="fill: #f6e620; fill-opacity: 0.5; stroke: #000000; stroke-linejoin: miter"/>
   </g>
   <g id="patch_3">
    <path d="M 178.56 133.056 
L 152.353196 132.541588 
L 152.722074 136.361254 
L 178.56 133.056 
L 159.54085 146.500847 
L 163.426286 149.007393 
L 178.56 133.056 
L 177.869664 152.584296 
L 182.995622 152.309422 
L 178.56 133.056 
L 196.602868 147.228335 
L 199.966631 144.333058 
L 178.56 133.056 
L 204.766804 133.570412 
L 204.397926 129.750746 
L 178.56 133.056 
L 197.57915 119.611153 
L 193.693714 117.104607 
L 178.56 133.056 
L 179.250336 113.527704 
L 174.124378 113.802578 
L 178.56 133.056 
L 160.517132 118.883665 
z
" clip-path="url(#pf44acfe587)" style="fill: #f6e620; fill-opacity: 0.5; stroke: #000000; stroke-linejoin: miter"/>
   </g>
   <g id="patch_4">
    <path d="M 178.56 133.056 
L 177.297806 152.207876 
L 182.336202 152.023368 
L 178.56 133.056 
L 195.841306 147.263482 
L 199.228905 144.478241 
L 178.56 133.056 
L 204.261652 133.996538 
L 204.014043 130.24212 
L 178.56 133.056 
L 197.626318 120.17864 
L 193.888548 117.654332 
L 178.56 133.056 
L 179.822194 113.904124 
L 174.783798 114.088632 
L 178.56 133.056 
L 161.278694 118.848518 
L 157.891095 121.633759 
L 178.56 133.056 
L 152.858348 132.115462 
L 153.105957 135.86988 
L 178.56 133.056 
L 159.493682 145.93336 
z
" clip-path="url(#pf44acfe587)" style="fill: #f6e620; fill-opacity: 0.5; stroke: #000000; stroke-linejoin: miter"/>
   </g>
   <g id="patch_5">
    <path d="M 178.56 133.056 
L 202.182597 149.799042 
L 206.112184 146.043224 
L 178.56 133.056 
L 211.151694 132.448169 
L 210.366317 127.721871 
L 178.56 133.056 
L 201.029018 115.453355 
L 195.988742 112.525179 
L 178.56 133.056 
L 177.744296 108.769931 
L 171.401646 109.355163 
L 178.56 133.056 
L 154.937403 116.312958 
L 151.007816 120.068776 
L 178.56 133.056 
L 145.968306 133.663831 
L 146.753683 138.390129 
L 178.56 133.056 
L 156.090982 150.658645 
L 161.131258 153.586821 
L 178.56 133.056 
L 179.375704 157.342069 
z
" clip-path="url(#pf44acfe587)" style="fill: #f6e620; fill-opacity: 0.5; stroke: #000000; stroke-linejoin: miter"/>
   </g>
   <g id="patch_6">
    <path d="M 178.56 133.056 
L 170.458777 120.541193 
L 167.337944 121.959367 
L 178.56 133.056 
L 160.95588 128.4753 
L 160.094867 131.122494 
L 178.56 133.056 
L 161.765238 139.092718 
L 163.668415 141.418242 
L 178.56 133.056 
L 172.41274 146.173909 
L 175.965251 146.815502 
L 178.56 133.056 
L 186.661223 145.570807 
L 189.782056 144.152633 
L 178.56 133.056 
L 196.16412 137.6367 
L 197.025133 134.989506 
L 178.56 133.056 
L 195.354762 127.019282 
L 193.451585 124.693758 
L 178.56 133.056 
L 184.70726 119.938091 
z
" clip-path="url(#pf44acfe587)" style="fill: #f6e620; fill-opacity: 0.5; stroke: #000000; stroke-linejoin: miter"/>
   </g>
   <g id="patch_7">
    <path d="M 178.56 133.056 
L 208.386294 135.850921 
L 208.544927 131.461257 
L 178.56 133.056 
L 202.302563 119.316577 
L 198.249244 116.12903 
L 178.56 133.056 
L 182.31076 110.8306 
L 176.419869 110.712393 
L 178.56 133.056 
L 160.121813 115.363961 
L 155.844153 118.384338 
L 178.56 133.056 
L 148.733706 130.261079 
L 148.575073 134.650743 
L 178.56 133.056 
L 154.817437 146.795423 
L 158.870756 149.98297 
L 178.56 133.056 
L 174.80924 155.2814 
L 180.700131 155.399607 
L 178.56 133.056 
L 196.998187 150.748039 
z
" clip-path="url(#pf44acfe587)" style="fill: #f6e620; fill-opacity: 0.5; stroke: #000000; stroke-linejoin: miter"/>
   </g>
   <g id="patch_8">
    <path d="M 178.56 133.056 
L 194.151581 150.75526 
L 198.485828 148.148567 
L 178.56 133.056 
L 206.380293 137.355929 
L 206.971496 133.228966 
L 178.56 133.056 
L 202.312254 121.437757 
L 198.814095 118.208044 
L 178.56 133.056 
L 184.330467 112.325395 
L 178.792119 111.884853 
L 178.56 133.056 
L 162.968419 115.35674 
L 158.634172 117.963433 
L 178.56 133.056 
L 150.739707 128.756071 
L 150.148504 132.883034 
L 178.56 133.056 
L 154.807746 144.674243 
L 158.305905 147.903956 
L 178.56 133.056 
L 172.789533 153.786605 
z
" clip-path="url(#pf44acfe587)" style="fill: #f6e620; fill-opacity: 0.5; stroke: #000000; stroke-linejoin: miter"/>
   </g>
   <g id="patch_9">
    <path d="M 178.56 133.056 
L 163.404347 155.970012 
L 169.694666 157.73296 
L 178.56 133.056 
L 189.587156 157.244297 
L 195.707999 155.176467 
L 178.56 133.056 
L 209.310406 144.349406 
L 211.676267 139.662104 
L 178.56 133.056 
L 211.020485 124.83899 
L 208.245475 120.277975 
L 178.56 133.056 
L 193.715653 110.141988 
L 187.425334 108.37904 
L 178.56 133.056 
L 167.532844 108.867703 
L 161.412001 110.935533 
L 178.56 133.056 
L 147.809594 121.762594 
L 145.443733 126.449896 
L 178.56 133.056 
L 146.099515 141.27301 
z
" clip-path="url(#pf44acfe587)" style="fill: #f6e620; fill-opacity: 0.5; stroke: #000000; stroke-linejoin: miter"/>
   </g>
  </g>
 </g>
 <defs>
  <clipPath id="pf44acfe587">
   <rect x="0" y="-0" width="357.12" height="266.112"/>
  </clipPath>
 </defs>
</svg>
