<?xml version="1.0" encoding="utf-8" standalone="no"?>
<!DOCTYPE svg PUBLIC "-//W3C//DTD SVG 1.1//EN"
  "http://www.w3.org/Graphics/SVG/1.1/DTD/svg11.dtd">
<svg xmlns:xlink="http://www.w3.org/1999/xlink" width="357.12pt" height="266.112pt" viewBox="0 0 357.12 266.112" xmlns="http://www.w3.org/2000/svg" version="1.1">
 <metadata>
  <rdf:RDF xmlns:dc="http://purl.org/dc/elements/1.1/" xmlns:cc="http://creativecommons.org/ns#" xmlns:rdf="http://www.w3.org/1999/02/22-rdf-syntax-ns#">
   <cc:Work>
    <dc:type rdf:resource="http://purl.org/dc/dcmitype/StillImage"/>
    <dc:date>2023-12-24T20:07:10.110212</dc:date>
    <dc:format>image/svg+xml</dc:format>
    <dc:creator>
     <cc:Agent>
      <dc:title>Matplotlib v3.7.2, https://matplotlib.org/</dc:title>
     </cc:Agent>
    </dc:creator>
   </cc:Work>
  </rdf:RDF>
 </metadata>
 <defs>
  <style type="text/css">*{stroke-linejoin: round; stroke-linecap: butt}</style>
 </defs>
 <g id="figure_1">
  <g id="patch_1">
   <path d="M 0 266.112 
L 357.12 266.112 
L 357.12 0 
L 0 0 
L 0 266.112 
z
" style="fill: none"/>
  </g>
  <g id="axes_1">
   <g id="patch_2">
    <path d="M 178.56 133.056 
L 203.882801 137.844216 
L 204.649831 134.070941 
L 178.56 133.056 
L 201.009612 123.098978 
L 197.971406 120.026715 
L 178.56 133.056 
L 184.985745 114.186429 
L 179.922042 113.614868 
L 178.56 133.056 
L 165.197763 116.327418 
L 161.074813 118.591372 
L 178.56 133.056 
L 153.237199 128.267784 
L 152.470169 132.041059 
L 178.56 133.056 
L 156.110388 143.013022 
L 159.148594 146.085285 
L 178.56 133.056 
L 172.134255 151.925571 
L 177.197958 152.497132 
L 178.56 133.056 
L 191.922237 149.784582 
z
" clip-path="url(#pbbce358f55)" style="fill: #27ad81; fill-opacity: 0.5; stroke: #000000; stroke-linejoin: miter"/>
   </g>
   <g id="patch_3">
    <path d="M 178.56 133.056 
L 134.357299 150.284883 
L 139.717327 156.379748 
L 178.56 133.056 
L 163.652995 168.529444 
L 173.226714 170.014919 
L 178.56 133.056 
L 201.681012 165.994142 
L 209.860268 162.000056 
L 178.56 133.056 
L 226.165054 144.164123 
L 228.158549 137.030158 
L 178.56 133.056 
L 222.762701 115.827117 
L 217.402673 109.732252 
L 178.56 133.056 
L 193.467005 97.582556 
L 183.893286 96.097081 
L 178.56 133.056 
L 155.438988 100.117858 
L 147.259732 104.111944 
L 178.56 133.056 
L 130.954946 121.947877 
z
" clip-path="url(#pbbce358f55)" style="fill: #27ad81; fill-opacity: 0.5; stroke: #000000; stroke-linejoin: miter"/>
   </g>
   <g id="patch_4">
    <path d="M 178.56 133.056 
L 222.478709 108.231224 
L 215.135461 102.323598 
L 178.56 133.056 
L 186.058213 92.361087 
L 175.259821 92.052985 
L 178.56 133.056 
L 145.245366 100.329478 
L 137.317382 105.801382 
L 178.56 133.056 
L 123.947779 127.468622 
L 123.534309 135.515165 
L 178.56 133.056 
L 134.641291 157.880776 
L 141.984539 163.788402 
L 178.56 133.056 
L 171.061787 173.750913 
L 181.860179 174.059015 
L 178.56 133.056 
L 211.874634 165.782522 
L 219.802618 160.310618 
L 178.56 133.056 
L 233.172221 138.643378 
z
" clip-path="url(#pbbce358f55)" style="fill: #27ad81; fill-opacity: 0.5; stroke: #000000; stroke-linejoin: miter"/>
   </g>
   <g id="patch_5">
    <path d="M 178.56 133.056 
L 216.230194 113.557284 
L 210.401422 108.455689 
L 178.56 133.056 
L 186.69391 99.419577 
L 177.731284 98.883434 
L 178.56 133.056 
L 152.392892 104.98563 
L 145.546596 109.329005 
L 178.56 133.056 
L 133.420211 126.994925 
L 132.700712 133.673527 
L 178.56 133.056 
L 140.889806 152.554716 
L 146.718578 157.656311 
L 178.56 133.056 
L 170.42609 166.692423 
L 179.388716 167.228566 
L 178.56 133.056 
L 204.727108 161.12637 
L 211.573404 156.782995 
L 178.56 133.056 
L 223.699789 139.117075 
z
" clip-path="url(#pbbce358f55)" style="fill: #27ad81; fill-opacity: 0.5; stroke: #000000; stroke-linejoin: miter"/>
   </g>
   <g id="patch_6">
    <path d="M 178.56 133.056 
L 143.920563 128.572244 
L 143.41226 133.694063 
L 178.56 133.056 
L 149.811443 148.137323 
L 154.312272 152.026825 
L 178.56 133.056 
L 172.542838 158.867968 
L 179.416275 159.246736 
L 178.56 133.056 
L 198.799005 154.478312 
L 204.018683 151.124468 
L 178.56 133.056 
L 213.199437 137.539756 
L 213.70774 132.417937 
L 178.56 133.056 
L 207.308557 117.974677 
L 202.807728 114.085175 
L 178.56 133.056 
L 184.577162 107.244032 
L 177.703725 106.865264 
L 178.56 133.056 
L 158.320995 111.633688 
z
" clip-path="url(#pbbce358f55)" style="fill: #27ad81; fill-opacity: 0.5; stroke: #000000; stroke-linejoin: miter"/>
   </g>
   <g id="patch_7">
    <path d="M 178.56 133.056 
L 132.654644 121.324919 
L 130.465394 128.223762 
L 178.56 133.056 
L 134.968023 148.9488 
L 139.966516 154.980554 
L 178.56 133.056 
L 162.81699 167.262894 
L 172.075179 168.894239 
L 178.56 133.056 
L 199.888 165.539054 
L 207.982561 161.81437 
L 178.56 133.056 
L 224.465356 144.787081 
L 226.654606 137.888238 
L 178.56 133.056 
L 222.151977 117.1632 
L 217.153484 111.131446 
L 178.56 133.056 
L 194.30301 98.849106 
L 185.044821 97.217761 
L 178.56 133.056 
L 157.232 100.572946 
z
" clip-path="url(#pbbce358f55)" style="fill: #27ad81; fill-opacity: 0.5; stroke: #000000; stroke-linejoin: miter"/>
   </g>
   <g id="patch_8">
    <path d="M 178.56 133.056 
L 194.422218 104.463603 
L 186.631668 102.707048 
L 178.56 133.056 
L 162.644065 104.480183 
L 155.468464 107.343019 
L 178.56 133.056 
L 140.189251 121.236089 
L 137.831969 127.041305 
L 178.56 133.056 
L 140.211501 144.915939 
L 144.053401 150.262919 
L 178.56 133.056 
L 162.697782 161.648397 
L 170.488332 163.404952 
L 178.56 133.056 
L 194.475935 161.631817 
L 201.651536 158.768981 
L 178.56 133.056 
L 216.930749 144.875911 
L 219.288031 139.070695 
L 178.56 133.056 
L 216.908499 121.196061 
z
" clip-path="url(#pbbce358f55)" style="fill: #27ad81; fill-opacity: 0.5; stroke: #000000; stroke-linejoin: miter"/>
   </g>
   <g id="patch_9">
    <path d="M 178.56 133.056 
L 156.346474 158.392449 
L 163.406625 161.13488 
L 178.56 133.056 
L 186.895212 162.676073 
L 194.48987 160.89521 
L 178.56 133.056 
L 212.561296 149.60866 
L 216.241614 144.347709 
L 178.56 133.056 
L 218.309881 126.844923 
L 215.919979 121.185677 
L 178.56 133.056 
L 200.773526 107.719551 
L 193.713375 104.97712 
L 178.56 133.056 
L 170.224788 103.435927 
L 162.63013 105.21679 
L 178.56 133.056 
L 144.558704 116.50334 
L 140.878386 121.764291 
L 178.56 133.056 
L 138.810119 139.267077 
z
" clip-path="url(#pbbce358f55)" style="fill: #27ad81; fill-opacity: 0.5; stroke: #000000; stroke-linejoin: miter"/>
   </g>
  </g>
 </g>
 <defs>
  <clipPath id="pbbce358f55">
   <rect x="0" y="-0" width="357.12" height="266.112"/>
  </clipPath>
 </defs>
</svg>
