<?xml version="1.0" encoding="utf-8" standalone="no"?>
<!DOCTYPE svg PUBLIC "-//W3C//DTD SVG 1.1//EN"
  "http://www.w3.org/Graphics/SVG/1.1/DTD/svg11.dtd">
<svg xmlns:xlink="http://www.w3.org/1999/xlink" width="357.12pt" height="266.112pt" viewBox="0 0 357.12 266.112" xmlns="http://www.w3.org/2000/svg" version="1.1">
 <metadata>
  <rdf:RDF xmlns:dc="http://purl.org/dc/elements/1.1/" xmlns:cc="http://creativecommons.org/ns#" xmlns:rdf="http://www.w3.org/1999/02/22-rdf-syntax-ns#">
   <cc:Work>
    <dc:type rdf:resource="http://purl.org/dc/dcmitype/StillImage"/>
    <dc:date>2023-12-24T20:07:10.318782</dc:date>
    <dc:format>image/svg+xml</dc:format>
    <dc:creator>
     <cc:Agent>
      <dc:title>Matplotlib v3.7.2, https://matplotlib.org/</dc:title>
     </cc:Agent>
    </dc:creator>
   </cc:Work>
  </rdf:RDF>
 </metadata>
 <defs>
  <style type="text/css">*{stroke-linejoin: round; stroke-linecap: butt}</style>
 </defs>
 <g id="figure_1">
  <g id="patch_1">
   <path d="M 0 266.112 
L 357.12 266.112 
L 357.12 0 
L 0 0 
L 0 266.112 
z
" style="fill: none"/>
  </g>
  <g id="axes_1">
   <g id="patch_2">
    <path d="M 178.56 133.056 
L 171.681597 155.445939 
L 177.675663 156.015662 
L 178.56 133.056 
L 194.942746 152.512368 
L 199.721818 149.756898 
L 178.56 133.056 
L 208.607105 138.18152 
L 209.371668 133.714974 
L 178.56 133.056 
L 204.670277 120.848212 
L 200.97246 117.287032 
L 178.56 133.056 
L 185.438403 110.666061 
L 179.444337 110.096338 
L 178.56 133.056 
L 162.177254 113.599632 
L 157.398182 116.355102 
L 178.56 133.056 
L 148.512895 127.93048 
L 147.748332 132.397026 
L 178.56 133.056 
L 152.449723 145.263788 
z
" clip-path="url(#p1c56ea7056)" style="fill: #21a585; fill-opacity: 0.5; stroke: #000000; stroke-linejoin: miter"/>
   </g>
   <g id="patch_3">
    <path d="M 178.56 133.056 
L 152.672562 144.020366 
L 156.040557 147.573043 
L 178.56 133.056 
L 170.659246 154.449291 
L 176.412024 155.186787 
L 178.56 133.056 
L 193.274084 152.346317 
L 198.041746 149.836617 
L 178.56 133.056 
L 207.269612 138.943336 
L 208.259325 134.656589 
L 178.56 133.056 
L 204.447438 122.091634 
L 201.079443 118.538957 
L 178.56 133.056 
L 186.460754 111.662709 
L 180.707976 110.925213 
L 178.56 133.056 
L 163.845916 113.765683 
L 159.078254 116.275383 
L 178.56 133.056 
L 149.850388 127.168664 
z
" clip-path="url(#p1c56ea7056)" style="fill: #21a585; fill-opacity: 0.5; stroke: #000000; stroke-linejoin: miter"/>
   </g>
   <g id="patch_4">
    <path d="M 178.56 133.056 
L 151.876356 127.397826 
L 150.907711 131.385648 
L 178.56 133.056 
L 154.322596 143.114908 
L 157.421829 146.445112 
L 178.56 133.056 
L 170.966779 152.939619 
L 176.318402 153.661416 
L 178.56 133.056 
L 192.058968 151.116775 
L 196.528072 148.807347 
L 178.56 133.056 
L 205.243644 138.714174 
L 206.212289 134.726352 
L 178.56 133.056 
L 202.797404 122.997092 
L 199.698171 119.666888 
L 178.56 133.056 
L 186.153221 113.172381 
L 180.801598 112.450584 
L 178.56 133.056 
L 165.061032 114.995225 
z
" clip-path="url(#p1c56ea7056)" style="fill: #21a585; fill-opacity: 0.5; stroke: #000000; stroke-linejoin: miter"/>
   </g>
   <g id="patch_5">
    <path d="M 178.56 133.056 
L 207.378814 146.770956 
L 210.415774 142.317928 
L 178.56 133.056 
L 211.952528 127.569058 
L 209.874366 122.820091 
L 178.56 133.056 
L 196.965352 111.581336 
L 190.989427 109.31831 
L 178.56 133.056 
L 171.196571 108.173181 
L 164.823498 109.721747 
L 178.56 133.056 
L 149.741186 119.341044 
L 146.704226 123.794072 
L 178.56 133.056 
L 145.167472 138.542942 
L 147.245634 143.291909 
L 178.56 133.056 
L 160.154648 154.530664 
L 166.130573 156.79369 
L 178.56 133.056 
L 185.923429 157.938819 
z
" clip-path="url(#p1c56ea7056)" style="fill: #21a585; fill-opacity: 0.5; stroke: #000000; stroke-linejoin: miter"/>
   </g>
   <g id="patch_6">
    <path d="M 178.56 133.056 
L 156.756677 117.873032 
L 153.200576 121.3344 
L 178.56 133.056 
L 148.735131 133.808379 
L 149.505187 138.129676 
L 178.56 133.056 
L 158.184588 149.302993 
L 162.829714 151.952861 
L 178.56 133.056 
L 179.569686 155.280338 
L 185.368829 154.706522 
L 178.56 133.056 
L 200.363323 148.238968 
L 203.919424 144.7776 
L 178.56 133.056 
L 208.384869 132.303621 
L 207.614813 127.982324 
L 178.56 133.056 
L 198.935412 116.809007 
L 194.290286 114.159139 
L 178.56 133.056 
L 177.550314 110.831662 
z
" clip-path="url(#p1c56ea7056)" style="fill: #21a585; fill-opacity: 0.5; stroke: #000000; stroke-linejoin: miter"/>
   </g>
   <g id="patch_7">
    <path d="M 178.56 133.056 
L 187.484533 118.179538 
L 183.418251 117.167993 
L 178.56 133.056 
L 170.753859 117.83434 
L 166.918677 119.261628 
L 178.56 133.056 
L 158.595917 126.405784 
L 157.238432 129.43582 
L 178.56 133.056 
L 158.132664 138.872834 
L 160.048072 141.730664 
L 178.56 133.056 
L 169.635467 147.932462 
L 173.701749 148.944007 
L 178.56 133.056 
L 186.366141 148.27766 
L 190.201323 146.850372 
L 178.56 133.056 
L 198.524083 139.706216 
L 199.881568 136.67618 
L 178.56 133.056 
L 198.987336 127.239166 
z
" clip-path="url(#p1c56ea7056)" style="fill: #21a585; fill-opacity: 0.5; stroke: #000000; stroke-linejoin: miter"/>
   </g>
   <g id="patch_8">
    <path d="M 178.56 133.056 
L 181.86592 108.468784 
L 175.36523 108.460626 
L 178.56 133.056 
L 157.566062 113.928295 
L 152.96164 117.347796 
L 178.56 133.056 
L 145.564169 130.592557 
L 145.553222 135.436619 
L 178.56 133.056 
L 152.890786 148.69987 
L 157.479727 152.130907 
L 178.56 133.056 
L 175.25408 157.643216 
L 181.75477 157.651374 
L 178.56 133.056 
L 199.553938 152.183705 
L 204.15836 148.764204 
L 178.56 133.056 
L 211.555831 135.519443 
L 211.566778 130.675381 
L 178.56 133.056 
L 204.229214 117.41213 
z
" clip-path="url(#p1c56ea7056)" style="fill: #21a585; fill-opacity: 0.5; stroke: #000000; stroke-linejoin: miter"/>
   </g>
   <g id="patch_9">
    <path d="M 178.56 133.056 
L 197.579669 142.982393 
L 199.813036 140.0267 
L 178.56 133.056 
L 201.428401 130.053393 
L 200.20288 126.786622 
L 178.56 133.056 
L 191.881134 118.883279 
L 187.914619 117.21906 
L 178.56 133.056 
L 174.530527 116.015353 
L 170.146548 116.928563 
L 178.56 133.056 
L 159.540331 123.129607 
L 157.306964 126.0853 
L 178.56 133.056 
L 155.691599 136.058607 
L 156.91712 139.325378 
L 178.56 133.056 
L 165.238866 147.228721 
L 169.205381 148.89294 
L 178.56 133.056 
L 182.589473 150.096647 
z
" clip-path="url(#p1c56ea7056)" style="fill: #21a585; fill-opacity: 0.5; stroke: #000000; stroke-linejoin: miter"/>
   </g>
  </g>
 </g>
 <defs>
  <clipPath id="p1c56ea7056">
   <rect x="0" y="-0" width="357.12" height="266.112"/>
  </clipPath>
 </defs>
</svg>
