<?xml version="1.0" encoding="utf-8" standalone="no"?>
<!DOCTYPE svg PUBLIC "-//W3C//DTD SVG 1.1//EN"
  "http://www.w3.org/Graphics/SVG/1.1/DTD/svg11.dtd">
<svg xmlns:xlink="http://www.w3.org/1999/xlink" width="349.2pt" height="347.04pt" viewBox="0 0 349.2 347.04" xmlns="http://www.w3.org/2000/svg" version="1.1">
 <metadata>
  <rdf:RDF xmlns:dc="http://purl.org/dc/elements/1.1/" xmlns:cc="http://creativecommons.org/ns#" xmlns:rdf="http://www.w3.org/1999/02/22-rdf-syntax-ns#">
   <cc:Work>
    <dc:type rdf:resource="http://purl.org/dc/dcmitype/StillImage"/>
    <dc:date>2023-12-26T02:11:03.137573</dc:date>
    <dc:format>image/svg+xml</dc:format>
    <dc:creator>
     <cc:Agent>
      <dc:title>Matplotlib v3.7.2, https://matplotlib.org/</dc:title>
     </cc:Agent>
    </dc:creator>
   </cc:Work>
  </rdf:RDF>
 </metadata>
 <defs>
  <style type="text/css">*{stroke-linejoin: round; stroke-linecap: butt}</style>
 </defs>
 <g id="figure_1">
  <g id="patch_1">
   <path d="M 0 347.04 
L 349.2 347.04 
L 349.2 -0 
L 0 -0 
L 0 347.04 
z
" style="fill: none"/>
  </g>
  <g id="axes_1">
   <g id="patch_2">
    <path d="M 191.452672 173.52 
L 182.922594 172.210335 
L 190.627843 168.345836 
L 182.10792 169.719204 
L 188.234098 163.678156 
L 180.558319 167.600122 
L 184.505752 159.973864 
L 178.425476 166.060518 
L 179.807762 157.595562 
L 175.918169 165.2511 
L 174.6 156.776055 
L 173.281831 165.2511 
L 169.392238 157.595562 
L 170.774524 166.060518 
L 164.694248 159.973864 
L 168.641681 167.600122 
L 160.965902 163.678156 
L 167.09208 169.719204 
L 158.572157 168.345836 
L 166.277406 172.210335 
L 157.747328 173.52 
L 166.277406 174.829665 
L 158.572157 178.694164 
L 167.09208 177.320796 
L 160.965902 183.361844 
L 168.641681 179.439878 
L 164.694248 187.066136 
L 170.774524 180.979482 
L 169.392238 189.444438 
L 173.281831 181.7889 
L 174.6 190.263945 
L 175.918169 181.7889 
L 179.807762 189.444438 
L 178.425476 180.979482 
L 184.505752 187.066136 
L 180.558319 179.439878 
L 188.234098 183.361844 
L 182.10792 177.320796 
L 190.627843 178.694164 
L 182.922594 174.829665 
L 191.452672 173.52 
L 191.452672 173.52 
" clip-path="url(#p44fd194337)" style="fill: none; stroke: #00ffff; stroke-width: 0.9; stroke-linejoin: miter"/>
   </g>
   <g id="patch_3">
    <path d="M 213.347657 173.52 
L 193.601566 169.764738 
L 210.398167 158.787579 
L 190.70875 162.82592 
L 201.998731 146.298035 
L 185.363522 157.515178 
L 189.428086 137.952789 
L 178.379646 154.641025 
L 174.6 135.022328 
L 170.820354 154.641025 
L 159.771914 137.952789 
L 163.836478 157.515178 
L 147.201269 146.298035 
L 158.49125 162.82592 
L 138.801833 158.787579 
L 155.598434 169.764738 
L 135.852343 173.52 
L 155.598434 177.275262 
L 138.801833 188.252421 
L 158.49125 184.21408 
L 147.201269 200.741965 
L 163.836478 189.524822 
L 159.771914 209.087211 
L 170.820354 192.398975 
L 174.6 212.017672 
L 178.379646 192.398975 
L 189.428086 209.087211 
L 185.363522 189.524822 
L 201.998731 200.741965 
L 190.70875 184.21408 
L 210.398167 188.252421 
L 193.601566 177.275262 
L 213.347657 173.52 
L 213.347657 173.52 
" clip-path="url(#p44fd194337)" style="fill: none; stroke: #00ffff; stroke-width: 0.7; stroke-linejoin: miter"/>
   </g>
   <g id="patch_4">
    <path d="M 219.268019 173.52 
L 196.742939 170.623634 
L 217.745994 162.033653 
L 195.233934 165.028285 
L 213.28364 151.330081 
L 192.318761 160.011633 
L 206.185059 142.138715 
L 188.196084 155.915553 
L 196.93401 135.085932 
L 183.146856 153.019188 
L 186.160934 130.652368 
L 177.515173 151.519918 
L 174.6 129.140161 
L 171.684827 151.519918 
L 163.039066 130.652368 
L 166.053144 153.019188 
L 152.26599 135.085932 
L 161.003916 155.915553 
L 143.014941 142.138715 
L 156.881239 160.011633 
L 135.91636 151.330081 
L 153.966066 165.028285 
L 131.454006 162.033653 
L 152.457061 170.623634 
L 129.931981 173.52 
L 152.457061 176.416366 
L 131.454006 185.006347 
L 153.966066 182.011715 
L 135.91636 195.709919 
L 156.881239 187.028367 
L 143.014941 204.901285 
L 161.003916 191.124447 
L 152.26599 211.954068 
L 166.053144 194.020812 
L 163.039066 216.387632 
L 171.684827 195.520082 
L 174.6 217.899839 
L 177.515173 195.520082 
L 186.160934 216.387632 
L 183.146856 194.020812 
L 196.93401 211.954068 
L 188.196084 191.124447 
L 206.185059 204.901285 
L 192.318761 187.028367 
L 213.28364 195.709919 
L 195.233934 182.011715 
L 217.745994 185.006347 
L 196.742939 176.416366 
L 219.268019 173.52 
L 219.268019 173.52 
" clip-path="url(#p44fd194337)" style="fill: none; stroke: #00ffff; stroke-width: 0.5; stroke-linejoin: miter"/>
   </g>
   <g id="patch_5">
    <path d="M 238.013063 173.52 
L 206.035278 169.408167 
L 235.852315 157.213379 
L 203.893015 161.464717 
L 229.517323 142.018027 
L 199.754483 154.342814 
L 219.439807 128.969482 
L 193.901713 148.527804 
L 206.306531 118.956982 
L 186.733564 144.415972 
L 191.012508 112.662861 
L 178.738533 142.287531 
L 174.6 110.516054 
L 170.461467 142.287531 
L 158.187492 112.662861 
L 162.466436 144.415972 
L 142.893469 118.956982 
L 155.298287 148.527804 
L 129.760193 128.969482 
L 149.445517 154.342814 
L 119.682677 142.018027 
L 145.306985 161.464717 
L 113.347685 157.213379 
L 143.164722 169.408167 
L 111.186937 173.52 
L 143.164722 177.631833 
L 113.347685 189.826621 
L 145.306985 185.575283 
L 119.682677 205.021973 
L 149.445517 192.697186 
L 129.760193 218.070518 
L 155.298287 198.512196 
L 142.893469 228.083018 
L 162.466436 202.624028 
L 158.187492 234.377139 
L 170.461467 204.752469 
L 174.6 236.523946 
L 178.738533 204.752469 
L 191.012508 234.377139 
L 186.733564 202.624028 
L 206.306531 228.083018 
L 193.901713 198.512196 
L 219.439807 218.070518 
L 199.754483 192.697186 
L 229.517323 205.021973 
L 203.893015 185.575283 
L 235.852315 189.826621 
L 206.035278 177.631833 
L 238.013063 173.52 
L 238.013063 173.52 
" clip-path="url(#p44fd194337)" style="fill: none; stroke: #00ffff; stroke-width: 0.3; stroke-linejoin: miter"/>
   </g>
   <g id="patch_6">
    <path d="M 248.532434 173.52 
L 210.855921 166.354776 
L 242.904662 145.409816 
L 205.336286 153.115169 
L 226.878125 121.579153 
L 195.13733 142.982013 
L 202.892717 105.656013 
L 181.811751 137.497988 
L 174.6 100.06455 
L 167.388249 137.497988 
L 146.307283 105.656013 
L 154.06267 142.982013 
L 122.321875 121.579153 
L 143.863714 153.115169 
L 106.295338 145.409816 
L 138.344079 166.354776 
L 100.667566 173.52 
L 138.344079 180.685224 
L 106.295338 201.630184 
L 143.863714 193.924831 
L 122.321875 225.460847 
L 154.06267 204.057987 
L 146.307283 241.383987 
L 167.388249 209.542012 
L 174.6 246.97545 
L 181.811751 209.542012 
L 202.892717 241.383987 
L 195.13733 204.057987 
L 226.878125 225.460847 
L 205.336286 193.924831 
L 242.904662 201.630184 
L 210.855921 180.685224 
L 248.532434 173.52 
L 248.532434 173.52 
" clip-path="url(#p44fd194337)" style="fill: none; stroke: #00ffff; stroke-width: 0.3; stroke-linejoin: miter"/>
   </g>
   <g id="patch_7">
    <path d="M 283.152269 173.52 
L 227.02672 159.562933 
L 268.609023 119.594034 
L 212.979023 135.388584 
L 228.876135 80.117487 
L 188.647697 121.431517 
L 174.6 65.668068 
L 160.552303 121.431517 
L 120.323865 80.117487 
L 136.220977 135.388584 
L 80.590977 119.594034 
L 122.17328 159.562933 
L 66.047731 173.52 
L 122.17328 187.477067 
L 80.590977 227.445966 
L 136.220977 211.651416 
L 120.323865 266.922513 
L 160.552303 225.608483 
L 174.6 281.371932 
L 188.647697 225.608483 
L 228.876135 266.922513 
L 212.979023 211.651416 
L 268.609023 227.445966 
L 227.02672 187.477067 
L 283.152269 173.52 
L 283.152269 173.52 
" clip-path="url(#p44fd194337)" style="fill: none; stroke: #00ffff; stroke-width: 0.3; stroke-linejoin: miter"/>
   </g>
   <g id="patch_8">
    <path d="M 293.050741 173.52 
L 233.318689 165.839412 
L 289.01463 143.060481 
L 229.317108 151.001655 
L 277.181351 114.676729 
L 221.586646 137.698486 
L 258.357322 90.303048 
L 210.654121 126.836494 
L 233.82537 71.600464 
L 197.264568 119.155906 
L 205.257308 59.843529 
L 182.330462 115.180141 
L 174.6 55.833457 
L 166.869538 115.180141 
L 143.942692 59.843529 
L 151.935432 119.155906 
L 115.37463 71.600464 
L 138.545879 126.836494 
L 90.842678 90.303048 
L 127.613354 137.698486 
L 72.018649 114.676729 
L 119.882892 151.001655 
L 60.18537 143.060481 
L 115.881311 165.839412 
L 56.149259 173.52 
L 115.881311 181.200588 
L 60.18537 203.979519 
L 119.882892 196.038345 
L 72.018649 232.363271 
L 127.613354 209.341514 
L 90.842678 256.736952 
L 138.545879 220.203506 
L 115.37463 275.439536 
L 151.935432 227.884094 
L 143.942692 287.196471 
L 166.869538 231.859859 
L 174.6 291.206543 
L 182.330462 231.859859 
L 205.257308 287.196471 
L 197.264568 227.884094 
L 233.82537 275.439536 
L 210.654121 220.203506 
L 258.357322 256.736952 
L 221.586646 209.341514 
L 277.181351 232.363271 
L 229.317108 196.038345 
L 289.01463 203.979519 
L 233.318689 181.200588 
L 293.050741 173.52 
L 293.050741 173.52 
" clip-path="url(#p44fd194337)" style="fill: none; stroke: #00ffff; stroke-width: 0.3; stroke-linejoin: miter"/>
   </g>
   <g id="patch_9">
    <path d="M 306.042948 173.52 
L 239.058654 160.781097 
L 296.037449 123.543484 
L 229.245408 137.242672 
L 267.5442 81.17544 
L 211.112895 119.227143 
L 224.901038 52.866018 
L 187.421624 109.477208 
L 174.6 42.925071 
L 161.778376 109.477208 
L 124.298962 52.866018 
L 138.087105 119.227143 
L 81.6558 81.17544 
L 119.954592 137.242672 
L 53.162551 123.543484 
L 110.141346 160.781097 
L 43.157052 173.52 
L 110.141346 186.258903 
L 53.162551 223.496516 
L 119.954592 209.797328 
L 81.6558 265.86456 
L 138.087105 227.812857 
L 124.298962 294.173982 
L 161.778376 237.562792 
L 174.6 304.114929 
L 187.421624 237.562792 
L 224.901038 294.173982 
L 211.112895 227.812857 
L 267.5442 265.86456 
L 229.245408 209.797328 
L 296.037449 223.496516 
L 239.058654 186.258903 
L 306.042948 173.52 
L 306.042948 173.52 
" clip-path="url(#p44fd194337)" style="fill: none; stroke: #00ffff; stroke-width: 0.3; stroke-linejoin: miter"/>
   </g>
   <g id="patch_10">
    <path d="M 305.748752 173.52 
L 238.914383 160.809609 
L 295.765647 123.655342 
L 229.123101 137.323869 
L 267.336172 81.382126 
L 211.031171 119.348661 
L 224.788454 53.136066 
L 187.392926 109.620549 
L 174.6 43.217369 
L 161.807074 109.620549 
L 124.411546 53.136066 
L 138.168829 119.348661 
L 81.863828 81.382126 
L 120.076899 137.323869 
L 53.434353 123.655342 
L 110.285617 160.809609 
L 43.451248 173.52 
L 110.285617 186.230391 
L 53.434353 223.384658 
L 120.076899 209.716131 
L 81.863828 265.657874 
L 138.168829 227.691339 
L 124.411546 293.903934 
L 161.807074 237.419451 
L 174.6 303.822631 
L 187.392926 237.419451 
L 224.788454 293.903934 
L 211.031171 227.691339 
L 267.336172 265.657874 
L 229.123101 209.716131 
L 295.765647 223.384658 
L 238.914383 186.230391 
L 305.748752 173.52 
L 305.748752 173.52 
" clip-path="url(#p44fd194337)" style="fill: none; stroke: #00ffff; stroke-width: 0.3; stroke-linejoin: miter"/>
   </g>
   <g id="patch_11">
    <path d="M 350.2 172.988065 
L 263.030003 159.604424 
L 344.900544 118.542993 
L 254.373858 133.135427 
L 319.466295 68.947518 
L 237.908892 110.619552 
L 279.851524 29.588326 
L 215.246811 94.260812 
L 229.934001 4.31817 
L 188.605937 85.660513 
L 175.127161 -1 
M 174.072839 -1 
L 160.594063 85.660513 
L 119.265999 4.31817 
L 133.953189 94.260812 
L 69.348476 29.588326 
L 111.291108 110.619552 
L 29.733705 68.947518 
L 94.826142 133.135427 
L 4.299456 118.542993 
L 86.169997 159.604424 
L -1 172.988065 
M -1 174.051935 
L 86.169997 187.435576 
L 4.299456 228.497007 
L 94.826142 213.904573 
L 29.733705 278.092482 
L 111.291108 236.420448 
L 69.348476 317.451674 
L 133.953189 252.779188 
L 119.265999 342.72183 
L 160.594063 261.379487 
L 174.072839 348.04 
M 175.127161 348.04 
L 188.605937 261.379487 
L 229.934001 342.72183 
L 215.246811 252.779188 
L 279.851524 317.451674 
L 237.908892 236.420448 
L 319.466295 278.092482 
L 254.373858 213.904573 
L 344.900544 228.497007 
L 263.030003 187.435576 
L 350.2 174.051935 
" clip-path="url(#p44fd194337)" style="fill: none; stroke: #00ffff; stroke-width: 0.3; stroke-linejoin: miter"/>
   </g>
  </g>
 </g>
 <defs>
  <clipPath id="p44fd194337">
   <rect x="7.2" y="7.2" width="334.8" height="332.64"/>
  </clipPath>
 </defs>
</svg>
