<?xml version="1.0" encoding="utf-8" standalone="no"?>
<!DOCTYPE svg PUBLIC "-//W3C//DTD SVG 1.1//EN"
  "http://www.w3.org/Graphics/SVG/1.1/DTD/svg11.dtd">
<svg xmlns:xlink="http://www.w3.org/1999/xlink" width="349.2pt" height="347.04pt" viewBox="0 0 349.2 347.04" xmlns="http://www.w3.org/2000/svg" version="1.1">
 <metadata>
  <rdf:RDF xmlns:dc="http://purl.org/dc/elements/1.1/" xmlns:cc="http://creativecommons.org/ns#" xmlns:rdf="http://www.w3.org/1999/02/22-rdf-syntax-ns#">
   <cc:Work>
    <dc:type rdf:resource="http://purl.org/dc/dcmitype/StillImage"/>
    <dc:date>2023-12-26T02:11:03.047746</dc:date>
    <dc:format>image/svg+xml</dc:format>
    <dc:creator>
     <cc:Agent>
      <dc:title>Matplotlib v3.7.2, https://matplotlib.org/</dc:title>
     </cc:Agent>
    </dc:creator>
   </cc:Work>
  </rdf:RDF>
 </metadata>
 <defs>
  <style type="text/css">*{stroke-linejoin: round; stroke-linecap: butt}</style>
 </defs>
 <g id="figure_1">
  <g id="patch_1">
   <path d="M 0 347.04 
L 349.2 347.04 
L 349.2 -0 
L 0 -0 
L 0 347.04 
z
" style="fill: none"/>
  </g>
  <g id="axes_1">
   <g id="patch_2">
    <path d="M 191.34 173.52 
L 182.97 159.116265 
L 166.23 159.116265 
L 157.86 173.52 
L 166.23 187.923735 
L 182.97 187.923735 
L 191.34 173.52 
" clip-path="url(#pe57a38a2cf)" style="fill: none; stroke: #ffe000; stroke-linejoin: miter"/>
   </g>
   <g id="patch_3">
    <path d="M 208.08 173.52 
L 191.34 144.712531 
L 157.86 144.712531 
L 141.12 173.52 
L 157.86 202.327469 
L 191.34 202.327469 
L 208.08 173.52 
" clip-path="url(#pe57a38a2cf)" style="fill: none; stroke: #ffe000; stroke-width: 0.8; stroke-linejoin: miter"/>
   </g>
   <g id="patch_4">
    <path d="M 224.82 173.52 
L 199.71 130.308796 
L 149.49 130.308796 
L 124.38 173.52 
L 149.49 216.731204 
L 199.71 216.731204 
L 224.82 173.52 
" clip-path="url(#pe57a38a2cf)" style="fill: none; stroke: #ffe000; stroke-width: 0.6; stroke-linejoin: miter"/>
   </g>
   <g id="patch_5">
    <path d="M 241.56 173.52 
L 221.94787 126.4776 
L 174.6 106.992 
L 127.25213 126.4776 
L 107.64 173.52 
L 127.25213 220.5624 
L 174.6 240.048 
L 221.94787 220.5624 
L 241.56 173.52 
" clip-path="url(#pe57a38a2cf)" style="fill: none; stroke: #ffe000; stroke-width: 0.4; stroke-linejoin: miter"/>
   </g>
   <g id="patch_6">
    <path d="M 258.3 173.52 
L 216.45 101.501327 
L 132.75 101.501327 
L 90.9 173.52 
L 132.75 245.538673 
L 216.45 245.538673 
L 258.3 173.52 
" clip-path="url(#pe57a38a2cf)" style="fill: none; stroke: #ffe000; stroke-width: 0.3; stroke-linejoin: miter"/>
   </g>
   <g id="patch_7">
    <path d="M 275.04 173.52 
L 245.621805 102.9564 
L 174.6 73.728 
L 103.578195 102.9564 
L 74.16 173.52 
L 103.578195 244.0836 
L 174.6 273.312 
L 245.621805 244.0836 
L 275.04 173.52 
" clip-path="url(#pe57a38a2cf)" style="fill: none; stroke: #ffe000; stroke-width: 0.3; stroke-linejoin: miter"/>
   </g>
   <g id="patch_8">
    <path d="M 291.78 173.52 
L 257.458773 91.1958 
L 174.6 57.096 
L 91.741227 91.1958 
L 57.42 173.52 
L 91.741227 255.8442 
L 174.6 289.944 
L 257.458773 255.8442 
L 291.78 173.52 
" clip-path="url(#pe57a38a2cf)" style="fill: none; stroke: #ffe000; stroke-width: 0.3; stroke-linejoin: miter"/>
   </g>
   <g id="patch_9">
    <path d="M 308.52 173.52 
L 269.29574 79.4352 
L 174.6 40.464 
L 79.90426 79.4352 
L 40.68 173.52 
L 79.90426 267.6048 
L 174.6 306.576 
L 269.29574 267.6048 
L 308.52 173.52 
" clip-path="url(#pe57a38a2cf)" style="fill: none; stroke: #ffe000; stroke-width: 0.3; stroke-linejoin: miter"/>
   </g>
   <g id="patch_10">
    <path d="M 325.26 173.52 
L 281.132708 67.6746 
L 174.6 23.832 
L 68.067292 67.6746 
L 23.94 173.52 
L 68.067292 279.3654 
L 174.6 323.208 
L 281.132708 279.3654 
L 325.26 173.52 
" clip-path="url(#pe57a38a2cf)" style="fill: none; stroke: #ffe000; stroke-width: 0.3; stroke-linejoin: miter"/>
   </g>
   <g id="patch_11">
    <path d="M 342 173.52 
L 258.3 29.482655 
L 90.9 29.482655 
L 7.2 173.52 
L 90.9 317.557345 
L 258.3 317.557345 
L 342 173.52 
" clip-path="url(#pe57a38a2cf)" style="fill: none; stroke: #ffe000; stroke-width: 0.3; stroke-linejoin: miter"/>
   </g>
  </g>
 </g>
 <defs>
  <clipPath id="pe57a38a2cf">
   <rect x="7.2" y="7.2" width="334.8" height="332.64"/>
  </clipPath>
 </defs>
</svg>
