<?xml version="1.0" encoding="utf-8" standalone="no"?>
<!DOCTYPE svg PUBLIC "-//W3C//DTD SVG 1.1//EN"
  "http://www.w3.org/Graphics/SVG/1.1/DTD/svg11.dtd">
<svg xmlns:xlink="http://www.w3.org/1999/xlink" width="349.2pt" height="347.04pt" viewBox="0 0 349.2 347.04" xmlns="http://www.w3.org/2000/svg" version="1.1">
 <metadata>
  <rdf:RDF xmlns:dc="http://purl.org/dc/elements/1.1/" xmlns:cc="http://creativecommons.org/ns#" xmlns:rdf="http://www.w3.org/1999/02/22-rdf-syntax-ns#">
   <cc:Work>
    <dc:type rdf:resource="http://purl.org/dc/dcmitype/StillImage"/>
    <dc:date>2023-12-26T02:20:10.482239</dc:date>
    <dc:format>image/svg+xml</dc:format>
    <dc:creator>
     <cc:Agent>
      <dc:title>Matplotlib v3.7.2, https://matplotlib.org/</dc:title>
     </cc:Agent>
    </dc:creator>
   </cc:Work>
  </rdf:RDF>
 </metadata>
 <defs>
  <style type="text/css">*{stroke-linejoin: round; stroke-linecap: butt}</style>
 </defs>
 <g id="figure_1">
  <g id="patch_1">
   <path d="M 0 347.04 
L 349.2 347.04 
L 349.2 -0 
L 0 -0 
L 0 347.04 
z
" style="fill: none"/>
  </g>
  <g id="axes_1">
   <g id="patch_2">
    <path d="M 228.243954 173.52 
L 200.50804 166.622749 
L 221.057027 146.871068 
L 193.566002 154.676359 
L 201.421977 127.362696 
L 181.542039 147.779108 
L 174.6 120.222136 
L 167.657961 147.779108 
L 147.778023 127.362696 
L 155.633998 154.676359 
L 128.142973 146.871068 
L 148.69196 166.622749 
L 120.956046 173.52 
L 148.69196 180.417251 
L 128.142973 200.168932 
L 155.633998 192.363641 
L 147.778023 219.677304 
L 167.657961 199.260892 
L 174.6 226.817864 
L 181.542039 199.260892 
L 201.421977 219.677304 
L 193.566002 192.363641 
L 221.057027 200.168932 
L 200.50804 180.417251 
L 228.243954 173.52 
L 228.243954 173.52 
" clip-path="url(#p537ee51c43)" style="fill: none; stroke: #3600ff; stroke-width: 0.3; stroke-linejoin: miter"/>
   </g>
  </g>
 </g>
 <defs>
  <clipPath id="p537ee51c43">
   <rect x="7.2" y="7.2" width="334.8" height="332.64"/>
  </clipPath>
 </defs>
</svg>
