<?xml version="1.0" encoding="utf-8" standalone="no"?>
<!DOCTYPE svg PUBLIC "-//W3C//DTD SVG 1.1//EN"
  "http://www.w3.org/Graphics/SVG/1.1/DTD/svg11.dtd">
<svg xmlns:xlink="http://www.w3.org/1999/xlink" width="349.2pt" height="347.04pt" viewBox="0 0 349.2 347.04" xmlns="http://www.w3.org/2000/svg" version="1.1">
 <metadata>
  <rdf:RDF xmlns:dc="http://purl.org/dc/elements/1.1/" xmlns:cc="http://creativecommons.org/ns#" xmlns:rdf="http://www.w3.org/1999/02/22-rdf-syntax-ns#">
   <cc:Work>
    <dc:type rdf:resource="http://purl.org/dc/dcmitype/StillImage"/>
    <dc:date>2023-12-26T02:20:09.870562</dc:date>
    <dc:format>image/svg+xml</dc:format>
    <dc:creator>
     <cc:Agent>
      <dc:title>Matplotlib v3.7.2, https://matplotlib.org/</dc:title>
     </cc:Agent>
    </dc:creator>
   </cc:Work>
  </rdf:RDF>
 </metadata>
 <defs>
  <style type="text/css">*{stroke-linejoin: round; stroke-linecap: butt}</style>
 </defs>
 <g id="figure_1">
  <g id="patch_1">
   <path d="M 0 347.04 
L 349.2 347.04 
L 349.2 -0 
L 0 -0 
L 0 347.04 
z
" style="fill: none"/>
  </g>
  <g id="axes_1">
   <g id="patch_2">
    <path d="M 184.669155 173.52 
L 179.463029 172.225362 
L 183.320144 168.517903 
L 178.159984 169.982984 
L 179.634578 164.856115 
L 175.903045 168.688346 
L 174.6 163.515807 
L 173.296955 168.688346 
L 169.565422 164.856115 
L 171.040016 169.982984 
L 165.879856 168.517903 
L 169.736971 172.225362 
L 164.530845 173.52 
L 169.736971 174.814638 
L 165.879856 178.522097 
L 171.040016 177.057016 
L 169.565422 182.183885 
L 173.296955 178.351654 
L 174.6 183.524193 
L 175.903045 178.351654 
L 179.634578 182.183885 
L 178.159984 177.057016 
L 183.320144 178.522097 
L 179.463029 174.814638 
L 184.669155 173.52 
L 184.669155 173.52 
" clip-path="url(#pd442cdda84)" style="fill: none; stroke: #46ff00; stroke-width: 0.9; stroke-linejoin: miter"/>
   </g>
  </g>
 </g>
 <defs>
  <clipPath id="pd442cdda84">
   <rect x="7.2" y="7.2" width="334.8" height="332.64"/>
  </clipPath>
 </defs>
</svg>
