<?xml version="1.0" encoding="utf-8" standalone="no"?>
<!DOCTYPE svg PUBLIC "-//W3C//DTD SVG 1.1//EN"
  "http://www.w3.org/Graphics/SVG/1.1/DTD/svg11.dtd">
<svg xmlns:xlink="http://www.w3.org/1999/xlink" width="349.2pt" height="347.04pt" viewBox="0 0 349.2 347.04" xmlns="http://www.w3.org/2000/svg" version="1.1">
 <metadata>
  <rdf:RDF xmlns:dc="http://purl.org/dc/elements/1.1/" xmlns:cc="http://creativecommons.org/ns#" xmlns:rdf="http://www.w3.org/1999/02/22-rdf-syntax-ns#">
   <cc:Work>
    <dc:type rdf:resource="http://purl.org/dc/dcmitype/StillImage"/>
    <dc:date>2023-12-26T02:20:11.311842</dc:date>
    <dc:format>image/svg+xml</dc:format>
    <dc:creator>
     <cc:Agent>
      <dc:title>Matplotlib v3.7.2, https://matplotlib.org/</dc:title>
     </cc:Agent>
    </dc:creator>
   </cc:Work>
  </rdf:RDF>
 </metadata>
 <defs>
  <style type="text/css">*{stroke-linejoin: round; stroke-linecap: butt}</style>
 </defs>
 <g id="figure_1">
  <g id="patch_1">
   <path d="M 0 347.04 
L 349.2 347.04 
L 349.2 -0 
L 0 -0 
L 0 347.04 
z
" style="fill: none"/>
  </g>
  <g id="axes_1">
   <g id="patch_2">
    <path d="M 286.061346 173.52 
L 228.431696 159.1889 
L 271.128357 118.14888 
L 214.007537 134.366705 
L 230.330673 77.614406 
L 189.02416 120.035605 
L 174.6 62.777759 
L 160.17584 120.035605 
L 118.869327 77.614406 
L 135.192463 134.366705 
L 78.071643 118.14888 
L 120.768304 159.1889 
L 63.138654 173.52 
L 120.768304 187.8511 
L 78.071643 228.89112 
L 135.192463 212.673295 
L 118.869327 269.425594 
L 160.17584 227.004395 
L 174.6 284.262241 
L 189.02416 227.004395 
L 230.330673 269.425594 
L 214.007537 212.673295 
L 271.128357 228.89112 
L 228.431696 187.8511 
L 286.061346 173.52 
L 286.061346 173.52 
" clip-path="url(#p9cf6a05892)" style="fill: none; stroke: #3600ff; stroke-width: 0.3; stroke-linejoin: miter"/>
   </g>
  </g>
 </g>
 <defs>
  <clipPath id="p9cf6a05892">
   <rect x="7.2" y="7.2" width="334.8" height="332.64"/>
  </clipPath>
 </defs>
</svg>
