<?xml version="1.0" encoding="utf-8" standalone="no"?>
<!DOCTYPE svg PUBLIC "-//W3C//DTD SVG 1.1//EN"
  "http://www.w3.org/Graphics/SVG/1.1/DTD/svg11.dtd">
<svg xmlns:xlink="http://www.w3.org/1999/xlink" width="349.2pt" height="347.04pt" viewBox="0 0 349.2 347.04" xmlns="http://www.w3.org/2000/svg" version="1.1">
 <metadata>
  <rdf:RDF xmlns:dc="http://purl.org/dc/elements/1.1/" xmlns:cc="http://creativecommons.org/ns#" xmlns:rdf="http://www.w3.org/1999/02/22-rdf-syntax-ns#">
   <cc:Work>
    <dc:type rdf:resource="http://purl.org/dc/dcmitype/StillImage"/>
    <dc:date>2023-12-26T02:20:12.251688</dc:date>
    <dc:format>image/svg+xml</dc:format>
    <dc:creator>
     <cc:Agent>
      <dc:title>Matplotlib v3.7.2, https://matplotlib.org/</dc:title>
     </cc:Agent>
    </dc:creator>
   </cc:Work>
  </rdf:RDF>
 </metadata>
 <defs>
  <style type="text/css">*{stroke-linejoin: round; stroke-linecap: butt}</style>
 </defs>
 <g id="figure_1">
  <g id="patch_1">
   <path d="M 0 347.04 
L 349.2 347.04 
L 349.2 -0 
L 0 -0 
L 0 347.04 
z
" style="fill: none"/>
  </g>
  <g id="axes_1">
   <g id="patch_2">
    <path d="M 318.508055 173.52 
L 244.102254 155.017076 
L 299.228032 102.030192 
L 225.479181 122.969072 
L 246.554028 49.69602 
L 193.223073 104.466148 
L 174.6 30.540384 
L 155.976927 104.466148 
L 102.645972 49.69602 
L 123.720819 122.969072 
L 49.971968 102.030192 
L 105.097746 155.017076 
L 30.691945 173.52 
L 105.097746 192.022924 
L 49.971968 245.009808 
L 123.720819 224.070928 
L 102.645972 297.34398 
L 155.976927 242.573852 
L 174.6 316.499616 
L 193.223073 242.573852 
L 246.554028 297.34398 
L 225.479181 224.070928 
L 299.228032 245.009808 
L 244.102254 192.022924 
L 318.508055 173.52 
L 318.508055 173.52 
" clip-path="url(#p12a3e672e1)" style="fill: none; stroke: #3600ff; stroke-width: 0.3; stroke-linejoin: miter"/>
   </g>
  </g>
 </g>
 <defs>
  <clipPath id="p12a3e672e1">
   <rect x="7.2" y="7.2" width="334.8" height="332.64"/>
  </clipPath>
 </defs>
</svg>
