<?xml version="1.0" encoding="utf-8" standalone="no"?>
<!DOCTYPE svg PUBLIC "-//W3C//DTD SVG 1.1//EN"
  "http://www.w3.org/Graphics/SVG/1.1/DTD/svg11.dtd">
<svg xmlns:xlink="http://www.w3.org/1999/xlink" width="349.2pt" height="347.04pt" viewBox="0 0 349.2 347.04" xmlns="http://www.w3.org/2000/svg" version="1.1">
 <metadata>
  <rdf:RDF xmlns:dc="http://purl.org/dc/elements/1.1/" xmlns:cc="http://creativecommons.org/ns#" xmlns:rdf="http://www.w3.org/1999/02/22-rdf-syntax-ns#">
   <cc:Work>
    <dc:type rdf:resource="http://purl.org/dc/dcmitype/StillImage"/>
    <dc:date>2023-12-26T02:20:12.451926</dc:date>
    <dc:format>image/svg+xml</dc:format>
    <dc:creator>
     <cc:Agent>
      <dc:title>Matplotlib v3.7.2, https://matplotlib.org/</dc:title>
     </cc:Agent>
    </dc:creator>
   </cc:Work>
  </rdf:RDF>
 </metadata>
 <defs>
  <style type="text/css">*{stroke-linejoin: round; stroke-linecap: butt}</style>
 </defs>
 <g id="figure_1">
  <g id="patch_1">
   <path d="M 0 347.04 
L 349.2 347.04 
L 349.2 -0 
L 0 -0 
L 0 347.04 
z
" style="fill: none"/>
  </g>
  <g id="axes_1">
   <g id="patch_2">
    <path d="M 333.734171 173.52 
L 251.455903 153.059384 
L 312.414235 94.466251 
L 230.862426 117.620558 
L 254.167086 36.594889 
L 195.193477 97.159942 
L 174.6 15.412501 
L 154.006523 97.159942 
L 95.032914 36.594889 
L 118.337574 117.620558 
L 36.785765 94.466251 
L 97.744097 153.059384 
L 15.465829 173.52 
L 97.744097 193.980616 
L 36.785765 252.573749 
L 118.337574 229.419442 
L 95.032914 310.445111 
L 154.006523 249.880058 
L 174.6 331.627499 
L 195.193477 249.880058 
L 254.167086 310.445111 
L 230.862426 229.419442 
L 312.414235 252.573749 
L 251.455903 193.980616 
L 333.734171 173.52 
L 333.734171 173.52 
" clip-path="url(#p3a57ae48f4)" style="fill: none; stroke: #46ff00; stroke-width: 0.3; stroke-linejoin: miter"/>
   </g>
  </g>
 </g>
 <defs>
  <clipPath id="p3a57ae48f4">
   <rect x="7.2" y="7.2" width="334.8" height="332.64"/>
  </clipPath>
 </defs>
</svg>
