<?xml version="1.0" encoding="utf-8" standalone="no"?>
<!DOCTYPE svg PUBLIC "-//W3C//DTD SVG 1.1//EN"
  "http://www.w3.org/Graphics/SVG/1.1/DTD/svg11.dtd">
<svg xmlns:xlink="http://www.w3.org/1999/xlink" width="349.2pt" height="347.04pt" viewBox="0 0 349.2 347.04" xmlns="http://www.w3.org/2000/svg" version="1.1">
 <metadata>
  <rdf:RDF xmlns:dc="http://purl.org/dc/elements/1.1/" xmlns:cc="http://creativecommons.org/ns#" xmlns:rdf="http://www.w3.org/1999/02/22-rdf-syntax-ns#">
   <cc:Work>
    <dc:type rdf:resource="http://purl.org/dc/dcmitype/StillImage"/>
    <dc:date>2023-12-26T02:20:11.839139</dc:date>
    <dc:format>image/svg+xml</dc:format>
    <dc:creator>
     <cc:Agent>
      <dc:title>Matplotlib v3.7.2, https://matplotlib.org/</dc:title>
     </cc:Agent>
    </dc:creator>
   </cc:Work>
  </rdf:RDF>
 </metadata>
 <defs>
  <style type="text/css">*{stroke-linejoin: round; stroke-linecap: butt}</style>
 </defs>
 <g id="figure_1">
  <g id="patch_1">
   <path d="M 0 347.04 
L 349.2 347.04 
L 349.2 -0 
L 0 -0 
L 0 347.04 
z
" style="fill: none"/>
  </g>
  <g id="axes_1">
   <g id="patch_2">
    <path d="M 274.041277 173.52 
L 223.708495 165.792159 
L 269.174274 142.989208 
L 218.901413 151.092933 
L 255.049683 115.446982 
L 209.7578 138.589024 
L 233.050116 93.589348 
L 197.172697 129.504402 
L 205.329044 79.555883 
L 182.378021 124.728334 
L 174.6 74.72028 
L 166.821979 124.728334 
L 143.870956 79.555883 
L 152.027303 129.504402 
L 116.149884 93.589348 
L 139.4422 138.589024 
L 94.150317 115.446982 
L 130.298587 151.092933 
L 80.025726 142.989208 
L 125.491505 165.792159 
L 75.158723 173.52 
L 125.491505 181.247841 
L 80.025726 204.050792 
L 130.298587 195.947067 
L 94.150317 231.593018 
L 139.4422 208.450976 
L 116.149884 253.450652 
L 152.027303 217.535598 
L 143.870956 267.484117 
L 166.821979 222.311666 
L 174.6 272.31972 
L 182.378021 222.311666 
L 205.329044 267.484117 
L 197.172697 217.535598 
L 233.050116 253.450652 
L 209.7578 208.450976 
L 255.049683 231.593018 
L 218.901413 195.947067 
L 269.174274 204.050792 
L 223.708495 181.247841 
L 274.041277 173.52 
L 274.041277 173.52 
" clip-path="url(#p471eb359e3)" style="fill: none; stroke: #ff8a00; stroke-width: 0.3; stroke-linejoin: miter"/>
   </g>
  </g>
 </g>
 <defs>
  <clipPath id="p471eb359e3">
   <rect x="7.2" y="7.2" width="334.8" height="332.64"/>
  </clipPath>
 </defs>
</svg>
