<?xml version="1.0" encoding="utf-8" standalone="no"?>
<!DOCTYPE svg PUBLIC "-//W3C//DTD SVG 1.1//EN"
  "http://www.w3.org/Graphics/SVG/1.1/DTD/svg11.dtd">
<svg xmlns:xlink="http://www.w3.org/1999/xlink" width="349.2pt" height="347.04pt" viewBox="0 0 349.2 347.04" xmlns="http://www.w3.org/2000/svg" version="1.1">
 <metadata>
  <rdf:RDF xmlns:dc="http://purl.org/dc/elements/1.1/" xmlns:cc="http://creativecommons.org/ns#" xmlns:rdf="http://www.w3.org/1999/02/22-rdf-syntax-ns#">
   <cc:Work>
    <dc:type rdf:resource="http://purl.org/dc/dcmitype/StillImage"/>
    <dc:date>2023-12-26T02:20:11.462490</dc:date>
    <dc:format>image/svg+xml</dc:format>
    <dc:creator>
     <cc:Agent>
      <dc:title>Matplotlib v3.7.2, https://matplotlib.org/</dc:title>
     </cc:Agent>
    </dc:creator>
   </cc:Work>
  </rdf:RDF>
 </metadata>
 <defs>
  <style type="text/css">*{stroke-linejoin: round; stroke-linecap: butt}</style>
 </defs>
 <g id="figure_1">
  <g id="patch_1">
   <path d="M 0 347.04 
L 349.2 347.04 
L 349.2 -0 
L 0 -0 
L 0 347.04 
z
" style="fill: none"/>
  </g>
  <g id="axes_1">
   <g id="patch_2">
    <path d="M 290.145601 173.52 
L 231.262712 162.321801 
L 281.350216 129.587886 
L 222.636328 141.630228 
L 256.303078 92.344039 
L 206.696848 125.793584 
L 218.817387 67.458495 
L 185.870914 117.222854 
L 174.6 58.719855 
L 163.329086 117.222854 
L 130.382613 67.458495 
L 142.503152 125.793584 
L 92.896922 92.344039 
L 126.563672 141.630228 
L 67.849784 129.587886 
L 117.937288 162.321801 
L 59.054399 173.52 
L 117.937288 184.718199 
L 67.849784 217.452114 
L 126.563672 205.409772 
L 92.896922 254.695961 
L 142.503152 221.246416 
L 130.382613 279.581505 
L 163.329086 229.817146 
L 174.6 288.320145 
L 185.870914 229.817146 
L 218.817387 279.581505 
L 206.696848 221.246416 
L 256.303078 254.695961 
L 222.636328 205.409772 
L 281.350216 217.452114 
L 231.262712 184.718199 
L 290.145601 173.52 
L 290.145601 173.52 
" clip-path="url(#pb1f25e0af1)" style="fill: none; stroke: #46ff00; stroke-width: 0.3; stroke-linejoin: miter"/>
   </g>
  </g>
 </g>
 <defs>
  <clipPath id="pb1f25e0af1">
   <rect x="7.2" y="7.2" width="334.8" height="332.64"/>
  </clipPath>
 </defs>
</svg>
