<?xml version="1.0" encoding="utf-8" standalone="no"?>
<!DOCTYPE svg PUBLIC "-//W3C//DTD SVG 1.1//EN"
  "http://www.w3.org/Graphics/SVG/1.1/DTD/svg11.dtd">
<svg xmlns:xlink="http://www.w3.org/1999/xlink" width="349.2pt" height="347.04pt" viewBox="0 0 349.2 347.04" xmlns="http://www.w3.org/2000/svg" version="1.1">
 <metadata>
  <rdf:RDF xmlns:dc="http://purl.org/dc/elements/1.1/" xmlns:cc="http://creativecommons.org/ns#" xmlns:rdf="http://www.w3.org/1999/02/22-rdf-syntax-ns#">
   <cc:Work>
    <dc:type rdf:resource="http://purl.org/dc/dcmitype/StillImage"/>
    <dc:date>2023-12-26T02:20:10.800988</dc:date>
    <dc:format>image/svg+xml</dc:format>
    <dc:creator>
     <cc:Agent>
      <dc:title>Matplotlib v3.7.2, https://matplotlib.org/</dc:title>
     </cc:Agent>
    </dc:creator>
   </cc:Work>
  </rdf:RDF>
 </metadata>
 <defs>
  <style type="text/css">*{stroke-linejoin: round; stroke-linecap: butt}</style>
 </defs>
 <g id="figure_1">
  <g id="patch_1">
   <path d="M 0 347.04 
L 349.2 347.04 
L 349.2 -0 
L 0 -0 
L 0 347.04 
z
" style="fill: none"/>
  </g>
  <g id="axes_1">
   <g id="patch_2">
    <path d="M 242.857447 173.52 
L 208.07295 166.904772 
L 237.661658 147.567528 
L 202.976996 154.681426 
L 222.865304 125.566085 
L 193.560903 145.326081 
L 200.720994 110.865191 
L 181.258184 140.263005 
L 174.6 105.702924 
L 167.941816 140.263005 
L 148.479006 110.865191 
L 155.639097 145.326081 
L 126.334696 125.566085 
L 146.223004 154.681426 
L 111.538342 147.567528 
L 141.12705 166.904772 
L 106.342553 173.52 
L 141.12705 180.135228 
L 111.538342 199.472472 
L 146.223004 192.358574 
L 126.334696 221.473915 
L 155.639097 201.713919 
L 148.479006 236.174809 
L 167.941816 206.776995 
L 174.6 241.337076 
L 181.258184 206.776995 
L 200.720994 236.174809 
L 193.560903 201.713919 
L 222.865304 221.473915 
L 202.976996 192.358574 
L 237.661658 199.472472 
L 208.07295 180.135228 
L 242.857447 173.52 
L 242.857447 173.52 
" clip-path="url(#p38a51bcbf8)" style="fill: none; stroke: #13ff00; stroke-width: 0.3; stroke-linejoin: miter"/>
   </g>
  </g>
 </g>
 <defs>
  <clipPath id="p38a51bcbf8">
   <rect x="7.2" y="7.2" width="334.8" height="332.64"/>
  </clipPath>
 </defs>
</svg>
