<?xml version="1.0" encoding="utf-8" standalone="no"?>
<!DOCTYPE svg PUBLIC "-//W3C//DTD SVG 1.1//EN"
  "http://www.w3.org/Graphics/SVG/1.1/DTD/svg11.dtd">
<svg xmlns:xlink="http://www.w3.org/1999/xlink" width="349.2pt" height="347.04pt" viewBox="0 0 349.2 347.04" xmlns="http://www.w3.org/2000/svg" version="1.1">
 <metadata>
  <rdf:RDF xmlns:dc="http://purl.org/dc/elements/1.1/" xmlns:cc="http://creativecommons.org/ns#" xmlns:rdf="http://www.w3.org/1999/02/22-rdf-syntax-ns#">
   <cc:Work>
    <dc:type rdf:resource="http://purl.org/dc/dcmitype/StillImage"/>
    <dc:date>2023-12-26T02:20:10.169627</dc:date>
    <dc:format>image/svg+xml</dc:format>
    <dc:creator>
     <cc:Agent>
      <dc:title>Matplotlib v3.7.2, https://matplotlib.org/</dc:title>
     </cc:Agent>
    </dc:creator>
   </cc:Work>
  </rdf:RDF>
 </metadata>
 <defs>
  <style type="text/css">*{stroke-linejoin: round; stroke-linecap: butt}</style>
 </defs>
 <g id="figure_1">
  <g id="patch_1">
   <path d="M 0 347.04 
L 349.2 347.04 
L 349.2 -0 
L 0 -0 
L 0 347.04 
z
" style="fill: none"/>
  </g>
  <g id="axes_1">
   <g id="patch_2">
    <path d="M 199.798865 173.52 
L 187.044313 171.561731 
L 198.565545 165.78336 
L 185.826177 167.836881 
L 194.98631 158.804037 
L 183.509144 164.668334 
L 189.411521 153.265214 
L 180.320023 162.36625 
L 182.386878 149.709071 
L 176.570986 161.155973 
L 174.6 148.483708 
L 172.629014 161.155973 
L 166.813122 149.709071 
L 168.879977 162.36625 
L 159.788479 153.265214 
L 165.690856 164.668334 
L 154.21369 158.804037 
L 163.373823 167.836881 
L 150.634455 165.78336 
L 162.155687 171.561731 
L 149.401135 173.52 
L 162.155687 175.478269 
L 150.634455 181.25664 
L 163.373823 179.203119 
L 154.21369 188.235963 
L 165.690856 182.371666 
L 159.788479 193.774786 
L 168.879977 184.67375 
L 166.813122 197.330929 
L 172.629014 185.884027 
L 174.6 198.556292 
L 176.570986 185.884027 
L 182.386878 197.330929 
L 180.320023 184.67375 
L 189.411521 193.774786 
L 183.509144 182.371666 
L 194.98631 188.235963 
L 185.826177 179.203119 
L 198.565545 181.25664 
L 187.044313 175.478269 
L 199.798865 173.52 
L 199.798865 173.52 
" clip-path="url(#p62374f97a5)" style="fill: none; stroke: #ff8a00; stroke-width: 0.5; stroke-linejoin: miter"/>
   </g>
  </g>
 </g>
 <defs>
  <clipPath id="p62374f97a5">
   <rect x="7.2" y="7.2" width="334.8" height="332.64"/>
  </clipPath>
 </defs>
</svg>
