<?xml version="1.0" encoding="utf-8" standalone="no"?>
<!DOCTYPE svg PUBLIC "-//W3C//DTD SVG 1.1//EN"
  "http://www.w3.org/Graphics/SVG/1.1/DTD/svg11.dtd">
<svg xmlns:xlink="http://www.w3.org/1999/xlink" width="349.2pt" height="347.04pt" viewBox="0 0 349.2 347.04" xmlns="http://www.w3.org/2000/svg" version="1.1">
 <metadata>
  <rdf:RDF xmlns:dc="http://purl.org/dc/elements/1.1/" xmlns:cc="http://creativecommons.org/ns#" xmlns:rdf="http://www.w3.org/1999/02/22-rdf-syntax-ns#">
   <cc:Work>
    <dc:type rdf:resource="http://purl.org/dc/dcmitype/StillImage"/>
    <dc:date>2023-12-26T02:20:10.326603</dc:date>
    <dc:format>image/svg+xml</dc:format>
    <dc:creator>
     <cc:Agent>
      <dc:title>Matplotlib v3.7.2, https://matplotlib.org/</dc:title>
     </cc:Agent>
    </dc:creator>
   </cc:Work>
  </rdf:RDF>
 </metadata>
 <defs>
  <style type="text/css">*{stroke-linejoin: round; stroke-linecap: butt}</style>
 </defs>
 <g id="figure_1">
  <g id="patch_1">
   <path d="M 0 347.04 
L 349.2 347.04 
L 349.2 -0 
L 0 -0 
L 0 347.04 
z
" style="fill: none"/>
  </g>
  <g id="axes_1">
   <g id="patch_2">
    <path d="M 208.697778 173.52 
L 191.067962 169.135891 
L 204.129542 156.581104 
L 186.655385 161.542392 
L 191.648889 144.180971 
L 179.012577 157.158283 
L 174.6 139.642208 
L 170.187423 157.158283 
L 157.551111 144.180971 
L 162.544615 161.542392 
L 145.070458 156.581104 
L 158.132038 169.135891 
L 140.502222 173.52 
L 158.132038 177.904109 
L 145.070458 190.458896 
L 162.544615 185.497608 
L 157.551111 202.859029 
L 170.187423 189.881717 
L 174.6 207.397792 
L 179.012577 189.881717 
L 191.648889 202.859029 
L 186.655385 185.497608 
L 204.129542 190.458896 
L 191.067962 177.904109 
L 208.697778 173.52 
L 208.697778 173.52 
" clip-path="url(#pd8e68d7ee0)" style="fill: none; stroke: #ff009d; stroke-width: 0.3; stroke-linejoin: miter"/>
   </g>
  </g>
 </g>
 <defs>
  <clipPath id="pd8e68d7ee0">
   <rect x="7.2" y="7.2" width="334.8" height="332.64"/>
  </clipPath>
 </defs>
</svg>
